<?xml version="1.0" encoding="utf-8"?>
<!-- Generator: Adobe Illustrator 18.0.0, SVG Export Plug-In . SVG Version: 6.00 Build 0)  -->
<!DOCTYPE svg PUBLIC "-//W3C//DTD SVG 1.1//EN" "http://www.w3.org/Graphics/SVG/1.1/DTD/svg11.dtd">
<svg version="1.1" id="Layer_1" xmlns="http://www.w3.org/2000/svg" xmlns:xlink="http://www.w3.org/1999/xlink" x="0px" y="0px"
	 viewBox="0 0 100 37.6" enable-background="new 0 0 100 37.6" xml:space="preserve">
<g>
	<path fill="#FFFFFF" d="M17.2,24.5c1.2-0.2,2.4-0.4,3.7-0.4c2,0,4,0.3,5.7,0.9c1.7,0.5,3.6,0.8,5.5,0.8c2,0,3.9-0.3,5.6-0.8
		c1.7-0.5,3.7-0.9,5.7-0.9c2.1,0,4,0.3,5.7,0.9c1.7,0.5,3.6,0.8,5.6,0.8c2,0,3.9-0.3,5.6-0.8c1.7-0.5,3.7-0.9,5.7-0.9
		c2.1,0,4,0.3,5.7,0.9c1.7,0.5,3.6,0.8,5.6,0.8c2,0,3.9-0.3,5.6-0.8c1.7-0.5,3.7-0.9,5.7-0.9c1.7,0,3.4,0.2,4.9,0.6L100,13
		c0.2-0.4-0.1-0.7-0.8-0.7c-0.7,0-44.6-0.7-44.6-0.7l6-7L68,4.7V1.5L36.8,1.1l-9,10.1L3.3,10.7c-0.4,0-0.6,0.1-0.2,0.6
		c0.4,0.4,10.7,10.9,11.2,11.3C15,23.3,16,24,17.2,24.5z M38.6,4.3l14,0.3l-6.3,6.8l-13.8-0.2L38.6,4.3z M100,37.7
		c-2,0-3.9-0.3-5.6-0.8c-1.7-0.6-3.7-0.9-5.7-0.9c-2.1,0-4,0.3-5.7,0.9c-1.7,0.5-3.6,0.8-5.6,0.8c-2,0-3.9-0.3-5.6-0.8
		c-1.7-0.6-3.7-0.9-5.7-0.9c-2,0-4,0.3-5.7,0.9c-1.7,0.5-3.6,0.8-5.6,0.8c-2,0-3.9-0.3-5.6-0.8c-1.7-0.6-3.7-0.9-5.7-0.9
		c-2,0-4,0.3-5.7,0.9c-1.7,0.5-3.6,0.8-5.6,0.8c-2,0-3.9-0.3-5.5-0.8C24.9,36.3,23,36,20.9,36c-2,0-4,0.3-5.7,0.9
		c-1.7,0.5-3.6,0.8-5.6,0.8V32c2,0,3.9-0.3,5.6-0.8c1.8-0.5,3.7-0.9,5.7-0.9c2,0,4,0.3,5.7,0.9c1.7,0.5,3.6,0.8,5.5,0.8
		c2,0,3.9-0.3,5.6-0.8c1.7-0.5,3.7-0.9,5.7-0.9c2.1,0,4,0.3,5.7,0.9c1.7,0.5,3.6,0.8,5.6,0.8c2,0,3.9-0.3,5.6-0.8
		c1.7-0.5,3.7-0.9,5.7-0.9c2.1,0,4,0.3,5.7,0.9c1.7,0.5,3.6,0.8,5.6,0.8c2,0,3.9-0.3,5.6-0.8c1.7-0.5,3.7-0.9,5.7-0.9
		c2,0,4,0.3,5.7,0.9c1.7,0.5,3.6,0.8,5.6,0.8V37.7z"/>
</g>
</svg>
