<svg xmlns="http://www.w3.org/2000/svg" xmlns:xlink="http://www.w3.org/1999/xlink" version="1.1" x="0px" y="0px" viewBox="0 0 100 97.6" enable-background="new 0 0 100 97.6" xml:space="preserve"><path fill="#FFFFFF" d="M95 43.8"/><path fill="#FFFFFF" d="M99.6 20.2c0-2.9-2-5.2-4.6-6V0h-3.5v14.2c-2.6 0.8-4.6 3.1-4.6 6c0 2.9 2 5.2 4.6 6v11.3v3.1v3.3 c0 0-0.1 1.4-1.6 1.4c-1.7 0-1.6-1.4-1.6-1.4v-2.1c0 0-0.1-2.7-1.6-2.7c-1.6 0-1.6 2.7-1.6 2.7v2c0 0 0.1 5.1 4.8 5.1 c5 0 5.1-5.2 5.1-5.2v0v-3v-0.9V26.3C97.7 25.5 99.6 23.1 99.6 20.2z M93.2 23c-1.5 0-2.7-1.2-2.7-2.7c0-1.5 1.2-2.7 2.7-2.7 s2.7 1.2 2.7 2.7C96 21.7 94.7 23 93.2 23z"/><g><path fill="#FFFFFF" d="M58.7 66.6c2.2 0 3.9-1.9 3.9-4.3c0-2.4-1.7-4.3-3.9-4.3c-2.2 0-3.9 1.9-3.9 4.3 C54.8 64.6 56.6 66.6 58.7 66.6z M97.6 97.6C74.3 98 50.1 93.1 31.5 76.7l0 0c-0.1-0.1-0.2-0.3-0.2-0.5c0-0.4 0.3-0.7 0.6-0.7 l18.3 0c0.9 0 1.6-0.8 1.6-1.8c0-0.7-0.3-1.2-1-1.6l-16.6-8.7c-0.3-0.2-0.5-0.6-0.5-1c0-0.3 0.1-0.6 0.3-0.8l0 0 c0 0 20.2-19.6 63.5-19.1V97.6z"/><path fill="#FFFFFF" d="M88.7 0C74.4 0.2 60.3 6.9 44.6 21.1c-0.6-0.2-1.9-0.6-1.9-0.6c-2.5 0-4.5 2.2-4.5 5c0 0 0.2 0.9 0.3 1.5 C38 27.5 25.7 40.1 25.7 40.1L14.9 51.3c-1 1-2.3 1.5-3.7 1.5c-1.4-0.1-2.6-0.7-3.5-1.8c-0.9-1.1-1.3-2.4-1.3-3.8 c0-1.5 0.6-3.1 1.7-4.2c0 0 0.8-0.5 1.4-0.9c0.1 1 0.5 4.1 0.5 4.1l8.8-12.3L9 37.5c-2.6 1-3.6 2.4-3.7 2.5 c-3.6 3.5-3.8 9.8-0.6 13.8c3.3 4 9 4.3 12.6 0.7l0.1-0.1l10.3-10.7c0 0 12.7-13.1 13.1-13.6c0.6 0.2 1.8 0.5 1.8 0.5 c2.5 0 4.5-2.2 4.5-5c0 0-0.1-0.7-0.2-1.2C62.2 10.5 75.6 3.9 88.9 3.8c2.7 0 4.9 0.4 8.5 1.2l0.7 0.2V1.3l-0.5-0.1 C94 0.3 91.5 0 88.7 0z"/></g></svg>