<svg xmlns="http://www.w3.org/2000/svg" xmlns:xlink="http://www.w3.org/1999/xlink" version="1.1" x="0px" y="0px" width="41.4913957935px" height="100px" viewBox="0 0 217.632 523.06" enable-background="new 0 0 217.632 523.06" xml:space="preserve"><g><path style="fill:white;" d="M217.282 456.877c-1.201-19.18-8.489-36.604-15.535-53.454c-3.802-9.089-7.733-18.488-10.519-27.831l-1.4-4.698 l-1.229 0.052l-3.155-10.632V116.095h3.704v-12.602h-19.743v12.602h3.438v243.362l-3.441 12.126l2.799 0.044l-3.521 0.1 l-1.285 4.307c-2.786 9.34-6.717 18.736-10.517 27.823c-7.046 16.852-14.337 34.279-15.537 53.5 c-0.727 11.585-0.146 31.9 0.2 42.797l0.088 3.131c0.471 17.5 21.7 18.1 30.7 18.355l11.901 0.205l1.117-0.04 c9.343-0.319 31.218-1.065 31.698-19.01l0.088-3.131C217.428 488.8 218 468.5 217.3 456.877z M204.521 499.3 l-0.089 3.15c-0.146 5.37-9.953 6.429-19.529 6.756l-0.822 0.027l-9.374-0.134l-2.053-0.061c-10.992-0.301-18.339-1.449-18.464-6.1 l-0.089-3.149c-0.283-9.946-0.876-30.637-0.185-41.65c1.071-17.066 7.635-32.766 14.587-49.389c1.453-3.47 2.912-6.992 4.34-10.546 v88.981h12.601v-90.293c1.531 3.8 3.1 7.6 4.7 11.376c6.949 16.6 13.5 32.3 14.6 49.4 C205.397 468.7 204.8 489.4 204.5 499.314z"/><path style="fill:white;" d="M92.686 12.763C81.335 3.2 70.8 1.3 65.6 0.933c-3.168-0.914-5.642-0.975-7.005-0.901 c-2.608-0.169-8.956 0.147-16.583 6.163C27.256 17.9 8.4 51.1 2.8 143.118c-6.276 102.675-1.942 214.8 11.6 299.9 l1.201 11.302L1.643 486.698c-0.836 1.942-0.645 4.2 0.5 5.943c1.157 1.8 3.1 2.8 5.2 2.854l17.321 0.1 c2.067 8.6 3.7 13.5 6.1 20.938l2.061 6.283l32.283-0.115v0.361h41.418l1.438-4.307 c25.232-75.703 37.289-233.037 28.662-374.111C133.918 99 124 39.2 92.7 12.763z M38.093 434.018v49.048l-21.106-0.118 L38.093 434.018z M42.021 510.178c-1.669-5.102-2.911-9.066-4.302-14.511l6.64 0.037c0.011 0 0 0 0 0 c1.664 0 3.262-0.659 4.443-1.834c1.188-1.182 1.857-2.791 1.857-4.467v-85.896c0-2.988-2.1-5.567-5.025-6.171 c-2.926-0.603-5.875 0.931-7.062 3.675l-13.188 30.573c-12.254-83.018-16.013-189.646-10.02-287.698 C20.895 54 38.7 25.8 48.8 16.93c4.489-3.916 7.755-4.302 8.671-4.326l0.277 0.405l1.61-0.405 c0.162 0 4.337-0.315 10.3 4.791c10.482 9 28.9 37.5 34.3 126.334c8.352 136.606-2.852 289.263-26.676 366.3 L42.021 510.178z M97.479 510.459h-7.146c23.9-80.288 34.661-229.262 26.209-367.498c-2.142-35.055-7.411-77.044-19.798-106.585 c12.07 18.1 23.8 50.6 27.4 109.033C132.502 282.4 121.3 434.5 97.5 510.459z"/><path style="fill:white;" d="M60.381 31.15c-6.365 2.476-37.956 24.117-34.89 207.597c0.06 3.4 2.9 6.2 6.3 6.194c0.037 0 0.1 0 0.1 0 c3.477-0.059 6.25-2.927 6.194-6.406C35.151 62.7 65.1 42.9 65.4 42.676c-0.306 0.183-0.479 0.22-0.479 0.22L60.381 31.15z"/><path style="fill:white;" d="M31.795 270.355c-3.48 0-6.301 2.82-6.301 6.301c0 0.4 0 41.1 3.4 91.146c0.222 3.3 3 5.9 6.3 5.9 c0.143 0 0.283-0.005 0.426-0.015c3.473-0.231 6.099-3.234 5.867-6.704c-3.308-49.595-3.345-89.909-3.345-90.31 C38.095 273.2 35.3 270.4 31.8 270.355z"/></g></svg>