<svg xmlns="http://www.w3.org/2000/svg" xmlns:xlink="http://www.w3.org/1999/xlink" version="1.1" id="Layer_1" x="0px" y="0px" width="100px" height="100px" viewBox="0 0 100 100" enable-background="new 0 0 100 100" xml:space="preserve">
<path fill-rule="evenodd" clip-rule="evenodd" d="M48.449,81.305l10.893-22.282l-0.926-3.263l-6.188,6.407  c-1.939,1.721-4.82-1.219-2.925-3.116l10.76-12.333c1.177-0.837,1.705-1.131,2.908-1.762c1.354-0.632,1.648-0.632,2.914,0.513  l9.627,9.805c0.353,0.383,0.47,0.294,0.604,1.131v4.806c0,2.133-3.97,2.104-4-0.027v-3.75l-3.602-2.586l-1.307,3.57  c2.997,8.012,5.451,15.273,8.451,23.254c1.354,3.78-3.291,5.631-5.13,1.972l-7.495-19.919c-3.381,6.852-6.365,13.35-9.747,20.169  C51.36,87.421,46.597,84.703,48.449,81.305z"/>
<path d="M73.346,85.913c-1.271,0-2.392-0.78-3.075-2.141l-7.272-19.324c-1.525,3.103-2.992,6.174-4.412,9.15  c-1.618,3.389-3.291,6.893-5.042,10.423c-0.63,1.155-1.635,1.812-2.763,1.812c-1.056,0-2.089-0.591-2.632-1.505  c-0.563-0.949-0.547-2.071,0.047-3.161l10.838-22.172l-0.759-2.676l-5.841,6.048c-0.453,0.403-0.971,0.608-1.514,0.608c0,0,0,0,0,0  c-0.981,0-1.945-0.673-2.345-1.636c-0.367-0.885-0.176-1.793,0.523-2.492l10.747-12.319c1.231-0.885,1.766-1.185,2.991-1.827  c0.653-0.305,1.051-0.458,1.445-0.458c0.576,0,1.038,0.327,1.796,1.012l9.639,9.816c0.077,0.084,0.138,0.14,0.19,0.188  c0.27,0.251,0.383,0.411,0.492,1.099l0.004,4.852c0,1.287-1.17,1.873-2.257,1.873c-1.139,0-2.302-0.651-2.319-1.896v-3.606  l-3.174-2.278l-1.14,3.114c1.448,3.872,2.789,7.626,4.087,11.257c1.372,3.839,2.791,7.809,4.327,11.896  c0.426,1.188,0.33,2.308-0.267,3.155C75.138,85.469,74.272,85.912,73.346,85.913z M63.068,63.002l7.729,20.54  c0.57,1.131,1.503,1.795,2.548,1.795c0.739,0,1.429-0.353,1.844-0.942c0.486-0.69,0.557-1.623,0.197-2.626  c-1.536-4.088-2.956-8.06-4.329-11.901c-1.308-3.66-2.66-7.444-4.12-11.349l-0.037-0.1l1.474-4.026l4.029,2.894v3.897  c0.013,0.909,0.913,1.324,1.743,1.324c0.81,0,1.681-0.405,1.681-1.297v-4.806c-0.085-0.512-0.143-0.564-0.313-0.723  c-0.062-0.058-0.132-0.123-0.215-0.213l-9.62-9.798c-0.719-0.649-1.048-0.851-1.397-0.851c-0.285,0-0.638,0.14-1.189,0.397  c-1.188,0.623-1.711,0.917-2.863,1.736L49.52,59.24c-0.734,0.735-0.572,1.492-0.412,1.879c0.308,0.742,1.07,1.28,1.813,1.28  c0.406,0,0.781-0.15,1.116-0.448l6.521-6.751l1.093,3.85L48.708,81.432c-0.499,0.915-0.519,1.835-0.063,2.603  c0.441,0.743,1.28,1.224,2.137,1.224c0.924,0,1.724-0.534,2.252-1.502c1.743-3.517,3.415-7.019,5.032-10.405  c1.513-3.169,3.077-6.444,4.71-9.754L63.068,63.002z"/>
<path fill-rule="evenodd" clip-rule="evenodd" d="M60.4,36.532c2,0,3.646,1.647,3.646,3.632c0,1.998-1.646,3.63-3.646,3.63  c-1.984,0-3.63-1.632-3.63-3.63C56.771,38.18,58.416,36.532,60.4,36.532z"/>
<path d="M60.4,44.082c-2.16,0-3.918-1.758-3.918-3.918c0-2.162,1.758-3.92,3.918-3.92c2.169,0,3.934,1.758,3.934,3.92  C64.334,42.324,62.569,44.082,60.4,44.082z M60.4,36.82c-1.812,0-3.342,1.531-3.342,3.344c0,1.843,1.499,3.342,3.342,3.342  c1.852,0,3.357-1.499,3.357-3.342C63.758,38.32,62.252,36.82,60.4,36.82z"/>
<path fill-rule="evenodd" clip-rule="evenodd" d="M1.943,23.584c-0.765,4.63,1.984,11.892-0.397,16.976  c-0.088,6.042,1.16,11.54,0.677,17.858c-0.235,2.75-1,5.939-0.323,8.645c0.853,3.425,3.836,8.789,4.601,13.023  c2.616,1.586,1.529,7.659,4.277,9.835c1.72,0.22,5.689,0.307,5.689,1.704c1.293,0,9.819,0.044,9.819,1.354  c4.276,0,8.377,1.982,12.757,2.35c3.999,0.311,7.57,0.397,12.023-1.307c6.542,0.354,13.566-0.089,20.153-0.089l14.375-0.41  c1.442,0,2.617-0.544,4.864-1.941c1.179-1.176,2.883-1.984,4.412-3.425c0.822-1.852,2.791-3.16,2.983-5.498  c0.544-6.939,0.484-12.479-0.587-19.462L94.383,38.18c-0.54-5.866,0.223-12.891,0.764-18.758c0.224-3.32-1.482-7.525-2.306-10.493  c-0.264,0-2.515-3.426-3.688-3.925C84.152,5.681,76.04,6.678,72.924,6.18c-4.453-0.721-12.127-2.662-18.653-1.765  c-2.66,0.367-13.479,0.411-16.727,1.808L19.111,6.399c-4.41,0-9.143,1.266-12.7,3.425C3.972,14.206,2.575,19.879,1.943,23.584   M19.023,13.352c1.895-1.411,7.894-0.822,9.29-0.822c1.132,2.263,1.852,5.366,2.028,12.082l-0.044,8.746  c0.178,2.381,2.337,2.573,2.337,0l0.044-12.171c0-2.484,1-6.805,1.544-7.936c1.207-2.513,2.072-2.469,3.322-0.353  c1.588,2.528,2.22,8.289,2.22,10.142c0.264,1.837,2.16,1.662,2.073,0c0-2.617,1.484-10.099,3.909-12.126  c1.31-1.088,2.617-1.176,5.557-1.044c0.485,0.736,0.896,2.263,1.117,3.661c0.5,2.969,0.853,5.952,0.853,7.525  c0,2.072,2.176,2.47,2.176-0.087c0-2.265,0.265-5.865,0.396-6.63c0.234-1.265,0.413-3.294,1.677-3.924  c1.983-1.03,5.939-0.486,6.849,1.264c2.118,4.143,3.47,11.582,3.146,16.859c-0.131,2.924,2.439,2.66,2.439,0  c0-1.486,0.044-5.012,0.501-6.174c0.677-1.718,1.617-4.909,2.881-5.364c0.396-3.206,6.482-0.896,8.597-1.178  c2.442-0.263,4.425-1.792,6-3.056l1.674,14.008c0.177,1.529,0.266,4.733,0.809,6.086c0.088,3.792,0.543,10.098,0.81,12.76  l0.265,16.491l-0.531,13.567c0,1.027-0.819,6.629-2.114,6.629c0,1.293-3.792,3.469-5.102,3.469c0,2.645-8.202,1.309-9.776,1.309  l-19.194-0.236H38.807c-1.308,0-7.701,0.501-7.701-1.072c-3.47,0-3.97-8.393-4.367-11.01c-0.675-4.454-1.719-8.921-1.719-14.228  c0.175-1.896-1.897-2.397-1.897,0c0,5.04-2.116,8.731-4.233,13.022c-2.572-5.585-6.525-9.878-6.525-17.037  c0-0.853-0.324-4.645-0.235-7.216c0.044-1.397-1.837-1.485-1.837-0.178c0,0.721-0.912,6.676-1.133,7.66  c-0.22,1-0.808,3.704-1.352,4.278C6.367,57.419,6,49.351,6,45.618c0-4.015-0.545-9.336,1.043-12.76  c0.764-1.618,2.881-4.645,2.116-6.482c0.265-0.588,0.265-0.323,0-0.867c0.265-0.765,0-3.558,1.574-3.558  c0-0.499,3.336-2.837,3.837-2.837c0.852-1.896,0.939-3.792,1.748-3.792C16.318,14.117,18.171,13.661,19.023,13.352z"/>
</svg>