<svg xmlns="http://www.w3.org/2000/svg" xmlns:xlink="http://www.w3.org/1999/xlink" version="1.1" x="0px" y="0px" width="100px" height="100px" viewBox="0 0 100 100" enable-background="new 0 0 100 100" xml:space="preserve"><path style="fill:white;" fill-rule="evenodd" clip-rule="evenodd" d="M53.468 42.153c1.783 1.735-7.679 12.925-5.974 23 c5.054 6.3 9 3.2 9 29.263c-1.938 0.327-9.309-0.07-13.625 0c-1.484-14.874-3.058-35.171-2.364-52.222 C45.116 42.6 51.3 42.2 53.5 42.153z"/><path style="fill:white;" fill-rule="evenodd" clip-rule="evenodd" d="M4.012 34.419C8.218 20.3 25.9 7.1 47.6 6.7 c10.297-0.179 44 10.3 44 18.695C91.641 43.2 16.2 44.2 4 34.419z"/><path style="fill:white;" fill-rule="evenodd" clip-rule="evenodd" d="M88.198 53.679c-6.243 10.771-21.845 12.189-39.276 11.8 C47.925 41 78 36.4 88.2 53.679z"/><path style="fill:white;" fill-rule="evenodd" clip-rule="evenodd" d="M74.562 64.665c8.022 3.4 3.9 22.8 0.5 28.6 c-3.735 0-6.675 0-10.409 0c2.517-10.994 3.136-13.788 1.957-26.653C69.335 66.2 70.9 66.1 74.6 64.665z"/></svg>