<?xml version="1.0" encoding="utf-8"?>
<!-- Generator: Adobe Illustrator 18.0.0, SVG Export Plug-In . SVG Version: 6.00 Build 0)  -->
<!DOCTYPE svg PUBLIC "-//W3C//DTD SVG 1.1//EN" "http://www.w3.org/Graphics/SVG/1.1/DTD/svg11.dtd">
<svg version="1.1" id="Layer_1" xmlns="http://www.w3.org/2000/svg" xmlns:xlink="http://www.w3.org/1999/xlink" x="0px" y="0px"
	 viewBox="0 0 96.4 100" enable-background="new 0 0 96.4 100" xml:space="preserve">
<g>
	<path fill="#FFFFFF" d="M92.1,100c-2,0-3.9-0.5-5.7-1.2c-1.8-0.8-3.8-1.3-5.8-1.3c-2.1,0-4.1,0.5-5.8,1.3c-1.7,0.8-3.7,1.2-5.7,1.2
		c-2,0-4-0.5-5.7-1.2c-1.8-0.8-3.8-1.3-5.8-1.3c-2.1,0-4.1,0.5-5.8,1.3C50,99.5,48,100,46,100c-2,0-3.9-0.5-5.7-1.2
		c-1.8-0.8-3.8-1.3-5.8-1.3c-2.1,0-4.1,0.5-5.8,1.3C27,99.5,25,100,23,100c-2,0-3.9-0.5-5.7-1.2c-1.8-0.8-3.8-1.3-5.8-1.3
		c-2.1,0-4.1,0.5-5.8,1.3C3.9,99.5,2,100,0,100v-8.4c2,0,3.9-0.5,5.7-1.2c1.8-0.8,3.8-1.3,5.8-1.3c2.1,0,4.1,0.5,5.8,1.3
		c1.7,0.8,3.7,1.2,5.7,1.2c2,0,3.9-0.5,5.7-1.2c1.8-0.8,3.8-1.3,5.8-1.3c2.1,0,4.1,0.5,5.8,1.3c1.7,0.8,3.7,1.2,5.7,1.2
		c2,0,4-0.5,5.7-1.2c1.8-0.8,3.8-1.3,5.8-1.3c2.1,0,4.1,0.5,5.8,1.3c1.7,0.8,3.7,1.2,5.7,1.2c2,0,3.9-0.5,5.7-1.2
		c1.8-0.8,3.8-1.3,5.8-1.3c2.1,0,4.1,0.5,5.8,1.3c1.7,0.8,3.7,1.2,5.7,1.2V100z"/>
	<path fill="#FFFFFF" d="M34.4,76.3h-16c-2.4,0-4.4-1.4-5.3-3.4L7.2,59.6c-0.1-0.5-0.2-0.9-0.2-1.4c0-3.2,2.6-5.8,5.8-5.8l13,0
		l8.9-4c0.1-0.1,0.5-0.2,0.9-0.2c1.5,0,2.8,1.3,2.8,2.7c0,0.9-0.5,1.8-1.2,2.3l-9.7,4.3c-0.6,0.5-1.9,0.6-1.9,0.6h-5.8l4.9,10.8
		h10.8l0,0c1.1,0,1.8,0.4,2.5,0.9l10.6,9.9l0,0c1.5,1.4,1.6,3.7,0.2,5.1c-1.4,1.5-3.7,1.5-5.2,0.2l0,0L34.4,76.3z"/>
	<path fill="#FFFFFF" d="M84.1,58.2c0.2,0.3,0.7,0.5,1.2,0.5c0.9,0,1.6-0.7,1.6-1.6c0-0.4-0.2-0.8-0.4-1.2
		c-10-18.9-36.9-13.3-40.2-12c-0.6,0.2-0.9,0.8-0.9,1.4c0,0.9,0.7,1.6,1.6,1.6c0.3,0,0.4,0,0.7-0.1C74.1,40.9,82.7,55.8,84.1,58.2z
		 M88.7,59.9L54.9,81L24.2,3.2C51.7,6.8,86.7,28,88.7,59.9z"/>
	<path fill="#FFFFFF" d="M9.9,51.2c3.1,0,5.6-2.5,5.6-5.5c0-3-2.5-5.5-5.6-5.5c-3.1,0-5.6,2.5-5.6,5.5C4.3,48.8,6.8,51.2,9.9,51.2z"
		/>
</g>
</svg>
