<?xml version="1.0" encoding="utf-8"?>
<!-- Generator: Adobe Illustrator 18.1.1, SVG Export Plug-In . SVG Version: 6.00 Build 0)  -->
<svg version="1.1" id="Layer_1" xmlns="http://www.w3.org/2000/svg" xmlns:xlink="http://www.w3.org/1999/xlink" x="0px" y="0px"
	 viewBox="0 0 30 27.7" enable-background="new 0 0 30 27.7" xml:space="preserve">
<polygon fill="#FFFFFF" points="17.3,9.9 0,1.6 0,0 17.9,8.6 "/>
<path fill="#FFFFFF" d="M11.4,18.9H19v6.8c0,1.1,0.9,2,2,2l0,0c1.1,0,2-0.9,2-2v-6.8c0.6,0,0.7-0.4,0.7-0.9v-5l-6.3-3.1H3.9l-1.7-1
	C1.6,8.6,0.8,8.8,0.5,9.4l0,0C0.2,9.9,0.4,10.6,1,11l2.7,1.6v13.2c0,1.1,0.9,2,2,2l0,0c1.1,0,2-0.9,2-2l0-5.2l3.6,6.1
	c0.6,1,1.8,1.3,2.8,0.7l0,0c0.9-0.6,1.3-1.8,0.7-2.8L11.4,18.9z"/>
<polygon fill="#FFFFFF" points="17.9,8.5 23.6,11.3 23.6,10.2 28.3,10.2 30,6.5 17.9,0.8 "/>
</svg>
