<?xml version="1.0" encoding="utf-8"?>
<!-- Generator: Adobe Illustrator 16.0.0, SVG Export Plug-In . SVG Version: 6.00 Build 0)  -->
<!DOCTYPE svg PUBLIC "-//W3C//DTD SVG 1.1//EN" "http://www.w3.org/Graphics/SVG/1.1/DTD/svg11.dtd">
<svg version="1.1" id="Layer_1" xmlns="http://www.w3.org/2000/svg" xmlns:xlink="http://www.w3.org/1999/xlink" x="0px" y="0px"
	 width="96.383px" height="100px" viewBox="0 0 96.383 100" enable-background="new 0 0 96.383 100" xml:space="preserve">
<g>
	<path style="fill:white;" d="M73.727,3.301C70.559,1.884,65.642,0,59.538,0c-8.73,0-16.725,3.877-23.761,11.525
		c-4.634,4.359-8.136,9.571-10.408,15.49c-0.449,1.168,0.095,2.482,1.236,2.994c1.144,0.513,2.484,0.04,3.056-1.074
		c2.905-5.656,6.09-10.398,9.466-14.095c6.403-5.971,14.813-9.533,22.514-9.533c7.018,0,12.609,2.907,15.747,8.184
		c3.571,6.008,7.08,20.654-9.553,51.233c-0.477,0.876-0.351,1.956,0.315,2.698c0.457,0.509,1.099,0.781,1.753,0.781
		c0.302,0,0.606-0.059,0.896-0.178c22.275-9.18,25.589-23.857,25.582-31.789C96.371,22.529,86.814,8.666,73.727,3.301z"/>
	<path style="fill:white;" d="M43.445,81.949c-0.639,2.012-1.266,3.318-1.266,3.318c-1.026,2.548-3.923,3.781-6.471,2.755
		c-2.547-1.026-3.781-3.923-2.755-6.472c0.068-0.167,0.144-0.331,0.229-0.491c0,0,0.94-2.122,1.403-4.583
		c-2.656-1.52-5.397-3.006-8.107-4.412c-1.29,1.062-2.12,2.086-2.12,2.086c-1.729,2.134-4.861,2.464-6.996,0.736
		c-2.135-1.73-2.464-4.862-0.736-6.997c0,0,0.173-0.169,0.445-0.479c-5.872-2.745-10.378-4.54-11.186-4.446
		c-1.986,0.524-6.861,9.691-5.712,11.22c1.181,1.57,39.889,26.701,43.545,25.792c2.443-1.672,7.521-6.678,8.654-8.553
		C52.751,89.176,48.976,85.713,43.445,81.949z"/>
	<path style="fill:white;" d="M45.667,54.723c0.8,0,1.582-0.153,2.325-0.456c1.579-0.643,2.803-1.885,3.445-3.499
		c0.639-1.606,0.625-3.389-0.039-5.02c-1.032-2.536-3.413-4.174-6.063-4.174c-0.799,0-1.582,0.153-2.324,0.456
		c-1.579,0.642-2.802,1.885-3.445,3.499c-0.639,1.606-0.626,3.39,0.039,5.021C40.636,53.084,43.016,54.723,45.667,54.723z"/>
	<path style="fill:white;" d="M56.462,52.482c-0.982-0.56-2.236-0.216-2.802,0.768c-0.021,0.036-2.146,3.671-5.806,4.633
		c-2.13,0.561-4.458,0.105-6.915-1.352c-2.912-1.729-4.668-3.801-5.22-6.159c-0.803-3.431,1.167-6.523,1.181-6.544
		c0.628-0.946,0.371-2.223-0.576-2.851c-0.947-0.627-2.223-0.371-2.85,0.576c-0.121,0.182-2.954,4.527-1.773,9.696
		c0.614,2.688,2.169,5.052,4.622,7.062l-2.86,4.59c-7.68-1.548-14.277,6.457-14.582,6.832c-0.714,0.884-0.578,2.178,0.305,2.893
		c0.883,0.714,2.177,0.576,2.892-0.304c0.062-0.077,6.243-7.6,12.013-4.913c7.019,3.276,1.817,15.026,1.735,15.208
		c-0.471,1.032-0.015,2.252,1.018,2.723c0.277,0.127,0.566,0.187,0.852,0.187c0.781,0,1.527-0.447,1.872-1.204
		c1.937-4.247,3.822-12.132,0.336-17.242l2.999-5.271c1.047,0.277,2.086,0.426,3.114,0.426c0.987,0,1.963-0.129,2.926-0.387
		c5.342-1.427,8.177-6.362,8.295-6.571C57.795,54.29,57.446,53.042,56.462,52.482z"/>
</g>
</svg>
