<svg xmlns="http://www.w3.org/2000/svg" xmlns:xlink="http://www.w3.org/1999/xlink" version="1.1" x="0px" y="0px" viewBox="0 0 100 100" enable-background="new 0 0 100 100" xml:space="preserve"><g><rect x="20.3" y="2.7" fill="#FFFFFF" width="19.4" height="13.5"/><path fill="#FFFFFF" d="M61.5 60.7c-1.8 0-3.3-1.4-3.3-3.2V20.3h29.3l12.3 50.7l-0.1 3.3v22.4c0 1.7-1.4 3.1-3.2 3.1H68 c-1.8 0-3.2-1.4-3.2-3.1v-36h-3.1"/><path fill="#FFFFFF" d="M36.2 60.8c1.8 0 3.3-1.4 3.3-3.2V20.4H10.3L-2 71.1l0.1 3.3v22.4c0 1.7 1.4 3.1 3.2 3.1h28.4 c1.8 0 3.3-1.4 3.3-3.1v-36h3"/><rect x="43.8" y="20.4" fill="#FFFFFF" width="10" height="34.5"/><rect x="58.2" y="2.7" fill="#FFFFFF" width="19.4" height="13.5"/></g></svg>