<svg xmlns="http://www.w3.org/2000/svg" xmlns:xlink="http://www.w3.org/1999/xlink" version="1.1" x="0px" y="0px" viewBox="0 0 20.8 35.6" enable-background="new 0 0 20.8 35.6" xml:space="preserve"><g><circle fill="#FFFFFF" cx="13.5" cy="7" r="2.7"/><path fill="#FFFFFF" d="M20.8 33.1l-4-12v-9.6c0-1.3-1.3-1.2-1.3-1.2h-4h-1.1c0 0-0.2 0-0.7 0.3l-3 1.7L3.7 9.2 c-0.5-0.6-1.4-0.7-2-0.2c-0.6 0.5-0.6 1.4-0.1 2l4 4c0.3 0.3 0.6 0.5 1.1 0.5c0.3 0 0.6-0.1 0.8-0.3l2.6-1.4v7l-4 12.2 c-0.3 1.1 0.3 2.2 1.4 2.4c1.1 0.3 2.2-0.3 2.4-1.4l3.5-10.5l3.5 10.5c0.3 1.1 1.4 1.7 2.4 1.4C20.4 35.2 21.1 34.2 20.8 33.1z"/><g><path fill="#FFFFFF" d="M0.9 12.4c0.1 0.1 0.4 0.1 0.5 0l0 0c0.1-0.1 0.1-0.4 0-0.5l-0.8-0.8c-0.1-0.1-0.4-0.1-0.5 0l0 0 c-0.1 0.1-0.1 0.4 0 0.5L0.9 12.4z"/></g><path fill="#FFFFFF" d="M8.3 3.4L3.7 8.4L4.3 9l5.1-4.4l3.4-3.1C12.9 1.3 13 1.1 13 0.9C13 0.4 12.6 0 12.1 0 c-0.2 0-0.4 0.1-0.6 0.2L8.3 3.4z"/></g></svg>