<?xml version="1.0" encoding="utf-8"?>
<!-- Generator: Adobe Illustrator 18.0.0, SVG Export Plug-In . SVG Version: 6.00 Build 0)  -->
<!DOCTYPE svg PUBLIC "-//W3C//DTD SVG 1.1//EN" "http://www.w3.org/Graphics/SVG/1.1/DTD/svg11.dtd">
<svg version="1.1" id="Layer_1" xmlns="http://www.w3.org/2000/svg" xmlns:xlink="http://www.w3.org/1999/xlink" x="0px" y="0px"
	 viewBox="0 0 28.4 27.6" enable-background="new 0 0 28.4 27.6" xml:space="preserve">
<g>
	<path fill="#FFFFFF" d="M3.2,17.5c1.8,0,3.2-1.4,3.2-3.2C6.4,12.5,5,11,3.2,11C1.4,11,0,12.5,0,14.3C0,16,1.4,17.5,3.2,17.5z"/>
	<g>
		<path fill="#FFFFFF" d="M21.2,23c0.1-0.1,0.3-0.1,0.5,0.1l0.6,0.8c0.1,0.1,0.1,0.3-0.1,0.5l-4.4,3.2c-0.1,0.1-0.3,0.1-0.5-0.1
			l-0.6-0.8c-0.1-0.1-0.1-0.3,0.1-0.5L21.2,23z"/>
	</g>
	<polygon fill="#FFFFFF" points="16.3,18.9 14.6,15.9 13.7,16.5 15.4,19.6 	"/>
	<polygon fill="#FFFFFF" points="12.3,11.8 5.5,0 4.2,0 11.3,12.5 	"/>
	<path fill="#FFFFFF" d="M18.6,18.1c0.4-0.3,0.8-0.5,1.3-0.5l6.3,0c1.2,0,2.2,1,2.2,2.2c0,1.2-1,2.2-2.2,2.2l-5.2,0l-6.7,4.7
		c-2.3,1.7-3.8-0.2-3.8-0.2l-5.2-5.2c-0.9-1.1-0.7-3.1,0.4-3.9l7.2-5.2c0.7-0.6,1.8-0.5,2.4,0.2c0.6,0.7,0.5,1.8-0.2,2.4l-4.6,3.4
		l3.3,3.3L18.6,18.1z"/>
</g>
</svg>
