<svg xmlns="http://www.w3.org/2000/svg" xmlns:xlink="http://www.w3.org/1999/xlink" version="1.1" x="0px" y="0px" viewBox="0 0 100 100" enable-background="new 0 0 100 100" xml:space="preserve"><g><path fill="#FFFFFF" d="M86.1 62.6c-2.2 0-4.3 0.5-6.2 1.4c-1.8 0.8-3.9 1.3-6 1.3c-2.1 0-4.2-0.5-6-1.3c-1.9-0.9-4-1.4-6.2-1.4 c-2.2 0-4.3 0.5-6.2 1.4c-1.8 0.8-3.9 1.3-6 1.3c-2.1 0-4.2-0.5-6-1.3c-1.9-0.9-4-1.4-6.2-1.4c-2.2 0-4.3 0.5-6.2 1.4 c-1.8 0.8-3.9 1.3-6 1.3c-2.1 0-4.2-0.5-6-1.3c-1.9-0.9-4-1.4-6.2-1.4c-2.2 0-4.3 0.5-6.2 1.4c-1.8 0.8-3.9 1.3-6 1.3v8.9 c2.1 0 4.2-0.5 6-1.3c1.9-0.9 4-1.4 6.2-1.4c2.2 0 4.3 0.5 6.2 1.4c1.5 0.7 3.3 1.1 5 1.2l-7.5 7.4c-2.4-1.5-5.5-1.2-7.6 0.8 l-8.6 8.5c-2.4 2.4-2.4 6.2 0 8.6c2.4 2.4 6.2 2.4 8.6 0l8.6-8.5c1.9-1.9 2.3-4.8 1.1-7.1l10.3-10.2c0.7-0.2 1.4-0.4 2-0.7 c1.9-0.9 4-1.4 6.2-1.4c2.2 0 4.3 0.5 6.2 1.4c1.8 0.8 3.9 1.3 6 1.3c2.1 0 4.2-0.5 6-1.3c1.9-0.9 4-1.4 6.2-1.4 c2.2 0 4.3 0.5 6.2 1.4c1.8 0.8 3.9 1.3 6 1.3c2.1 0 4.2-0.5 6-1.3c1.9-0.9 4-1.4 6.2-1.4c2.2 0 4.3 0.5 6.2 1.4 c1.8 0.8 3.9 1.3 6 1.3v-8.9c-2.1 0-4.2-0.5-6-1.3C90.4 63.1 88.3 62.6 86.1 62.6z"/><path fill="#FFFFFF" d="M90.2 18.8l8.6-8.5c2.4-2.4 2.4-6.2 0-8.6c-2.4-2.4-6.3-2.4-8.6 0l-8.6 8.5c-2.1 2.1-2.3 5.2-0.8 7.5 L70.1 28.3L49 20.5c-0.6-0.3-1.1-0.6-1.8-0.8c-4.6-1.4-9.5 1.2-10.9 5.8l-6.5 21.7c-0.1 0.3-0.1 0.5-0.1 0.7H0.9v11.6 c1.6 0 3.2-0.4 4.6-1c2.4-1.1 5-1.7 7.5-1.7c2.6 0 5.2 0.6 7.5 1.6c1.5 0.7 3.1 1 4.7 1c1.6 0 3.2-0.3 4.6-1c2.4-1.1 5-1.7 7.5-1.7 c2.6 0 5.1 0.6 7.5 1.6c1.5 0.7 3.1 1 4.7 1c1.6 0 3.2-0.3 4.7-1c2.3-1.1 5-1.7 7.5-1.7c2.6 0 5.1 0.6 7.5 1.6c1.5 0.7 3.1 1 4.7 1 c1.6 0 3.2-0.3 4.6-1c2.4-1.1 5-1.7 7.5-1.7c0.4 0 2.2 0.1 4-1c3.1-1.4 4.3-2.1 7-3.8c2.2-1.4 4.1-4.3-0.8-4.2 c-1.3 0-41.4 0-41.4 0l12.2-12.2l1.6 0.6c2.1 0.7 4.4-0.3 5.2-2.4c0.5-1.5 0.1-3.1-0.9-4.1l10-10C85.4 21 88.3 20.7 90.2 18.8z M50.5 47.9h-2.6l5.2-17.4l10.8 4L50.5 47.9z"/><path fill="#FFFFFF" d="M50.4 9.1l-1.1 2.4C48.5 13 47 14 45.3 14h-2.6c1.5 2.1 4 3.5 6.8 3.5c4.6 0 8.3-3.7 8.3-8.2V8.9h-7 C50.6 8.9 50.4 9 50.4 9.1z"/><path fill="#FFFFFF" d="M45.3 11.9c0.9 0 1.7-0.5 2.1-1.3l1.1-2.4c0.4-0.9 1.3-1.5 2.3-1.5h8.5c-1.1-4.4-5.1-7.6-9.8-7.6 c-5.6 0-10.1 4.5-10.1 10.1c0 0.9 0.1 1.8 0.3 2.6H45.3z"/></g></svg>