<svg xmlns="http://www.w3.org/2000/svg" xmlns:xlink="http://www.w3.org/1999/xlink" version="1.1" id="Layer_8" x="0px" y="0px" width="100px" height="100px" viewBox="0 0 100 100" enable-background="new 0 0 100 100" xml:space="preserve">
<path style="fill:white;" d="M39.453,21.572l2.025-6.233l2.025,6.233h6.553l-5.302,3.852l2.025,6.232l-5.301-3.852l-5.302,3.852l2.025-6.232  l-5.302-3.852H39.453z M35.396,57.862l-5.302-3.852l-5.302,3.852l2.025-6.233l-5.302-3.852h6.553l2.025-6.232l2.025,6.232h6.554  l-5.302,3.852L35.396,57.862z M54.835,84.661l-5.302-3.852l-5.302,3.852l2.025-6.232l-5.302-3.853h6.554l2.025-6.232l2.025,6.232  h6.553l-5.301,3.853L54.835,84.661z M75.208,43.798l-5.303-3.852l-5.301,3.852l2.024-6.233l-5.302-3.852h6.553l2.025-6.233  l2.025,6.233h6.554l-5.302,3.852L75.208,43.798z"/>
</svg>
