<?xml version="1.0" encoding="utf-8"?>
<!-- Generator: Adobe Illustrator 18.0.0, SVG Export Plug-In . SVG Version: 6.00 Build 0)  -->
<!DOCTYPE svg PUBLIC "-//W3C//DTD SVG 1.1//EN" "http://www.w3.org/Graphics/SVG/1.1/DTD/svg11.dtd">
<svg version="1.1" id="Layer_1" xmlns="http://www.w3.org/2000/svg" xmlns:xlink="http://www.w3.org/1999/xlink" x="0px" y="0px"
	 viewBox="0 0 100 100" enable-background="new 0 0 100 100" xml:space="preserve">
<g>
	<path fill="#FFFFFF" d="M46.7,17c5.1-0.1,9.2-3.8,9-8.2c-0.1-4.5-4.4-7.9-9.5-7.8c-5.1,0.1-9.1,3.8-9,8.2
		C37.3,13.6,41.5,17.1,46.7,17z"/>
	<path fill="#FFFFFF" d="M78.1,43.6l-13.6-6.4L53.3,22c-1.8-1.9-4.6-3.4-7.8-3.3c-2.4,0.1-4.6,1-6.2,2.3l-17,14.6
		c-0.6,0.5-0.9,1.1-1.1,1.9L19,53.6c0,0.2,0,0.3,0,0.5c0.1,2,2,3.5,4.3,3.5c2.2,0,3.8-1.6,4.1-3.4l1.8-13.8l5.9-5.1L29.8,74L20,92.3
		c-0.3,0.6-0.6,1.5-0.6,2.4c0.1,3,3,5.4,6.4,5.3c2.5-0.1,4.5-1.3,5.5-3.1l10.5-19.7c0.2-0.5,0.9-1.8,1-2.4l1.2-9.5l10.8,31.1
		c0.9,2.2,3.3,3.8,6.1,3.7c3.5-0.1,6.2-2.5,6.1-5.5c0-0.4-0.1-0.6-0.2-1.1L52,50.3l1.9-14l4.2,5.7c0.3,0.4,0.7,0.7,1.2,1l14.8,7
		c0.7,0.2,1.3,0.4,1.9,0.4c2.3-0.1,4.2-1.7,4.1-3.7C80.1,45.3,79.3,44.2,78.1,43.6z"/>
</g>
</svg>
