<?xml version="1.0" encoding="utf-8"?>
<!-- Generator: Adobe Illustrator 18.0.0, SVG Export Plug-In . SVG Version: 6.00 Build 0)  -->
<!DOCTYPE svg PUBLIC "-//W3C//DTD SVG 1.1//EN" "http://www.w3.org/Graphics/SVG/1.1/DTD/svg11.dtd">
<svg version="1.1" id="Layer_1" xmlns="http://www.w3.org/2000/svg" xmlns:xlink="http://www.w3.org/1999/xlink" x="0px" y="0px"
	 viewBox="0 0 100 100" enable-background="new 0 0 100 100" xml:space="preserve">
<path fill="#FFFFFF" d="M46.1,50.9h0.9l-0.2,0.9c-0.1,0.5,0.2,0.9,0.7,1c0.5,0.1,0.9-0.2,1-0.7l0.3-1.3h1.5c0.2,0,0.3-0.1,0.3-0.3
	v-1.8c0-0.2-0.1-0.3-0.3-0.3h-4.1c-0.2,0-0.3,0.1-0.3,0.3v1.8C45.8,50.8,45.9,50.9,46.1,50.9z"/>
<g>
	<path fill="#FFFFFF" d="M19.8,93.1c9.1,0,16.5-8.3,16.5-18.7c0-10.3-7.4-18.6-16.5-18.6c-9.1,0-16.5,8.4-16.5,18.6
		C3.3,84.7,10.7,93.1,19.8,93.1z M-0.5,74.4c0-12.6,9.1-22.8,20.3-22.8c11.2,0,20.3,10.2,20.3,22.8c0,12.6-9.1,22.9-20.3,22.9
		C8.6,97.3-0.5,87.1-0.5,74.4z"/>
	<path fill="#FFFFFF" d="M79.4,93.3c9.1,0,16.5-8.3,16.5-18.6c0-10.3-7.4-18.6-16.5-18.6c-9.1,0-16.5,8.3-16.5,18.6
		C62.9,84.9,70.3,93.3,79.4,93.3z M59.2,74.6c0-12.6,9.1-22.9,20.3-22.9c11.2,0,20.3,10.2,20.3,22.9c0,12.6-9.1,22.9-20.3,22.9
		C68.3,97.5,59.2,87.3,59.2,74.6z"/>
	<path fill="#FFFFFF" d="M59.2,18.8c4.2,0,7.6-3.8,7.6-8.6c0-4.7-3.4-8.6-7.6-8.6c-4.2,0-7.6,3.9-7.6,8.6C51.6,15,55,18.8,59.2,18.8
		z"/>
	<path fill="#FFFFFF" d="M59.5,39.7c-1.1,0-2.3-0.6-3.2-2.2l-5-8.7L41.2,40.2l9.5,5.6c3.9,2.1,3.3,6,3.3,6V76c0,2.7-2,5-4.4,5
		c-2.4,0-4.4-2.2-4.4-5V56.6L28.8,46.3c-2-1.2-3.3-3.6-3.3-6.3c0-1.9,0.6-3.6,1.6-4.8L43.2,17c2-2.5,4.8-2.1,4.8-2.1
		c3.4,0,5.2,3.3,5.2,3.3L61.6,33l12.7,0c4.6,0,4.6,6.7,0,6.7H59.5z"/>
</g>
</svg>
