<svg xmlns="http://www.w3.org/2000/svg" xmlns:xlink="http://www.w3.org/1999/xlink" version="1.1" x="0px" y="0px" viewBox="0 0 100 71.3" enable-background="new 0 0 100 71.3" xml:space="preserve"><g><g><path fill="#FFFFFF" d="M79.3 17.9V6.3h-1.1c-3.4 0-6.1 2.6-6.1 5.8c0 3.2 2.7 5.8 6.1 5.8H79.3z"/></g><path fill="#FFFFFF" d="M70.2 15.2L64.9 5.1c-1.2-2.1-3.5-3.5-6.1-3.5H46.4c-1.2 0-2.1 0.9-2.1 2c0 1.1 0.9 2 2.1 2l12.3 0 c1 0 2.1 0.7 2.5 1.6l3.4 6.4L70.2 15.2z"/><path fill="#FFFFFF" d="M94.6 26c1.6 0.4 2.8 1.9 2.8 3.5l-9 0c-11.8 0-21.4 9.1-21.4 20.4H37.9c0-9-6.2-16.7-14.7-19.4l-16.1-5 l2.7-3.9c0.9-1.4 2.6-2.3 4.4-2.3c0.4 0 0.8 0 1.2 0.1l35.8 10.6c0.4 0.1 0.9 0.2 1.4 0.2c1.6 0 3-0.8 3.9-2l8.1-11.2L94.6 26z"/><path fill="#FFFFFF" d="M70.6 53.5c0-7.7 6.5-13.9 14.6-13.9c8 0 14.6 6.2 14.6 13.9c0 7.7-6.5 13.9-14.6 13.9 C77.2 67.4 70.6 61.2 70.6 53.5z M85.2 58.7c3 0 5.5-2.3 5.5-5.2c0-2.9-2.4-5.2-5.5-5.2c-3 0-5.4 2.3-5.4 5.2 C79.8 56.4 82.2 58.7 85.2 58.7z"/><path fill="#FFFFFF" d="M2 52c0-8.4 7.2-15.3 16-15.3c8.9 0 16 6.9 16 15.3c0 8.4-7.2 15.3-16 15.3C9.2 67.3 2 60.5 2 52z M18.1 57.8c3.3 0 6-2.6 6-5.7c0-3.2-2.7-5.7-6-5.7c-3.3 0-6 2.6-6 5.7C12.1 55.2 14.7 57.8 18.1 57.8z"/></g></svg>