<?xml version="1.0" encoding="utf-8"?>
<!-- Generator: Adobe Illustrator 18.0.0, SVG Export Plug-In . SVG Version: 6.00 Build 0)  -->
<!DOCTYPE svg PUBLIC "-//W3C//DTD SVG 1.1//EN" "http://www.w3.org/Graphics/SVG/1.1/DTD/svg11.dtd">
<svg version="1.1" id="Layer_1" xmlns="http://www.w3.org/2000/svg" xmlns:xlink="http://www.w3.org/1999/xlink" x="0px" y="0px"
	 viewBox="0 0 100 100" enable-background="new 0 0 100 100" xml:space="preserve">
<g id="Captions">
</g>
<g>
	<path fill="#FFFFFF" d="M38.6,15c3.8,0,6.9-3.1,6.9-6.8c0-3.8-3.1-6.9-6.9-6.9c-3.8,0-6.9,3.1-6.9,6.9C31.7,12,34.8,15,38.6,15z"/>
	<path fill="#FFFFFF" d="M89.9,34.8l-7.3-1.4l-4.2,8.4c0.7,0.2,1.4,0.2,2.1,0.2C85,42,88.8,38.9,89.9,34.8z M0,48.9
		c0-5.6,4.5-10.1,10.1-10.1h21.4V23.6c0-3.8,3.1-6.9,6.9-6.9c3.8,0,6.9,3.1,6.9,6.9V26l10.2,2.6c1.8,0.4,2.9,2.2,2.5,3.9
		c-0.4,1.8-2.2,2.9-4,2.5l-8.7-2v5.9h10.3L83.7,10l-0.8,7.5l13.8,9.1c2.3,1.3,3.1,4.2,1.8,6.5c-1,1.8-3.1,2.7-5,2.3l-1.1-0.2
		c-1.3,5.3-6.2,9.3-12,9.3c-1.1,0-2.3-0.2-3.3-0.4L66.7,65.3v29.1c0,2.5-2.1,4.5-4.6,4.5c-2.5,0-4.6-2-4.6-4.5V64.7H34.4l-4.1,7
		l8.6,20.5c1.3,2.2,0.5,4.9-1.7,6.2c-2.2,1.2-5,0.5-6.3-1.7L20.9,73v-7.5l-4.5,7v21.9c0,2.5-2,4.5-4.6,4.5c-2.5,0-4.6-2-4.6-4.5
		V69.1l3.8-5.9V43.4l-3.8,5.7v16.5H0V48.9z"/>
</g>
</svg>
