<svg xmlns="http://www.w3.org/2000/svg" xmlns:xlink="http://www.w3.org/1999/xlink" version="1.1" id="Your_Icon" x="0px" y="0px" width="100px" height="100px" viewBox="0 0 100 100" enable-background="new 0 0 100 100" xml:space="preserve">
<g>
	<g>
		<path style="fill:white;" fill-rule="evenodd" clip-rule="evenodd" d="M95.806,45.385c-3.46,1.464-5.058,2.929-6.923,7.453    c-0.599,0.6-1.196,1.198-1.196,1.198s-0.532-1.132-1.332-0.932c-0.798,0.2-1.93,1.464-2.13,1.864    c-0.199,0.399,0.267,1.065,0.267,1.065l-6.523,4.791c0,0-1.729-0.599-3.858,0c-2.131,0.598-4.394,2.264-4.394,2.264v1.73    c0,0-3.395-5.925-4.658-7.988c-1.267-2.063-3.596-2.929-6.656-3.327c-3.062-0.399-6.123,0.798-6.123,0.798l9.981,13.311    c0,0,0.068-0.864,0.534-2.395c0.466-1.531,0.665-2.93,0.665-2.93l0.667,0.135c0,0,1.463,2.463,1.862,3.192    c0.4,0.733,0.665,1,0,1.599s-1.995,1.73-1.995,1.73s-0.439-0.43-2.132-0.266C60.517,66.762,47.752,49.11,47.752,49.11    s0.657-0.844-0.399-1.862s-1.864-0.666-1.864-0.666l-2.663-3.328c0,0,0.304-0.631,1.332-0.666    c1.026-0.035,5.786-0.719,7.187-0.931c1.402-0.213,2.002-1.228,1.598-2.662s-3.398-8.66-4.26-10.25    c-0.861-1.591-2.395-2.796-2.395-2.796l3.46-4.126c0,0,4.62-1.127,7.587-3.728c2.968-2.599,3.637-4.053,3.062-5.058    c-0.576-1.004-3.438-3.775-4.792-3.861c-0.916-0.058-3.592,2.486-4.925,4.925c-1.333,2.439-1.998,6.656-1.998,6.656l-3.727,3.993    c0,0-1.345-1.375-2.396-0.666c-1.052,0.711-1.206,2.245-1.198,2.795c0.008,0.551,0.666,1.065,0.666,1.065L21.396,50.576    c0,0-1.087-1.448-1.864-0.4c-0.777,1.049-2,1.793-0.799,3.328c-0.88,1.258-0.133,1.465-0.133,1.465l1.065,0.132l0.533-0.666    l1.464,0.934c0,0,3.537,0.275,7.72,2.261c4.183,1.987,12.113,5.46,12.113,5.46s-1.044-4.554-0.932-9.318    c0.113-4.767,0.533-10.249,0.533-10.249s0.206,0.211,0.932,1.063c0.869,1.021,2.263,2.663,2.263,2.663s-1.662,6.985-1.598,10.647    c0.064,3.665,0.033,5.495,2.129,4.926c2.098-0.568,6.656-2.794,6.656-2.794l0.532,0.398c0,0-0.923,6.12-1.064,6.921    c0.62,0.94,2.662,1.598,2.662,1.598l9.185,3.328c0,0,0.74,1.05,0.133,1.064c-2.547-0.68-11.036-3.724-20.632-8.65    c-9.596-4.931-21.569-11.147-32.613-7.589C-1.362,60.657,1.054,70.675,7.019,75.6c0,0,3.129-1.33,9.851-1.33    c6.723,0,17.505,2.529,30.35,5.989c12.845,3.462,20.965,5.126,23.161,5.325c0.134,0.865,0.399,1.464,0.399,1.464    s-15.573-3.129-27.554-6.39c-11.979-3.261-21.896-5.324-30.349-4.393C4.424,77.198,2.295,79.461,1.43,80.392    c2.795-1.465,7.853-3.86,18.769-2.528c10.915,1.331,24.025,5.059,41.663,9.053c17.637,3.992,21.225,2.489,23.695,1.995    c1.331-0.266,1.997-1.065,1.997-1.065s-2.663,0.932-6.258,0.667c-0.997-2.263-3.527-5.193-7.853-6.922    c-4.326-1.731-3.261-1.731-4.26-3.194c-0.998-1.466-4.792-6.522-4.792-6.522s1.265-0.6,2.929-1.599    c1.664-0.998,2.529-1.729,2.529-1.729l0.665,5.059c0,0,6.123,0.999,9.849,0.266c0.067-3.86,0.268-8.12,0.268-8.12    s4.525,1.597,5.99,1.862c1.463,0.268,2.33-0.53,2.262-2.128c-0.065-1.599-0.065-6.988-0.133-8.12    c-0.066-1.131-0.666-2.13-0.666-2.13l1.599-0.933c0,0,2.928-0.2,5.191-1.197C97.138,52.106,99,50.176,99,50.176    S98.534,47.048,95.806,45.385z M28.185,54.435c-0.549-0.089-3.657-0.407-4.393-0.664c-0.735-0.258-0.666-1.066-0.666-1.066    l0.133-1.862c0,0,2.521-2.946,2.929-3.194c0.406-0.25,0.532,0.265,0.532,0.265s1.308,3.696,1.597,4.926    C28.606,54.067,28.734,54.525,28.185,54.435z M39.366,37.531c-1.95,0.168-3.839,0.864-5.99,2.528l9.184-10.383    c0,0,0.986,0.118,1.598-0.266c0.611-0.383,1.464-0.4,1.464-0.4s1.377,4.763,1.996,6.656c0.62,1.894,1.046,2.414,0,2.396    C46.573,38.045,41.316,37.364,39.366,37.531z M45.889,58.029c0,0-0.188-4.167-0.134-5.589c0.056-1.424,0.595-2.41,1.096-1.822    c0.664,0.781,3.297,4.482,3.297,4.482S46.86,57.96,45.889,58.029z M86.888,58.029c-0.218,0.686-0.362,3.498-0.533,4.659    c-0.171,1.16-0.017,1.444-1.064,1.197c-1.049-0.244-5.725-2.661-5.725-2.661l5.458-3.994l1.598-0.133    C86.621,57.098,87.104,57.343,86.888,58.029z M91.279,73.87c-3.505-1.147-7.175,0.66-13.177,1.197    c-6.002,0.538-11.05-1.197-11.05-1.197s1.512,2.049,2.397,3.595c0.885,1.545,1.264,1.782,2.129,2.395    c4.542,1.584,7.391,3.965,8.784,6.523c8.958-0.843,12.549-2.559,14.112-5.191C96.037,78.556,94.786,75.017,91.279,73.87z     M29.916,39.927l3.461-3.594c0,0,0.784-3.484-1.731-5.058c-2.664-1.667-5.428-0.421-6.523,1.198    c-1.095,1.619-1.359,4.528,0.267,5.989C27.705,40.542,29.916,39.927,29.916,39.927z M54.808,47.78    c-0.069,2.427,1.338,4.761,4.259,4.66c2.92-0.104,4.225-2.118,4.393-4.261c0.169-2.143-1.693-4.377-4.393-4.526    C56.368,43.505,54.87,45.606,54.808,47.78z M73.576,60.159c2.028-0.013,4.145-1.373,4.126-3.727s-1.855-4.376-3.992-4.392    c-2.14-0.018-4.244,1.68-4.26,4.126C69.434,58.611,71.547,60.172,73.576,60.159z"/>
	</g>
</g>
</svg>
