<svg xmlns="http://www.w3.org/2000/svg" xmlns:xlink="http://www.w3.org/1999/xlink" version="1.1" x="0px" y="0px" viewBox="0 0 100 92.3" enable-background="new 0 0 100 92.3" xml:space="preserve"><g><path fill="#FFFFFF" d="M46.3 89.8V77.9l-7.7 3.7l-4-1.9v-4.2l11.5-5.6v-7.8l-8.3 4.6v-8.3l-8 3.9v11.2l-4.4 2.3l-3.7-2.1v-7.5 L9.7 72.1l-5.2-1.9v-4.7l12.7-6l-7.9-3.4v-4.4l4.5-2.1l11.4 5.8l7.9-3.9l-0.2-0.1l-8.1-4l7.9-4.2l-7.9-3.9L13.4 45l-4.3-1.8v-4.3 l7.7-3.7L4.5 29.4v-4.7l4.7-2.1l12.1 6V21l3.7-2.1l4.5 2.2l0 11.5l8.1 4l0-8.1l8.5 3.9v-7.8l-11.5-5.6v-4.2l4-2l7.7 3.7V4.7 l4.4-2.5l4.5 2.5v11.9l8-3.8l4 2.3v3.7l-11.9 5.8v7.8l8.1-4.3v8.5l8.4-3.9V20.4l4-1.6l4.2 1.6v7.8l12.5-5.8l4.4 2.3v4.4l-12.2 6 l7.6 3.7V43l-4 1.9L76.8 39l-8.1 4.4l7.8 4.2l-8.1 4l8.3 3.7l11.7-5.6l3.8 2.3v4l-7.3 3.5l11.7 6v4.7l-5 1.9l-11.5-5.6v7.4l-4.1 2 l-4-2V62.7l-8.5-4.2v7.8l-8.1-4.3v7.8l11.5 5.6v4.4l-4 1.7l-7.7-3.7v11.9l-4.5 2.5L46.3 89.8z M43.2 47.5l4.2 5.3H55l3.6-5.3 l-3.7-5.6h-7.7L43.2 47.5z"/></g></svg>