<svg xmlns:dc="http://purl.org/dc/elements/1.1/" xmlns:cc="http://creativecommons.org/ns#" xmlns:rdf="http://www.w3.org/1999/02/22-rdf-syntax-ns#" xmlns:svg="http://www.w3.org/2000/svg" xmlns:sodipodi="http://sodipodi.sourceforge.net/DTD/sodipodi-0.dtd" xmlns:inkscape="http://www.inkscape.org/namespaces/inkscape" xmlns="http://www.w3.org/2000/svg" xmlns:xlink="http://www.w3.org/1999/xlink" version="1.1" inkscape:version="0.48.2 r9819" x="0px" y="0px" viewBox="0 0 100 100" enable-background="new 0 0 100 100" xml:space="preserve"><title>Rock Climbing</title><g><path fill="#FFFFFF" d="M50.6 64.7c-0.9 0.3-1.9 0.5-2.9 0.5c-1.1 0-2.2-0.1-3.2-0.4L33 91.3c-1 2.4-3.9 3.3-6.4 1.8 c-2.5-1.4-3.7-4.5-2.6-7l14-32.4h17.9v-3l9-4.2c2.4-1.2 5.4 0.8 6.1 3.3l4.4 17.9c0.6 2.5-0.9 5.1-3.4 5.7 c-2.5 0.6-5.1-0.9-5.7-3.5l-2.8-11.4L50.6 64.7z"/><path fill="#FFFFFF" d="M58.8 46.1C78.4 36.3 86 2.8 86 0h-2.7c-1 7-9.4 35-24.5 43.1V46.1z"/><path fill="#FFFFFF" d="M22.7 38.8c1 1.6 3.1 2.3 4.9 1.6L38 36.3v14.5h17.9V34l16-25.8c1.2-1.9 0.6-4.4-1.3-5.6 c-1.9-1.2-4.4-0.6-5.4 1.2l-13.6 22l-8.2 0c-0.5 0-1.1 0.1-1.6 0.3l-14.2 5.6l-7.3-11.1c-1.2-1.9-3.7-2.4-5.5-1.2 c-1.9 1.2-2.4 3.7-1.2 5.6L22.7 38.8z"/><path fill="#FFFFFF" d="M45.7 24.2c3.9 0 7.1-3.2 7.1-7.2c0-4-3.2-7.2-7.1-7.2c-3.9 0-7.1 3.2-7.1 7.2C38.6 21 41.8 24.2 45.7 24.2 z"/><polygon fill="#FFFFFF" points="55.9,97.5 55.9,65.2 52.9,66.6 52.9,97.5"/></g></svg>