<?xml version="1.0" encoding="utf-8"?>
<!-- Generator: Adobe Illustrator 18.0.0, SVG Export Plug-In . SVG Version: 6.00 Build 0)  -->
<!DOCTYPE svg PUBLIC "-//W3C//DTD SVG 1.1//EN" "http://www.w3.org/Graphics/SVG/1.1/DTD/svg11.dtd">
<svg version="1.1" id="Layer_1" xmlns="http://www.w3.org/2000/svg" xmlns:xlink="http://www.w3.org/1999/xlink" x="0px" y="0px"
	 viewBox="0 0 100 100" enable-background="new 0 0 100 100" xml:space="preserve">
<g>
	<path fill="#FFFFFF" d="M65.6,11.6c0,4.8-3.3,8.6-7.4,8.6c-2.5,0-4.8-1.5-6.1-3.7h2.3c1.6,0,2.9-1.1,3.6-2.6l1-2.5
		c0.1-0.1,0.2-0.3,0.4-0.3h6.3V11.6z"/>
	<path fill="#FFFFFF" d="M67,8.9C66,4.4,62.4,1,58.1,1C53,1,49,5.7,49,11.6c0,1,0.1,1.9,0.3,2.8h5.1c0.8,0,1.5-0.6,1.9-1.3l1-2.5
		c0.4-0.9,1.2-1.5,2.1-1.5H67z"/>
	<path fill="#FFFFFF" d="M40.6,16.6c0.9-0.9,1.1-2.4,0.3-3.4l-4-5.7c-0.7-1.1-2.1-1.2-3-0.4L16.7,23.2c-0.9,0.9-1,2.4-0.3,3.5l4,5.7
		c0.7,1,2.1,1.2,3,0.4L40.6,16.6z"/>
	<path fill="#FFFFFF" d="M23.6,39.3c-1,0.9-1.8,1.9-2.4,3.2c-0.6,1.2-1,2.6-1.2,3.9l-4.9,24.3l-13.5,15c-0.4,0.4-0.7,0.9-0.9,1.4
		c-1.4,2.9-0.6,6.5,1.9,8.2c2,1.3,4.5,0.9,6.1-0.8l15-16.7c0.2-0.3,0.4-0.6,0.6-1c0.2-0.5,0.4-0.9,0.5-1.4L27.9,60l10,11.5l0,19.5
		c0,2.1,0.9,4.1,2.6,5.2c2.5,1.6,5.6,0.6,7.1-2.2c0.5-1,0.7-2.1,0.7-3.2l0-21.6c0-1.5-0.4-3.1-1.4-4.2L36.1,52.6l12.5-11.8l2.9,9.2
		c0.2,0.6,0.6,1.2,1.1,1.6L64.4,62c1.6,1.1,3.8,0.8,5.1-0.8c1.5-1.9,1.5-4.9-0.2-6.7c0,0-0.1-0.1-0.2-0.2l-10.4-9.2l-4.8-16.3
		c-0.8-2.2-2.1-4-4-5.3c-3.2-2.1-7-1.8-9.9,0.4L23.6,39.3z"/>
	<path fill="#FFFFFF" d="M69.8,9c-0.3-0.4-0.5-0.9-0.5-1.4c0-1.1,0.8-2,1.7-2l25.8,0c2.6,0,4.2,8.5,2.5,15.2
		C97.6,27,92.7,35,90.4,32.3L69.8,9z"/>
</g>
</svg>
