<?xml version="1.0" encoding="utf-8"?>
<!-- Generator: Adobe Illustrator 18.0.0, SVG Export Plug-In . SVG Version: 6.00 Build 0)  -->
<!DOCTYPE svg PUBLIC "-//W3C//DTD SVG 1.1//EN" "http://www.w3.org/Graphics/SVG/1.1/DTD/svg11.dtd">
<svg version="1.1" id="Layer_1" xmlns="http://www.w3.org/2000/svg" xmlns:xlink="http://www.w3.org/1999/xlink" x="0px" y="0px"
	 viewBox="0 0 100 100" enable-background="new 0 0 100 100" xml:space="preserve">
<g>
	<path fill="#FFFFFF" d="M47.4,16.8c4.8,0,8.7-3.4,8.7-7.7c0-4.2-3.9-7.7-8.7-7.7c-4.8,0-8.8,3.4-8.8,7.7
		C38.7,13.4,42.6,16.8,47.4,16.8z"/>
	<path fill="#FFFFFF" d="M32.7,18.1c0.3-1.2-0.5-2.4-1.8-2.6l-7.3-1.5c-1.4-0.3-2.7,0.4-3,1.6l-6.1,22.2c-0.3,1.2,0.5,2.4,1.8,2.6
		l7.3,1.5c1.3,0.3,2.7-0.4,3-1.6L32.7,18.1z"/>
	<path fill="#FFFFFF" d="M66.3,97.1c0,0,0,0.1,0,0.1c0,1,0.9,1.8,2,1.8c1,0,1.9-0.7,2-1.5l14.7-69.8c0,0,0-0.1,0-0.1
		c0-1-0.9-1.7-2-1.7c-1,0-1.8,0.7-2,1.5L66.3,97.1z"/>
	<path fill="#FFFFFF" d="M17.5,92.5c-0.1,0.4-0.1,0.7-0.1,1.1c0,3,2.7,5.4,6.1,5.4c2.8,0,5.1-1.6,5.9-3.8L40,56.8L50,94.9
		c0.6,2.4,3.1,4.1,5.9,4.1c3.4,0,6.1-2.4,6.1-5.4c0-0.4-0.1-0.8-0.1-1.2L48.2,41.8l1.2-4.5l0.9,3.5c0.8,2.3,3.2,2.5,3.2,2.5
		l14.2,3.2c0.3,0,0.6,0.1,0.9,0.1c2.3,0,4.2-1.6,4.2-3.7c0-1.7-1.4-3.2-3.2-3.6l-12.3-2.7l-3.4-12.1c-1.6-6.7-8.9-6.6-8.9-6.6
		c-7.1-0.2-8.9,6.4-8.9,6.4L17.5,92.5z"/>
</g>
</svg>
