<svg xmlns="http://www.w3.org/2000/svg" xmlns:xlink="http://www.w3.org/1999/xlink" version="1.1" x="0px" y="0px" viewBox="0 0 100 100" enable-background="new 0 0 100 100" xml:space="preserve"><g></g><g><path fill="#FFFFFF" d="M36 21.4c4.8 0 8.7-4.5 8.7-10.1c0-5.6-3.9-10.1-8.7-10.1c-4.8 0-8.8 4.5-8.8 10.1 C27.3 16.9 31.2 21.4 36 21.4z"/><path fill="#FFFFFF" d="M3.7 76.5c2.1 0 4-0.5 5.8-1.5c1.8-1 3.9-1.5 6-1.5c2.1 0 4.2 0.6 6 1.5c1.8 0.9 3.8 1.4 5.8 1.4 c2.1 0 4-0.5 5.8-1.4c1.8-1 3.8-1.5 6-1.5c2.1 0 4.2 0.6 6 1.5c1.8 0.9 3.7 1.4 5.8 1.4c2.1 0 4-0.5 5.8-1.4c1.8-1 3.9-1.5 6-1.5 c2.1 0 4.2 0.6 6 1.5c1.8 0.9 3.8 1.4 5.8 1.4c2.1 0 4-0.5 5.8-1.4c1.8-1 3.8-1.5 6-1.5c1.8 0 3.6 0.4 5.2 1.1 c2.6-3.3 4.2-7.6 4.2-12.4c0-10.1-7.1-18.4-15.9-18.4l-1.8 0.2c-2 9.2-9.9 9.5-9.9 9.5l-36.4 0l-3-2.1l7.3-14.2l8 5.3 c4.8 3.6 7.3-1.4 7.3-1.4l8.1-15.1c3.5-6.6-3.9-11.8-7.4-5.2l-5.6 10.6L32.9 23c-9.3-6-13.2 3.9-13.2 3.9L9.1 47.7 c-1.8 4.3-0.2 6.2-0.2 6.2l-5.2 0V76.5z"/><path fill="#FFFFFF" d="M98.1 96.5c-2.1 0-4-0.5-5.8-1.4c-1.8-1-3.9-1.5-6-1.5c-2.1 0-4.2 0.6-6 1.5c-1.8 0.9-3.7 1.4-5.8 1.4 c-2.1 0-4-0.5-5.8-1.4c-1.8-1-3.8-1.5-6-1.5c-2.1 0-4.2 0.6-6 1.5c-1.8 0.9-3.7 1.4-5.8 1.4c-2.1 0-4.1-0.5-5.8-1.4 c-1.8-1-3.9-1.5-6-1.5c-2.1 0-4.2 0.6-6 1.5c-1.8 0.9-3.7 1.4-5.8 1.4c-2.1 0-4-0.5-5.8-1.4c-1.8-1-3.8-1.5-6-1.5 c-2.1 0-4.2 0.6-6 1.5c-1.8 0.9-3.7 1.4-5.8 1.4v-10c2.1 0 4-0.5 5.8-1.5c1.8-1 3.9-1.5 6-1.5c2.1 0 4.2 0.6 6 1.5 c1.8 0.9 3.8 1.5 5.8 1.5c2.1 0 4-0.5 5.8-1.5c1.8-1 3.8-1.5 6-1.5c2.1 0 4.2 0.6 6 1.5c1.8 0.9 3.7 1.5 5.8 1.5 c2.1 0 4-0.5 5.8-1.5c1.8-1 3.9-1.5 6-1.5c2.1 0 4.2 0.6 6 1.5c1.8 0.9 3.8 1.5 5.8 1.5c2.1 0 4-0.5 5.8-1.5c1.8-1 3.8-1.5 6-1.5 c2.1 0 4.2 0.6 6 1.5c1.8 0.9 3.7 1.5 5.8 1.5V96.5z"/></g></svg>