<svg xmlns="http://www.w3.org/2000/svg" xmlns:xlink="http://www.w3.org/1999/xlink" version="1.0" x="0px" y="0px" width="100px" height="100px" viewBox="0 0 100 100" overflow="" enable-background="new 0 0 100 100" xml:space="preserve">
    <path d="M46.08,50.914h0.866l-0.182,0.89c-0.104,0.472,0.192,0.933,0.66,1.037c0.468,0.102,0.931-0.19,1.036-0.661 l0.257-1.266h1.452c0.178,0,0.32-0.144,0.32-0.322v-1.808c0-0.177-0.143-0.321-0.32-0.321H46.08c-0.179,0-0.322,0.144-0.322,0.321 v1.808C45.757,50.771,45.901,50.914,46.08,50.914z"/>
    <path d="M79.7,41.87c-0.557,0-1.105,0.025-1.648,0.071c0.212,0.613,0.348,1.003,0.348,1.003 s0.549,1.645,1.253,3.741c0.016,0,0.032-0.002,0.048-0.002c7.886,0,14.279,6.392,14.279,14.281c0,7.887-6.394,14.278-14.279,14.278 c-7.889,0-14.278-6.392-14.278-14.278c0-5.458,3.062-10.199,7.562-12.603l4.9,11.43c-0.178,0.353-0.281,0.75-0.281,1.173 c0,1.449,1.178,2.624,2.628,2.624c1.447,0,2.623-1.175,2.623-2.624c0-1.088-0.658-2.019-1.601-2.418L74.18,39.902 c-0.272-0.712-1.057-1.075-1.773-0.829l-3.903-9.108l4.773-1.507c0.479-0.152,0.84-0.507,1.015-0.94l1.209-2.327 c0.98-0.286,1.699-1.188,1.704-2.263c0.005-1.306-1.05-2.37-2.358-2.375c-1.308-0.006-2.371,1.05-2.375,2.357 c-0.002,0.285,0.052,0.557,0.143,0.81l-0.964,1.854l-5.732,1.81c-0.241,0.076-0.452,0.206-0.622,0.369 c-0.406,0.369-0.594,0.933-0.479,1.479c0.013,0.062,0.027,0.123,0.047,0.185c0.031,0.103,0.074,0.2,0.124,0.291l0.92,2.144 L40.82,39.67l-0.292-0.875c-0.065-0.19-0.244-0.328-0.457-0.328c-0.044,0-0.085,0.008-0.125,0.019l-0.227,0.071l-2.649-7.235 l7.905-2.463c0.046-0.147,0.07-0.312,0.07-0.497c0-0.7-0.378-1.287-0.888-1.446c-0.341-0.101-0.718-0.156-1.125-0.156 c-1.962,0-4.75,0.182-8.191,0.291c-2.053,0.065-5.253-0.166-7.412-0.345l-0.001,0.001c-0.039-0.003-0.076-0.007-0.114-0.007 c-0.814,0-1.474,0.843-1.474,1.882c0,0.726,0.321,1.354,0.793,1.668v0.001c1.243,0.905,2.82,2.046,2.887,2.101 c0.105,0.087,2.586,1.762,5.191,0.264l2.471,6.742L37.1,39.384c-0.197,0.062-0.341,0.244-0.341,0.461 c0,0.056,0.012,0.108,0.029,0.159l0.566,1.734L20.772,58.367c-0.121-0.018-0.243-0.03-0.367-0.03c-1.451,0-2.626,1.175-2.626,2.627 c0,1.449,1.175,2.624,2.626,2.624c0.856,0,1.615-0.412,2.095-1.048h12.097c-0.785,7.145-6.839,12.702-14.191,12.702 c-7.886,0-14.28-6.392-14.28-14.278c0-7.889,6.394-14.281,14.28-14.281c2.2,0,4.284,0.5,6.145,1.39l3.55-3.559 c-2.842-1.679-6.155-2.645-9.695-2.645c-10.546,0-19.094,8.547-19.094,19.094c0,10.547,8.548,19.092,19.094,19.092 c10.013,0,18.226-7.707,19.028-17.516h1.861c0.437,1.236,1.373,2.236,2.565,2.76l-1.188,5.708l-1.327,0.001 c-0.177,0-0.321,0.143-0.321,0.321v1.809c0,0.176,0.144,0.321,0.321,0.321h4.092c0.177,0,0.32-0.146,0.32-0.32v-1.81 c0-0.179-0.143-0.321-0.32-0.322h-0.886l1.106-5.315c0.033,0.002,0.066,0.003,0.099,0.003c2.613,0,4.731-2.12,4.731-4.731 c0-0.669-0.139-1.306-0.389-1.883l18.627-20.65l2.353,5.494c-6.212,3.149-10.475,9.594-10.475,17.04 c0,10.547,8.547,19.092,19.095,19.092c10.544,0,19.094-8.545,19.094-19.092C98.794,50.417,90.244,41.87,79.7,41.87z M41.295,59.385 H24.212l7.333-7.353c1.005,1.251,1.804,2.676,2.344,4.222h5.024c-0.727-2.861-2.099-5.466-3.954-7.646l3.5-3.51l4.077,12.398 C41.982,58.015,41.553,58.658,41.295,59.385z M47.209,56.457c-0.299-0.094-0.61-0.161-0.931-0.198l-4.226-12.842l23.86-7.436 L47.209,56.457z"/>
</svg>