<svg xmlns="http://www.w3.org/2000/svg" xmlns:xlink="http://www.w3.org/1999/xlink" version="1.1" x="0px" y="0px" viewBox="0 0 100 72.2" enable-background="new 0 0 100 72.2" xml:space="preserve"><g><path fill="#FFFFFF" d="M100 69c-2.2 0-4.3-0.5-6.1-1.3c-1.9-0.8-4.1-1.3-6.3-1.3c-2.3 0-4.4 0.5-6.3 1.3c-1.9 0.8-4 1.3-6.1 1.3 c-2.2 0-4.3-0.5-6.2-1.3c-1.9-0.8-4.1-1.3-6.3-1.3c-2.3 0-4.4 0.5-6.3 1.3c-1.9 0.8-4 1.3-6.2 1.3c-2.2 0-4.3-0.5-6.2-1.3 c-1.9-0.8-4.1-1.3-6.3-1.3c-2.3 0-4.4 0.5-6.3 1.3c-1.9 0.8-4 1.3-6.2 1.3c-2.2 0-4.3-0.5-6.1-1.3c-1.9-0.8-4.1-1.3-6.3-1.3 c-2.2 0-4.4 0.5-6.3 1.3C4.3 68.5 2.2 69 0 69v-8.9c2.2 0 4.3-0.5 6.2-1.3c1.9-0.9 4.1-1.4 6.3-1.4c2.3 0 4.4 0.5 6.3 1.4 c1.9 0.8 4 1.3 6.1 1.3c2.2 0 4.3-0.5 6.2-1.3c1.9-0.9 4.1-1.4 6.3-1.4c2.2 0 4.4 0.5 6.3 1.4c1.9 0.8 4 1.3 6.2 1.3 c2.2 0 4.3-0.5 6.2-1.3c1.9-0.9 4.1-1.4 6.3-1.4c2.2 0 4.4 0.5 6.3 1.4c1.9 0.8 4 1.3 6.2 1.3c2.2 0 4.3-0.5 6.1-1.3 c1.9-0.9 4.1-1.4 6.3-1.4c2.3 0 4.4 0.5 6.3 1.4c1.9 0.8 4 1.3 6.1 1.3V69z"/><path fill="#FFFFFF" d="M85.5 43.8c6.6 0 11.9-5.2 11.9-11.5c0-6.3-5.3-11.5-11.9-11.5c-6.6 0-11.9 5.1-11.9 11.5 C73.6 38.6 78.4 43.8 85.5 43.8z"/><path fill="#FFFFFF" d="M16.2 50.3c0.9 0.2 1.8 0.5 2.6 0.9c1.9 0.8 4 1.3 6.1 1.3c2.2 0 4.3-0.5 6.2-1.3c1.9-0.8 4.1-1.4 6.3-1.4 c2.2 0 4.4 0.5 6.3 1.4c1.9 0.8 4 1.3 6.2 1.3c2.2 0 4.3-0.5 6.2-1.3c1.9-0.8 4.1-1.4 6.3-1.4c2.2 0 4.4 0.5 6.3 1.4 c1.9 0.8 4 1.3 6.2 1.3c1.6 0 3.1-0.3 4.6-0.7L59.7 17.1l23.1-4.1c3.4-0.6 5.8-3.2 5.8-6.5c0-3.6-3.1-6.5-6.8-6.5 c-0.3 0-0.5 0-0.8 0L45.4 6.4c-2.5 0.6-5.8 4.1-3.9 8.4c0.1 0.2 0.2 0.5 0.3 0.7l9.3 16.2L16.2 50.3z"/></g></svg>