<?xml version="1.0" encoding="utf-8"?>
<!-- Generator: Adobe Illustrator 15.1.0, SVG Export Plug-In . SVG Version: 6.00 Build 0)  -->
<!DOCTYPE svg PUBLIC "-//W3C//DTD SVG 1.1//EN" "http://www.w3.org/Graphics/SVG/1.1/DTD/svg11.dtd">
<svg version="1.1" id="Layer_1" xmlns="http://www.w3.org/2000/svg" xmlns:xlink="http://www.w3.org/1999/xlink" x="0px" y="0px"
	 width="100px" height="77.038px" viewBox="0 0 100 77.038" enable-background="new 0 0 100 77.038" xml:space="preserve">
<g>
	<path style="fill:white;" d="M49.601,9.519c0-1.004,0.452-1.141,1.004-0.3l43.37,65.876c1.2,1.656,0.898,1.525,2.831,1.525h2.113
		c1.005,0,1.376-0.688,0.824-1.527L51.001,0.629c-0.549-0.839-1.45-0.839-2.001,0L0.254,75.09c-0.55,0.841-0.179,1.527,0.826,1.527
		h46.693c1.005,0,1.828-0.82,1.828-1.827V9.519z"/>
	<path style="fill:white;" d="M79.836,56.937H51.789c-0.711,0-1.288,0.578-1.288,1.29c0,0.713,0.577,1.291,1.288,1.291h3.585l9.565,8.113l-10.033,8.514
		c-0.241,0.203-0.241,0.534,0,0.738c0.239,0.205,0.632,0.205,0.872,0l10.034-8.513l10.033,8.513c0.241,0.205,0.633,0.205,0.872,0
		c0.242-0.204,0.242-0.535,0-0.738l-10.033-8.514l9.566-8.113h3.583c0.711,0,1.288-0.578,1.288-1.291
		C81.124,57.515,80.547,56.937,79.836,56.937z M65.813,66.892l-8.693-7.374h17.387L65.813,66.892z"/>
	<path style="fill:white;" d="M73.554,53.943c0,1.269-1.028,2.298-2.296,2.298H60.367c-1.268,0-2.296-1.029-2.296-2.298l0,0
		c0-1.27,1.028-2.298,2.296-2.298h10.891C72.525,51.645,73.554,52.675,73.554,53.943L73.554,53.943z"/>
</g>
</svg>
