<?xml version="1.0" encoding="utf-8"?>
<!-- Generator: Adobe Illustrator 18.0.0, SVG Export Plug-In . SVG Version: 6.00 Build 0)  -->
<!DOCTYPE svg PUBLIC "-//W3C//DTD SVG 1.1//EN" "http://www.w3.org/Graphics/SVG/1.1/DTD/svg11.dtd">
<svg version="1.1" id="Layer_1" xmlns="http://www.w3.org/2000/svg" xmlns:xlink="http://www.w3.org/1999/xlink" x="0px" y="0px"
	 viewBox="0 0 31.1 31.2" enable-background="new 0 0 31.1 31.2" xml:space="preserve">
<g>
	<path fill="#FFFFFF" d="M3.1,15.1c-0.7,0-1.2,0.5-1.2,1.2s0.5,1.2,1.2,1.2c0.7,0,1.2-0.5,1.2-1.2S3.8,15.1,3.1,15.1z"/>
	<g>
		<path fill="#FFFFFF" d="M19.7,5.2c1.4,0,2.6-1.2,2.6-2.6c0-1.4-1.2-2.6-2.6-2.6c-1.4,0-2.6,1.2-2.6,2.6C17.1,4,18.2,5.2,19.7,5.2z
			"/>
		<path fill="#FFFFFF" d="M30.8,28.2l-4.2-5c0,0-1.3-7.7-1.3-7.7c0,0-0.2-0.9-0.2-0.9c0,0-0.5-2.4-0.9-4.3c0.7,0.4,1.2,0.7,1.3,0.7
			c0,0.1,2.2,4.2,2.2,4.2c0.2,0.3,0.4,0.5,0.8,0.6c0.3,0.1,0.7,0.1,1-0.1c0.3-0.2,0.5-0.4,0.6-0.8c0.1-0.3,0.1-0.7-0.1-1l-2.4-4.6
			c0,0-0.1-0.2-0.2-0.3c-0.2-0.2-0.6-0.4-0.6-0.4l-4.7-2.7c-0.6-0.3-1.2-0.4-1.9-0.3c-0.3,0.1-0.5,0.2-0.8,0.3c0,0-1.1,0.5-1.7,1.9
			L15.3,13c0,0-3.7,0.7-3.8,0.7c0,0-0.1,0-0.1,0L8,11.3c-0.8-0.5-0.9-2.1-0.9-2.2C7.1,8,6.4,7,5.4,6.3c-0.9-0.6-2-0.9-3-0.8
			C1.6,5.6,0.9,6,0.5,6.6C0.2,7.1,0,7.7,0,8.3c0,0,0,0.5,0,0.5c0.2,1,0.8,2,1.7,2.6c0.9,0.7,2,0.9,3,0.8l0.2,0c0,0,1.5-0.5,2.3,0
			c0,0,2.6,1.8,3.2,2.3c-0.1,0.1-0.2,0.4-0.2,0.6c0,0.1,0,0.2,0,0.2c0.1,0.7,0.8,1.2,1.5,1l4.5-0.9c0,0,0.4-0.1,0.6-0.2
			c0.2-0.2,0.4-0.5,0.4-0.5l1.2-2.4c0,0,0.8,3.9,0.8,4c-0.1,0.1-3.7,3.9-3.7,3.9l-0.1,0.1c-0.4,0.3-0.6,0.8-0.6,1.2v8.2
			c0,0.9,0.7,1.6,1.6,1.6c0.9,0,1.6-0.7,1.6-1.6c0,0,0-6.7,0-6.8c0.3-0.3,3.1-3.3,3.9-4.1c0.1,0.5,0.8,4.6,0.8,4.6
			c0.1,0.4,0.2,0.7,0.5,1c0,0,5,5.9,5,5.9c0.3,0.3,0.7,0.5,1.1,0.6c0.4,0,0.8-0.1,1.1-0.4c0.4-0.3,0.6-0.8,0.6-1.2
			C31.1,28.9,31,28.5,30.8,28.2z M5.9,10.4c-0.3,0.4-0.7,0.6-1.2,0.7c-0.7,0.1-1.6-0.1-2.3-0.6c-0.7-0.5-1.2-1.2-1.3-2l0-0.4
			c0-0.4,0.1-0.7,0.3-1c0.7-1,2.3-1,3.5-0.1C6.1,8,6.5,9.5,5.9,10.4z"/>
	</g>
</g>
</svg>
