<svg xmlns="http://www.w3.org/2000/svg" xmlns:xlink="http://www.w3.org/1999/xlink" version="1.1" x="0px" y="0px" width="100px" height="100px" viewBox="0 0 100 100" enable-background="new 0 0 100 100" xml:space="preserve"><path style="fill:white;" d="M57 47c9-2 15-8 15-18c0-6.825-3-12-5-14c-0.598-0.598-1-1-2-1s-28.999 0-30 0s-1.46 0.461-2 1c-2 2-5 7.056-5 14 c0 10 6 16 15 18c2.998 1 5 3 5 5.994v22.014C47.995 79 44 82 37 82c-1.104 0-2 0.896-2 2s0.896 2 2 2h26 c1.104 0 2-0.896 2-2s-0.896-2-2-2c-6.999 0-11-3-11-7V53C52 50 54 48 57 47z M34.74 24C34.31 25.4 34 27.1 34 29 c0 6 2.8 9.8 8.4 11.615c1.691 0.6 1.2 2.233-0.262 2.003C37.139 41.1 32 37.5 32 29c0-1.859 0.256-3.536 0.648-5 l0.006-0.006c0.785-2.924 2.107-5.008 3.011-5.993h28.668c0.782 0.9 2.2 3 3 6H34.74z"/></svg>