<svg xmlns="http://www.w3.org/2000/svg" xmlns:xlink="http://www.w3.org/1999/xlink" version="1.1" x="0px" y="0px" width="100px" height="100px" viewBox="0 0 100 100" enable-background="new 0 0 100 100" xml:space="preserve">
<g id="Captions">
</g>
<g id="Your_Icon">
	<path style="fill:white;" d="M79.173,81.304c-1.393,0.736-4.841,2.994-5.478,2.159c-1.685-2.206-5.001-6.32-5.902-7.718   c-1.133-1.754-1.363-3.258-0.987-4.19c0.648-1.611,1.184-2.731,1.564-3.459l-7.624-8.484c-22.419,4.193-51.92,2.464-60.461-5.517   c-3.438-3.213,25.163-11.38,41.975-15.048l-5.529-6.15c-1.405-0.088-3.987-0.271-5.446-0.511c-2.068-0.339-3.404-2.328-4.247-3.628   c-1.088-1.678-3.215-5.333-3.902-6.239c-0.69-0.906,2.294-3.205,3.787-3.886c1.488-0.681,5.348-2.871,6.084-2.125   c1.398,1.42,3.978,4.505,6.051,7.63c1.007,1.513,1.302,3.134,0.84,4.278c-0.462,1.149-0.865,2.036-1.196,2.722l32.119,35.737   c1.383,0.14,3.691,0.56,4.596,0.71c2.068,0.339,3.33,2.38,4.249,3.631c0.919,1.245,3.479,5.055,4.166,5.961   C84.521,78.083,80.622,80.534,79.173,81.304z M35.654,46.421c0.354,2.349,7.081,3.294,15.222,2.211l-6.799-7.561   C38.869,42.569,35.387,44.643,35.654,46.421z M65.123,58.698l-9.752-10.853c6.779-1.486,11.618-3.999,11.304-6.089   c-0.368-2.439-7.609-3.373-16.177-2.086c-0.732,0.11-1.442,0.238-2.143,0.374l-1.707-1.901c1.143-0.222,2.188-0.408,3.103-0.556   c13.353-2.122,51.836-4.691,50.197-1.414C97.306,41.464,86.483,53.605,65.123,58.698z"/>
</g>
</svg>
