<?xml version="1.0" encoding="utf-8"?>
<!-- Generator: Adobe Illustrator 18.1.1, SVG Export Plug-In . SVG Version: 6.00 Build 0)  -->
<svg version="1.1" id="Layer_1" xmlns="http://www.w3.org/2000/svg" xmlns:xlink="http://www.w3.org/1999/xlink" x="0px" y="0px"
	 viewBox="0 0 31.7 34.4" enable-background="new 0 0 31.7 34.4" xml:space="preserve">
<circle fill="#FFFFFF" cx="8.4" cy="5.8" r="2.7"/>
<path fill="#FFFFFF" d="M27.6,12.8c-0.9-5.1-3-9.8-5.3-12.8l0,0l0,0c-1.5,2-2.9,4.8-4,7.9c0,0-0.1,0.1-0.1,0.1L15,11.2l-3-1.7
	c-0.4-0.4-0.7-0.3-0.7-0.3h-1.1h-4c0,0-1.3-0.1-1.3,1.2v9.6l-2,12c-0.3,1.1,0.3,2.2,1.4,2.4C5.6,34.6,6.7,34,6.9,33l1.5-10.5
	L10,32.9c0.3,1.1,1.4,1.7,2.4,1.4c1.1-0.3,1.7-1.4,1.4-2.4l-2-12.2v-7l2.6,1.4c0.2,0.2,0.5,0.3,0.8,0.3c0.4,0,0.8-0.2,1.1-0.5
	l0.7-0.7c0,0.1,0,0.2,0,0.2c0,0,0,0,0,0c-0.1,0.4-0.1,0.7-0.1,1.1c0,0.4-0.1,0.8-0.1,1.1c0,0.2,0,0.3,0,0.5c0,0.3,0,0.7,0,1
	c0,0.3,0,0.7,0,1c0,0.2,0,0.3,0,0.5c0,0.4,0.1,0.8,0.1,1.1c0,0.4,0.1,0.7,0.1,1.1c0,0,0,0,0,0c0.7,5.3,2.9,10.3,5.2,13.4l0,0l0,0
	c2.3-2.9,4.4-7.7,5.3-12.8c0.3-1.4,0.4-2.9,0.4-4.4C28,15.7,27.8,14.2,27.6,12.8z"/>
<g>
	<path fill="#FFFFFF" d="M27.8,29.5c0.7,0,1.4,0.2,2,0.5c0.6,0.3,1.3,0.4,2,0.4v-2.9c-0.7,0-1.4-0.2-2-0.4c-0.6-0.3-1.3-0.4-2-0.4
		c-0.2,0-0.3,0-0.5,0c-0.4,1.1-0.8,2.2-1.3,3.2C26.6,29.6,27.2,29.5,27.8,29.5z"/>
	<path fill="#FFFFFF" d="M15.9,27.4c-0.6,0-1.3-0.1-1.8-0.4l0.5,3.1c0.4,0.1,0.9,0.2,1.3,0.2c0.7,0,1.4-0.2,2-0.4
		c0.2-0.1,0.5-0.2,0.7-0.3c-0.4-0.8-0.7-1.7-1-2.6C17,27.3,16.5,27.4,15.9,27.4z"/>
	<path fill="#FFFFFF" d="M2,27c-0.6,0.3-1.3,0.4-2,0.4v2.9c0.7,0,1.4-0.2,2-0.4c0.2-0.1,0.3-0.1,0.5-0.2l0.5-3.1
		C2.6,26.8,2.3,26.9,2,27z"/>
	<path fill="#FFFFFF" d="M28.2,23.5c0.6,0,1.1,0.2,1.6,0.4c0.6,0.3,1.3,0.4,2,0.4v-2.9c-0.7,0-1.4-0.2-2-0.4
		c-0.3-0.2-0.7-0.3-1.1-0.3c0,0.3-0.1,0.7-0.1,1C28.5,22.3,28.3,22.9,28.2,23.5z"/>
	<path fill="#FFFFFF" d="M2,21c-0.6,0.3-1.3,0.4-2,0.4v2.9c0.7,0,1.4-0.2,2-0.4c0.5-0.2,1-0.4,1.5-0.4l0.5-3C3.2,20.6,2.6,20.7,2,21
		z"/>
	<path fill="#FFFFFF" d="M15.9,21.4c-0.7,0-1.4-0.2-2-0.4c-0.3-0.1-0.6-0.2-0.9-0.3l0.5,3.1c0.1,0.1,0.3,0.1,0.4,0.2
		c0.6,0.3,1.3,0.4,2,0.4c0.3,0,0.5,0,0.8-0.1c-0.2-1-0.4-1.9-0.6-2.9C16,21.4,16,21.4,15.9,21.4z"/>
</g>
</svg>
