<svg xmlns="http://www.w3.org/2000/svg" xmlns:xlink="http://www.w3.org/1999/xlink" version="1.1" x="0px" y="0px" viewBox="0 0 50.4 50.4" enable-background="new 0 0 50.4 50.4" xml:space="preserve"><g></g><g></g><g><path fill="#FFFFFF" d="M44.5 50.6c-0.8 0-1.7-0.2-2.4-0.6c-0.7-0.4-1.6-0.7-2.5-0.7c-0.9 0-1.7 0.2-2.5 0.7 c-0.7 0.4-1.5 0.6-2.4 0.6c-0.9 0-1.7-0.2-2.4-0.6c-0.8-0.4-1.6-0.7-2.5-0.7c-0.9 0-1.7 0.2-2.5 0.7c-0.7 0.4-1.5 0.6-2.4 0.6 c-0.8 0-1.7-0.2-2.4-0.6c-0.7-0.4-1.6-0.7-2.5-0.7c-0.9 0-1.7 0.2-2.5 0.7c-0.7 0.4-1.5 0.6-2.4 0.6c-0.8 0-1.7-0.2-2.4-0.6 c-0.7-0.4-1.6-0.7-2.5-0.7c-0.9 0-1.7 0.2-2.4 0.7c-0.7 0.4-1.5 0.6-2.4 0.6v-4.3c0.8 0 1.7-0.2 2.4-0.6c0.7-0.4 1.6-0.7 2.4-0.7 c0.9 0 1.7 0.2 2.5 0.7c0.7 0.4 1.5 0.6 2.4 0.6c0.8 0 1.7-0.2 2.4-0.6c0.7-0.4 1.6-0.7 2.5-0.7c0.9 0 1.7 0.2 2.5 0.7 c0.7 0.4 1.5 0.6 2.4 0.6c0.8 0 1.7-0.2 2.4-0.6c0.7-0.4 1.6-0.7 2.5-0.7c0.9 0 1.7 0.2 2.5 0.7c0.7 0.4 1.5 0.6 2.4 0.6 c0.8 0 1.7-0.2 2.4-0.6c0.7-0.4 1.6-0.7 2.5-0.7c0.9 0 1.7 0.2 2.5 0.7c0.7 0.4 1.5 0.6 2.4 0.6V50.6z"/><g><g><path fill="#FFFFFF" d="M12.5 42.2c11.6-1.2 20-2.9 31.8-5.4c0.2-0.1 0.3-0.4 0.3-0.7c-0.1-0.3-0.3-0.4-0.6-0.3 c-18.6 4-34.1 5.1-37.6 5.4c-0.4 0-0.6 0.4-0.6 0.8c0 0.4 0.3 0.7 0.7 0.7c0.9-0.1 1.7-0.1 2.6-0.2L12.5 42.2z"/><g><path fill="#FFFFFF" d="M27.4 9c1.5-0.9 2.1-3.2 1.3-5c-0.8-1.8-2.6-2.5-4.1-1.6c-1.5 0.9-2.1 3.2-1.3 5 C24.1 9.2 25.9 9.9 27.4 9z"/><g><path fill="#FFFFFF" d="M22.7 21.6l4.1-7.1l8.4 2.7c0.4 0.1 0.8 0.1 1.1-0.1c0.7-0.5 1-1.5 0.6-2.4c-0.2-0.5-0.6-0.8-0.9-0.9 l-11.3-3.7c-0.4-0.1-0.8-0.2-1.2-0.2l-7.1 1l-4.7-2.9C11.4 8 11 7.9 10.6 8.1c-0.8 0.4-1.1 1.4-0.8 2.3 c0.1 0.4 0.3 0.7 0.6 0.9l4.8 3.1c0.4 0.2 0.5 0.3 0.7 0.2l3.8-0.6l-3.9 6.6c-0.5 1-0.7 2.2-0.4 3.3l2.5 5.8l-3.7 5.7 c-0.4 0.7-0.5 1.6-0.2 2.4c0.4 1.1 1.6 1.6 2.5 1.1c0.3-0.2 0.5-0.4 0.7-0.7l4.5-7c0.3-0.5 0.4-1.2 0.3-1.9l-1.6-3.6l6.1 1.9 c0 0 2.4 7.8 2.6 8.2c0.3 1 1.6 1.6 2.5 1.1c0.9-0.5 1.3-1.7 1-2.8l-2.9-9.2c0 0 0-0.1 0-0.1c-0.2-0.6-0.7-1.1-1.2-1.2 L22.7 21.6z"/><polygon fill="#FFFFFF" points="20.6,25.7 20.6,25.7 20.6,25.7 20.6,25.7 20.6,25.7 20.6,25.7 20.6,25.7 20.6,25.7 20.6,25.7 20.6,25.7 20.6,25.7 20.6,25.7 20.6,25.7 20.6,25.7 20.6,25.7 20.6,25.7 20.6,25.7 20.6,25.7 20.6,25.7"/><polygon fill="#FFFFFF" points="20.6,25.7 20.6,25.7 20.6,25.7 20.6,25.7 20.6,25.7 20.6,25.7 20.6,25.7 20.6,25.7 20.6,25.7 20.6,25.7"/><polygon fill="#FFFFFF" points="20.6,25.7 20.6,25.7 20.6,25.7 20.6,25.7 20.6,25.7 20.6,25.7"/><rect x="20.6" y="25.7" fill="#FFFFFF" width="0" height="0"/><rect x="20.6" y="25.7" fill="#FFFFFF" width="0" height="0"/></g></g></g></g></g></svg>