<svg xmlns="http://www.w3.org/2000/svg" xmlns:xlink="http://www.w3.org/1999/xlink" version="1.1" x="0px" y="0px" width="100px" height="100px" viewBox="0 0 100 100" enable-background="new 0 0 100 100" xml:space="preserve">
<g id="Captions">
</g>
<g id="Your_Icon">
	<path fill-rule="evenodd" clip-rule="evenodd" fill="#000000" d="M47.329,40.417c0-0.499-0.662-2.505-0.83-3.666   c-0.173-1.003-0.341-3.335-0.341-4.501c0-1.167,0-2.006,0.168-3.168c0.173-1.17,0.504-3.33,1.003-5   c0.331-1.67,1.003-3.33,2.006-4.832c0.998-1.502,2.99-2.173,2.99-2.173s-0.49-1.493-0.826-2.16   c-0.172-0.504-0.172-2.505-0.172-2.505s-0.332-0.163-0.826-0.331c0-1.166,0.826-3.834,0.998-4.17   c0.168-0.327,0.662-1.996,2.836-1.996c2.332,0,2.5,0.998,2.827,1.669c0.331,0.495,0.839,2.165,0.839,2.165   c0.658,0.331,1.33,0.667,2.165,1.166c0,0-1.675,0.672-1.834,0.672v1.329c0,0.163,0,1.334-0.167,2.001   c-0.164,0.499-1.33,0.83-1.666,1.161c-0.168,0-0.34,1.171,0.663,2.006c0.839,0.83,2.005,3.33,2.337,3.829   c0.499,0.667,1.166,5.173,1.166,5.835c0,0.672-0.332,2.668-0.332,2.668c1.666,1.834,3.331,3.667,5.164,5.668   c0,0,0.998,0.168,1.334,0.168c0.331,0,1.334,0.326,1.334,0.326s0.998-1.497,2.164-2.495c1.166-0.999,2.5-2.001,3.834-3   c1.334-0.839,3.835-2.168,6.003-3.171c2.333-0.999,5.169-1.665,6.829-1.997c1.003-0.163,5.504-0.163,5.999-0.336   c0.34,0,2.84-0.667,3.339-0.998c0.667-0.163,2.496-0.336,2.496-0.336s-0.327,0.667-0.327,1.003   c-0.168,0.331-1.003,0.999-1.003,0.999s1.003-0.332,1.493,0c0.508,0.167,0.844,0.839,0.844,0.839s-1.007,0.163-1.334,0.163   c-0.168,0.164-1.171,0.499-1.171,0.499s0.168,1.167,0.168,1.67c0,0.331,1.003,1.665,1.33,2.16c0.331,0.504,0.839,2.332,0.839,3.503   c-0.168,1.497-0.508,2.332-0.508,3.335c0,0.998,0.676,2.663,0.676,2.836c0,0.336-0.168,0.998-0.336,1.334   c0,0.326,0.5,2.332,0.5,2.994c0,0.499-0.164,2.169-0.332,2.501c-0.168,0.331,0,1.17-0.168,1.329   c-0.168,0.172-0.998,0.336-1.502,0.172c-0.34-0.172-1.166-0.834-1.338-0.834c-0.327,0-1.162,0.335-1.497,0.167   c-0.164-0.167-0.831-0.503-1.003-0.834c-0.164-0.332-0.495-1.33-0.495-1.829c0-0.504,0-2.169-0.168-2.668   c-0.163-0.336-1.665-0.998-2.164-1.334c-0.504-0.168-1.67-1.171-1.67-1.171c-0.499,0-0.998,0.173-1.497,0.336   c0,0,0,3.666-1.003,6.171c-0.998,2.332-3.162,4.329-3.162,4.329s-0.336,3.838-0.168,4.333c0,0.667-0.504,3.172-0.504,3.834   c-0.168,0.835,0,1.67,0,2.169s1.003,1.833,1.334,2.164c0.336,0.168,3.335,2.668,3.834,3.163c0.504,0.671,3.503,4.17,3.834,4.505   c0.336,0.332,0.663,1.838,0.663,2.165c0,0.336,1.166,2.5,1.506,3.004c0.331,0.499,1.833,3.493,2.16,4.165   c0.172,0.499,0.671,2.5,0.839,3.666c0.159,0.998-1.166,3.834-1.497,4.497c-0.336,0.503-1.502,2.337-1.502,2.337   s-1.166-1.334-1.334-1.498c-0.172-0.336-1.334-1.67-1.334-2.169c0-0.667,2.164-2.001,2.164-2.001s-0.163-0.667-0.163-0.83   c-0.168-0.336-0.336-0.672-0.499-1.171c0,0-0.34-3.167-1.003-4.501c-0.499-1.334-2.164-3.494-3.004-4.496   c-0.83-0.835-4.16-3.671-5.326-4.669c-1.167-1.167-6.167-4.166-6.167-4.166s-1.67,2.169-2.005,2.832   c-0.168,0.671-0.499,3.167-0.663,3.666c-0.168,0.499-0.671,2.337-1.003,2.831c-0.331,0.672-3.498,5.173-4.002,5.84   c-0.326,0.667-0.83,1.996-0.998,2.5c-0.331,0.662-0.331,3.498,0,4.002c0.168,0.494,2.006,2.827,2.169,3.162   c0.163,0.332,0.331,0.999,0.331,1.33c0,0.172-1.334,0.839-1.828,1.003c-0.341,0.168-2.337,0.503-2.5,0.503   c-0.341,0-1.166,0-1.838-0.172c0-0.495,0.672-1.665,0.672-2.496c-0.173-0.834-1.838-1.669-1.67-2.668   c0.163-0.662,0.331-1.334,0.667-1.833c0.163-0.499,1.166-3.167,1.497-3.666c0.168-0.331,0.331-2.831,0.499-4.333   c0.173-1.502,1.334-4.996,1.507-5.504c0.163-0.499,1.492-2.664,1.492-2.999c0-0.332-0.326-1.666-0.326-2.333   c0.168-0.667,0.326-2.999,0.326-2.999s-6.665,1.67-13.326,1.67c-6.67,0-15.173-2.668-17.169-3.503c0,0-2.668,2.332-2.501,2.332   c0,0,0.336,0.504,0.336,2.169s-2.178,5.5-2.341,5.835c-0.159,0.336-0.159,1.162-0.159,1.498c0.159,0.168,0.998,3.167,1.166,3.834   c0.168,0.494,0.49,3.834,0.322,4.17c0,0.326,3.009,3.162,3.512,3.493c0.322,0.173,3.825,4.334,4.161,4.669   c0.336,0.504,0.672,1.167,0.672,1.666c0,0.503-0.504,1.17-1.502,0.998c-0.831,0-3.009,0-3.499-0.163   c-0.503-0.168-0.671-0.835-1.002-1.502c-0.332-0.667-0.164-1.493-0.332-2.001c-0.335-0.499-0.676-0.826-2.332-0.826   c-1.67,0-1.502-0.672-1.502-1.171c-0.168-0.667-0.168-3.335-0.336-4.002c-0.172-0.667-0.83-3.666-0.998-4.165   c-0.168-0.672-2.164-5.164-2.5-5.499c-0.34-0.336-0.667-0.835-0.667-1.334s1.166-2.668,1.33-3.004   c0.167-0.327,0.503-0.998,0.335-1.498c-0.168-0.331-0.998-0.331-1.502-0.331c-0.494,0.168-1.497,0.495-2.164,0.667   c-0.499,0.331-2.836,1.162-3.335,1.33c-0.326,0.168-1.166,0.503-1.493,0.839c-0.34,0.327-1.007,2.995-1.175,3.331   c-0.159,0.335-1.329,2.164-1.665,2.668c-0.163,0.335-0.667,1.334-0.667,1.996c0,0.499-0.499,5.835-0.499,6.67   c0,0.662,0.168,0.835,0.168,1.996c0,1.003-0.999,1.834-1.502,2.505c-0.499,0.663-2.169,1.162-2.664,1.162   c-0.499,0.172-1.665,0-1.665,0s-0.835-1.498-0.835-2.832c0-1.502,0.667-2.831,0.667-2.831s0,0.499,0.994,0.499   c1.166,0,1.166-1.67,1.166-1.67s0.672-0.163,1.171-0.499c0.335-0.163,0.503-3.503,0.667-6.166c0-1.003,0.168-5.331,0.168-6.665   c0-1.498,0.998-2.002,1.665-2.669s1.833-1.17,1.833-3.666c0.168-2.505-2.332-5-2.5-11.334c-0.164-2.5,1.502-7.165,2.169-8.667   c-1.833,0-7.333,2.668-7.333,9.833c0,7.337-2.672,9.501-3.335,10.168C9.66,65.917,7.5,68.417,4.659,68.417   C1.828,68.417,0,65.581,0,65.581s1.665,0.504,3.666-0.83c1.828-1.166,3.326-6.171,3.494-8.834c0.34-2.668,1.166-4.166,2.001-6.666   c1.002-2.5,4.165-5.667,6.837-6.339c2.664-0.662,6.003-0.499,7.664,0c1.833-1.166,5-3.666,12.827-3.666   c6.171,0,9.343,1.833,11.003,2.342L47.329,40.417z M61.667,40.916l-2.336-5L64,37.413l0.998,1.67L61.667,40.916z"/>
</g>
</svg>