<svg xmlns="http://www.w3.org/2000/svg" xmlns:xlink="http://www.w3.org/1999/xlink" version="1.1" x="0px" y="0px" viewBox="0 0 21.9 35.2" enable-background="new 0 0 21.9 35.2" xml:space="preserve"><g><path fill="#FFFFFF" d="M10.2 9c0 1.3-1.1 2.4-2.4 2.4c-1.3 0-2.4-1.1-2.4-2.4c0-1.3 1.1-2.4 2.4-2.4C9.1 6.6 10.2 7.7 10.2 9z M19.2 0c-1.5 0-2.7 1.2-2.7 2.7c0 1.5 1.2 2.7 2.7 2.7c1.5 0 2.7-1.2 2.7-2.7C21.9 1.2 20.7 0 19.2 0z M14.8 15 c0.7 0 1.3-0.5 1.4-1.1c0.1-0.6 1.4-6 1.4-6c0.2-0.7-0.3-1.4-0.9-1.6c-0.7-0.2-1.4 0.3-1.6 1L14 12.2H7.1c-0.9 0-1.5 0.7-1.7 1.8 l-1.2 7.3c0 0.2-0.1 0.6-0.1 0.9v6.2l-3.8 4.3c-0.6 0.7-0.5 1.7 0.2 2.2c0.3 0.3 0.7 0.4 1 0.4c0.4 0 0.9-0.2 1.2-0.5l4.2-4.8 c0.2-0.2 0.4-0.7 0.4-1.1v-5.5l5.6 1.2l-1 5.1c-0.2 0.8 0.3 1.7 1.1 1.9c0.1 0 0.3 0 0.4 0c0.7 0 1.3-0.5 1.5-1.2l1.5-6.9 c0.2-0.8-0.2-1.8-1.5-2l-6.3-1.3L9.5 15H14.8z"/></g></svg>