<svg version="1.1" id="Layer_1" xmlns="http://www.w3.org/2000/svg" xmlns:xlink="http://www.w3.org/1999/xlink" x="0px" y="0px"
	 viewBox="0 0 86 86.6" enable-background="new 0 0 86 86.6" xml:space="preserve">
<g>
	<g>
		<defs>
			<path id="SVGID_1_" d="M86,81.6c0,2.8-2.2,5-5,5H5c-2.8,0-5-2.2-5-5V5c0-2.8,2.2-5,5-5h76c2.8,0,5,2.2,5,5V81.6z"/>
		</defs>
		<clipPath id="SVGID_2_">
			<use xlink:href="#SVGID_1_"  overflow="visible"/>
		</clipPath>
		<g clip-path="url(#SVGID_2_)">
			<rect x="-0.2" y="0.3" fill="#30196B" width="97.3" height="22.1"/>
			<rect x="-0.2" y="21.7" fill="#22C6D1" width="97.3" height="22.1"/>
			<rect x="-0.2" y="43.1" fill="#F2606F" width="97.3" height="22.1"/>
			<rect x="-0.2" y="64.5" fill="#136C92" width="97.3" height="22.1"/>
		</g>
	</g>
	<g>
		<path fill="#FFFFFF" d="M18.7,9.7C18.8,9.7,18.8,9.8,18.7,9.7c0.4,0.5,0.6,0.9,0.5,1.4c0,0.4-0.2,0.8-0.5,1.1
			c-0.8,0.8-1.6,1.6-2.4,2.4c-1.1,1.1-2.2,2.2-3.3,3.3c-0.2,0.2-0.4,0.4-0.7,0.4c-0.7,0.2-1.3,0.1-1.8-0.4c-0.4-0.4-0.8-0.8-1.2-1.2
			c-1.5-1.5-3-3-4.5-4.5c-0.2-0.2-0.4-0.4-0.4-0.7c-0.2-0.6,0-1.3,0.4-1.8C5.7,8.9,6.6,8,7.5,7.1c1-1,2-2,3-3.1
			c0.2-0.2,0.4-0.3,0.7-0.4C11.8,3.4,12.5,3.5,13,4c0.1,0,0.1,0.1,0.1,0.1c0.8,0.8,1.6,1.6,2.3,2.3c0,0,0.1,0.1,0.1,0.1
			c0,0,0,0,0,0.1c0,0,0,0,0,0.1c-1.2,1.2-2.5,2.5-3.7,3.7c0,0-0.1,0.1-0.1,0.1c0,0-0.1,0-0.1-0.1c-0.4-0.4-0.7-0.7-1.1-1.1
			c-0.2-0.2-0.5-0.5-0.7-0.7C9.7,8.5,9.5,8.3,9.2,8.3c-0.4-0.1-0.8,0-1.2,0.3c0,0-0.1,0.1-0.1,0.1C7.6,9,7.2,9.4,6.8,9.8
			c-0.2,0.2-0.3,0.4-0.4,0.7c-0.1,0.5,0,0.9,0.3,1.2c0,0,0.1,0.1,0.1,0.1c1.3,1.3,2.6,2.6,3.9,3.9c0.2,0.2,0.4,0.3,0.6,0.4
			c0,0,0,0,0,0c0.1,0.1,0.2,0,0.2,0c0.2,0,0.3,0,0.5-0.1c0.2-0.1,0.4-0.2,0.6-0.4c0.2-0.2,0.4-0.4,0.6-0.6c1.8-1.8,3.6-3.6,5.4-5.4
			C18.6,9.8,18.7,9.7,18.7,9.7z"/>
		<path fill="#FFFFFF" d="M11.7,11.7c0,0,0.1-0.1,0.1-0.1c1.8-1.8,3.6-3.6,5.4-5.4c0,0,0.1-0.1,0.1-0.1c0.2-0.2,0.5-0.2,0.7,0
			c0,0,0,0,0.1,0.1c0.4,0.4,0.7,0.7,1.1,1.1c0,0,0.1,0,0.1,0.1c0.2,0.2,0.2,0.5,0,0.6c0,0-0.1,0.1-0.1,0.1c-1.6,1.6-3.1,3.1-4.7,4.7
			c-0.8,0.8-1.5,1.5-2.3,2.3c0,0-0.1,0-0.1,0.1c-0.2,0.2-0.5,0.2-0.7,0c-0.4-0.4-0.7-0.7-1.1-1.1c-0.9-0.9-1.8-1.8-2.8-2.8
			c0,0-0.1-0.1-0.1-0.1c-0.2-0.2-0.2-0.4,0-0.6c0,0,0,0,0.1-0.1C7.8,10,8.1,9.7,8.5,9.3c0.1-0.1,0.1-0.1,0.2-0.1
			c0.2-0.1,0.3,0,0.5,0.1c0,0,0.1,0.1,0.1,0.1c0.8,0.8,1.5,1.5,2.3,2.3C11.6,11.7,11.7,11.7,11.7,11.7z"/>
	</g>
	<path fill="#FFFFFF" d="M5.9,58.2c1.3,0.9,2.9,1.4,4.6,1.4c5.6,0,8.8-4.7,8.6-9c0.6-0.4,1.1-1,1.5-1.6c-0.5,0.2-1.1,0.4-1.7,0.5
		c0.6-0.4,1.1-1,1.3-1.7c-0.6,0.3-1.2,0.6-1.9,0.7c-0.6-0.6-1.3-1-2.2-1c-1.9,0-3.4,1.8-2.9,3.7c-2.5-0.1-4.7-1.3-6.2-3.2
		c-0.8,1.4-0.4,3.1,0.9,4c-0.5,0-1-0.2-1.4-0.4c0,1.4,1,2.7,2.4,3c-0.4,0.1-0.9,0.1-1.4,0.1c0.4,1.2,1.5,2.1,2.8,2.1
		C9.1,57.9,7.5,58.4,5.9,58.2z"/>
	<g>
		<path fill="#FFFFFF" d="M13.3,71.9c1,0,2,0.4,2.7,1.1h4.7v-1.9h0c0-1.6-1.3-2.9-2.9-2.9H9.8v3.6H9.2v-3.6H8.8c0,0,0,0-0.1,0v3.6
			H8.2v-3.6c-0.1,0-0.3,0.1-0.4,0.1v3.4H7.2v-3.1c-0.7,0.5-1.2,1.4-1.2,2.4V73h4.6C11.3,72.3,12.2,71.9,13.3,71.9z M16.8,69.9
			c0-0.3,0.2-0.5,0.5-0.5h1.6c0.3,0,0.5,0.2,0.5,0.5v1.6c0,0.3-0.2,0.5-0.5,0.5h-1.6c-0.3,0-0.5-0.2-0.5-0.5V69.9z"/>
		<path fill="#FFFFFF" d="M15.2,73.5c-0.2-0.2-0.5-0.3-0.7-0.5c-0.4-0.2-0.8-0.3-1.2-0.3c-0.4,0-0.8,0.1-1.2,0.3
			c-0.3,0.1-0.5,0.3-0.7,0.5c-0.6,0.5-1,1.3-1,2.2c0,1.6,1.3,2.9,2.9,2.9c1.6,0,2.9-1.3,2.9-2.9C16.1,74.8,15.8,74,15.2,73.5z
			 M13.3,77.8c-1.2,0-2.1-1-2.1-2.1c0-1.2,1-2.1,2.1-2.1s2.1,1,2.1,2.1C15.4,76.8,14.4,77.8,13.3,77.8z"/>
		<path fill="#FFFFFF" d="M8.8,82.9h8.8c1.6,0,2.9-1.3,2.9-2.9v-6.6h-4.3c0.4,0.6,0.7,1.4,0.7,2.2c0,2.1-1.7,3.7-3.7,3.7
			c-2.1,0-3.7-1.7-3.7-3.7c0-0.8,0.3-1.6,0.7-2.2H5.9V80C5.9,81.6,7.2,82.9,8.8,82.9z"/>
	</g>
	<path fill="#FFFFFF" d="M17.1,27.8c-1.7,0-3.2,1-3.9,2.4c-0.7-1.4-2.2-2.4-3.9-2.4C7,27.8,5,29.7,5,32.1c0,2.4,1.9,4.4,4.4,4.4
		c1.7,0,3.2-1,3.9-2.4c0.7,1.4,2.2,2.4,3.9,2.4c2.4,0,4.4-1.9,4.4-4.4C21.5,29.7,19.6,27.8,17.1,27.8z M17.1,35.3
		c-1.8,0-3.2-1.4-3.2-3.2c0-1.8,1.4-3.2,3.2-3.2c1.8,0,3.2,1.4,3.2,3.2C20.3,33.9,18.9,35.3,17.1,35.3z"/>
	<text transform="matrix(1 0 0 1 26.5036 15.2506)"><tspan x="0" y="0" fill="#FFFFFF" font-family="'HelveticaNeue-Medium'" font-size="10">Foursquare</tspan><tspan x="0" y="21.5" fill="#FFFFFF" font-family="'HelveticaNeue-Medium'" font-size="10">Flickr</tspan><tspan x="0" y="43" fill="#FFFFFF" font-family="'HelveticaNeue-Medium'" font-size="10">Twitter</tspan><tspan x="0" y="64.5" fill="#FFFFFF" font-family="'HelveticaNeue-Medium'" font-size="10">Instagram</tspan></text>
	<g>
		<path fill="none" stroke="#37474F" stroke-width="0.75" d="M86,81.6c0,2.8-2.2,5-5,5H5c-2.8,0-5-2.2-5-5V5c0-2.8,2.2-5,5-5h76
			c2.8,0,5,2.2,5,5V81.6z"/>
	</g>
</g>
</svg>
