<?xml version="1.0" encoding="utf-8"?>
<!-- Generator: Adobe Illustrator 18.0.0, SVG Export Plug-In . SVG Version: 6.00 Build 0)  -->
<!DOCTYPE svg PUBLIC "-//W3C//DTD SVG 1.1//EN" "http://www.w3.org/Graphics/SVG/1.1/DTD/svg11.dtd">
<svg version="1.1" id="Layer_1" xmlns="http://www.w3.org/2000/svg" xmlns:xlink="http://www.w3.org/1999/xlink" x="0px" y="0px"
	 viewBox="0 0 48 48" enable-background="new 0 0 48 48" xml:space="preserve">
<g>
	<polygon fill="#{color}" points="16.3,12.9 29.3,24 16.3,35.1 19.1,38.4 35.8,24 19.1,9.6 	"/>
	<path fill="#{color}" d="M42.3,0H5.7C2.6,0,0,2.6,0,5.7v36.5C0,45.4,2.6,48,5.7,48h36.5c3.2,0,5.7-2.6,5.7-5.7V5.7
		C48,2.6,45.4,0,42.3,0z M47,42.3c0,2.6-2.1,4.8-4.8,4.8H5.7C3.1,47,1,44.9,1,42.3V5.7C1,3.1,3.1,1,5.7,1h36.5C44.9,1,47,3.1,47,5.7
		V42.3z"/>
</g>
</svg>
