<?xml version="1.0" encoding="utf-8"?>
<!-- Generator: Adobe Illustrator 17.1.0, SVG Export Plug-In . SVG Version: 6.00 Build 0)  -->
<!DOCTYPE svg PUBLIC "-//W3C//DTD SVG 1.1//EN" "http://www.w3.org/Graphics/SVG/1.1/DTD/svg11.dtd">
<svg version="1.1" id="Your_Icon" xmlns="http://www.w3.org/2000/svg" xmlns:xlink="http://www.w3.org/1999/xlink" x="0px" y="0px"
	 viewBox="37.4 20.1 28.8 29.9" enable-background="new 37.4 20.1 28.8 29.9" xml:space="preserve">
<g>
	<path fill="#607D8B" d="M51.8,48.8c-7.9,0-14.4-6.5-14.4-14.4S43.9,20,51.8,20s14.4,6.5,14.4,14.4S59.7,48.8,51.8,48.8z M51.8,22.3
		c-6.7,0-12.2,5.5-12.2,12.2s5.5,12.2,12.2,12.2S64,41.2,64,34.4S58.5,22.3,51.8,22.3z"/>
</g>
<g>
	<path fill="#607D8B" d="M65.1,35.6H38.5c-0.6,0-1.1-0.5-1.1-1.1c0-0.6,0.5-1.1,1.1-1.1h26.6c0.6,0,1.1,0.5,1.1,1.1C66.2,35.1,65.7,35.6,65.1,35.6z
		"/>
</g>
<g>
	<path fill="#607D8B" d="M51.8,48.8c-0.3,0-0.6-0.1-0.8-0.3c-0.3-0.3-6.2-6.3-6.2-14c0-7.7,5.9-13.8,6.2-14c0.2-0.2,0.5-0.3,0.8-0.3l0,0
		c0.3,0,0.6,0.1,0.8,0.3c0.3,0.3,6.2,6.3,6.2,14c0,7.7-5.9,13.8-6.2,14C52.4,48.7,52.1,48.8,51.8,48.8z M51.8,22.9
		c-1.5,1.9-4.7,6.4-4.7,11.6c0,5.2,3.2,9.7,4.7,11.6c1.5-1.9,4.7-6.4,4.7-11.6C56.5,29.3,53.3,24.8,51.8,22.9z"/>
</g>
<g>
	<path fill="#607D8B" d="M51.8,28.9c-4,0-7.8-0.8-10.5-2.1c-0.5-0.3-0.8-0.9-0.5-1.5c0.3-0.5,0.9-0.8,1.5-0.5c2.4,1.2,5.8,1.9,9.5,1.9
		c3.7,0,7.1-0.7,9.5-1.9c0.5-0.3,1.2-0.1,1.5,0.5c0.3,0.5,0.1,1.2-0.5,1.5C59.7,28.1,55.8,28.9,51.8,28.9z"/>
</g>
<g>
	<path fill="#607D8B" d="M41.8,43.9c-0.4,0-0.8-0.2-1-0.6c-0.3-0.5-0.1-1.2,0.5-1.5c2.7-1.4,6.5-2.1,10.5-2.1c4,0,7.8,0.8,10.5,2.1
		c0.5,0.3,0.8,0.9,0.5,1.5c-0.3,0.5-0.9,0.8-1.5,0.5c-2.4-1.2-5.8-1.9-9.5-1.9c-3.7,0-7.1,0.7-9.5,1.9C42.1,43.8,42,43.9,41.8,43.9z
		"/>
</g>
</svg>
