<?xml version="1.0" encoding="utf-8"?>
<!-- Generator: Adobe Illustrator 18.1.1, SVG Export Plug-In . SVG Version: 6.00 Build 0)  -->
<svg version="1.1" id="Layer_1" xmlns="http://www.w3.org/2000/svg" xmlns:xlink="http://www.w3.org/1999/xlink" x="0px" y="0px"
	 viewBox="0 0 612 419" enable-background="new 0 0 612 419" xml:space="preserve">
<path fill="#2878AA" d="M254.1,127.2v201.2h127.6V127.2H254.1z M366.3,153c0,0-1.7,4.2-2,5.7c-0.2,1.5-1.2,2.5,0,5.2
	c1.2,2.7-3.7,17-3.9,18.7c-0.2,1.7-10,10.6-10.2,11.3c-0.2,0.7-9.4,7.4-10.2,7.4c-0.7,0,1.8,24.6,1.8,24.6l1.4,12.8
	c0,0-1.5,2.7-2.2,3.7c-0.7,1-0.2,3-0.2,3l2,24.6c0,0-1.2,16.5-4.2,19.2c-3,2.7-6.9-0.5-8.4-1.2c-1.5-0.7-3.7-3.4-8.6-2
	c-4.9,1.5-13.8-12.3-22.6-23.4c-2.6-3.3-5.4,0.2-10.1-1.7c-3-1.2,1.5-4.7,1.5-4.7s-2-1.7-3.2-3.4c-1.2-1.7-5.7,0-8.6-2.2
	c-3-2.2,6.9-4.2,6.9-4.2s7.9-0.8,12.5-1c3.8-0.1,4.7,1,4.7,1c3.2,0,0.4,7.5,0.4,7.5s4.3-1,8.5-0.7c4.3,0.3,0,7.9,0,7.9l7.2,5.2
	c0,0-4-12.1-4.3-13.8c-0.3-1.6,1.6-8.9,1.6-8.9s-3.1-10.1-4.1-15.9c-1.4-7.5-6.7-22.9-6.7-22.9s-10.5,2.5-22.9-4.8
	c-1.7-1-11.9-17.1-11.9-17.1s-1-4.8-3.9-9c-3-4.3-3.2-9.3,1.6-9.5c5-0.2,5.4,3.8,5.4,3.8s1.1,1.3,1.6,1.2c1.9-0.5,1.5,6.7,1.5,6.7
	l11.6,16l22.3,2.3l-0.3-2.3l2-1c0,0-3-7.9-3-10.8c0-3-1.3-6.2,8.2-5.9c9.5,0.3,7.9,12.8,7.9,12.8s5.2,0,8.2,0c3,0,16.1-6.6,16.1-6.6
	s5.7-13.3,6-17.3c0.3-3.9,0.2-5.2,0.2-5.2s0.3-0.6-0.6-3.8c-1-3.3-1.5-1.2,0.1-4.2c1.6-3-0.5,0.7,2.5-5.9c3-6.6,8.6,1.8,8.6,1.8
	C367.9,145.8,366.3,153,366.3,153z"/>
<g>
	<defs>
		<rect id="SVGID_1_" x="119" y="38" width="122.8" height="290.5"/>
	</defs>
	<clipPath id="SVGID_2_">
		<use xlink:href="#SVGID_1_"  overflow="visible"/>
	</clipPath>
	<path clip-path="url(#SVGID_2_)" fill="#A9BF38" d="M83.5,86l2.6-0.8h4l2.6-2.6c0,0,2.8,1.8,3.4,2c0.6,0.2,2.4,0.2,2.4,0.2
		s6.2-4.6,6.7-4.6c0.6,0,7.1,4.2,7.1,4.2l1.8-1.2l5.2,2.2l1.6-0.2l6.5-1.7l7.1,6.4l7.8-3.9l16.3,9.2l13.5-8.2l3,1.2l18.9-13.3
		l13,8.1l10.5-8c0,0,10.3,5.2,11.7,6c1.4,0.8,13.1,7.8,13.1,7.8l12.8-6.2l5.4-3.2l5.9,3.6c0,0,25.8-9,25.8-8.1
		c0.6,25.7,0,40.8,0,40.8L84,114.9L83.5,86z"/>
	<g clip-path="url(#SVGID_2_)">
		<path fill="#A9BF38" d="M142.2,222.5c0.1-0.1,0.2-0.3,0.3-0.5c-9.5,3.3-19,8.5-19,8.5s14.5-12.9,20.8-19.6c1-1.1,2.1-2.5,3.3-4.1
			l-21,4.8c0,0,14.7-7.5,18.5-17.2c0.2-0.4,0.4-0.9,0.6-1.4l-14.2,4c0,0,13.9-11.1,17-16.7c4-7.1,3.9-6.7,6.7-14.5
			c0,0,1.4,3.4,6.3,15.9c3.7,9.5,22.4,16.8,22.4,16.8l-20.4-7.1c0.7,1,1.5,2.1,2.4,3.1c8.7,10,20.8,17.5,20.8,17.5l-23.1-6.2
			c1.4,2.5,3.1,4.9,5.3,7.2c9,9.2,17.4,11.7,21.6,12.3c1.7,0.2,2.7,0.2,2.7,0.2s-1,0-2.7-0.2c-4.3-0.4-12.9-1.3-20.6-2.6
			c5.8,12.7,27,24.7,27,24.7l-20.8-8.2c11.8,11.1,19.6,14.6,23.1,15.7c6.8-2.6,13.8-3.9,20.9-3.5c9.7,0.6,16.7,2.9,21.5,3.7V110.5
			H119.1v133.9C123.5,241,137.5,229.9,142.2,222.5z M181.5,184.4c0,0,11.2-6.4,14.2-13c-4.1,0.7-8.6,1.2-10.9,1.4
			c-0.9,0.1-1.4,0.1-1.4,0.1s0.5,0,1.4-0.1c2.2-0.3,6.6-1.6,11.4-6.5c1.2-1.2,2.1-2.5,2.8-3.8l-12.2,3.3c0,0,6.4-4,11-9.2
			c0.5-0.5,0.9-1.1,1.3-1.6l-10.7,3.7c0,0,9.9-3.8,11.8-8.9c2.5-6.6,3.3-8.4,3.3-8.4c1.5,4.1,1.5,3.9,3.6,7.6c1.6,2.9,9,8.8,9,8.8
			l-7.5-2.1c0.1,0.2,0.2,0.5,0.3,0.7c2,5.1,9.8,9,9.8,9l-11.1-2.5c0.6,0.8,1.2,1.6,1.7,2.1c3.3,3.5,11,10.3,11,10.3s-5-2.8-10-4.5
			c0,0.1,0.1,0.2,0.2,0.2c2.9,4.6,12.8,12,12.8,12l-13.5-5.1c3.5,5.5,18.5,15.9,18.5,15.9s-13.7-5.8-22.7-6.9l-0.2,2.7l0.3,3v3.9
			c0,1.1-0.9,2-2,2c0,0-2.3,2.1-2.2-0.1l0.3-5.5l-0.3-6.1c-5.4,0.4-22.1,1.7-22.1,1.7s4.6-0.3,13.3-8.6L181.5,184.4z"/>
		<path fill="#A9BF38" d="M185.6,294c-5.6,14-14.1,25.4-23.4,34.4h79.5v-70.7C216.3,255.9,191,280.4,185.6,294z"/>
		<path fill="#A9BF38" d="M198.6,255.6c-7.6-0.6-28.4-2.5-38.9-4.5l0,1.2l-0.6,11.9l0.5,10.4c0,4.2-4.3,0.2-4.3,0.2
			c-2.1,0-3.9-1.7-3.9-3.9v-7.4l0.6-5.6l-0.6-6.3v-2.1c-9.9-0.2-23.1,5.6-32.3,10.3v44.8c9.8-2.3,30.5-8.2,39-18.1
			C169.6,273.4,183.6,261.4,198.6,255.6z"/>
		<path fill="#A9BF38" d="M119.1,244.9v13.3c8.8-6.7,20.5-16.1,24.4-22.4L119.1,244.9z"/>
	</g>
</g>
<g>
	<defs>
		<polygon id="SVGID_3_" points="385.7,329 254.1,329 254.2,0 385.7,0 		"/>
	</defs>
	<clipPath id="SVGID_4_">
		<use xlink:href="#SVGID_3_"  overflow="visible"/>
	</clipPath>
	<g clip-path="url(#SVGID_4_)">
		<defs>
			<path id="SVGID_5_" d="M519.4,135.7v-7.2v-7.2l0-1.8h-2.8l-0.1-0.6h-1.9v-2.2h-2.3v-0.8h-2.2v-1h-3.2v1.2h-1.5v0.9l-1,0.1v2.2
				h-3.1l-0.1,0.7h-2l-0.1,5.7h-0.4l-0.1-1.3l-3.1-0.1v1.4l-5.8-0.1L488,64.3l-2.8-0.1l-0.5-12.3l-3-1.7L442,51.6l0.6,17.1l-9.6,0.6
				l1.4,59l-9.3,0.2l-1.4-56.8l-4.1-1.4l-7.5,0.1L411.7,49l-4.1-1.5L389,48.1l0.1,4.9h-1.9v4.3l-2.5,0.1l1.2,49.3l-1,0.1l-0.5-0.8
				l-14.4,0.1l0,1.7h-11.4l-0.8-18.3l-3.5-0.8l-8.9,0.1c0,0,0-3.7-0.1-4.3c-0.1-0.6-2.4-0.5-2.4-0.5l0-13.7l-0.8-0.5
				c0,0,0-8.7,0-10.1c0-0.7-3.4-0.6-3.4-0.6l-0.2-20.5l-0.2-6.9c0,0,0-0.5-7.3-0.8c-7.3-0.3-7.8,0.9-7.8,0.9v28.5h-2.9v2.2v7.1h-0.7
				l0,14.4l-1.1,0c0,0,0-8.8,0-9.7c0-0.9-7.4-2.5-7.4-2.5s-0.1-4.3-0.1-5.9c0-1.2-10.2-2.1-11.8-2c-1.6,0.1-2.1,1.2-2.1,1.2l0.1,5.9
				h-3.9v9.5h-0.9v46.6h-6.8v-39l-9-1.6h-14.8v8.7h-0.7v-3.4h-0.9v-1.9H259l0.1-1.5h-2.1h-11.8V90h-0.9l0.2,2l-1,0.1l0.1,2l-3.5-0.2
				l0.1-1.3l-0.8-0.7L225,92.5v1h-2.5V67.9l-0.9-0.3l0.2-3l-5-1L196,63.9l0.2,3.6h-1.4v61.6l-11.5-0.1v-13.6h-1.9l-1.3-2.8h-16.5
				l-1,2.2l-2.5,0.1l-0.2,7.8l-8.2,0.5l-0.2,1.9l-12.5,0.2l0.3-14.1h-0.9l0.1-11.1H138l0-3.1c0,0-4.3-0.9-10.1-0.9
				c-5.7,0-8,0.8-8,0.8l0.1,3.1l-0.8,0.1v11.1h-0.5l0.1,15.9l-1,0.2v9v-0.5L519.4,135.7z"/>
		</defs>
		<clipPath id="SVGID_6_">
			<use xlink:href="#SVGID_5_"  overflow="visible"/>
		</clipPath>
		<rect x="119.1" y="33.7" clip-path="url(#SVGID_6_)" fill="#A9BF38" width="122.6" height="319.2"/>
		<rect x="254.1" y="35.2" clip-path="url(#SVGID_6_)" fill="#2878AA" width="127.6" height="319.2"/>
		<rect x="391.5" y="35" clip-path="url(#SVGID_6_)" fill="#D6B329" width="127.6" height="319.2"/>
	</g>
</g>
<path fill="none" stroke="#FFFFFF" stroke-miterlimit="10" d="M346.9,217.3"/>
<path fill="#FFFFFF" d="M348.7,286.5"/>
<path fill="#D6B329" d="M518.2,137.1l0.3-0.4c0,0-2.9-3.3-9.1-4.2c-6.2-0.8-46.8,1.2-50.1-5c-0.5-1,0.7-0.5,1.2-1.3
	c0.9-1.6,2.4-1.5,3.7-2c0.8-0.3,2.4,0,3-0.5c0.4-0.4-2.5-0.8-0.7-0.8c1,0,5.2,0,5.2,0l1-0.2h1.7l3.3-0.2h1.8l1.7,0.2l1.2-0.3
	l5.5-0.2l2.8-0.3l13.7-0.5c0,0,1.7,0.1,2.2-0.3c0.5-0.4,1-0.9,1.5-0.9c1,0,4.2-0.1,4.2-0.1l2.4,0h2.5c0,0,0.6-1.1,0.5-1.5
	c0-0.3-1.4-1.5-1.4-1.5l-3.5-0.7c0,0-1.6,0.7-2,0.7s-1.7-0.7-1.7-0.7l-1.3,0.3l-4.2-1.1c0,0-1.3,0-1.8,0.5s-2.4-1.4-2.7-1
	c-0.7,0.9-1.4,0.1-1.4,0.1s-0.3-3.4-3.5-4.8s-8.2-4-9.3-4.8c-1.2-0.8-0.7,0.3-2.2,0c-1.5-0.3-5.5-0.8-6.5-0.7
	c-0.5,0.1-10,0.1-19.3,0.1l0,0c-4.1-0.7-13.2-0.6-19-0.5c-1.3-0.1-3.2-0.2-5-0.2l-5.1-48.8l0.2-2.9l1.4-0.9l0.3-0.9l-0.9-0.9
	l-1.5-0.3v-2.6l2.4-0.3v-2.6l-3.1-1.2l-0.3-3.6l0.6-0.5l-4.4-2.7c0,0,1-1.4-0.5-1.6c-0.7-0.1-1.2,0.6-0.7,1.1c0.5,0.5,0,0.8,0,0.8
	l-3.8,2.1l0.3,0.9l-0.1,3.5l-3,1.5l0,2.4l2.9,0.3l0,2.5h-1.1l-1.3,0.4l-0.6,0.9l0.4,0.7l1.8,0.9l0.1,2.1l0.2,1.9l-1.7,48.1
	l-24.1,1.3l0.1,21.7V190h0.2v138.4H519V137.1H518.2z M482.4,191.4c0.5-0.7,1.3-1.6,2.3-2.7c1.9-2.2,4.7-4.9,7.6-7.4
	c2.9-2.5,6-4.8,8.4-6.4c1.2-0.8,2.3-1.4,3-1.9c0.7-0.4,1.2-0.6,1.2-0.6s-0.3,0.4-0.8,1.1c-0.5,0.7-1.3,1.6-2.3,2.7
	c-1.9,2.2-4.7,4.9-7.6,7.4c-2.9,2.5-6,4.8-8.4,6.4c-1.2,0.8-2.3,1.4-3,1.9c-0.7,0.4-1.2,0.6-1.2,0.6S481.9,192.1,482.4,191.4z
	 M454.9,158.5c0.2-1.5,0.4-2.7,0.6-3.6c0.2-0.9,0.3-1.4,0.3-1.4s0.1,0.5,0.3,1.4c0.2,0.9,0.4,2.1,0.6,3.6c0.4,3,0.6,7,0.6,11
	c0,4-0.2,8-0.6,11c-0.2,1.5-0.4,2.7-0.6,3.6c-0.2,0.9-0.3,1.4-0.3,1.4s-0.1-0.5-0.3-1.4c-0.2-0.9-0.4-2.1-0.6-3.6
	c-0.4-3-0.6-7-0.6-11C454.2,165.4,454.5,161.5,454.9,158.5z M408.2,170.7c0.8,0.6,1.9,1.5,3.1,2.7c0.6,0.6,1.3,1.2,2,1.9
	c0.7,0.7,1.5,1.3,2.2,2.1c1.5,1.5,3.1,3.1,4.6,4.7c1.5,1.7,3,3.3,4.4,5c1.4,1.6,2.6,3.2,3.5,4.6c1,1.4,1.7,2.6,2.3,3.4
	c0.5,0.8,0.8,1.4,0.8,1.4s-0.5-0.3-1.2-1c-0.8-0.6-1.9-1.5-3.1-2.7c-0.6-0.6-1.3-1.2-2-1.9c-0.7-0.7-1.5-1.3-2.2-2.1
	c-1.5-1.5-3.1-3-4.6-4.7c-1.5-1.6-3-3.3-4.4-4.9c-1.4-1.6-2.6-3.2-3.5-4.6c-1-1.4-1.8-2.6-2.3-3.4c-0.5-0.8-0.8-1.4-0.8-1.4
	S407.4,170.1,408.2,170.7z M397.2,222.7c-1.5-0.2-2.8-0.4-3.7-0.6c-0.9-0.2-1.4-0.3-1.4-0.3s0.5-0.1,1.4-0.3
	c0.9-0.2,2.2-0.4,3.7-0.6c3.1-0.4,7.1-0.6,11.2-0.6c4.1,0,8.1,0.2,11.2,0.6c1.5,0.2,2.8,0.4,3.7,0.6c0.9,0.2,1.4,0.3,1.4,0.3
	s-0.5,0.1-1.4,0.3c-0.9,0.2-2.2,0.4-3.7,0.6c-3.1,0.4-7.1,0.6-11.2,0.6C404.4,223.3,400.3,223.1,397.2,222.7z M433.2,246.4
	c-0.5,0.8-1.2,2-2.2,3.4c-0.9,1.4-2.1,3-3.4,4.6c-1.3,1.7-2.7,3.4-4.1,5.1c-1.5,1.7-2.9,3.3-4.4,4.9c-1.5,1.5-2.8,2.9-4.1,4
	c-1.2,1.2-2.3,2.1-3.1,2.7c-0.8,0.6-1.2,1-1.2,1s0.3-0.5,0.8-1.4c0.5-0.9,1.2-2.1,2.2-3.4c0.9-1.4,2.1-3,3.4-4.6
	c1.3-1.7,2.7-3.4,4.1-5.1c1.5-1.7,2.9-3.3,4.4-4.9c1.5-1.5,2.8-2.9,4.1-4c1.2-1.2,2.3-2.1,3.1-2.7c0.8-0.6,1.2-1,1.2-1
	S433.7,245.6,433.2,246.4z M457.2,281.7c-0.1,2.3-0.2,4.5-0.3,6.3c-0.1,1.9-0.3,3.4-0.5,4.5c-0.1,1.1-0.3,1.7-0.3,1.7
	s-0.1-0.6-0.3-1.7c-0.2-1.1-0.4-2.6-0.7-4.5c-0.2-1.9-0.4-4-0.6-6.3c-0.2-2.3-0.3-4.8-0.3-7.3c0-2.5,0-4.9,0-7.3
	c0.1-2.3,0.2-4.5,0.3-6.3c0.1-1.9,0.3-3.4,0.5-4.5c0.1-1.1,0.3-1.7,0.3-1.7s0.1,0.6,0.3,1.7c0.2,1.1,0.4,2.6,0.6,4.5
	c0.2,1.9,0.4,4,0.6,6.3c0.2,2.3,0.3,4.8,0.3,7.3C457.3,276.9,457.3,279.4,457.2,281.7z M456.4,243.7c-13.6,0-24.5-11-24.5-24.5
	c0-13.6,11-24.5,24.5-24.5c13.6,0,24.5,11,24.5,24.5C480.9,232.7,469.9,243.7,456.4,243.7z M502.5,269.5c-0.8-0.6-2-1.4-3.3-2.5
	c-1.3-1.1-2.9-2.4-4.5-3.8c-1.6-1.4-3.2-3-4.8-4.6c-1.6-1.6-3.2-3.3-4.6-4.8c-1.4-1.6-2.7-3.1-3.8-4.5c-1.1-1.3-1.9-2.5-2.5-3.3
	c-0.6-0.8-0.9-1.3-0.9-1.3s0.5,0.3,1.3,0.9c0.8,0.6,2,1.4,3.3,2.5c1.3,1.1,2.9,2.4,4.5,3.8c1.6,1.4,3.2,3,4.8,4.6
	c1.6,1.6,3.2,3.3,4.6,4.8c1.4,1.6,2.7,3.1,3.8,4.5c1.1,1.3,1.9,2.5,2.5,3.3c0.6,0.8,0.9,1.3,0.9,1.3S503.3,270.1,502.5,269.5z
	 M515,222.1c-0.8,0.2-2,0.4-3.4,0.6c-2.8,0.4-6.5,0.6-10.3,0.6c-3.7,0-7.5-0.2-10.3-0.6c-1.4-0.2-2.6-0.4-3.4-0.6
	c-0.8-0.2-1.3-0.3-1.3-0.3s0.5-0.1,1.3-0.3c0.8-0.2,2-0.4,3.4-0.6c2.8-0.4,6.5-0.6,10.3-0.6c3.7,0,7.5,0.2,10.3,0.6
	c1.4,0.2,2.6,0.4,3.4,0.6c0.8,0.2,1.3,0.3,1.3,0.3S515.8,221.9,515,222.1z"/>
<g>
	<path fill="#2878AA" d="M147.5,349.5c0,4.5-1.4,8-4.2,10.4c-2.8,2.4-6.8,3.6-12.1,3.6h-3.8v15h-8.9v-42h13.4c5.1,0,9,1.1,11.6,3.3
		C146.2,341.8,147.5,345.1,147.5,349.5z M127.4,356.1h2.9c2.7,0,4.8-0.5,6.2-1.6s2-2.7,2-4.7c0-2.1-0.6-3.6-1.7-4.6
		c-1.1-1-2.9-1.5-5.4-1.5h-4.1V356.1z"/>
	<path fill="#2878AA" d="M175.2,378.4l-1.7-4.4h-0.2c-1.5,1.9-3,3.1-4.6,3.9c-1.6,0.7-3.6,1.1-6.1,1.1c-3.1,0-5.5-0.9-7.3-2.6
		c-1.8-1.8-2.7-4.3-2.7-7.5c0-3.4,1.2-5.9,3.6-7.5c2.4-1.6,6-2.5,10.8-2.7l5.6-0.2V357c0-3.3-1.7-4.9-5-4.9c-2.6,0-5.6,0.8-9.1,2.3
		l-2.9-5.9c3.7-1.9,7.8-2.9,12.3-2.9c4.3,0,7.6,0.9,9.9,2.8c2.3,1.9,3.5,4.7,3.5,8.6v21.4H175.2z M172.6,363.5l-3.4,0.1
		c-2.5,0.1-4.4,0.5-5.7,1.4s-1.9,2.1-1.9,3.9c0,2.5,1.4,3.7,4.3,3.7c2,0,3.7-0.6,4.9-1.8c1.2-1.2,1.8-2.7,1.8-4.7V363.5z"/>
	<path fill="#2878AA" d="M208.3,345.6c1.2,0,2.2,0.1,3,0.3l-0.7,8.2c-0.7-0.2-1.6-0.3-2.6-0.3c-2.8,0-5,0.7-6.5,2.2
		c-1.6,1.4-2.3,3.5-2.3,6v16.4h-8.8v-32.1h6.6l1.3,5.4h0.4c1-1.8,2.3-3.3,4-4.4C204.4,346.2,206.3,345.6,208.3,345.6z"/>
	<path fill="#2878AA" d="M225.5,360.9l3.8-4.9l9-9.8h9.9l-12.8,13.9l13.5,18.2h-10.1l-9.3-13l-3.8,3v10h-8.8v-44.7h8.8v20l-0.5,7.3
		H225.5z"/>
	<path fill="#2878AA" d="M276,368.8c0,3.3-1.1,5.8-3.4,7.5c-2.3,1.7-5.7,2.6-10.3,2.6c-2.3,0-4.3-0.2-6-0.5
		c-1.6-0.3-3.2-0.8-4.6-1.4v-7.2c1.6,0.8,3.5,1.4,5.5,1.9c2,0.5,3.8,0.8,5.4,0.8c3.2,0,4.8-0.9,4.8-2.8c0-0.7-0.2-1.2-0.6-1.7
		c-0.4-0.4-1.2-0.9-2.2-1.5c-1-0.5-2.4-1.2-4.1-1.9c-2.5-1-4.3-2-5.4-2.9c-1.2-0.9-2-1.9-2.5-3c-0.5-1.1-0.8-2.5-0.8-4.2
		c0-2.9,1.1-5.1,3.3-6.6c2.2-1.6,5.4-2.3,9.4-2.3c3.9,0,7.6,0.8,11.3,2.5l-2.6,6.3c-1.6-0.7-3.1-1.3-4.5-1.7
		c-1.4-0.4-2.8-0.7-4.3-0.7c-2.6,0-3.9,0.7-3.9,2.1c0,0.8,0.4,1.5,1.3,2c0.8,0.6,2.7,1.4,5.5,2.6c2.5,1,4.4,2,5.5,2.8
		c1.2,0.9,2,1.9,2.6,3C275.8,365.9,276,367.2,276,368.8z"/>
	<path fill="#A9BF38" d="M292.3,378.4h-8.8v-42h24.1v7.3h-15.3v10.8h14.3v7.3h-14.3V378.4z"/>
	<path fill="#A9BF38" d="M344.4,362.2c0,5.2-1.4,9.3-4.1,12.3c-2.8,3-6.6,4.4-11.5,4.4c-3.1,0-5.8-0.7-8.2-2
		c-2.4-1.4-4.2-3.3-5.4-5.8c-1.3-2.5-1.9-5.5-1.9-8.9c0-5.3,1.4-9.3,4.1-12.2s6.6-4.4,11.6-4.4c3.1,0,5.8,0.7,8.2,2
		c2.4,1.3,4.2,3.3,5.4,5.8C343.8,355.9,344.4,358.9,344.4,362.2z M322.2,362.2c0,3.2,0.5,5.6,1.6,7.2c1,1.6,2.7,2.4,5.1,2.4
		c2.3,0,4-0.8,5-2.4s1.5-4,1.5-7.2c0-3.2-0.5-5.6-1.6-7.2c-1-1.6-2.7-2.4-5.1-2.4c-2.3,0-4,0.8-5.1,2.4
		C322.7,356.7,322.2,359,322.2,362.2z"/>
	<path fill="#A9BF38" d="M369.6,345.6c1.2,0,2.2,0.1,3,0.3l-0.7,8.2c-0.7-0.2-1.6-0.3-2.6-0.3c-2.8,0-5,0.7-6.5,2.2s-2.3,3.5-2.3,6
		v16.4h-8.8v-32.1h6.6l1.3,5.4h0.4c1-1.8,2.3-3.3,4-4.4C365.7,346.2,367.6,345.6,369.6,345.6z"/>
	<path fill="#A9BF38" d="M404.8,378.4l-2.5-11.2l-3.3-14.2h-0.2l-5.9,25.4h-9.4l-9.1-32.1h8.7l3.7,14.2c0.6,2.5,1.2,6.1,1.8,10.6
		h0.2c0.1-1.5,0.4-3.8,1-6.9l0.5-2.4l4-15.4h9.7l3.8,15.4c0.1,0.4,0.2,1,0.4,1.9s0.3,1.7,0.5,2.6c0.2,0.9,0.3,1.8,0.4,2.7
		c0.1,0.9,0.2,1.6,0.2,2.1h0.2c0.2-1.4,0.5-3.3,0.9-5.7c0.4-2.4,0.8-4,0.9-4.9l3.9-14.2h8.6l-9.3,32.1H404.8z"/>
	<path fill="#A9BF38" d="M449.2,378.4l-1.7-4.4h-0.2c-1.5,1.9-3,3.1-4.6,3.9c-1.6,0.7-3.6,1.1-6.1,1.1c-3.1,0-5.5-0.9-7.3-2.6
		c-1.8-1.8-2.7-4.3-2.7-7.5c0-3.4,1.2-5.9,3.6-7.5c2.4-1.6,6-2.5,10.8-2.7l5.6-0.2V357c0-3.3-1.7-4.9-5-4.9c-2.6,0-5.6,0.8-9.1,2.3
		l-2.9-5.9c3.7-1.9,7.8-2.9,12.3-2.9c4.3,0,7.6,0.9,9.9,2.8c2.3,1.9,3.5,4.7,3.5,8.6v21.4H449.2z M446.6,363.5l-3.4,0.1
		c-2.5,0.1-4.4,0.5-5.7,1.4s-1.9,2.1-1.9,3.9c0,2.5,1.4,3.7,4.3,3.7c2,0,3.7-0.6,4.9-1.8c1.2-1.2,1.8-2.7,1.8-4.7V363.5z"/>
	<path fill="#A9BF38" d="M482.3,345.6c1.2,0,2.2,0.1,3,0.3l-0.7,8.2c-0.7-0.2-1.6-0.3-2.6-0.3c-2.8,0-5,0.7-6.5,2.2s-2.3,3.5-2.3,6
		v16.4h-8.8v-32.1h6.6l1.3,5.4h0.4c1-1.8,2.3-3.3,4-4.4C478.5,346.2,480.3,345.6,482.3,345.6z"/>
	<path fill="#A9BF38" d="M501.3,379c-3.8,0-6.7-1.5-8.9-4.4c-2.2-2.9-3.2-7-3.2-12.2c0-5.3,1.1-9.4,3.3-12.3
		c2.2-2.9,5.2-4.4,9.1-4.4c4,0,7.1,1.6,9.3,4.7h0.3c-0.4-2.4-0.7-4.5-0.7-6.4v-10.3h8.8v44.7h-6.7l-1.7-4.2h-0.4
		C508.4,377.4,505.4,379,501.3,379z M504.3,372c2.2,0,3.9-0.7,4.9-2s1.6-3.5,1.7-6.6v-0.9c0-3.5-0.5-5.9-1.6-7.4
		c-1.1-1.5-2.8-2.2-5.2-2.2c-2,0-3.5,0.8-4.6,2.5c-1.1,1.7-1.6,4.1-1.6,7.2s0.5,5.5,1.6,7.1C500.8,371.2,502.3,372,504.3,372z"/>
</g>
<rect x="118.7" y="384.6" fill="#2878AA" width="401.1" height="7.5"/>
<g>
	<defs>
		<rect id="SVGID_7_" x="391.1" y="12.2" width="44" height="317.3"/>
	</defs>
	<clipPath id="SVGID_8_">
		<use xlink:href="#SVGID_7_"  overflow="visible"/>
	</clipPath>
	<path opacity="0.15" clip-path="url(#SVGID_8_)" fill="#FFFFFF" d="M519,137.1v191.3H391.5V190h-0.2v-62.2l-0.1-21.7l24.1-1.3
		l1.7-48.1l-0.2-1.9l-0.1-2.1l-1.8-0.9l-0.4-0.7l0.6-0.9l1.3-0.4h1.1l0-2.5l-2.9-0.3l0-2.4l3-1.5l0.1-3.5l-0.3-0.9l3.8-2.1
		c0,0,0.5-0.3,0-0.8c-0.5-0.5,0-1.2,0.7-1.1c1.5,0.2,0.5,1.6,0.5,1.6l4.4,2.7l-0.6,0.5l0.3,3.6l3.1,1.2v2.6l-2.4,0.3v2.6l1.5,0.3
		l0.9,0.9l-0.3,0.9l-1.4,0.9l-0.2,2.9l5.1,48.8c1.8,0,3.7,0.1,5,0.2c5.7-0.1,14.9-0.2,19,0.5l0,0c9.3,0.1,18.8,0,19.3-0.1
		c1-0.2,5,0.3,6.5,0.7c1.5,0.3,1-0.8,2.2,0c1.2,0.8,6.2,3.5,9.3,4.8s3.5,4.8,3.5,4.8s0.7,0.8,1.4-0.1c0.3-0.4,2.2,1.5,2.7,1
		s1.8-0.5,1.8-0.5l4.2,1.1l1.3-0.3c0,0,1.3,0.7,1.7,0.7s2-0.7,2-0.7l3.5,0.7c0,0,1.3,1.2,1.4,1.5c0,0.3-0.5,1.5-0.5,1.5h-2.5l-2.4,0
		c0,0-3.2,0.1-4.2,0.1c-0.5,0-1,0.5-1.5,0.9c-0.5,0.4-2.2,0.3-2.2,0.3l-13.7,0.5l-2.8,0.3l-5.5,0.2l-1.2,0.3l-1.7-0.2h-1.8l-3.3,0.2
		h-1.7l-1,0.2c0,0-4.2,0-5.2,0c-1.8,0,1.2,0.4,0.7,0.8c-0.5,0.5-2.1,0.2-3,0.5c-1.3,0.5-2.7,0.4-3.7,2c-0.5,0.9-1.7,0.3-1.2,1.3
		c3.4,6.2,44,4.2,50.1,5c6.2,0.8,9.1,4.2,9.1,4.2l-0.3,0.4H519z"/>
</g>
<g>
	<defs>
		<polygon id="SVGID_9_" points="385.7,329 254.1,329 254.2,0 385.7,0 		"/>
	</defs>
	<clipPath id="SVGID_10_">
		<use xlink:href="#SVGID_9_"  overflow="visible"/>
	</clipPath>
	<g clip-path="url(#SVGID_10_)">
		<defs>
			<path id="SVGID_11_" d="M519.4,329V128.5v-7.2l0-1.8h-2.8l-0.1-0.6h-1.9v-2.2h-2.3v-0.8h-2.2v-1h-3.2v1.2h-1.5v0.9l-1,0.1v2.2
				h-3.1l-0.1,0.7h-2l-0.1,5.7h-0.4l-0.1-1.3l-3.1-0.1v1.4l-5.8-0.1L488,64.3l-2.8-0.1l-0.5-12.3l-3-1.7L442,51.6l0.6,17.1l-9.6,0.6
				l1.4,59l-9.3,0.2l-1.4-56.8l-4.1-1.4l-7.5,0.1L411.7,49l-4.1-1.5L389,48.1l0.1,4.9h-1.9v4.3l-2.5,0.1l1.2,49.3l-1,0.1l-0.5-0.8
				l-14.4,0.1l0,1.7h-11.4l-0.8-18.3l-3.5-0.8l-8.9,0.1c0,0,0-3.7-0.1-4.3c-0.1-0.6-2.4-0.5-2.4-0.5l0-13.7l-0.8-0.5
				c0,0,0-8.7,0-10.1c0-0.7-3.4-0.6-3.4-0.6l-0.2-20.5l-0.2-6.9c0,0,0-0.5-7.3-0.8c-7.3-0.3-7.8,0.9-7.8,0.9v28.5h-2.9v2.2v7.1h-0.7
				l0,14.4l-1.1,0c0,0,0-8.8,0-9.7c0-0.9-7.4-2.5-7.4-2.5s-0.1-4.3-0.1-5.9c0-1.2-10.2-2.1-11.8-2c-1.6,0.1-2.1,1.2-2.1,1.2l0.1,5.9
				h-3.9v9.5h-0.9v46.6h-6.8v-39l-9-1.6h-14.8v8.7h-0.7v-3.4h-0.9v-1.9H259l0.1-1.5h-2.1h-11.8V90h-0.9l0.2,2l-1,0.1l0.1,2l-3.5-0.2
				l0.1-1.3l-0.8-0.7L225,92.5v1h-2.5V67.9l-0.9-0.3l0.2-3l-5-1L196,63.9l0.2,3.6h-1.4v61.6l-11.5-0.1v-13.6h-1.9l-1.3-2.8h-16.5
				l-1,2.2l-2.5,0.1l-0.2,7.8l-8.2,0.5l-0.2,1.9l-12.5,0.2l0.3-14.1h-0.9l0.1-11.1H138l0-3.1c0,0-4.3-0.9-10.1-0.9
				c-5.7,0-8,0.8-8,0.8l0.1,3.1l-0.8,0.1v11.1h-0.5l0.1,15.9l-1,0.2L102,131l13.5,197.5L519.4,329z"/>
		</defs>
		<clipPath id="SVGID_12_">
			<use xlink:href="#SVGID_11_"  overflow="visible"/>
		</clipPath>
		<rect x="119.1" y="33.7" clip-path="url(#SVGID_12_)" fill="#A9BF38" width="122.6" height="319.2"/>
		<rect x="253.6" y="31.3" opacity="0.15" clip-path="url(#SVGID_12_)" fill="#FFFFFF" width="44" height="298.3"/>
		<rect x="391.5" y="35" clip-path="url(#SVGID_12_)" fill="#D6B329" width="127.6" height="319.2"/>
	</g>
</g>
<g>
	<defs>
		<path id="SVGID_13_" d="M83.4,85.9l2.6-0.8h4l2.6-2.6c0,0,2.8,1.8,3.4,2c0.6,0.2,2.4,0.2,2.4,0.2s6.2-4.6,6.7-4.6
			c0.6,0,7.1,4.2,7.1,4.2l1.8-1.2l5.2,2.2l1.6-0.2l6.5-1.7l7.1,6.4l7.8-3.9l16.3,9.2l13.5-8.2l3,1.2l18.9-13.3l13,8.1l10.5-8
			c0,0,10.3,5.2,11.7,6c1.4,0.8,13.1,7.8,13.1,7.8l12.8-6.2l5.4-3.2l5.9,3.6c0,0,25.8-9,25.8-8.1c0.6,25.7-7.7,254-7.7,254L76.2,328
			L83.4,85.9z"/>
	</defs>
	<clipPath id="SVGID_14_">
		<use xlink:href="#SVGID_13_"  overflow="visible"/>
	</clipPath>
	<rect x="119.3" y="37.6" opacity="0.15" clip-path="url(#SVGID_14_)" fill="#FFFFFF" width="44" height="291"/>
</g>
</svg>
