<?xml version="1.0" encoding="utf-8"?>
<!-- Generator: Adobe Illustrator 18.0.0, SVG Export Plug-In . SVG Version: 6.00 Build 0)  -->
<!DOCTYPE svg PUBLIC "-//W3C//DTD SVG 1.1//EN" "http://www.w3.org/Graphics/SVG/1.1/DTD/svg11.dtd">
<svg version="1.1" id="Layer_1" xmlns="http://www.w3.org/2000/svg" xmlns:xlink="http://www.w3.org/1999/xlink" x="0px" y="0px"
	 viewBox="0 0 49.8 72" enable-background="new 0 0 49.8 72" xml:space="preserve">
<g>
	<g>
		<g>
			<path fill="#607D8B" d="M49.8,25c0,26.8-24.9,47-24.9,47S0,51.6,0,25C0,11.2,11.2,0,24.9,0C38.7,0,49.8,11.2,49.8,25z"/>
			<path fill="#FFFFFF" d="M24.9,40.9C16.1,40.9,9,33.8,9,25c0-8.8,7.1-15.9,15.9-15.9S40.9,16.2,40.9,25
				C40.9,33.8,33.7,40.9,24.9,40.9L24.9,40.9z"/>
			<path fill="#0277BD" d="M24.9,12.4c-6.9,0-12.6,5.6-12.6,12.6c0,6.9,5.6,12.6,12.6,12.6S37.5,31.9,37.5,25
				C37.5,18.1,31.9,12.4,24.9,12.4L24.9,12.4z"/>
		</g>
	</g>
</g>
</svg>
