<?xml version="1.0" encoding="utf-8"?>
<!-- Generator: Adobe Illustrator 18.0.0, SVG Export Plug-In . SVG Version: 6.00 Build 0)  -->
<!DOCTYPE svg PUBLIC "-//W3C//DTD SVG 1.1//EN" "http://www.w3.org/Graphics/SVG/1.1/DTD/svg11.dtd">
<svg version="1.1" id="Layer_1" xmlns="http://www.w3.org/2000/svg" xmlns:xlink="http://www.w3.org/1999/xlink" x="0px" y="0px"
	 viewBox="67.7 245.8 1144.4 266.8" enable-background="new 67.7 245.8 1144.4 266.8" xml:space="preserve">
<g>
	<path fill="#4D4D4F" d="M398.9,358.7l-9.3-12.3h-0.2v12.3h-3.7v-27.5c1.9-0.1,3.8-0.2,6.9-0.2c5.5,0,9.3,1.9,9.3,7.2
		c0,4.6-3.5,7.4-8.4,7.8c0.8,1,1.7,2,2.4,2.9l7.8,9.8H398.9z M391.8,334.1c-0.9,0-1.7,0-2.5,0.1v9.4c0.4,0,1.2,0.1,2.3,0.1
		c3.9,0,6.3-2,6.3-4.9C398,335.5,395.9,334.1,391.8,334.1"/>
	<polygon fill="#4D4D4F" points="416.7,358.7 416.7,331.2 430.8,331.2 430.8,334.3 420.5,334.3 420.5,343 430.3,343 430.3,346.1 
		420.5,346.1 420.5,355.6 430.8,355.6 430.8,358.7 	"/>
	<path fill="#4D4D4F" d="M449.9,359.1c-2,0-3.9-0.2-5.6-0.6l0.2-3.5c1.6,0.6,3.7,1,5.7,1c3.3,0,6.1-1.3,6.1-4.7
		c0-6.2-12.4-3.7-12.4-12.5c0-4.5,3.5-7.8,9.8-7.8c1.7,0,3.3,0.2,4.9,0.5l-0.2,3.3c-1.6-0.4-3.3-0.7-4.9-0.7c-3.7,0-5.7,1.7-5.7,4.2
		c0,6,12.4,3.8,12.4,12.4C460.2,355.6,456.3,359.1,449.9,359.1"/>
	<path fill="#4D4D4F" d="M484.4,359.1c-8.3,0-12.2-5.5-12.2-13.8c0-9.2,5.9-14.4,13-14.4c7.4,0,12.2,4.8,12.2,13.8
		C497.5,353.8,491.5,359.1,484.4,359.1 M484.7,334.1c-4.5,0-8.6,3.7-8.6,10.6c0,6.6,2.7,11,8.6,11c4.4,0,8.7-3.5,8.7-10.7
		C493.4,338.1,490.3,334.1,484.7,334.1"/>
	<path fill="#4D4D4F" d="M521,359.1c-8.6,0-10.3-4.7-10.3-9.7v-18.3h3.7v18c0,3.8,1.2,6.9,6.8,6.9c4.8,0,7.1-2,7.1-7.6v-17.3h3.6v17
		C532,355.5,528.2,359.1,521,359.1"/>
	<path fill="#4D4D4F" d="M561,358.7l-9.3-12.3h-0.2v12.3h-3.7v-27.5c1.9-0.1,3.8-0.2,6.9-0.2c5.5,0,9.3,1.9,9.3,7.2
		c0,4.6-3.5,7.4-8.4,7.8c0.8,1,1.7,2,2.4,2.9l7.8,9.8H561z M554,334.1c-0.9,0-1.7,0-2.5,0.1v9.4c0.4,0,1.2,0.1,2.3,0.1
		c3.9,0,6.3-2,6.3-4.9C560.1,335.5,558.1,334.1,554,334.1"/>
	<path fill="#4D4D4F" d="M589.1,359c-8.8,0-12.5-5.7-12.5-13.3c0-8.4,4.1-14.7,13.4-14.7c2.1,0,4.2,0.3,6.3,0.8l-0.4,3.4
		c-2.1-0.6-4.1-1-6.3-1c-6.3,0-9,4.8-9,10.8c0,6.8,2.9,10.6,9.3,10.6c2,0,4.5-0.6,6.2-1.4l0.4,3.3C594.4,358.5,591.9,359,589.1,359"
		/>
	<polygon fill="#4D4D4F" points="610.5,358.7 610.5,331.2 624.6,331.2 624.6,334.3 614.2,334.3 614.2,343 624.1,343 624.1,346.1 
		614.2,346.1 614.2,355.6 624.6,355.6 624.6,358.7 	"/>
	<path fill="#4D4D4F" d="M643.6,359.1c-2,0-3.9-0.2-5.6-0.6l0.2-3.5c1.6,0.6,3.7,1,5.7,1c3.3,0,6.1-1.3,6.1-4.7
		c0-6.2-12.4-3.7-12.4-12.5c0-4.5,3.5-7.8,9.8-7.8c1.7,0,3.3,0.2,4.9,0.5l-0.2,3.3c-1.6-0.4-3.3-0.7-4.9-0.7c-3.7,0-5.7,1.7-5.7,4.2
		c0,6,12.4,3.8,12.4,12.4C653.9,355.6,650.1,359.1,643.6,359.1"/>
	<polygon fill="#4D4D4F" points="684.6,358.7 684.6,331.2 688.5,331.2 688.5,355.5 698.3,355.5 698.3,358.7 	"/>
	<polygon fill="#4D4D4F" points="710.2,358.7 710.2,331.2 724.3,331.2 724.3,334.3 713.9,334.3 713.9,343 723.8,343 723.8,346.1 
		713.9,346.1 713.9,355.6 724.3,355.6 724.3,358.7 	"/>
	<path fill="#4D4D4F" d="M758.9,335.6c-2.3-0.9-4.8-1.5-7.4-1.5c-5.7,0-10.5,3.6-10.5,11c0,6.9,3.9,10.7,10.2,10.7
		c1.8,0,3.3-0.3,4.8-0.7v-10.4h3.7v12.8c-2.7,1-6.1,1.6-9.1,1.6c-8.3,0-13.6-5.1-13.6-13.5c0-8.4,5.7-14.6,14.8-14.6
		c2.6,0,5.1,0.4,7.6,1.2L758.9,335.6z"/>
	<path fill="#4D4D4F" d="M791.1,358.7l-2.3-6.5h-11.7l-2.3,6.5h-3.8l10-27.5h4.1l10.1,27.5H791.1z M784.1,339.5
		c-0.5-1.4-0.9-2.7-1.2-4.1h-0.1c-0.3,1.3-0.7,2.7-1.2,4.1l-3.5,9.8h9.7L784.1,339.5z"/>
	<path fill="#4D4D4F" d="M817.6,359c-8.8,0-12.5-5.7-12.5-13.3c0-8.4,4.1-14.7,13.4-14.7c2.1,0,4.2,0.3,6.3,0.8l-0.4,3.4
		c-2.1-0.6-4.1-1-6.3-1c-6.3,0-9,4.8-9,10.8c0,6.8,2.9,10.6,9.3,10.6c2,0,4.5-0.6,6.2-1.4l0.4,3.3C822.9,358.5,820.3,359,817.6,359"
		/>
	<path fill="#4D4D4F" d="M847.1,348.8v9.9h-3.7v-9.9l-8.6-17.6h4.1l4.3,9.3c0.8,1.6,1.5,3.2,2.1,4.7l0,0c0.6-1.7,1.5-3.4,2.3-5.3
		l4.2-8.8h3.9L847.1,348.8z"/>
	<polygon fill="#4D4D4F" points="888.7,334.3 888.7,343.2 898.4,343.2 898.4,346.3 888.7,346.3 888.7,358.7 884.9,358.7 
		884.9,331.2 898.9,331.2 898.9,334.3 	"/>
	<path fill="#4D4D4F" d="M922.3,359.1c-8.6,0-10.3-4.7-10.3-9.7v-18.3h3.7v18c0,3.8,1.2,6.9,6.8,6.9c4.8,0,7.1-2,7.1-7.6v-17.3h3.6
		v17C933.3,355.5,929.5,359.1,922.3,359.1"/>
	<path fill="#4D4D4F" d="M966.1,358.7l-10.5-17.1c-1.2-2-2.2-3.8-3.1-5.7c0.2,2.9,0.3,9.5,0.3,13.9v8.8h-3.6v-27.5h4.9l10.2,16.5
		c1.2,1.9,2.3,4,3.3,6.1c-0.2-3.3-0.3-10.1-0.3-14.7v-7.8h3.6v27.5L966.1,358.7L966.1,358.7z"/>
	<path fill="#4D4D4F" d="M993.7,358.9c-2.7,0-4.9-0.2-7-0.2v-27.5c2.1,0,5.3-0.2,8.2-0.2c8.8,0,14,4.1,14,13.5
		C1009,354,1002.7,358.9,993.7,358.9 M994.5,334.1c-1.4,0-3.1,0.1-4.1,0.1v21.2c1,0.2,2.5,0.2,3.6,0.2c6.5,0,10.9-3.3,10.9-10.8
		C1005.1,337.9,1001.7,334.1,994.5,334.1"/>
	<path fill="#4D4D4F" d="M396.6,429.3c-8.9,0-12.5-5.7-12.5-13.3c0-8.4,4.1-14.7,13.4-14.7c2.1,0,4.2,0.3,6.3,0.8l-0.4,3.4
		c-2.1-0.6-4.1-1-6.3-1c-6.3,0-9,4.8-9,10.8c0,6.8,2.9,10.6,9.3,10.6c2,0,4.5-0.6,6.2-1.4l0.4,3.3
		C401.9,428.8,399.3,429.3,396.6,429.3"/>
	<path fill="#4D4D4F" d="M425.8,429l-6.8-9.1h-0.2v9.1h-3.7v-21.2c1.4-0.1,3.8-0.1,6.3-0.1c4.9,0,7.8,1.9,7.8,5.7
		c0,3.5-2.7,5.7-6.4,6.1c0.5,0.6,1.1,1.4,1.8,2.2l5.8,7.3h-4.5V429z M420.9,410.5c-0.9,0-1.5,0-2.1,0.1v6.7c0.6,0,1.5,0.1,2.2,0.1
		c2.5,0,4.2-1.4,4.2-3.6C425.3,411.6,423.6,410.5,420.9,410.5"/>
	<polygon fill="#4D4D4F" points="441.1,429 441.1,407.8 453.1,407.8 453.1,410.7 444.8,410.7 444.8,416.7 452.7,416.7 452.7,419.5 
		444.8,419.5 444.8,426 453.1,426 453.1,429 	"/>
	<path fill="#4D4D4F" d="M478.6,429l-1.7-4.4h-9.4l-1.7,4.4H462l8.2-21.2h4.2l8.2,21.2H478.6z M473.4,415.2
		c-0.4-1.2-0.8-2.5-1.2-3.5l0,0c-0.2,1-0.6,2.3-1.1,3.4l-2.6,6.7h7.5L473.4,415.2z"/>
	<polygon fill="#4D4D4F" points="497.5,410.9 497.5,429 493.7,429 493.7,410.9 487.6,410.9 487.6,407.8 503.5,407.8 503.5,410.9 	
		"/>
	<rect x="513.5" y="407.8" fill="#4D4D4F" width="3.7" height="21.2"/>
	<path fill="#4D4D4F" d="M539,429h-4.2l-8.2-21.2h4.1l4.4,11.8c0.7,1.7,1.3,3.5,1.8,5.5l0,0c0.6-1.8,1.1-3.6,1.8-5.3l4.6-11.9h3.8
		L539,429z"/>
	<polygon fill="#4D4D4F" points="556.6,429 556.6,407.8 568.5,407.8 568.5,410.7 560.2,410.7 560.2,416.7 568.1,416.7 568.1,419.5 
		560.2,419.5 560.2,426 568.5,426 568.5,429 	"/>
	<path fill="#4D4D4F" d="M599,429.3c-2,0-3.9-0.2-5.6-0.6l0.2-3.5c1.6,0.6,3.7,1,5.7,1c3.3,0,6.1-1.3,6.1-4.7
		c0-6.2-12.4-3.7-12.4-12.5c0-4.5,3.5-7.8,9.8-7.8c1.7,0,3.3,0.2,4.9,0.5l-0.2,3.3c-1.6-0.4-3.3-0.7-4.9-0.7c-3.7,0-5.7,1.7-5.7,4.2
		c0,6,12.4,3.8,12.4,12.4C609.2,425.8,605.4,429.3,599,429.3"/>
	<path fill="#4D4D4F" d="M628.6,429.3c-6.9,0-10.1-4.4-10.1-10.7c0-7,4.9-11.1,10.7-11.1c6.3,0,10.2,3.7,10.2,10.7
		C639.4,425.3,634.5,429.3,628.6,429.3 M628.9,410.6c-3.4,0-6.6,2.6-6.6,7.6c0,4.3,1.7,7.8,6.4,7.8c3.7,0,6.7-2.5,6.7-7.6
		C635.5,413.3,632.9,410.6,628.9,410.6"/>
	<polygon fill="#4D4D4F" points="650.4,429 650.4,407.8 654.1,407.8 654.1,425.8 661.7,425.8 661.7,429 	"/>
	<path fill="#4D4D4F" d="M680.2,429.3c-5.9,0-8.9-2.7-8.9-7.7v-13.8h3.7V421c0,3.6,2,5.3,5.5,5.3c4,0,5.5-2.2,5.5-5.7v-12.8h3.6
		v13.1C689.6,425.5,686.9,429.3,680.2,429.3"/>
	<polygon fill="#4D4D4F" points="708.8,410.9 708.8,429 705.2,429 705.2,410.9 699,410.9 699,407.8 714.9,407.8 714.9,410.9 	"/>
	<rect x="724.9" y="407.8" fill="#4D4D4F" width="3.7" height="21.2"/>
	<path fill="#4D4D4F" d="M749.8,429.3c-6.9,0-10.1-4.4-10.1-10.7c0-7,4.9-11.1,10.7-11.1c6.3,0,10.2,3.7,10.2,10.7
		C760.6,425.3,755.8,429.3,749.8,429.3 M750.1,410.6c-3.4,0-6.6,2.6-6.6,7.6c0,4.3,1.7,7.8,6.4,7.8c3.7,0,6.7-2.5,6.7-7.6
		C756.7,413.3,754.1,410.6,750.1,410.6"/>
	<path fill="#4D4D4F" d="M785.4,429l-8-12.4c-0.8-1.3-1.7-2.8-2.3-4.1l0,0c0.1,1.3,0.2,2.7,0.2,5.1V429h-3.5v-21.2h4.8l7.9,12.2
		c0.9,1.3,1.7,2.8,2.5,4.2l0,0c-0.1-1.4-0.2-3.6-0.2-6.8v-9.7h3.6V429H785.4z"/>
	<path fill="#4D4D4F" d="M806.8,429.3c-1.5,0-3.3-0.2-4.5-0.5l0.2-3.4c1.2,0.6,3,0.8,4.8,0.8c2.2,0,4.4-0.9,4.4-3.3
		c0-4.2-10-2.1-10-9c0-3.8,3.1-6.4,8.5-6.4c1.3,0,2.9,0.1,4.1,0.4l-0.2,3.2c-1.1-0.4-2.9-0.6-4.2-0.6c-3,0-4.3,1.2-4.3,3
		c0,4.1,10,2.2,10,9C815.7,426.7,811.9,429.3,806.8,429.3"/>
	<path fill="#4D4D4F" d="M829.7,426.8c0,1.4-1.1,2.5-2.5,2.5c-1.4,0-2.5-1.1-2.5-2.5c0-1.4,1.1-2.5,2.5-2.5
		C828.6,424.2,829.7,425.5,829.7,426.8"/>
	<polygon fill="#4D4D4F" points="853.1,429 853.1,401.5 856.9,401.5 856.9,425.8 866.8,425.8 866.8,429 	"/>
	<path fill="#4D4D4F" d="M890.2,429l-1.7-4.4h-9.4l-1.7,4.4h-3.7l8.2-21.2h4.2l8.2,21.2H890.2z M885.1,415.2
		c-0.4-1.2-0.8-2.5-1.2-3.5l0,0c-0.2,1-0.6,2.3-1.1,3.4l-2.6,6.7h7.5L885.1,415.2z"/>
	<path fill="#4D4D4F" d="M907.5,429.3c-1.5,0-3.3-0.2-4.5-0.5l0.2-3.4c1.3,0.6,3,0.8,4.8,0.8c2.2,0,4.4-0.9,4.4-3.3
		c0-4.2-10-2.1-10-9c0-3.8,3.1-6.4,8.5-6.4c1.2,0,2.9,0.1,4.1,0.4l-0.2,3.2c-1.1-0.4-2.9-0.6-4.2-0.6c-3,0-4.3,1.2-4.3,3
		c0,4.1,10,2.2,10,9C916.4,426.7,912.6,429.3,907.5,429.3"/>
	<polygon fill="#4D4D4F" points="933.6,410.9 933.6,429 929.9,429 929.9,410.9 923.8,410.9 923.8,407.8 939.8,407.8 939.8,410.9 	
		"/>
	<rect x="949.7" y="407.8" fill="#4D4D4F" width="3.7" height="21.2"/>
	<path fill="#4D4D4F" d="M980.3,429l-8-12.4c-0.8-1.3-1.7-2.8-2.3-4.1l0,0c0.1,1.3,0.2,2.7,0.2,5.1V429h-3.5v-21.2h4.8l7.9,12.2
		c0.9,1.3,1.7,2.8,2.5,4.2l0,0c-0.1-1.4-0.2-3.6-0.2-6.8v-9.7h3.6V429H980.3z"/>
	<path fill="#4D4D4F" d="M1007.1,429.3c-6.4,0-10.9-3.6-10.9-10.5c0-6.4,4.3-11.3,11.7-11.3c2.1,0,4.2,0.3,6.5,0.9l-0.6,3.2
		c-1.9-0.7-3.8-1.1-5.9-1.1c-4.2,0-7.8,2.6-7.8,7.9c0,4.9,3,7.6,7.4,7.6c1.2,0,2.5-0.2,3.5-0.5V418h3.7v9.9
		C1012.4,428.8,1009.9,429.3,1007.1,429.3"/>
	<path fill="#4D4D4F" d="M1054.4,429l-9.3-12.3h-0.2V429h-3.7v-27.5c1.9-0.1,3.8-0.2,6.9-0.2c5.5,0,9.3,1.9,9.3,7.2
		c0,4.6-3.5,7.4-8.4,7.8c0.8,1,1.7,2,2.4,2.9l7.8,9.8H1054.4z M1047.5,404.3c-0.9,0-1.7,0-2.5,0.1v9.4c0.4,0,1.2,0.1,2.3,0.1
		c3.9,0,6.3-2,6.3-4.9C1053.5,405.7,1051.4,404.3,1047.5,404.3"/>
	<polygon fill="#4D4D4F" points="1069.4,429 1069.4,407.8 1081.4,407.8 1081.4,410.7 1073.1,410.7 1073.1,416.7 1081,416.7 
		1081,419.5 1073.1,419.5 1073.1,426 1081.4,426 1081.4,429 	"/>
	<path fill="#4D4D4F" d="M1096.7,429.3c-1.5,0-3.3-0.2-4.5-0.5l0.2-3.4c1.2,0.6,3,0.8,4.8,0.8c2.2,0,4.4-0.9,4.4-3.3
		c0-4.2-10-2.1-10-9c0-3.8,3.1-6.4,8.5-6.4c1.2,0,2.9,0.1,4.1,0.4l-0.2,3.2c-1.1-0.4-2.9-0.6-4.2-0.6c-3,0-4.3,1.2-4.3,3
		c0,4.1,10,2.2,10,9C1105.6,426.7,1101.8,429.3,1096.7,429.3"/>
	<path fill="#4D4D4F" d="M1125.9,429.3c-5.9,0-8.9-2.7-8.9-7.7v-13.8h3.7V421c0,3.6,2,5.3,5.5,5.3c4,0,5.5-2.2,5.5-5.7v-12.8h3.6
		v13.1C1135.3,425.5,1132.5,429.3,1125.9,429.3"/>
	<polygon fill="#4D4D4F" points="1148.3,429 1148.3,407.8 1152,407.8 1152,425.8 1159.6,425.8 1159.6,429 	"/>
	<polygon fill="#4D4D4F" points="1174.5,410.9 1174.5,429 1170.9,429 1170.9,410.9 1164.7,410.9 1164.7,407.8 1180.7,407.8 
		1180.7,410.9 	"/>
	<path fill="#4D4D4F" d="M1193.7,429.3c-1.5,0-3.3-0.2-4.5-0.5l0.2-3.4c1.2,0.6,3,0.8,4.8,0.8c2.2,0,4.4-0.9,4.4-3.3
		c0-4.2-10-2.1-10-9c0-3.8,3.1-6.4,8.5-6.4c1.3,0,2.9,0.1,4.1,0.4l-0.2,3.2c-1.1-0.4-2.9-0.6-4.2-0.6c-3,0-4.3,1.2-4.3,3
		c0,4.1,10,2.2,10,9C1202.6,426.7,1198.9,429.3,1193.7,429.3"/>
	<path fill="#4D4D4F" d="M1212.1,426.8c0,1.4-1.1,2.5-2.5,2.5s-2.5-1.1-2.5-2.5c0-1.4,1.1-2.5,2.5-2.5S1212.1,425.5,1212.1,426.8"/>
	<polygon fill="#00728F" points="314.6,306.2 266.2,330.4 301,291.8 298.4,289.2 228.1,360 316.5,309.1 	"/>
	<polygon fill="#00728F" points="265.4,338.6 228.1,360 258.4,329.5 	"/>
	<polygon fill="#78A22F" points="278.2,268.3 242.6,309.2 260,260.2 256.6,258.8 218.7,351.1 280.9,270.3 	"/>
	<polygon fill="#78A22F" points="244.9,317.1 218.7,351.1 235.1,311.3 	"/>
	<polygon fill="#00728F" points="206.4,246.8 206.7,346.6 233.2,248 229.9,247.3 212.6,298.7 210,246.8 	"/>
	<polygon fill="#00728F" points="217.9,305.1 206.7,346.6 206.6,303.5 	"/>
	<polygon fill="#00728F" points="180.6,245.8 177.2,246.3 181,300.4 158.7,253.4 155.3,254.8 193.8,346.9 	"/>
	<polygon fill="#00728F" points="188.3,304.2 193.8,346.9 177.2,307.2 	"/>
	<polygon fill="#00928F" points="128.2,265.6 152.4,314 113.8,279.3 111.2,281.8 182,352.1 131.1,263.7 	"/>
	<polygon fill="#00928F" points="160.6,314.8 182,352.1 151.5,321.8 	"/>
	<polygon fill="#78A22F" points="90.3,302.1 131.2,337.7 82.2,320.3 80.8,323.6 173.1,361.5 92.3,299.3 	"/>
	<polygon fill="#78A22F" points="139.1,335.3 173.1,361.5 133.3,345.2 	"/>
	<polygon fill="#00928F" points="69.3,350.4 120.7,367.6 68.8,370.2 68.8,373.9 168.6,373.5 70,347 	"/>
	<polygon fill="#00928F" points="127.1,362.3 168.6,373.5 125.5,373.7 	"/>
	<polygon fill="#00728F" points="67.7,399.6 68.3,403 122.3,399.2 75.5,421.6 76.9,424.9 168.9,386.5 	"/>
	<polygon fill="#00728F" points="126.3,392 168.9,386.5 129.2,403 	"/>
	<polygon fill="#00728F" points="87.6,452 136.1,427.9 101.2,466.5 103.8,469 174.1,398.2 85.8,449.1 	"/>
	<polygon fill="#00728F" points="136.9,419.7 174.1,398.2 143.8,428.8 	"/>
	<polygon fill="#78A22F" points="124.1,489.9 159.7,449 142.3,498 145.7,499.4 183.5,407.1 121.3,488 	"/>
	<polygon fill="#78A22F" points="157.3,441.1 183.5,407.1 167.2,446.9 	"/>
	<polygon fill="#00728F" points="169,510.2 172.3,511 189.6,459.6 192.2,511.5 196,511.5 195.6,411.7 	"/>
	<polygon fill="#00728F" points="184.3,453.2 195.6,411.7 195.7,454.7 	"/>
	<polygon fill="#00728F" points="221.6,512.5 225.1,511.9 221.2,457.9 243.5,504.7 247,503.4 208.5,411.3 	"/>
	<polygon fill="#00728F" points="214,453.9 208.4,411.3 225.1,451 	"/>
	<polygon fill="#00928F" points="274,492.7 249.8,444.1 288.4,479 291,476.4 220.2,406.1 271.1,494.5 	"/>
	<polygon fill="#00928F" points="241.6,443.3 220.2,406.1 250.7,436.4 	"/>
	<polygon fill="#78A22F" points="311.9,456.2 271,420.6 320,438 321.4,434.5 229.1,396.8 309.9,458.9 	"/>
	<polygon fill="#78A22F" points="263.1,422.9 229.1,396.8 268.9,413 	"/>
	<polygon fill="#00928F" points="233.6,384.6 332.2,411.2 332.9,407.9 281.5,390.7 333.4,388 333.4,384.3 	"/>
	<polygon fill="#00928F" points="275.2,395.9 233.6,384.6 276.8,384.5 	"/>
	<polygon fill="#00728F" points="233.3,371.8 334.5,358.6 333.9,355.3 279.9,359 326.8,336.7 325.4,333.2 	"/>
	<polygon fill="#00728F" points="276,366.3 233.3,371.8 273,355.2 	"/>
</g>
</svg>
