<svg xmlns="http://www.w3.org/2000/svg" xmlns:xlink="http://www.w3.org/1999/xlink" version="1.1" id="Layer_1" x="0px" y="0px" width="32px" height="32px" viewBox="0 0 32 32" enable-background="new 0 0 32 32" xml:space="preserve">
<path id="search" d="M29.283,25.749l-7.125-7.127c0.959-1.582,1.521-3.436,1.521-5.422c0-5.793-4.688-10.484-10.481-10.486  C7.409,2.716,2.717,7.407,2.717,13.199c0,5.788,4.693,10.479,10.484,10.479c1.987,0,3.838-0.562,5.42-1.521l7.129,7.129  L29.283,25.749z M6.716,13.199C6.722,9.617,9.619,6.72,13.2,6.714c3.58,0.008,6.478,2.903,6.484,6.485  c-0.007,3.579-2.904,6.478-6.484,6.483C9.618,19.677,6.721,16.778,6.716,13.199z"/>
</svg>