<?xml version="1.0" encoding="utf-8"?>
<!-- Generator: Adobe Illustrator 18.0.0, SVG Export Plug-In . SVG Version: 6.00 Build 0)  -->
<!DOCTYPE svg PUBLIC "-//W3C//DTD SVG 1.1//EN" "http://www.w3.org/Graphics/SVG/1.1/DTD/svg11.dtd">
<svg version="1.1" id="Layer_1" xmlns="http://www.w3.org/2000/svg" xmlns:xlink="http://www.w3.org/1999/xlink" x="0px" y="0px"
	 viewBox="0 0 48 52.2" enable-background="new 0 0 48 52.2" xml:space="preserve">
<g>
	<g>
		<path fill="#607D8B" d="M24.6,17.2c1.4,0,2.5-1.2,2.4-2.6c0-1.4-1.2-2.5-2.6-2.5c-1.4,0-2.5,1.2-2.4,2.6
			C22,16.1,23.2,17.2,24.6,17.2z"/>
		<path fill="#607D8B" d="M33.1,25.5l-3.7-2l-3-4.7c-0.5-0.6-1.3-1.1-2.1-1c-0.7,0-1.2,0.3-1.7,0.7L18,23c-0.2,0.2-0.3,0.4-0.3,0.6
			l-0.6,5c0,0.1,0,0.1,0,0.2c0,0.6,0.5,1.1,1.2,1.1c0.6,0,1-0.5,1.1-1.1l0.5-4.3l1.6-1.6L20,35.1l-2.6,5.7c-0.1,0.2-0.2,0.5-0.2,0.7
			c0,0.9,0.8,1.7,1.7,1.7c0.7,0,1.2-0.4,1.5-1l2.8-6.2c0.1-0.2,0.3-0.6,0.3-0.7l0.3-3l2.9,9.7c0.3,0.7,0.9,1.2,1.7,1.2
			c0.9,0,1.7-0.8,1.7-1.7c0-0.1,0-0.2,0-0.3L26,27.6l0.5-4.4l1.1,1.8c0.1,0.1,0.2,0.2,0.3,0.3l4,2.2c0.2,0.1,0.3,0.1,0.5,0.1
			c0.6,0,1.1-0.5,1.1-1.2C33.6,26.1,33.4,25.7,33.1,25.5z"/>
	</g>
	<path fill="#607D8B" d="M24,7.3c11.5,0,20.9,9.3,20.9,20.9S35.5,49,24,49S3.1,39.7,3.1,28.2S12.5,7.3,24,7.3 M24,4.2
		c-13.2,0-24,10.8-24,24s10.8,24,24,24c13.2,0,24-10.8,24-24S37.2,4.2,24,4.2L24,4.2z"/>
</g>
</svg>
