<?xml version="1.0" encoding="utf-8"?>
<!-- Generator: Adobe Illustrator 18.0.0, SVG Export Plug-In . SVG Version: 6.00 Build 0)  -->
<!DOCTYPE svg PUBLIC "-//W3C//DTD SVG 1.1//EN" "http://www.w3.org/Graphics/SVG/1.1/DTD/svg11.dtd">
<svg version="1.1" id="Layer_1" xmlns="http://www.w3.org/2000/svg" xmlns:xlink="http://www.w3.org/1999/xlink" x="0px" y="0px"
	 viewBox="0 0 52.6 48" enable-background="new 0 0 52.6 48" xml:space="preserve">
<g>
	<polygon fill="#607D8B" points="38,18.1 28.6,9.3 19.2,18.1 21.6,20.7 26.9,15.7 26.9,38.7 30.4,38.7 30.4,15.7 35.6,20.6 	"/>
	<path fill="#607D8B" d="M28.6,3.1c11.5,0,20.9,9.3,20.9,20.9c0,11.5-9.3,20.9-20.9,20.9C17.1,44.9,7.7,35.5,7.7,24
		C7.7,12.5,17.1,3.1,28.6,3.1 M28.6,0c-13.2,0-24,10.8-24,24s10.8,24,24,24c13.2,0,24-10.8,24-24S41.8,0,28.6,0L28.6,0z"/>
</g>
</svg>
