<?xml version="1.0" encoding="utf-8"?>
<!-- Generator: Adobe Illustrator 18.0.0, SVG Export Plug-In . SVG Version: 6.00 Build 0)  -->
<!DOCTYPE svg PUBLIC "-//W3C//DTD SVG 1.1//EN" "http://www.w3.org/Graphics/SVG/1.1/DTD/svg11.dtd">
<svg version="1.1" id="Layer_1" xmlns="http://www.w3.org/2000/svg" xmlns:xlink="http://www.w3.org/1999/xlink" x="0px" y="0px"
	 viewBox="0 0 52.8 42.5" enable-background="new 0 0 52.8 42.5" xml:space="preserve">
<g>
	<path fill="#607D8B" d="M52.8,42.5L37.2,38c-3.4,2.3-7.4,3.6-11.6,3.6c-11.5,0-20.8-9.3-20.8-20.8C4.8,9.3,14.1,0,25.6,0
		C37,0,46.4,9.3,46.4,20.8c0,2.2-0.4,4.5-1.1,6.6L52.8,42.5L52.8,42.5z M25.6,3.2c-9.7,0-17.5,7.9-17.5,17.5s7.9,17.5,17.5,17.5
		c3.7,0,7.3-1.2,10.3-3.4l0.6-0.5l10,2.9l-4.9-9.7l0.2-0.7c0.8-2,1.1-4.1,1.1-6.1C43.1,11.1,35.3,3.2,25.6,3.2L25.6,3.2z"/>
	<circle fill="#607D8B" cx="16.7" cy="20.7" r="3"/>
	<circle fill="#607D8B" cx="34.5" cy="20.7" r="3"/>
	<circle fill="#607D8B" cx="25.6" cy="20.6" r="3"/>
</g>
</svg>
