<svg xmlns="http://www.w3.org/2000/svg" xmlns:xlink="http://www.w3.org/1999/xlink" version="1.1" id="Your_Icon" x="0px" y="0px" width="100px" height="100px" viewBox="0 0 100 100" enable-background="new 0 0 100 100" xml:space="preserve">
<g>
	<g>
		<g>
			<g>
			</g>
		</g>
		<g>
		</g>
	</g>
</g>
<path style="fill:rgb(2, 122, 187);" d="M89.507,53.439c0.477,0.578,1.993,2.674,1.993,6.144c0,4.111-2.147,6.322-2.147,6.322h-1.97  c0.634,0.77,1.612,2.471,1.612,5.785c0,4.886-2.147,6.32-2.147,6.32h-2.776c0.626,0.684,1.702,2.359,1.702,5.912  c0,4.997-2.145,6.323-2.145,6.323H30.675V40.799h-0.013c7.06-6.429,16.691-14.07,14.454-28.481c-0.591-3.807-1.76-6.013,1.954-7.036  c3.717-1.021,7.559,1.159,8.576,4.875c2.503,9.088,2.22,20.806-2.542,30.642h36.604c0,0,2.327,3.396,2.147,6.67  c-0.178,3.276-2.147,5.97-2.147,5.97H89.507z M8.135,95.016h15.027V40.799H8.135V95.016z"/>
</svg>
