<?xml version="1.0" encoding="utf-8"?>
<!-- Generator: Adobe Illustrator 18.0.0, SVG Export Plug-In . SVG Version: 6.00 Build 0)  -->
<!DOCTYPE svg PUBLIC "-//W3C//DTD SVG 1.1//EN" "http://www.w3.org/Graphics/SVG/1.1/DTD/svg11.dtd">
<svg version="1.1" id="Layer_1" xmlns="http://www.w3.org/2000/svg" xmlns:xlink="http://www.w3.org/1999/xlink" x="0px" y="0px"
	 viewBox="74.1 48.5 772.1 360.5" enable-background="new 74.1 48.5 772.1 360.5" xml:space="preserve">
<g transform="translate(0.000000,450.000000) scale(0.100000,-0.100000)">
	<path d="M7437,4009c-123-30-196-123-197-249c0-142,92-245,229-257c156-14,281,98,281,253c0,78-15,118-67,174
		C7622,3998,7523,4030,7437,4009z"/>
	<path d="M5350,1910c0-1493,0-1500,20-1500s20,7,20,465v465l28,11c72,28,73,27,122-68c25-48,73-130,105-180c58-90,61-93,97-93
		c57,0,256,93,422,197c47,30,47,31,116-99c28-54,56-98,62-98c13,0,3,28-48,139c-24,52-44,99-44,106c0,6,29,33,65,59
		c35,26,107,85,159,132c52,46,97,84,100,84c13,0,97-238,119-336c3-17-9-35-52-76c-31-30-71-67-89-81l-34-27h28c18,0,48,18,93,56
		l66,57l10-54l10-54l5,67c5,63,8,71,57,130c28,35,61,74,72,88l20,25l1-50c2-60,18-109,20-60c8,148,19,204,58,295l41,95l3-45
		c8-174-27-358-96-502l-23-48h27c25,0,30,7,54,73c114,316,110,631-14,895c-38,80-104,186-152,244c-20,23-25,25-41,13
		c-18-13-18-17-3-84c17-75,21-148,8-168c-5-9-20,8-45,50c-20,34-45,73-56,86c-18,24-20,24-44,8l-26-17l52-82c29-46,61-103,71-126
		l19-43l-22-47c-12-26-41-75-63-110l-41-62l-48,85c-45,81-145,225-156,225c-10,0-63-42-63-50c0-4,19-32,43-62c55-67,118-161,146-216
		l22-42l-32-39c-34-43-120-121-221-199l-66-53l-43,78c-168,310-238,412-396,583l-79,84l70,46c39,26,97,67,128,93l57,46l63-46
		c35-25,89-69,121-97l58-50l24,30c13,16,24,32,25,36c0,10-97,87-168,133c-34,22-62,43-62,46s13,23,29,43s44,59,61,86
		c18,28,37,50,42,50c20,0,125-62,195-114l72-54l21,23l22,23l-74,52c-40,28-105,67-144,87l-72,35l16,49c19,57,15,58,139-3
		c108-52,128-72,144-142l12-57l39,38c21,20,38,42,38,48c0,16-131,100-225,145c-257,122-581,152-878,81l-77-18v383
		c0,377,0,384-20,384S5350,3403,5350,1910z M5983,2659c40-6,78-16,85-21c6-6,12-31,12-55v-45l-32,7c-109,23-192,34-255,35
		c-40,0-73,3-73,6c0,4,5,24,12,45l11,39h84C5873,2670,5944,2665,5983,2659z M5596,2533c-8-16-27-43-43-62l-28-33l-68,7l-67,7v39
		c0,23,5,42,13,44c18,7,127,22,170,24l38,1L5596,2533z M5856,2545c121-21,204-45,204-59c0-16-50-94-89-138l-32-36l-65,29
		c-56,26-183,65-267,84l-29,6l59,64C5704,2568,5710,2570,5856,2545z M5642,2381c84-28,224-93,243-113c10-10-61-80-162-159l-52-41
		l-93,84c-51,46-112,99-136,118l-43,36l73,51c40,28,76,51,79,52S5595,2397,5642,2381z M5571,2088l50-56l-83-50c-46-27-98-57-115-66
		l-33-17v188v187l66-64C5492,2174,5544,2119,5571,2088z M6883,1985c25-49,56-127,71-172l25-82l-23-93c-25-97-54-181-55-162
		c-3,50-37,207-62,288c-29,94-30,102-19,169c7,38,9,91,6,116C6818,2107,6827,2097,6883,1985z M5829,1782c58-73,107-136,109-141
		c5-14-363-211-397-211c-3,0-39,56-79,123l-72,124v95v95l128,65l127,65l39-41C5705,1933,5770,1855,5829,1782z M6808,1653
		c17-60,38-143,45-185c16-88,16-89-70-200c-48-62-63-71-63-35c0,38-28,157-61,263l-32,102l56,65c30,36,61,75,67,87c6,11,15,18,19,16
		C6774,1763,6791,1712,6808,1653z M6080,1438l114-171l-23-16c-65-44-237-139-321-177c-74-34-98-41-106-31c-11,11-184,334-187,349
		c-1,4,45,30,103,56c58,27,148,74,200,105s97,56,100,56C5963,1610,6017,1533,6080,1438z"/>
	<path d="M7915,3384c-520-54-933-174-1257-366l-67-40l-3-119c-2-65-2-119-2-119c1,0,46,25,100,56c422,240,873,409,1260,473
		c135,22,178,27,358,41c154,12,196,33,124,61C8395,3383,8004,3393,7915,3384z"/>
	<path d="M7755,2999c-479-70-1055-450-1511-996c-65-77-169-225-194-273l-13-25l24,21c90,80,378,314,513,415c185,140,451,318,611,410
		c250,143,511,246,555,219c11-7-11-35-96-122c-112-115-188-209-284-352l-53-80l12-90c6-50,16-119,22-154l11-62l50,72
		c85,124,149,196,354,398c279,274,264,254,264,356c0,99-29,200-71,245c-24,25-33,29-81,28C7839,3008,7788,3004,7755,2999z"/>
	<path d="M4274,2914c-41-20-65-65-71-135c-5-54-8-59-29-59c-23,0-24-4-24-60c0-57,1-60,25-60h25v-245v-245h75h75l2,243l3,242l48,3
		l47,3v60v59h-50c-47,0-50,2-50,25c0,38,36,68,71,61l29-5v64v65h-72C4334,2930,4293,2924,4274,2914z"/>
	<path d="M956,2905c-82-29-162-120-191-218c-9-29-19-91-22-138c-15-219,66-387,210-435c75-25,197-16,271,20l56,27v205v204h-125h-125
		v-70v-70h50h50v-90c0-88-1-90-26-96c-34-9-87,1-118,21c-97,64-117,337-32,448c54,70,126,82,200,32l34-23l41,61c46,71,45,77-34,113
		C1136,2924,1020,2928,956,2905z"/>
	<path d="M3360,2510v-400h75h75v400v400h-75h-75V2510z"/>
	<path d="M3026,2730c-16-5-44-24-63-42l-33-32v32v32h-75h-75v-305v-305h75h75l1,203c0,226,8,266,52,281c19,7,34,7,45,0
		c37-24,42-53,42-271v-213h75h75v248c0,237-1,250-22,292c-13,24-34,52-48,61C3119,2733,3064,2742,3026,2730z"/>
	<path d="M3874,2726c-17-8-43-27-58-42l-26-29v33v32h-75h-75v-305v-305h75h75v213c0,218,5,247,42,271c11,7,26,7,45,0
		c44-15,52-55,52-281l1-203h76h76l-4,253c-3,232-5,255-24,291c-11,22-31,48-45,58C3975,2736,3912,2743,3874,2726z"/>
	<path d="M1578,2690l-38-41v36v35h-75h-75v-305v-305h74h74l4,178c3,144,7,183,21,209c18,34,62,63,97,63c19,0,20,6,20,85v85h-32
		C1625,2730,1608,2720,1578,2690z"/>
	<path d="M1865,2713c-50-26-82-62-111-126c-24-54-28-75-28-162c0-116,12-164,57-231c65-97,193-127,303-71c75,38,78,44,42,102
		c-17,28-32,51-33,53c-2,2-20-8-40-23c-73-49-150-21-174,63l-10,32h151h151l-5,98c-7,137-50,226-130,268
		C2002,2735,1903,2733,1865,2713z M2007,2559c6-13,15-41,18-61l7-38h-82h-82l7,38c10,54,27,85,55,99C1960,2612,1988,2598,2007,2559z
		"/>
	<path d="M2385,2713c-75-39-119-112-136-226c-36-245,101-429,291-388c46,10,121,48,133,68c4,7-39,89-58,111c-2,2-20-8-40-23
		c-22-14-52-25-71-25c-42,0-87,37-101,84l-11,36h150h151l-5,98c-7,137-50,226-130,268C2522,2735,2423,2733,2385,2713z M2527,2559
		c6-13,15-41,18-61l7-38h-82h-82l7,37C2415,2605,2487,2639,2527,2559z"/>
	<path d="M4625,2713c-49-25-92-72-117-127c-19-44-23-68-23-172c0-119,1-122,35-190c28-55,45-74,84-98c41-26,58-30,115-30
		c101,0,162,42,210,144c24,50,26,66,26,175c0,104-3,127-23,170c-46,100-113,145-214,145C4681,2729,4643,2723,4625,2713z M4767,2578
		c30-34,43-82,43-162c0-121-31-186-89-186s-91,67-91,185c0,39,4,85,10,104C4661,2594,4726,2623,4767,2578z"/>
	<path d="M4460,1420v-410h75h75v94c0,75,4,98,18,116c18,22,18,22,62-94l43-116h84c99,0,99-25,7,198c-35,86-64,162-64,170
		s32,66,70,128c39,63,70,116,70,119s-38,5-84,5h-85l-58-107l-58-108l-3,208l-2,207h-75h-75V1420z"/>
	<path d="M1260,1415v-405h75h75l2,221l3,221l115-221l115-221h68h67v405v405h-75h-75l-2-215l-3-215l-112,212l-111,213l-71,3l-71,3
		V1415z"/>
	<path d="M2430,1710c0-79,0-80-25-80c-24,0-25-2-25-65s1-65,25-65h25v-202c0-141,4-210,13-227c30-58,110-84,192-61l45,13v63v64
		l-26-11c-20-7-32-6-50,6c-24,15-24,18-24,185v170h50h50v65v65h-50h-50v80v80h-75h-75V1710z"/>
	<path d="M2013,1615c-94-47-135-136-136-295c0-95,2-111,28-168c31-69,86-124,143-143c69-23,175-1,240,49l24,18l-34,57l-34,56l-30-24
		c-40-33-84-41-123-21c-33,17-61,61-61,96c0,19,5,20,145,20h145v70c0,145-45,245-130,288C2132,1647,2076,1646,2013,1615z M2139,1491
		c18-18,41-79,41-108c0-9-23-13-80-13c-44,0-80,3-80,8c0,26,25,91,43,110C2088,1515,2114,1516,2139,1491z"/>
	<path d="M3662,1627c-54-21-99-64-129-124c-26-55-28-65-28-188c0-122,2-133,27-181c51-97,124-140,229-132c118,9,200,108,214,262
		c16,167-37,300-139,353C3797,1637,3703,1643,3662,1627z M3778,1485c74-62,67-302-10-345c-25-13-31-13-55,0c-45,24-65,79-65,173
		c-1,97,14,149,49,177C3730,1516,3742,1515,3778,1485z"/>
	<path d="M4304,1626c-17-8-40-26-52-41l-22-28v37v36h-75h-75v-310v-310h74h75l3,189c3,217,9,235,86,259l42,14v84
		C4360,1647,4358,1649,4304,1626z"/>
	<path d="M2750,1626c0-2,29-140,65-306s65-304,65-306s33-4,73-4h74l34,160c19,88,37,160,40,160s21-72,40-160l33-160h73
		c67,0,73,2,78,23c23,95,125,573,125,584c0,10-19,13-73,13h-74l-28-157c-15-87-31-162-35-166s-22,67-41,158l-33,165h-63
		c-57,0-63-2-68-22c-3-13-19-88-36-168c-16-79-31-145-33-147c-1-1-15,66-30,150c-15,83-30,160-32,170c-5,14-17,17-80,17
		C2783,1630,2750,1628,2750,1626z"/>
</g>
</svg>
