<?xml version="1.0" encoding="utf-8"?>
<!-- Generator: Adobe Illustrator 18.0.0, SVG Export Plug-In . SVG Version: 6.00 Build 0)  -->
<!DOCTYPE svg PUBLIC "-//W3C//DTD SVG 1.1//EN" "http://www.w3.org/Graphics/SVG/1.1/DTD/svg11.dtd">
<svg version="1.1" id="Layer_1" xmlns="http://www.w3.org/2000/svg" xmlns:xlink="http://www.w3.org/1999/xlink" x="0px" y="0px"
	 viewBox="240 0 905.7 905.7" enable-background="new 240 0 905.7 905.7" xml:space="preserve">
<g>
	<path opacity="0.6" fill="#FFFFFF" enable-background="new    " d="M-32390.2,384.9h-79.2c7.5,22.6,7.5,45.3,7.5,67.9
		c0,154.7-124.5,279.2-279.2,279.2c-154.7,0-279.2-124.5-279.2-279.2c0-22.6,3.8-49.1,7.5-67.9h-79.2v384.9c0,18.9,15.1,34,34,34
		h626.4c18.9,0,34-15.1,34-34V384.9H-32390.2z M-32390.2,139.6c0-18.9-15.1-34-34-34h-105.7c-18.9,0-34,15.1-34,34v105.7
		c0,18.9,15.1,34,34,34h105.7c18.9,0,34-15.1,34-34V139.6z M-32741.1,279.2c-94.3,0-173.6,79.2-173.6,173.6s79.2,173.6,173.6,173.6
		c94.3,0,173.6-79.2,173.6-173.6S-32643,279.2-32741.1,279.2 M-32390.2,905.7h-698.1c-56.6,0-105.7-45.3-105.7-105.7V105.7
		c0-56.6,45.3-105.7,105.7-105.7h698.1c56.6,0,105.7,45.3,105.7,105.7v698.1C-32288.3,860.4-32333.6,905.7-32390.2,905.7"/>
	<path opacity="0.6" fill="#FFFFFF" enable-background="new    " d="M-25801.5,384.9h-79.2c7.5,22.6,7.5,45.3,7.5,67.9
		c0,154.7-124.5,279.2-279.2,279.2c-154.7,0-279.2-124.5-279.2-279.2c0-22.6,3.8-49.1,7.5-67.9h-79.2v384.9c0,18.9,15.1,34,34,34
		h626.4c18.9,0,34-15.1,34-34V384.9H-25801.5z M-25801.5,139.6c0-18.9-15.1-34-34-34h-105.7c-18.9,0-34,15.1-34,34v105.7
		c0,18.9,15.1,34,34,34h105.7c18.9,0,34-15.1,34-34V139.6z M-26148.7,279.2c-94.3,0-173.6,79.2-173.6,173.6s79.2,173.6,173.6,173.6
		s173.6-79.2,173.6-173.6S-26054.3,279.2-26148.7,279.2 M-25801.5,905.7h-698.1c-56.6,0-105.7-45.3-105.7-105.7V105.7
		c0-56.6,45.3-105.7,105.7-105.7h698.1c56.6,0,105.7,45.3,105.7,105.7v698.1C-25695.8,860.4-25741.1,905.7-25801.5,905.7"/>
	<path opacity="0.6" fill="#FFFFFF" enable-background="new    " d="M9885.3,384.9H9806c7.5,22.6,7.5,45.3,7.5,67.9
		c0,154.7-124.5,279.2-279.2,279.2s-279.2-124.5-279.2-279.2c0-22.6,3.8-49.1,7.5-67.9h-79.2v384.9c0,18.9,15.1,34,34,34h626.4
		c18.9,0,34-15.1,34-34V384.9H9885.3z M9885.3,139.6c0-18.9-15.1-34-34-34h-105.7c-18.9,0-34,15.1-34,34v105.7c0,18.9,15.1,34,34,34
		h105.7c18.9,0,34-15.1,34-34V139.6z M9538.1,279.2c-94.3,0-173.6,79.2-173.6,173.6s79.2,173.6,173.6,173.6
		c94.3,0,173.6-79.2,173.6-173.6S9632.5,279.2,9538.1,279.2 M9885.3,905.7h-698.1c-56.6,0-105.7-45.3-105.7-105.7V105.7
		c0-56.6,45.3-105.7,105.7-105.7h698.1c56.6,0,105.7,45.3,105.7,105.7v698.1C9990.9,860.4,9941.9,905.7,9885.3,905.7"/>
	<path opacity="0.6" fill="#FFFFFF" enable-background="new    " d="M-16756.2,384.9h-79.2c7.5,22.6,7.5,45.3,7.5,67.9
		c0,154.7-124.5,279.2-279.2,279.2s-279.2-124.5-279.2-279.2c0-22.6,3.8-49.1,7.5-67.9h-79.2v384.9c0,18.9,15.1,34,34,34h626.4
		c18.9,0,34-15.1,34-34V384.9H-16756.2z M-16756.2,139.6c0-18.9-15.1-34-34-34h-105.7c-18.9,0-34,15.1-34,34v105.7
		c0,18.9,15.1,34,34,34h105.7c18.9,0,34-15.1,34-34V139.6z M-17103.4,279.2c-94.3,0-173.6,79.2-173.6,173.6s79.2,173.6,173.6,173.6
		c94.3,0,173.6-79.2,173.6-173.6S-17009.1,279.2-17103.4,279.2 M-16756.2,905.7h-698.1c-56.6,0-105.7-45.3-105.7-105.7V105.7
		c0-56.6,45.3-105.7,105.7-105.7h698.1c56.6,0,105.7,45.3,105.7,105.7v698.1C-16650.6,860.4-16699.6,905.7-16756.2,905.7"/>
	<path opacity="0.6" fill="#FFFFFF" enable-background="new    " d="M-7756.2,384.9h-79.2c7.5,22.6,7.5,45.3,7.5,67.9
		c0,154.7-124.5,279.2-279.2,279.2c-154.7,0-279.2-124.5-279.2-279.2c0-22.6,3.8-49.1,7.5-67.9h-79.2v384.9c0,18.9,15.1,34,34,34
		h626.4c18.9,0,34-15.1,34-34V384.9H-7756.2z M-7756.2,139.6c0-18.9-15.1-34-34-34h-105.7c-18.9,0-34,15.1-34,34v105.7
		c0,18.9,15.1,34,34,34h105.7c18.9,0,34-15.1,34-34V139.6z M-8103.4,279.2c-94.3,0-173.6,79.2-173.6,173.6s79.2,173.6,173.6,173.6
		s173.6-79.2,173.6-173.6S-8009.1,279.2-8103.4,279.2 M-7756.2,905.7h-698.1c-56.6,0-105.7-45.3-105.7-105.7V105.7
		C-8560,49.1-8514.7,0-8454.3,0h698.1c56.6,0,105.7,45.3,105.7,105.7v698.1C-7650.6,860.4-7699.6,905.7-7756.2,905.7"/>
	<path opacity="0.6" fill="#FFFFFF" enable-background="new    " d="M1040,384.9h-79.2c7.5,22.6,7.5,45.3,7.5,67.9
		c0,154.7-124.5,279.2-279.2,279.2S409.8,607.5,409.8,452.8c0-22.6,3.8-49.1,7.5-67.9h-71.7v384.9c0,18.9,15.1,34,34,34H1006
		c18.9,0,34-15.1,34-34L1040,384.9L1040,384.9z M1040,139.6c0-18.9-15.1-34-34-34H900.4c-18.9,0-34,15.1-34,34v105.7
		c0,18.9,15.1,34,34,34H1006c18.9,0,34-15.1,34-34V139.6z M692.8,279.2c-94.3,0-173.6,79.2-173.6,173.6s79.2,173.6,173.6,173.6
		s173.6-79.2,173.6-173.6S787.2,279.2,692.8,279.2 M1040,905.7H345.7C285.3,905.7,240,860.4,240,800V105.7C240,45.3,285.3,0,345.7,0
		h698.1c56.6,0,101.9,45.3,101.9,105.7v698.1C1145.7,860.4,1100.4,905.7,1040,905.7"/>
	<path opacity="0.6" fill="#FFFFFF" enable-background="new    " d="M18715.5,384.9h-79.2c7.5,22.6,7.5,45.3,7.5,67.9
		c0,154.7-124.5,279.2-279.2,279.2c-154.7,0-279.2-124.5-279.2-279.2c0-22.6,3.8-49.1,7.5-67.9h-79.2v384.9c0,18.9,15.1,34,34,34
		h626.4c18.9,0,34-15.1,34-34V384.9H18715.5z M18715.5,139.6c0-18.9-15.1-34-34-34h-105.7c-18.9,0-34,15.1-34,34v105.7
		c0,18.9,15.1,34,34,34h105.7c18.9,0,34-15.1,34-34V139.6z M18368.3,279.2c-94.3,0-173.6,79.2-173.6,173.6s79.2,173.6,173.6,173.6
		s173.6-79.2,173.6-173.6S18462.6,279.2,18368.3,279.2 M18715.5,905.7h-698.1c-56.6,0-105.7-45.3-105.7-105.7V105.7
		c0-56.6,45.3-105.7,105.7-105.7h698.1c56.6,0,105.7,45.3,105.7,105.7v698.1C18821.1,860.4,18772.1,905.7,18715.5,905.7"/>
	<path opacity="0.6" fill="#FFFFFF" enable-background="new    " d="M27515.5,384.9h-79.2c7.5,22.6,7.5,45.3,7.5,67.9
		c0,154.7-124.5,279.2-279.2,279.2c-154.7,0-279.2-124.5-279.2-279.2c0-22.6,3.8-49.1,7.5-67.9h-79.2v384.9c0,18.9,15.1,34,34,34
		h626.4c18.9,0,34-15.1,34-34V384.9H27515.5z M27515.5,139.6c0-18.9-15.1-34-34-34h-105.7c-18.9,0-34,15.1-34,34v105.7
		c0,18.9,15.1,34,34,34h105.7c18.9,0,34-15.1,34-34V139.6z M27164.5,279.2c-94.3,0-173.6,79.2-173.6,173.6s79.2,173.6,173.6,173.6
		s173.6-79.2,173.6-173.6S27262.6,279.2,27164.5,279.2 M27515.5,905.7h-698.1c-56.6,0-105.7-45.3-105.7-105.7V105.7
		c0-56.6,45.3-105.7,105.7-105.7h698.1c56.6,0,105.7,45.3,105.7,105.7v698.1C27617.4,860.4,27572.1,905.7,27515.5,905.7"/>
	<path opacity="0.6" fill="#FFFFFF" enable-background="new    " d="M36357,384.9h-79.2c7.5,22.6,7.5,45.3,7.5,67.9
		c0,154.7-124.5,279.2-279.2,279.2c-154.7,0-279.2-124.5-279.2-279.2c0-22.6,3.8-49.1,7.5-67.9h-79.2v384.9c0,18.9,15.1,34,34,34
		h626.4c18.9,0,34-15.1,34-34V384.9H36357z M36357,139.6c0-18.9-15.1-34-34-34h-105.7c-18.9,0-34,15.1-34,34v105.7
		c0,18.9,15.1,34,34,34h105.7c18.9,0,34-15.1,34-34V139.6z M36009.8,279.2c-94.3,0-173.6,79.2-173.6,173.6s79.2,173.6,173.6,173.6
		c94.3,0,173.6-79.2,173.6-173.6S36104.1,279.2,36009.8,279.2 M36357,905.7h-698.1c-56.6,0-105.7-45.3-105.7-105.7V105.7
		c0-56.6,45.3-105.7,105.7-105.7h698.1c56.6,0,105.7,45.3,105.7,105.7v698.1C36462.6,860.4,36413.6,905.7,36357,905.7"/>
</g>
</svg>
