<?xml version="1.0" encoding="utf-8"?>
<!-- Generator: Adobe Illustrator 18.0.0, SVG Export Plug-In . SVG Version: 6.00 Build 0)  -->
<!DOCTYPE svg PUBLIC "-//W3C//DTD SVG 1.1//EN" "http://www.w3.org/Graphics/SVG/1.1/DTD/svg11.dtd">
<svg version="1.1" id="Layer_1" xmlns="http://www.w3.org/2000/svg" xmlns:xlink="http://www.w3.org/1999/xlink" x="0px" y="0px"
	 viewBox="0 0 19.6 32.3" enable-background="new 0 0 19.6 32.3" xml:space="preserve">
<g>
	<polygon fill="#CFD8DC" points="1602,255 1617.9,261.3 1617.9,223.1 1602,216.8 	"/>
	<polygon fill="#CFD8DC" points="1637,216.8 1637,255 1652.9,261.3 1652.9,223.1 	"/>
	<polygon fill="#CFD8DC" points="1621.1,261.3 1633.8,255 1633.8,216.8 1621.1,223.1 	"/>
</g>
<g>
	<rect x="1506.7" y="221.9" fill="#0288D1" width="41.2" height="5.5"/>
	<rect x="1490.2" y="221.9" fill="#0288D1" width="8.2" height="5.5"/>
	<rect x="1506.7" y="235.7" fill="#0288D1" width="41.2" height="5.5"/>
	<rect x="1490.2" y="235.7" fill="#0288D1" width="8.2" height="5.5"/>
	<rect x="1506.7" y="249.4" fill="#0288D1" width="41.2" height="5.5"/>
	<rect x="1490.2" y="249.4" fill="#0288D1" width="8.2" height="5.5"/>
</g>
<rect x="1582.4" y="184" fill="#CFD8DC" width="88" height="2"/>
<polygon fill="#FFFFFF" points="0,32.3 0,0 19.6,16.2 "/>
</svg>
