<svg style="position:absolute; width:0; height:0" xmlns="http://www.w3.org/2000/svg"><symbol id="">null</symbol><symbol viewBox="0 0 40 40" id="activity-backpacking"><title>activity-backpacking</title> <g> <path fill="#4CAF50" d="M35.2,40c2.6,0,4.8-2.1,4.8-4.8V4.8C40,2.1,37.9,0,35.2,0H4.8C2.1,0,0,2.1,0,4.8v30.5C0,37.9,2.1,40,4.8,40
		H35.2z"/> <path fill="#FFFFFF" d="M20.5,8.3c1.5,0,2.7-1.2,2.7-2.7c0-1.5-1.2-2.7-2.7-2.7c-1.5,0-2.7,1.2-2.7,2.7C17.8,7.1,19,8.3,20.5,8.3z"/> <path fill="#FFFFFF" d="M15.9,8.8C16,8.4,15.8,8,15.4,7.8l-2.2-0.5c-0.4-0.1-0.8,0.2-0.9,0.6l-1.9,7.8c-0.1,0.4,0.2,0.8,0.6,0.9
		l2.2,0.5c0.4,0.1,0.8-0.1,0.9-0.6L15.9,8.8z"/> <path fill="#FFFFFF" d="M26.2,36.4C26.2,36.4,26.2,36.4,26.2,36.4c0,0.4,0.3,0.7,0.6,0.7c0.3,0,0.6-0.2,0.6-0.5l4.5-24.4
		c0,0,0,0,0,0c0-0.3-0.3-0.6-0.6-0.6c-0.3,0-0.5,0.2-0.6,0.5L26.2,36.4z"/> <path fill="#FFFFFF" d="M11.3,34.8c0,0.1,0,0.3,0,0.4c0,1,0.8,1.9,1.9,1.9c0.9,0,1.6-0.6,1.8-1.3l3.2-13.4l3.1,13.3
		c0.2,0.8,0.9,1.4,1.8,1.4c1,0,1.9-0.8,1.9-1.9c0-0.1,0-0.3,0-0.4l-4.2-17.7l0.4-1.6l0.3,1.2c0.3,0.8,1,0.9,1,0.9l4.4,1.1
		c0.1,0,0.2,0,0.3,0c0.7,0,1.3-0.6,1.3-1.3c0-0.6-0.4-1.1-1-1.3l-3.8-0.9l-1-4.2c-0.5-2.3-2.7-2.3-2.7-2.3c-2.2-0.1-2.7,2.2-2.7,2.2
		L11.3,34.8z"/> </g> </symbol><symbol viewBox="0 0 40 40" id="activity-biking"><title>activity-biking</title> <g> <path fill="#4CAF50" d="M35.2,40c2.6,0,4.8-2.1,4.8-4.8V4.8C40,2.1,37.9,0,35.2,0H4.8C2.1,0,0,2.1,0,4.8v30.4C0,37.9,2.1,40,4.8,40
		H35.2z"/> <path fill="#FFFFFF" d="M9.5,32.9c3.2,0,5.8-2.6,5.8-5.8c0-3.2-2.6-5.8-5.8-5.8c-3.2,0-5.8,2.6-5.8,5.8C3.7,30.3,6.3,32.9,9.5,32.9
		z M2.4,27.1c0-3.9,3.2-7.1,7.1-7.1c3.9,0,7.1,3.2,7.1,7.1c0,3.9-3.2,7.1-7.1,7.1C5.6,34.2,2.4,31,2.4,27.1z"/> <path fill="#FFFFFF" d="M30.5,32.9c3.2,0,5.8-2.6,5.8-5.8c0-3.2-2.6-5.8-5.8-5.8c-3.2,0-5.8,2.6-5.8,5.8
		C24.7,30.3,27.3,32.9,30.5,32.9z M23.4,27.1c0-3.9,3.2-7.1,7.1-7.1c3.9,0,7.1,3.2,7.1,7.1c0,3.9-3.2,7.1-7.1,7.1
		C26.6,34.2,23.4,31.1,23.4,27.1z"/> <path fill="#FFFFFF" d="M23.4,9.8c1.5,0,2.7-1.2,2.7-2.7c0-1.5-1.2-2.7-2.7-2.7c-1.5,0-2.7,1.2-2.7,2.7C20.7,8.6,21.9,9.8,23.4,9.8
		z"/> <path fill="#FFFFFF" d="M23.5,16.2c-0.4,0-0.8-0.2-1.1-0.7l-1.7-2.7L17,16.4l3.3,1.8c1.4,0.7,1.2,1.9,1.2,1.9v7.5
		c0,0.9-0.7,1.5-1.5,1.5c-0.9,0-1.5-0.7-1.5-1.5v-6l-5.8-3.2c-0.7-0.4-1.2-1.1-1.2-2c0-0.6,0.2-1.1,0.6-1.5l5.7-5.7
		c0.7-0.8,1.7-0.7,1.7-0.7c1.2,0,1.8,1,1.8,1l2.9,4.6l4.5,0c1.6,0,1.6,2.1,0,2.1H23.5z"/> </g> </symbol><symbol viewBox="0 0 40 40" id="activity-boardsports"><title>activity-boardsports</title> <g> <path fill="#2196F3" d="M35.2,40c2.6,0,4.8-2.1,4.8-4.8V4.8C40,2.1,37.9,0,35.2,0H4.8C2.1,0,0,2.1,0,4.8v30.4C0,37.9,2.1,40,4.8,40
		H35.2z"/> <circle fill="#FFFFFF" cx="12.6" cy="8.7" r="2.7"/> <path fill="#FFFFFF" d="M31.8,15.6c-0.9-5.1-3-9.8-5.3-12.8l0,0l0,0c-1.5,2-2.9,4.8-4,7.9c0,0-0.1,0.1-0.1,0.1l-3.1,3.1l-3-1.7
		C15.9,12,15.6,12,15.6,12h-1.1h-4c0,0-1.3-0.1-1.3,1.2v9.6l-2,12c-0.3,1.1,0.3,2.2,1.4,2.4c1.1,0.3,2.2-0.3,2.4-1.4l1.5-10.5
		l1.5,10.5c0.3,1.1,1.4,1.7,2.4,1.4c1.1-0.3,1.7-1.4,1.4-2.4l-2-12.2v-7l2.6,1.4c0.2,0.2,0.5,0.3,0.8,0.3c0.4,0,0.8-0.2,1.1-0.5
		l0.7-0.7c0,0.1,0,0.2,0,0.2c0,0,0,0,0,0c-0.1,0.4-0.1,0.7-0.1,1.1c0,0.4-0.1,0.8-0.1,1.1c0,0.2,0,0.3,0,0.5c0,0.3,0,0.7,0,1
		c0,0.3,0,0.7,0,1c0,0.2,0,0.3,0,0.5c0,0.4,0.1,0.8,0.1,1.1c0,0.4,0.1,0.7,0.1,1.1c0,0,0,0,0,0c0.7,5.3,2.9,10.3,5.2,13.4l0,0l0,0
		c2.3-2.9,4.4-7.7,5.3-12.8c0.3-1.4,0.4-2.9,0.4-4.4C32.2,18.5,32.1,17.1,31.8,15.6z"/> <g> <path fill="#FFFFFF" d="M32,32.4c0.7,0,1.4,0.2,2,0.5c0.6,0.3,1.3,0.4,2,0.4v-2.9c-0.7,0-1.4-0.2-2-0.4c-0.6-0.3-1.3-0.4-2-0.4
			c-0.2,0-0.3,0-0.5,0c-0.4,1.1-0.8,2.2-1.3,3.2C30.8,32.5,31.4,32.4,32,32.4z"/> <path fill="#FFFFFF" d="M20.1,30.3c-0.6,0-1.3-0.1-1.8-0.4l0.5,3.1c0.4,0.1,0.9,0.2,1.3,0.2c0.7,0,1.4-0.2,2-0.4
			c0.2-0.1,0.5-0.2,0.7-0.3c-0.4-0.8-0.7-1.7-1-2.6C21.2,30.2,20.7,30.3,20.1,30.3z"/> <path fill="#FFFFFF" d="M6.2,29.9c-0.6,0.3-1.3,0.4-2,0.4v2.9c0.7,0,1.4-0.2,2-0.4c0.2-0.1,0.3-0.1,0.5-0.2l0.5-3.1
			C6.8,29.6,6.5,29.7,6.2,29.9z"/> <path fill="#FFFFFF" d="M32.4,26.4c0.6,0,1.1,0.2,1.6,0.4c0.6,0.3,1.3,0.4,2,0.4v-2.9c-0.7,0-1.4-0.2-2-0.4
			c-0.3-0.2-0.7-0.3-1.1-0.3c0,0.3-0.1,0.7-0.1,1C32.7,25.2,32.6,25.8,32.4,26.4z"/> <path fill="#FFFFFF" d="M6.2,23.9c-0.6,0.3-1.3,0.4-2,0.4v2.9c0.7,0,1.4-0.2,2-0.4c0.5-0.2,1-0.4,1.5-0.4l0.5-3
			C7.5,23.4,6.8,23.6,6.2,23.9z"/> <path fill="#FFFFFF" d="M20.1,24.3c-0.7,0-1.4-0.2-2-0.4c-0.3-0.1-0.6-0.2-0.9-0.3l0.5,3.1c0.1,0.1,0.3,0.1,0.4,0.2
			c0.6,0.3,1.3,0.4,2,0.4c0.3,0,0.5,0,0.8-0.1c-0.2-1-0.4-1.9-0.6-2.9C20.3,24.3,20.2,24.3,20.1,24.3z"/> </g> </g> </symbol><symbol viewBox="0 0 40 40" id="activity-boating"><title>activity-boating</title> <g> <path fill="#2196F3" d="M35.2,40c2.6,0,4.8-2.1,4.8-4.8V4.8C40,2.1,37.9,0,35.2,0H4.8C2.1,0,0,2.1,0,4.8v30.4C0,37.9,2.1,40,4.8,40
		H35.2z"/> <path fill="#FFFFFF" d="M7.6,22.5c0.4-0.1,0.9-0.2,1.3-0.2c0.7,0,1.4,0.2,2,0.4c0.6,0.3,1.3,0.4,1.9,0.4c0.7,0,1.4-0.2,2-0.4
		c0.6-0.3,1.3-0.4,2-0.4c0.7,0,1.4,0.2,2,0.4c0.6,0.3,1.3,0.4,2,0.4c0.7,0,1.4-0.2,2-0.4c0.6-0.3,1.3-0.4,2-0.4c0.7,0,1.4,0.2,2,0.4
		c0.6,0.3,1.3,0.4,2,0.4c0.7,0,1.4-0.2,2-0.4c0.6-0.3,1.3-0.4,2-0.4c0.6,0,1.2,0.1,1.7,0.3l2.2-6.1c0.1-0.2,0-0.3-0.3-0.3
		c-0.2,0-15.6-0.4-15.6-0.4l2.1-3.6l2.6,0.1v-1.7l-10.9-0.2l-3.2,5.2l-8.6-0.2c-0.1,0-0.2,0.1-0.1,0.3c0.1,0.2,3.8,5.6,3.9,5.9
		C6.8,21.9,7.2,22.2,7.6,22.5z M15.1,12l4.9,0.2l-2.2,3.5L13,15.6L15.1,12z M36.7,29.3c-0.7,0-1.4-0.2-2-0.4c-0.6-0.3-1.3-0.5-2-0.5
		c-0.7,0-1.4,0.2-2,0.5c-0.6,0.3-1.3,0.4-2,0.4c-0.7,0-1.4-0.2-2-0.4c-0.6-0.3-1.3-0.5-2-0.5c-0.7,0-1.4,0.2-2,0.5
		c-0.6,0.3-1.3,0.4-2,0.4c-0.7,0-1.4-0.2-2-0.4c-0.6-0.3-1.3-0.5-2-0.5c-0.7,0-1.4,0.2-2,0.5c-0.6,0.3-1.3,0.4-2,0.4
		c-0.7,0-1.4-0.2-1.9-0.4c-0.6-0.3-1.3-0.5-2-0.5c-0.7,0-1.4,0.2-2,0.5c-0.6,0.3-1.3,0.4-2,0.4v-2.9c0.7,0,1.4-0.2,2-0.4
		c0.6-0.3,1.3-0.4,2-0.4c0.7,0,1.4,0.2,2,0.4c0.6,0.3,1.3,0.4,1.9,0.4c0.7,0,1.4-0.2,2-0.4c0.6-0.3,1.3-0.4,2-0.4
		c0.7,0,1.4,0.2,2,0.4c0.6,0.3,1.3,0.4,2,0.4c0.7,0,1.4-0.2,2-0.4c0.6-0.3,1.3-0.4,2-0.4c0.7,0,1.4,0.2,2,0.4c0.6,0.3,1.3,0.4,2,0.4
		c0.7,0,1.4-0.2,2-0.4c0.6-0.3,1.3-0.4,2-0.4c0.7,0,1.4,0.2,2,0.4c0.6,0.3,1.3,0.4,2,0.4V29.3z"/> </g> </symbol><symbol viewBox="0 0 40 40" id="activity-camping"><title>activity-camping</title> <g> <path fill="#4CAF50" d="M35.2,40c2.6,0,4.8-2.1,4.8-4.8V4.8C40,2.1,37.9,0,35.2,0H4.8C2.1,0,0,2.1,0,4.8v30.4C0,37.9,2.1,40,4.8,40
		H35.2z"/> <path fill="#FFFFFF" d="M13,30.6l7.1-13.5l7.1,13.5H13z M33.3,30.6L20.1,5.4L6.9,30.6H4.1v1.8h31.7v-1.8H33.3z"/> </g> </symbol><symbol viewBox="0 0 40 40" id="activity-dogs"><title>activity-dogs</title> <g> <path fill="#FFFFFF" d="M4.8,0.8c-2.2,0-4,1.8-4,4v30.4c0,2.2,1.8,4,4,4h30.4c2.2,0,4-1.8,4-4V4.8c0-2.2-1.8-4-4-4H4.8z"/> <path fill="#9C27B0" d="M35.2,40c2.6,0,4.8-2.1,4.8-4.8V4.8C40,2.1,37.9,0,35.2,0H4.8C2.1,0,0,2.1,0,4.8v30.4C0,37.9,2.1,40,4.8,40
		H35.2z"/> <polygon fill="#FFFFFF" points="22.9,17 6.2,9 6.2,7.4 23.5,15.7 	"/> <path fill="#FFFFFF" d="M17.2,25.7h7.3v6.5c0,1.1,0.9,1.9,1.9,1.9l0,0c1.1,0,1.9-0.9,1.9-1.9v-6.5c0.6,0,0.6-0.4,0.6-0.8V20l-6.1-3
		h-13l-1.7-0.9C7.7,15.8,7,16,6.7,16.5l0,0C6.4,17,6.6,17.7,7.2,18l2.6,1.5v12.7c0,1.1,0.9,1.9,1.9,1.9l0,0c1.1,0,1.9-0.9,1.9-1.9
		l0-5l3.5,5.9c0.5,0.9,1.7,1.2,2.7,0.7l0,0c0.9-0.5,1.2-1.7,0.7-2.7L17.2,25.7z"/> <polygon fill="#FFFFFF" points="23.5,15.7 29,18.3 29,17.3 33.5,17.3 35.2,13.7 23.5,8.2 	"/> </g> </symbol><symbol viewBox="0 0 40 40" id="activity-fishing"><title>activity-fishing</title> <g> <path fill="#2196F3" d="M35.2,40c2.6,0,4.8-2.1,4.8-4.8V4.8C40,2.1,37.9,0,35.2,0H4.8C2.1,0,0,2.1,0,4.8v30.4C0,37.9,2.1,40,4.8,40
		H35.2z"/> <path fill="#FFFFFF" d="M23,25c0.7,0,1.3-0.6,1.3-1.3c0-0.7-0.6-1.3-1.3-1.3c-0.7,0-1.3,0.6-1.3,1.3C21.7,24.4,22.3,25,23,25z
		 M35.9,34.4C28.2,34.5,20.2,33,14,28.1l0,0c0,0-0.1-0.1-0.1-0.1c0-0.1,0.1-0.2,0.2-0.2l6.1,0c0.3,0,0.5-0.2,0.5-0.5
		c0-0.2-0.1-0.4-0.3-0.5l-5.5-2.6c-0.1-0.1-0.2-0.2-0.2-0.3c0-0.1,0-0.2,0.1-0.3l0,0c0,0,6.7-5.9,21.1-5.8V34.4z"/> <path fill="#FFFFFF" d="M33,4.9c-4.8,0.1-9.4,2.1-14.6,6.4c-0.2-0.1-0.6-0.2-0.6-0.2c-0.8,0-1.5,0.7-1.5,1.5c0,0,0.1,0.3,0.1,0.5
		c-0.2,0.1-4.2,4-4.2,4l-3.6,3.4c-0.3,0.3-0.8,0.5-1.2,0.4c-0.5,0-0.9-0.2-1.2-0.6c-0.3-0.3-0.4-0.7-0.4-1.1c0-0.5,0.2-0.9,0.6-1.3
		c0,0,0.3-0.2,0.5-0.3c0,0.3,0.2,1.2,0.2,1.2l2.9-3.7l-3.2,1.1C5.7,16.5,5.4,17,5.3,17c-1.2,1.1-1.3,2.9-0.2,4.2
		c1.1,1.2,3,1.3,4.2,0.2l0,0l3.4-3.2c0,0,4.2-4,4.3-4.1c0.2,0.1,0.6,0.2,0.6,0.2c0.8,0,1.5-0.7,1.5-1.5c0,0,0-0.2-0.1-0.4
		c5.1-4.2,9.5-6.1,13.9-6.2c0.9,0,1.6,0.1,2.8,0.4l0.2,0.1V5.3l-0.2,0C34.7,5,33.9,4.9,33,4.9z"/> </g> </symbol><symbol viewBox="0 0 40 40" id="activity-hiking"><title>activity-hiking</title> <g> <path fill="#4CAF50" d="M35.2,40c2.6,0,4.8-2.1,4.8-4.8V4.8C40,2.1,37.9,0,35.2,0H4.8C2.1,0,0,2.1,0,4.8v30.4C0,37.9,2.1,40,4.8,40
		H35.2z"/> <path fill="#FFFFFF" d="M20.4,8.5c1.5,0,2.7-1.3,2.7-2.8C23,4.1,21.8,3,20.2,3c-1.5,0-2.7,1.3-2.7,2.8C17.6,7.3,18.9,8.5,20.4,8.5z
		"/> <path fill="#FFFFFF" d="M29.8,17.6l-4-2.2l-3.3-5.2C21.8,9.6,21,9.1,20,9.1c-0.7,0-1.4,0.3-1.9,0.8l-5,5c-0.2,0.2-0.3,0.4-0.3,0.6
		l-0.6,5.5c0,0.1,0,0.1,0,0.2c0,0.7,0.6,1.2,1.3,1.2c0.6,0,1.1-0.6,1.2-1.2l0.5-4.8l1.8-1.7l-1.6,13.3l-2.9,6.3
		c-0.1,0.2-0.2,0.5-0.2,0.8c0,1,0.9,1.8,1.9,1.8c0.7,0,1.3-0.5,1.6-1.1l3.1-6.8c0.1-0.2,0.3-0.6,0.3-0.8l0.4-3.3l3.2,10.7
		c0.3,0.7,1,1.3,1.8,1.3c1,0,1.8-0.9,1.8-1.9c0-0.1,0-0.2-0.1-0.4L22,19.9l0.6-4.8l1.3,1.9c0.1,0.1,0.2,0.2,0.3,0.3l4.4,2.4
		c0.2,0.1,0.4,0.1,0.6,0.1c0.7,0,1.2-0.6,1.2-1.3C30.3,18.2,30.1,17.8,29.8,17.6z"/> </g> </symbol><symbol viewBox="0 0 40 40" id="activity-horseback"><title>activity-horseback</title> <g> <path fill="#4CAF50" d="M35.2,40c2.6,0,4.8-2.1,4.8-4.8V4.8C40,2.1,37.9,0,35.2,0H4.8C2.1,0,0,2.1,0,4.8v30.4C0,37.9,2.1,40,4.8,40
		H35.2z"/> <path fill="#FFFFFF" d="M16.8,7.9c1.3,0,2.3-1,2.3-2.3c0-1.3-1-2.3-2.3-2.3c-1.3,0-2.3,1-2.3,2.3C14.5,6.9,15.6,7.9,16.8,7.9z"/> <path fill="#FFFFFF" d="M33.9,14.5l-2.4-0.5l-1.4,2.8c0.2,0.1,0.5,0.1,0.7,0.1C32.3,17,33.5,15.9,33.9,14.5z M4,19.3
		c0-1.9,1.5-3.4,3.4-3.4h7.1v-5.1c0-1.3,1-2.3,2.3-2.3c1.3,0,2.3,1,2.3,2.3v0.8l3.4,0.9c0.6,0.1,1,0.7,0.8,1.3
		c-0.1,0.6-0.7,1-1.3,0.8l-2.9-0.7v2h3.4l9.3-9.7l-0.3,2.5l4.6,3.1c0.8,0.4,1,1.4,0.6,2.2c-0.3,0.6-1,0.9-1.7,0.8l-0.4-0.1
		c-0.4,1.8-2.1,3.1-4,3.1c-0.4,0-0.8-0.1-1.1-0.1l-3.5,7.1v9.8c0,0.8-0.7,1.5-1.5,1.5c-0.8,0-1.5-0.7-1.5-1.5v-10h-7.7l-1.4,2.4
		l2.9,6.9c0.4,0.7,0.2,1.7-0.6,2.1c-0.7,0.4-1.7,0.2-2.1-0.6l-3.4-7.9v-2.5l-1.5,2.4v7.4c0,0.8-0.7,1.5-1.5,1.5
		c-0.8,0-1.5-0.7-1.5-1.5v-8.5l1.3-2v-6.7l-1.2,1.9v5.5H4V19.3z"/> </g> </symbol><symbol viewBox="0 0 40 40" id="activity-kayak-canoe"><title>activity-kayak-canoe</title> <g> <path fill="#2196F3" d="M35.2,40c2.6,0,4.8-2.1,4.8-4.8V4.8C40,2.1,37.9,0,35.2,0H4.8C2.1,0,0,2.1,0,4.8v30.4C0,37.9,2.1,40,4.8,40
		H35.2z"/> <path fill="#FFFFFF" d="M31.9,24c-0.7,0-1.4,0.2-2,0.5c-0.6,0.3-1.3,0.4-2,0.4c-0.7,0-1.4-0.2-2-0.4c-0.6-0.3-1.3-0.5-2-0.5
		c-0.7,0-1.4,0.2-2,0.5c-0.6,0.3-1.3,0.4-2,0.4c-0.7,0-1.4-0.2-2-0.4c-0.6-0.3-1.3-0.5-2-0.5c-0.7,0-1.4,0.2-2,0.5
		c-0.6,0.3-1.3,0.4-2,0.4c-0.7,0-1.4-0.2-2-0.4c-0.6-0.3-1.3-0.5-2-0.5c-0.7,0-1.4,0.2-2,0.5c-0.6,0.3-1.3,0.4-2,0.4v2.9
		c0.7,0,1.4-0.2,2-0.4c0.6-0.3,1.3-0.5,2-0.5c0.7,0,1.4,0.2,2,0.5c0.5,0.2,1.1,0.3,1.6,0.4l-2.4,2.4c-0.8-0.5-1.8-0.4-2.5,0.3
		L4,33.3c-0.8,0.8-0.8,2,0,2.8c0.8,0.8,2,0.8,2.8,0l2.8-2.8c0.6-0.6,0.7-1.6,0.3-2.3l3.4-3.4c0.2-0.1,0.4-0.1,0.7-0.2
		c0.6-0.3,1.3-0.5,2-0.5c0.7,0,1.4,0.2,2,0.5c0.6,0.3,1.3,0.4,2,0.4c0.7,0,1.4-0.2,2-0.4c0.6-0.3,1.3-0.5,2-0.5c0.7,0,1.4,0.2,2,0.5
		c0.6,0.3,1.3,0.4,2,0.4c0.7,0,1.4-0.2,2-0.4c0.6-0.3,1.3-0.5,2-0.5c0.7,0,1.4,0.2,2,0.5c0.6,0.3,1.3,0.4,2,0.4v-2.9
		c-0.7,0-1.4-0.2-2-0.4C33.3,24.2,32.6,24,31.9,24z"/> <path fill="#FFFFFF" d="M33.3,9.7L36,6.9c0.8-0.8,0.8-2,0-2.8c-0.8-0.8-2-0.8-2.8,0l-2.8,2.8c-0.7,0.7-0.8,1.7-0.3,2.5l-3.5,3.5
		l-6.9-2.6c-0.2-0.1-0.4-0.2-0.6-0.3c-1.5-0.5-3.1,0.4-3.5,1.9L13.6,19c0,0.1,0,0.2,0,0.2H4.1V23c0.5,0,1-0.1,1.5-0.3
		c0.8-0.4,1.6-0.5,2.5-0.5c0.8,0,1.7,0.2,2.4,0.5c0.5,0.2,1,0.3,1.5,0.3c0.5,0,1-0.1,1.5-0.3c0.8-0.4,1.6-0.5,2.5-0.5
		c0.8,0,1.7,0.2,2.4,0.5c0.5,0.2,1,0.3,1.5,0.3c0.5,0,1-0.1,1.5-0.3c0.8-0.4,1.6-0.5,2.4-0.5c0.9,0,1.7,0.2,2.4,0.5
		c0.5,0.2,1,0.3,1.5,0.3c0.5,0,1-0.1,1.5-0.3c0.8-0.4,1.6-0.5,2.5-0.5c0.1,0,0.7,0,1.3-0.3c1-0.4,1.4-0.7,2.3-1.2
		c0.7-0.4,1.3-1.4-0.3-1.4c-0.4,0-13.5,0-13.5,0l4-4l0.5,0.2c0.7,0.2,1.4-0.1,1.7-0.8c0.2-0.5,0-1-0.3-1.4l3.3-3.3
		C31.7,10.4,32.6,10.3,33.3,9.7z M20.3,19.2h-0.9l1.7-5.7l3.5,1.3L20.3,19.2z"/> <path fill="#FFFFFF" d="M20.3,6.5l-0.4,0.8c-0.2,0.5-0.7,0.8-1.3,0.8h-0.9C18.2,8.8,19,9.2,20,9.2c1.5,0,2.7-1.2,2.7-2.7V6.4h-2.3
		C20.3,6.4,20.3,6.5,20.3,6.5z"/> <path fill="#FFFFFF" d="M18.6,7.4c0.3,0,0.6-0.2,0.7-0.4l0.4-0.8c0.1-0.3,0.4-0.5,0.8-0.5h2.8c-0.4-1.4-1.7-2.5-3.2-2.5
		c-1.8,0-3.3,1.5-3.3,3.3c0,0.3,0,0.6,0.1,0.9H18.6z"/> </g> </symbol><symbol viewBox="0 0 40 40" id="activity-ohv"><title>activity-ohv</title> <g> <path fill="#4CAF50" d="M35.2,40c2.6,0,4.8-2.1,4.8-4.8V4.8C40,2.1,37.9,0,35.2,0H4.8C2.1,0,0,2.1,0,4.8v30.4C0,37.9,2.1,40,4.8,40
		H35.2z"/> <g> <g> <path fill="#FFFFFF" d="M29.5,14V9.9h-0.4c-1.1,0-2.1,0.9-2.1,2.1c0,1.1,0.9,2.1,2.1,2.1H29.5z"/> </g> <path fill="#FFFFFF" d="M26.3,13.1l-1.8-3.6c-0.4-0.7-1.2-1.2-2.1-1.2h-4.2c-0.4,0-0.7,0.3-0.7,0.7c0,0.4,0.3,0.7,0.7,0.7l4.2,0
			c0.3,0,0.7,0.2,0.9,0.6l1.2,2.3L26.3,13.1z"/> <path fill="#FFFFFF" d="M34.6,16.9c0.5,0.2,0.9,0.7,0.9,1.3l-3,0c-4,0-7.3,3.3-7.3,7.3h-9.9c0-3.2-2.1-6-5-6.9l-5.5-1.8l0.9-1.4
			c0.3-0.5,0.9-0.8,1.5-0.8c0.1,0,0.3,0,0.4,0l12.2,3.8c0.1,0,0.3,0.1,0.5,0.1c0.5,0,1-0.3,1.3-0.7l2.8-4L34.6,16.9z"/> <path fill="#FFFFFF" d="M26.5,26.7c0-2.7,2.2-4.9,5-4.9c2.7,0,4.9,2.2,4.9,4.9c0,2.7-2.2,4.9-4.9,4.9
			C28.7,31.6,26.5,29.4,26.5,26.7z M31.4,28.5c1,0,1.9-0.8,1.9-1.8c0-1-0.8-1.8-1.9-1.8c-1,0-1.8,0.8-1.8,1.8
			C29.6,27.7,30.4,28.5,31.4,28.5z"/> <path fill="#FFFFFF" d="M3.2,26.2c0-3,2.4-5.4,5.4-5.4c3,0,5.4,2.4,5.4,5.4c0,3-2.4,5.4-5.4,5.4C5.6,31.6,3.2,29.2,3.2,26.2z
			 M8.6,28.2c1.1,0,2-0.9,2-2c0-1.1-0.9-2-2-2c-1.1,0-2,0.9-2,2C6.6,27.3,7.5,28.2,8.6,28.2z"/> </g> </g> </symbol><symbol viewBox="0 0 40 40" id="activity-snowsports"><title>activity-snowsports</title> <g> <path fill="#00BCD4" d="M35.2,40c2.6,0,4.8-2.1,4.8-4.8V4.8C40,2.1,37.9,0,35.2,0H4.8C2.1,0,0,2.1,0,4.8v30.4C0,37.9,2.1,40,4.8,40
		H35.2z"/> <path fill="#FFFFFF" d="M18.7,33.6v-3.8L16.6,31l-1.1-0.6V29l3.2-1.8v-2.5l-2.3,1.5v-2.7l-2.2,1.3v3.6l-1.2,0.7l-1-0.7V26l-3.3,1.9
		l-1.4-0.6v-1.5l3.5-1.9l-2.2-1.1v-1.4l1.2-0.7l3.1,1.9l2.2-1.3l-0.1,0L12.7,20l2.2-1.3l-2.2-1.3l-3.1,1.8l-1.2-0.6v-1.4l2.1-1.2
		l-3.4-1.8v-1.5L8.5,12l3.3,1.9v-2.5l1-0.7l1.2,0.7l0,3.7l2.2,1.3l0-2.6l2.4,1.3v-2.5l-3.2-1.8V9.5l1.1-0.6l2.1,1.2V6.2l1.2-0.8
		l1.2,0.8V10l2.2-1.2l1.1,0.7v1.2l-3.3,1.9v2.5l2.2-1.4v2.7l2.3-1.3v-3.9l1.1-0.5l1.2,0.5v2.5l3.4-1.9l1.2,0.7v1.4L29.3,16l2.1,1.2
		v1.4l-1.1,0.6l-3.2-1.9l-2.2,1.4L27,20l-2.2,1.3l2.3,1.2l3.2-1.8l1,0.7v1.3l-2,1.1l3.2,1.9v1.5l-1.4,0.6L28,26.1v2.4l-1.1,0.6
		l-1.1-0.6v-3.6l-2.3-1.3v2.5l-2.2-1.4v2.5l3.2,1.8v1.4L23.3,31l-2.1-1.2v3.8l-1.2,0.8L18.7,33.6z M17.8,20l1.1,1.7h2.1l1-1.7
		l-1-1.8h-2.1L17.8,20z"/> </g> </symbol><symbol viewBox="0 0 40 40" id="activity-swimming"><title>activity-swimming</title> <g> <path fill="#2196F3" d="M35.2,40c2.6,0,4.8-2.1,4.8-4.8V4.8C40,2.1,37.9,0,35.2,0H4.8C2.1,0,0,2.1,0,4.8v30.4C0,37.9,2.1,40,4.8,40
		H35.2z"/> <path fill="#FFFFFF" d="M36.2,33c-0.7,0-1.4-0.2-2-0.4c-0.6-0.3-1.3-0.4-2-0.4c-0.7,0-1.4,0.2-2,0.4c-0.6,0.3-1.3,0.4-2,0.4
		c-0.7,0-1.4-0.2-2-0.4c-0.6-0.3-1.3-0.4-2-0.4c-0.7,0-1.4,0.2-2,0.4c-0.6,0.3-1.3,0.4-2,0.4c-0.7,0-1.4-0.2-2-0.4
		c-0.6-0.3-1.3-0.4-2-0.4c-0.7,0-1.4,0.2-2,0.4c-0.6,0.3-1.3,0.4-2,0.4c-0.7,0-1.4-0.2-2-0.4c-0.6-0.3-1.3-0.4-2-0.4
		c-0.7,0-1.4,0.2-2,0.4c-0.6,0.3-1.3,0.4-2,0.4v-2.9c0.7,0,1.4-0.2,2-0.4c0.6-0.3,1.3-0.5,2-0.5c0.7,0,1.4,0.2,2,0.5
		c0.6,0.3,1.3,0.4,2,0.4c0.7,0,1.4-0.2,2-0.4c0.6-0.3,1.3-0.5,2-0.5c0.7,0,1.4,0.2,2,0.5c0.6,0.3,1.3,0.4,2,0.4c0.7,0,1.4-0.2,2-0.4
		c0.6-0.3,1.3-0.5,2-0.5c0.7,0,1.4,0.2,2,0.5c0.6,0.3,1.3,0.4,2,0.4c0.7,0,1.4-0.2,2-0.4c0.6-0.3,1.3-0.5,2-0.5c0.7,0,1.4,0.2,2,0.5
		c0.6,0.3,1.3,0.4,2,0.4V33z"/> <path fill="#FFFFFF" d="M31.6,24.7c2.1,0,3.8-1.7,3.8-3.8c0-2.1-1.7-3.8-3.8-3.8c-2.1,0-3.8,1.7-3.8,3.8
		C27.8,23,29.3,24.7,31.6,24.7z"/> <path fill="#FFFFFF" d="M9.6,26.8c0.3,0.1,0.6,0.2,0.8,0.3c0.6,0.3,1.3,0.4,2,0.4c0.7,0,1.4-0.2,2-0.4c0.6-0.3,1.3-0.5,2-0.5
		c0.7,0,1.4,0.2,2,0.5c0.6,0.3,1.3,0.4,2,0.4c0.7,0,1.4-0.2,2-0.4c0.6-0.3,1.3-0.5,2-0.5c0.7,0,1.4,0.2,2,0.5c0.6,0.3,1.3,0.4,2,0.4
		c0.5,0,1-0.1,1.5-0.2l-6.3-11.4l7.3-1.3c1.1-0.2,1.9-1.1,1.9-2.1c0-1.2-1-2.2-2.2-2.2c-0.1,0-0.2,0-0.2,0l-11.3,2.1
		c-0.8,0.2-1.8,1.3-1.2,2.8c0,0.1,0.1,0.1,0.1,0.2l3,5.3L9.6,26.8z"/> </g> </symbol><symbol viewBox="0 0 40 40" id="activity-watching"><title>activity-watching</title> <g> <path fill="#4CAF50" d="M35.2,40c2.6,0,4.8-2.1,4.8-4.8V4.8C40,2.1,37.9,0,35.2,0H4.8C2.1,0,0,2.1,0,4.8v30.5C0,37.9,2.1,40,4.8,40
		H35.2z"/> <rect x="12.5" y="6.3" fill="#FFFFFF" width="5.1" height="3.6"/> <path fill="#FFFFFF" d="M23.3,21.9c-0.5,0-0.9-0.4-0.9-0.9V11h7.7l3.2,13.7l0,0.9v6.1c0,0.5-0.4,0.8-0.8,0.8h-7.5
		c-0.5,0-0.8-0.4-0.8-0.8v-9.7H23.3"/> <path fill="#FFFFFF" d="M16.7,22c0.5,0,0.9-0.4,0.9-0.9V11H9.9L6.7,24.7l0,0.9v6.1c0,0.5,0.4,0.8,0.8,0.8H15c0.5,0,0.9-0.4,0.9-0.8
		V22H16.7"/> <rect x="18.7" y="11" fill="#FFFFFF" width="2.6" height="9.3"/> <rect x="22.5" y="6.3" fill="#FFFFFF" width="5.1" height="3.6"/> </g> </symbol><symbol viewBox="0 0 552 189" id="header-banner"><title>header-banner</title> <g> <path fill="#EEEFF3" d="M361.4,80.2c-1.5-1.3-3.8-2.2-6.8-2.2H350v14h4.6c1.6,0,3,0.8,4.2,0.3c1.1-0.4,2.1-0.5,2.8-1.2
		c0.7-0.7,1.3-1.3,1.6-2.3c0.3-1,0.5-2.1,0.5-3.2C363.6,83.3,362.9,81.5,361.4,80.2z"/> <path fill="#EEEFF3" d="M158.2,84.3c-0.4-1.2-0.8-2.5-1.2-3.9c-0.4,1.4-0.7,2.8-1.1,4c-0.4,1.2-0.8,2-1.1,2.9L150,101h14.1
		l-4.8-13.8C159,86.3,158.6,85.5,158.2,84.3z"/> <path fill="#EEEFF3" d="M308.9,84.3c-0.4-1.2-0.8-2.5-1.2-3.9c-0.4,1.4-0.7,2.8-1.1,4c-0.4,1.2-0.8,2-1.1,2.9l-4.7,13.8h14.1
		L310,87.2C309.7,86.3,309.3,85.5,308.9,84.3z"/> <path fill="#EEEFF3" d="M271,80.8c-0.7-0.7-1.6-1.6-2.7-1.9c-1.1-0.4-2.4-0.9-3.9-0.9H260v17h4.4c3.1,0,5.3-0.7,6.7-2.2
		c1.4-1.5,2.1-3.6,2.1-6.2c0-1.2-0.2-2.3-0.5-3.2C272.3,82.4,271.8,81.5,271,80.8z"/> <path fill="#EEEFF3" d="M0,0v189h552V0H0z M123.9,118.4c-3.1,1.4-6.8,2.1-11.1,2.1c-3.9,0-7.4-0.7-10.5-2c-3.1-1.3-5.7-3.2-7.9-5.5
		c-2.2-2.3-3.8-5.1-5-8.3c-1.2-3.2-1.7-6.7-1.7-10.5c0-3.8,0.6-7.4,1.9-10.6c1.2-3.2,3-6,5.3-8.3s5-4.1,8.1-5.4
		c3.2-1.3,6.6-1.9,10.4-1.9c1.9,0,3.8,0.2,5.5,0.5c1.7,0.3,3.3,0.8,4.8,1.4c1.5,0.6,2.9,1.3,4.1,2.2c1.2,0.8,2.4,1.8,3.3,2.8l-4,5.4
		c-0.3,0.3-0.6,0.6-0.9,0.9c-0.4,0.3-0.8,0.4-1.5,0.4c-0.4,0-0.8-0.1-1.2-0.3c-0.4-0.2-0.8-0.4-1.2-0.7c-0.4-0.3-0.9-0.6-1.4-0.9
		s-1.1-0.6-1.8-0.9c-0.7-0.3-1.5-0.5-2.4-0.7c-0.9-0.2-2-0.3-3.3-0.3c-2,0-3.8,0.4-5.4,1.1c-1.6,0.7-3.1,1.8-4.2,3.2
		c-1.2,1.4-2.1,3.1-2.8,5.2c-0.6,2-1,4.4-1,7c0,2.6,0.4,5,1.1,7c0.7,2,1.7,3.8,2.9,5.2c1.2,1.4,2.7,2.5,4.3,3.2
		c1.6,0.7,3.4,1.1,5.3,1.1c1.1,0,2.1-0.1,3-0.2c0.9-0.1,1.7-0.3,2.5-0.5c0.8-0.2,1.5-0.6,2.2-1c0.7-0.4,1.4-0.9,2.1-1.6
		c0.3-0.2,0.6-0.4,0.9-0.6c0.3-0.2,0.7-0.2,1-0.2c0.3,0,0.6,0.1,0.8,0.2c0.3,0.1,0.6,0.3,0.8,0.5l4.7,5
		C129.6,115,127,117,123.9,118.4z M173.8,120c-1,0-1.9-0.3-2.5-0.8c-0.6-0.5-1.1-1.3-1.4-2.1l-3-9.2h-19.6l-3,9.2
		c-0.3,0.7-0.7,1.4-1.4,1.9c-0.7,0.5-1.5,0.9-2.5,0.9H131l19.9-51h12.2l19.9,51H173.8z M219,120h-32V69h10v42h22V120z M237,120h-14
		V69h14V120z M273.6,102.1c-2.6,0.9-5.7,1.9-9.2,1.9H260v16h-12V69h16.4c3.6,0,6.7,0.1,9.3,1c2.6,0.9,4.7,1.9,6.4,3.4
		c1.7,1.5,2.9,3.2,3.7,5.3c0.8,2,1.2,4.2,1.2,6.6c0,2.6-0.4,4.9-1.2,7.1c-0.8,2.1-2.1,4.3-3.8,5.8
		C278.4,99.7,276.3,101.2,273.6,102.1z M324.5,120c-1,0-1.9-0.3-2.5-0.8c-0.6-0.5-1.1-1.3-1.4-2.1l-3-9.2h-19.6l-3,9.2
		c-0.3,0.7-0.7,1.4-1.4,1.9c-0.7,0.5-1.5,0.9-2.5,0.9h-9.3l19.9-51h12.2l19.9,51H324.5z M369.2,120c-2,0-3.4-0.8-4.3-2.3l-8.6-15
		c-0.4-0.6-0.8-1.5-1.3-1.8s-1.2-0.9-2.1-0.9H350v20h-10V69h14.6c3.7,0,6.9,0.1,9.5,0.9c2.6,0.8,4.8,1.7,6.4,3.1
		c1.7,1.4,2.9,2.9,3.6,4.8c0.8,1.9,1.1,3.9,1.1,6c0,1.7-0.2,3.2-0.7,4.7c-0.4,1.5-1.1,2.8-2,4.1c-0.9,1.3-1.9,2.4-3.2,3.4
		c-1.3,1-2.8,1.8-4.4,2.4c0.8,0.4,1.5,0.9,2.2,1.5c0.7,0.6,1.3,1.4,1.8,2.2l11,18H369.2z M419.7,120c-0.7,0-1.3-0.1-1.7-0.2
		c-0.5-0.1-0.9-0.3-1.3-0.4c-0.4-0.2-0.7-0.4-0.9-0.7c-0.3-0.3-0.5-0.6-0.7-0.9l-11.7-17.9c-0.4-0.7-1-1.6-1.6-1.9
		c-0.6-0.3-1.5-0.9-2.6-0.9H395v23h-11V69h11v20h3.2c1.8,0,3-0.4,3.8-1.5l11.6-16.8c0.7-0.9,1.4-1.2,2.2-1.5c0.8-0.3,1.8-0.2,3-0.2
		h10.4l-15.3,20.5c-1.1,1.4-2.3,2.3-3.5,3c0.9,0.3,1.7,0.7,2.4,1.3c0.7,0.6,1.4,1.4,2.1,2.3l15.5,23.9H419.7z M465.1,110.1
		c-0.8,2.1-2,3.9-3.6,5.4c-1.6,1.5-3.5,2.8-5.8,3.6c-2.3,0.9-4.9,1.3-7.8,1.3c-1.6,0-3.2-0.2-4.9-0.5c-1.7-0.3-3.3-0.8-4.8-1.4
		c-1.6-0.6-3-1.3-4.4-2.1c-1.4-0.8-2.6-1.7-3.6-2.8l3.5-5.6c0.3-0.4,0.7-0.7,1.1-1c0.5-0.3,1-0.4,1.5-0.4c0.7,0,1.4,0.2,2.1,0.7
		c0.7,0.4,1.5,0.9,2.4,1.5c0.9,0.5,1.9,1,3.1,1.5c1.2,0.4,2.6,0.7,4.2,0.7c2.2,0,3.9-0.5,5.1-1.4c1.2-1,1.8-2.5,1.8-4.5
		c0-1.2-0.3-2.2-1-2.9c-0.7-0.8-1.5-1.4-2.6-1.9c-1.1-0.5-2.3-0.9-3.7-1.3c-1.4-0.4-2.8-0.8-4.2-1.3c-1.4-0.5-2.8-1-4.2-1.7
		c-1.4-0.7-2.6-1.6-3.7-2.7c-1.1-1.1-1.9-2.5-2.6-4.1c-0.7-1.6-1-3.7-1-6.1c0-1.9,0.4-3.8,1.2-5.7c0.8-1.8,1.9-3.5,3.4-4.9
		c1.5-1.4,3.4-2.6,5.5-3.4c2.2-0.9,4.7-1.3,7.5-1.3c1.6,0,3.1,0.1,4.6,0.4c1.5,0.2,2.9,0.6,4.3,1.1c1.3,0.5,2.6,1.1,3.8,1.7
		c1.2,0.7,2.2,1.4,3.1,2.3l-3,5.5c-0.4,0.6-0.7,1-1.1,1.3c-0.4,0.3-0.9,0.4-1.5,0.4c-0.5,0-1.1-0.2-1.7-0.5
		c-0.6-0.3-1.3-0.7-2.1-1.1c-0.8-0.4-1.7-0.8-2.7-1.1c-1-0.3-2.2-0.5-3.5-0.5c-2.2,0-3.9,0.5-5,1.4c-1.1,1-1.6,2.2-1.6,3.9
		c0,1,0.3,1.9,1,2.6c0.7,0.7,1.5,1.3,2.6,1.8s2.3,0.9,3.7,1.4c1.4,0.4,2.8,0.9,4.2,1.4c1.4,0.5,2.8,1.1,4.2,1.8
		c1.4,0.7,2.6,1.6,3.7,2.6c1.1,1.1,1.9,2.4,2.6,3.9c0.7,1.5,1,3.4,1,5.5C466.4,105.8,466,108,465.1,110.1z"/> </g> </symbol><symbol viewBox="0 0 105.2 49.1" id="logo-green-info"><title>logo-green-info</title> <g transform="translate(0.000000,450.000000) scale(0.100000,-0.100000)"> <path d="M912.2,4499.1c-16.8-4.1-26.7-16.8-26.8-33.9c0-19.3,12.5-33.4,31.2-35c21.3-1.9,38.3,13.4,38.3,34.5
		c0,10.6-2,16.1-9.1,23.7C937.4,4497.6,923.9,4502,912.2,4499.1z"/> <path d="M627.9,4213.2c0-203.4,0-204.3,2.7-204.3s2.7,1,2.7,63.3v63.3l3.8,1.5c9.8,3.8,9.9,3.7,16.6-9.3
		c3.4-6.5,9.9-17.7,14.3-24.5c7.9-12.3,8.3-12.7,13.2-12.7c7.8,0,34.9,12.7,57.5,26.8c6.4,4.1,6.4,4.2,15.8-13.5
		c3.8-7.4,7.6-13.4,8.4-13.4c1.8,0,0.4,3.8-6.5,18.9c-3.3,7.1-6,13.5-6,14.4c0,0.8,4,4.5,8.9,8c4.8,3.5,14.6,11.6,21.7,18
		c7.1,6.3,13.2,11.4,13.6,11.4c1.8,0,13.2-32.4,16.2-45.8c0.4-2.3-1.2-4.8-7.1-10.4c-4.2-4.1-9.7-9.1-12.1-11l-4.6-3.7h3.8
		c2.5,0,6.5,2.5,12.7,7.6l9,7.8l1.4-7.4l1.4-7.4l0.7,9.1c0.7,8.6,1.1,9.7,7.8,17.7c3.8,4.8,8.3,10.1,9.8,12l2.7,3.4l0.1-6.8
		c0.3-8.2,2.5-14.8,2.7-8.2c1.1,20.2,2.6,27.8,7.9,40.2l5.6,12.9l0.4-6.1c1.1-23.7-3.7-48.8-13.1-68.4l-3.1-6.5h3.7
		c3.4,0,4.1,1,7.4,9.9c15.5,43,15,86-1.9,121.9c-5.2,10.9-14.2,25.3-20.7,33.2c-2.7,3.1-3.4,3.4-5.6,1.8c-2.5-1.8-2.5-2.3-0.4-11.4
		c2.3-10.2,2.9-20.2,1.1-22.9c-0.7-1.2-2.7,1.1-6.1,6.8c-2.7,4.6-6.1,9.9-7.6,11.7c-2.5,3.3-2.7,3.3-6,1.1l-3.5-2.3l7.1-11.2
		c4-6.3,8.3-14,9.7-17.2l2.6-5.9l-3-6.4c-1.6-3.5-5.6-10.2-8.6-15l-5.6-8.4l-6.5,11.6c-6.1,11-19.8,30.7-21.3,30.7
		c-1.4,0-8.6-5.7-8.6-6.8c0-0.5,2.6-4.4,5.9-8.4c7.5-9.1,16.1-21.9,19.9-29.4l3-5.7l-4.4-5.3c-4.6-5.9-16.3-16.5-30.1-27.1l-9-7.2
		l-5.9,10.6c-22.9,42.2-32.4,56.1-53.9,79.4l-10.8,11.4l9.5,6.3c5.3,3.5,13.2,9.1,17.4,12.7l7.8,6.3l8.6-6.3
		c4.8-3.4,12.1-9.4,16.5-13.2l7.9-6.8l3.3,4.1c1.8,2.2,3.3,4.4,3.4,4.9c0,1.4-13.2,11.9-22.9,18.1c-4.6,3-8.4,5.9-8.4,6.3
		s1.8,3.1,4,5.9c2.2,2.7,6,8,8.3,11.7c2.5,3.8,5,6.8,5.7,6.8c2.7,0,17-8.4,26.6-15.5l9.8-7.4l2.9,3.1l3,3.1l-10.1,7.1
		c-5.4,3.8-14.3,9.1-19.6,11.9l-9.8,4.8l2.2,6.7c2.6,7.8,2,7.9,18.9-0.4c14.7-7.1,17.4-9.8,19.6-19.3l1.6-7.8l5.3,5.2
		c2.9,2.7,5.2,5.7,5.2,6.5c0,2.2-17.8,13.6-30.7,19.8c-35,16.6-79.2,20.7-119.6,11l-10.5-2.5v52.2c0,51.4,0,52.3-2.7,52.3
		S627.9,4416.6,627.9,4213.2z M714.1,4315.2c5.4-0.8,10.6-2.2,11.6-2.9c0.8-0.8,1.6-4.2,1.6-7.5v-6.1l-4.4,1
		c-14.8,3.1-26.2,4.6-34.7,4.8c-5.4,0-9.9,0.4-9.9,0.8c0,0.5,0.7,3.3,1.6,6.1l1.5,5.3h11.4C699.1,4316.7,708.8,4316,714.1,4315.2z
		 M661.4,4298.1c-1.1-2.2-3.7-5.9-5.9-8.4l-3.8-4.5l-9.3,1l-9.1,1v5.3c0,3.1,0.7,5.7,1.8,6c2.5,1,17.3,3,23.2,3.3l5.2,0.1
		L661.4,4298.1z M696.8,4299.7c16.5-2.9,27.8-6.1,27.8-8c0-2.2-6.8-12.8-12.1-18.8l-4.4-4.9l-8.9,4c-7.6,3.5-24.9,8.9-36.4,11.4
		l-4,0.8l8,8.7C676.1,4302.8,676.9,4303.1,696.8,4299.7z M667.6,4277.3c11.4-3.8,30.5-12.7,33.1-15.4c1.4-1.4-8.3-10.9-22.1-21.7
		l-7.1-5.6l-12.7,11.4c-6.9,6.3-15.3,13.5-18.5,16.1l-5.9,4.9l9.9,6.9c5.4,3.8,10.4,6.9,10.8,7.1
		C655.7,4281.3,661.2,4279.5,667.6,4277.3z M658,4237.4l6.8-7.6l-11.3-6.8c-6.3-3.7-13.4-7.8-15.7-9l-4.5-2.3v25.6v25.5l9-8.7
		C647.2,4249.1,654.3,4241.7,658,4237.4z M836.7,4223.4c3.4-6.7,7.6-17.3,9.7-23.4l3.4-11.2l-3.1-12.7c-3.4-13.2-7.4-24.7-7.5-22.1
		c-0.4,6.8-5,28.2-8.4,39.2c-4,12.8-4.1,13.9-2.6,23c1,5.2,1.2,12.4,0.8,15.8C827.9,4240,829.1,4238.7,836.7,4223.4z M693.1,4195.7
		c7.9-9.9,14.6-18.5,14.8-19.2c0.7-1.9-49.5-28.7-54.1-28.7c-0.4,0-5.3,7.6-10.8,16.8l-9.8,16.9v12.9v12.9l17.4,8.9l17.3,8.9
		l5.3-5.6C676.2,4216.3,685.1,4205.7,693.1,4195.7z M826.5,4178.2c2.3-8.2,5.2-19.5,6.1-25.2c2.2-12,2.2-12.1-9.5-27.2
		c-6.5-8.4-8.6-9.7-8.6-4.8c0,5.2-3.8,21.4-8.3,35.8l-4.4,13.9l7.6,8.9c4.1,4.9,8.3,10.2,9.1,11.9c0.8,1.5,2,2.5,2.6,2.2
		C821.9,4193.2,824.2,4186.2,826.5,4178.2z M727.3,4148.9l15.5-23.3l-3.1-2.2c-8.9-6-32.3-18.9-43.7-24.1
		c-10.1-4.6-13.4-5.6-14.4-4.2c-1.5,1.5-25.1,45.5-25.5,47.5c-0.1,0.5,6.1,4.1,14,7.6c7.9,3.7,20.2,10.1,27.2,14.3
		s13.2,7.6,13.6,7.6C711.4,4172.3,718.7,4161.8,727.3,4148.9z"/> <path d="M977.3,4414c-70.8-7.4-127.1-23.7-171.2-49.9l-9.1-5.4l-0.4-16.2c-0.3-8.9-0.3-16.2-0.3-16.2c0.1,0,6.3,3.4,13.6,7.6
		c57.5,32.7,118.9,55.7,171.7,64.4c18.4,3,24.2,3.7,48.8,5.6c21,1.6,26.7,4.5,16.9,8.3C1042.7,4413.8,989.4,4415.2,977.3,4414z"/> <path d="M955.5,4361.5c-65.3-9.5-143.7-61.3-205.8-135.7c-8.9-10.5-23-30.7-26.4-37.2l-1.8-3.4l3.3,2.9
		c12.3,10.9,51.5,42.8,69.9,56.5c25.2,19.1,61.4,43.3,83.2,55.9c34.1,19.5,69.6,33.5,75.6,29.8c1.5-1-1.5-4.8-13.1-16.6
		c-15.3-15.7-25.6-28.5-38.7-48l-7.2-10.9l1.6-12.3c0.8-6.8,2.2-16.2,3-21l1.5-8.4l6.8,9.8c11.6,16.9,20.3,26.7,48.2,54.2
		c38,37.3,36,34.6,36,48.5c0,13.5-4,27.2-9.7,33.4c-3.3,3.4-4.5,4-11,3.8C967,4362.8,960,4362.2,955.5,4361.5z"/> <path d="M481.3,4350c-5.6-2.7-8.9-8.9-9.7-18.4c-0.7-7.4-1.1-8-4-8c-3.1,0-3.3-0.5-3.3-8.2c0-7.8,0.1-8.2,3.4-8.2h3.4v-33.4v-33.4
		h10.2h10.2l0.3,33.1l0.4,33l6.5,0.4l6.4,0.4v8.2v8h-6.8c-6.4,0-6.8,0.3-6.8,3.4c0,5.2,4.9,9.3,9.7,8.3l4-0.7v8.7v8.9h-9.8
		C489.5,4352.1,483.9,4351.3,481.3,4350z"/> <path d="M29.3,4348.7c-11.2-4-22.1-16.3-26-29.7c-1.2-4-2.6-12.4-3-18.8c-2-29.8,9-52.7,28.6-59.3c10.2-3.4,26.8-2.2,36.9,2.7
		l7.6,3.7v27.9v27.8h-17h-17v-9.5v-9.5h6.8H53v-12.3c0-12-0.1-12.3-3.5-13.1c-4.6-1.2-11.9,0.1-16.1,2.9c-13.2,8.7-15.9,45.9-4.4,61
		c7.4,9.5,17.2,11.2,27.2,4.4l4.6-3.1l5.6,8.3c6.3,9.7,6.1,10.5-4.6,15.4C53.8,4351.3,38,4351.9,29.3,4348.7z"/> <path d="M356.8,4294.9v-54.5H367h10.2v54.5v54.5H367h-10.2V4294.9z"/> <path d="M311.3,4324.9c-2.2-0.7-6-3.3-8.6-5.7l-4.5-4.4v4.4v4.4H288h-10.2V4282v-41.6H288h10.2l0.1,27.7c0,30.8,1.1,36.2,7.1,38.3
		c2.6,1,4.6,1,6.1,0c5-3.3,5.7-7.2,5.7-36.9v-29h10.2h10.2v33.8c0,32.3-0.1,34.1-3,39.8c-1.8,3.3-4.6,7.1-6.5,8.3
		C323.9,4325.3,316.4,4326.5,311.3,4324.9z"/> <path d="M426.8,4324.3c-2.3-1.1-5.9-3.7-7.9-5.7l-3.5-4v4.5v4.4h-10.2h-10.2V4282v-41.6h10.2h10.2v29c0,29.7,0.7,33.6,5.7,36.9
		c1.5,1,3.5,1,6.1,0c6-2,7.1-7.5,7.1-38.3l0.1-27.7h10.4h10.4l-0.5,34.5c-0.4,31.6-0.7,34.7-3.3,39.6c-1.5,3-4.2,6.5-6.1,7.9
		C440.5,4325.7,432,4326.7,426.8,4324.3z"/> <path d="M114,4319.4l-5.2-5.6v4.9v4.8H98.6H88.4V4282v-41.6h10.1h10.1l0.5,24.2c0.4,19.6,1,24.9,2.9,28.5c2.5,4.6,8.4,8.6,13.2,8.6
		c2.6,0,2.7,0.8,2.7,11.6v11.6h-4.4C120.4,4324.9,118.1,4323.5,114,4319.4z"/> <path d="M153.1,4322.6c-6.8-3.5-11.2-8.4-15.1-17.2c-3.3-7.4-3.8-10.2-3.8-22.1c0-15.8,1.6-22.3,7.8-31.5
		c8.9-13.2,26.3-17.3,41.3-9.7c10.2,5.2,10.6,6,5.7,13.9c-2.3,3.8-4.4,6.9-4.5,7.2c-0.3,0.3-2.7-1.1-5.4-3.1
		c-9.9-6.7-20.4-2.9-23.7,8.6l-1.4,4.4h20.6h20.6l-0.7,13.4c-1,18.7-6.8,30.8-17.7,36.5C171.8,4325.6,158.3,4325.3,153.1,4322.6z
		 M172.4,4301.6c0.8-1.8,2-5.6,2.5-8.3l1-5.2h-11.2h-11.2l1,5.2c1.4,7.4,3.7,11.6,7.5,13.5C166,4308.8,169.9,4306.9,172.4,4301.6z"/> <path d="M223.9,4322.6c-10.2-5.3-16.2-15.3-18.5-30.8c-4.9-33.4,13.8-58.4,39.6-52.9c6.3,1.4,16.5,6.5,18.1,9.3
		c0.5,1-5.3,12.1-7.9,15.1c-0.3,0.3-2.7-1.1-5.4-3.1c-3-1.9-7.1-3.4-9.7-3.4c-5.7,0-11.9,5-13.8,11.4l-1.5,4.9h20.4h20.6l-0.7,13.4
		c-1,18.7-6.8,30.8-17.7,36.5C242.6,4325.6,229.1,4325.3,223.9,4322.6z M243.3,4301.6c0.8-1.8,2-5.6,2.5-8.3l1-5.2h-11.2h-11.2l1,5
		C228,4307.9,237.8,4312.5,243.3,4301.6z"/> <path d="M529.1,4322.6c-6.7-3.4-12.5-9.8-15.9-17.3c-2.6-6-3.1-9.3-3.1-23.4c0-16.2,0.1-16.6,4.8-25.9c3.8-7.5,6.1-10.1,11.4-13.4
		c5.6-3.5,7.9-4.1,15.7-4.1c13.8,0,22.1,5.7,28.6,19.6c3.3,6.8,3.5,9,3.5,23.8c0,14.2-0.4,17.3-3.1,23.2
		c-6.3,13.6-15.4,19.8-29.2,19.8C536.7,4324.8,531.6,4323.9,529.1,4322.6z M548.4,4304.2c4.1-4.6,5.9-11.2,5.9-22.1
		c0-16.5-4.2-25.3-12.1-25.3c-7.9,0-12.4,9.1-12.4,25.2c0,5.3,0.5,11.6,1.4,14.2C534,4306.4,542.9,4310.3,548.4,4304.2z"/> <path d="M506.6,4146.4v-55.9h10.2h10.2v12.8c0,10.2,0.5,13.4,2.5,15.8c2.5,3,2.5,3,8.4-12.8l5.9-15.8h11.4c13.5,0,13.5-3.4,1,27
		c-4.8,11.7-8.7,22.1-8.7,23.2s4.4,9,9.5,17.4c5.3,8.6,9.5,15.8,9.5,16.2s-5.2,0.7-11.4,0.7h-11.6l-7.9-14.6l-7.9-14.7l-0.4,28.3
		l-0.3,28.2h-10.2h-10.2V4146.4z"/> <path d="M70.7,4145.7v-55.2h10.2h10.2l0.3,30.1l0.4,30.1l15.7-30.1l15.7-30.1h9.3h9.1v55.2v55.2h-10.2h-10.2l-0.3-29.3l-0.4-29.3
		l-15.3,28.9l-15.1,29l-9.7,0.4l-9.7,0.4V4145.7z"/> <path d="M230.1,4185.9c0-10.8,0-10.9-3.4-10.9c-3.3,0-3.4-0.3-3.4-8.9s0.1-8.9,3.4-8.9h3.4v-27.5c0-19.2,0.5-28.6,1.8-30.9
		c4.1-7.9,15-11.4,26.2-8.3l6.1,1.8v8.6v8.7l-3.5-1.5c-2.7-1-4.4-0.8-6.8,0.8c-3.3,2-3.3,2.5-3.3,25.2v23.2h6.8h6.8v8.9v8.9h-6.8
		h-6.8v10.9v10.9h-10.2h-10.2V4185.9z"/> <path d="M173.3,4173c-12.8-6.4-18.4-18.5-18.5-40.2c0-12.9,0.3-15.1,3.8-22.9c4.2-9.4,11.7-16.9,19.5-19.5
		c9.4-3.1,23.8-0.1,32.7,6.7l3.3,2.5l-4.6,7.8l-4.6,7.6l-4.1-3.3c-5.4-4.5-11.4-5.6-16.8-2.9c-4.5,2.3-8.3,8.3-8.3,13.1
		c0,2.6,0.7,2.7,19.8,2.7h19.8v9.5c0,19.8-6.1,33.4-17.7,39.2C189.5,4177.3,181.8,4177.2,173.3,4173z M190.4,4156.1
		c2.5-2.5,5.6-10.8,5.6-14.7c0-1.2-3.1-1.8-10.9-1.8c-6,0-10.9,0.4-10.9,1.1c0,3.5,3.4,12.4,5.9,15
		C183.5,4159.4,187,4159.5,190.4,4156.1z"/> <path d="M397.9,4174.6c-7.4-2.9-13.5-8.7-17.6-16.9c-3.5-7.5-3.8-8.9-3.8-25.6c0-16.6,0.3-18.1,3.7-24.7
		c6.9-13.2,16.9-19.1,31.2-18c16.1,1.2,27.2,14.7,29.2,35.7c2.2,22.8-5,40.9-18.9,48.1C416.3,4176,403.5,4176.8,397.9,4174.6z
		 M413.7,4155.3c10.1-8.4,9.1-41.1-1.4-47c-3.4-1.8-4.2-1.8-7.5,0c-6.1,3.3-8.9,10.8-8.9,23.6c-0.1,13.2,1.9,20.3,6.7,24.1
		C407.2,4159.5,408.8,4159.4,413.7,4155.3z"/> <path d="M485.4,4174.5c-2.3-1.1-5.4-3.5-7.1-5.6l-3-3.8v5v4.9h-10.2h-10.2v-42.2v-42.2h10.1h10.2l0.4,25.7
		c0.4,29.6,1.2,32,11.7,35.3l5.7,1.9v11.4C493,4177.3,492.7,4177.6,485.4,4174.5z"/> <path d="M273.7,4174.5c0-0.3,4-19.1,8.9-41.7c4.9-22.6,8.9-41.4,8.9-41.7s4.5-0.5,9.9-0.5h10.1l4.6,21.8c2.6,12,5,21.8,5.4,21.8
		s2.9-9.8,5.4-21.8l4.5-21.8h9.9c9.1,0,9.9,0.3,10.6,3.1c3.1,12.9,17,78.1,17,79.6c0,1.4-2.6,1.8-9.9,1.8H349l-3.8-21.4
		c-2-11.9-4.2-22.1-4.8-22.6s-3,9.1-5.6,21.5l-4.5,22.5h-8.6c-7.8,0-8.6-0.3-9.3-3c-0.4-1.8-2.6-12-4.9-22.9
		c-2.2-10.8-4.2-19.8-4.5-20c-0.1-0.1-2,9-4.1,20.4c-2,11.3-4.1,21.8-4.4,23.2c-0.7,1.9-2.3,2.3-10.9,2.3
		C278.2,4175,273.7,4174.8,273.7,4174.5z"/> </g> </symbol><symbol viewBox="0 0 44 49.3" id="logo-parks-forward"><title>logo-parks-forward</title> <g> <path fill="#2878AA" d="M22.4,15.7v33.6h21.3V15.7H22.4z M41.1,20c0,0-0.3,0.7-0.3,1c0,0.3-0.2,0.4,0,0.9c0.2,0.5-0.6,2.8-0.7,3.1
		s-1.7,1.8-1.7,1.9s-1.6,1.2-1.7,1.2c-0.1,0,0.3,4.1,0.3,4.1l0.2,2.1c0,0-0.3,0.5-0.4,0.6s0,0.5,0,0.5l0.3,4.1c0,0-0.2,2.8-0.7,3.2
		c-0.5,0.5-1.2-0.1-1.4-0.2c-0.3-0.1-0.6-0.6-1.4-0.3c-0.8,0.3-2.3-2.1-3.8-3.9c-0.4-0.6-0.9,0-1.7-0.3c-0.5-0.2,0.3-0.8,0.3-0.8
		s-0.3-0.3-0.5-0.6c-0.2-0.3-1,0-1.4-0.4c-0.5-0.4,1.2-0.7,1.2-0.7s1.3-0.1,2.1-0.2c0.6,0,0.8,0.2,0.8,0.2c0.5,0,0.1,1.3,0.1,1.3
		s0.7-0.2,1.4-0.1c0.7,0.1,0,1.3,0,1.3l1.2,0.9c0,0-0.7-2-0.7-2.3c-0.1-0.3,0.3-1.5,0.3-1.5s-0.5-1.7-0.7-2.7
		c-0.2-1.3-1.1-3.8-1.1-3.8s-1.8,0.4-3.8-0.8c-0.3-0.2-2-2.9-2-2.9s-0.2-0.8-0.7-1.5c-0.5-0.7-0.5-1.6,0.3-1.6
		c0.8,0,0.9,0.6,0.9,0.6s0.2,0.2,0.3,0.2c0.3-0.1,0.3,1.1,0.3,1.1l1.9,2.7l3.7,0.4l-0.1-0.4l0.3-0.2c0,0-0.5-1.3-0.5-1.8
		c0-0.5-0.2-1,1.4-1s1.3,2.1,1.3,2.1s0.9,0,1.4,0s2.7-1.1,2.7-1.1s1-2.2,1-2.9c0.1-0.7,0-0.9,0-0.9s0.1-0.1-0.1-0.6
		c-0.2-0.6-0.3-0.2,0-0.7s-0.1,0.1,0.4-1c0.5-1.1,1.4,0.3,1.4,0.3C41.4,18.8,41.1,20,41.1,20z"/> <g> <path fill="none" d="M15,24.2l2.3,0.9c0,0-1.7-1.2-2.1-2c0,0,0,0,0,0c0.8,0.3,1.7,0.8,1.7,0.8s-1.3-1.1-1.8-1.7
			c-0.1-0.1-0.2-0.2-0.3-0.4l1.9,0.4c0,0-1.3-0.7-1.6-1.5c0,0,0-0.1-0.1-0.1l1.3,0.4c0,0-1.2-1-1.5-1.5c-0.4-0.6-0.4-0.6-0.6-1.3
			c0,0-0.1,0.3-0.6,1.4c-0.3,0.9-2,1.5-2,1.5l1.8-0.6c-0.1,0.1-0.1,0.2-0.2,0.3c-0.8,0.9-1.8,1.5-1.8,1.5l2-0.6
			c-0.1,0.2-0.3,0.4-0.5,0.6c-0.8,0.8-1.5,1-1.9,1.1c0.4,0,1.1-0.1,1.8-0.2c-0.5,1.1-2.4,2.2-2.4,2.2l1.9-0.8
			c-1.5,1.4-2.2,1.4-2.2,1.4s2.8-0.2,3.7-0.3l0.1,1l-0.1,0.9c0,0.4,0.2,0,0.2,0c0.2,0,0.2-0.2,0.2-0.3v-0.7l0.1-0.5l0.1-0.5
			c1.5,0.2,3.8,1.2,3.8,1.2S15.6,25.1,15,24.2z"/> <path fill="#A9BF38" d="M20,9.3C20,9,18.3,8.1,18.1,8c-0.2-0.1-1.9-1-1.9-1l-1.7,1.3L12.4,7L9.2,9.2L8.7,9l-2.2,1.4L3.8,8.8
			L2.5,9.5L1.3,8.4L0.2,8.7L0,8.7l0,0V14l0,0v-1h20v1l0,0V9.3z"/> <path fill="#A9BF38" d="M0,13v0.7v21.6c1-0.6,3-2.4,3.8-3.7c0,0,0,0,0-0.1c-1.6,0.6-3.2,1.4-3.2,1.4s2.4-2.2,3.5-3.3
			c0.2-0.2,0.3-0.4,0.5-0.7l-3.5,0.8c0,0,2.5-1.3,3.1-2.9c0-0.1,0.1-0.2,0.1-0.2L2,27.4c0,0,2.3-1.9,2.8-2.8
			c0.7-1.2,0.7-1.1,1.1-2.4c0,0,0.2,0.6,1.1,2.7c0.6,1.6,3.7,2.8,3.7,2.8l-3.4-1.2c0.1,0.2,0.3,0.4,0.4,0.5c1.5,1.7,3.5,2.9,3.5,2.9
			l-3.9-1c0.2,0.4,0.5,0.8,0.9,1.2c1.5,1.5,2.9,2,3.6,2.1c-0.7-0.1-2.2-0.2-3.4-0.4c1,2.1,4.5,4.1,4.5,4.1l-3.5-1.4
			c2,1.9,3.3,2.4,3.9,2.6c1.1-0.4,2.1-0.7,3.3-0.6c1.6,0.1,3.4,0.5,3.4,0.6V13.8V13H0z M14.3,25.7l-0.2,0.5L14,26.6v0.7
			c0,0.2,0,0.3-0.2,0.3c0,0-0.3,0.4-0.3,0l0.1-0.9l0-1c-0.9,0.1-3.7,0.3-3.7,0.3s0.8-0.1,2.2-1.4l-1.9,0.8c0,0,1.9-1.1,2.4-2.2
			c-0.7,0.1-1.4,0.2-1.8,0.2c0.4-0.1,1.1-0.3,1.9-1.1c0.2-0.2,0.4-0.4,0.5-0.6l-2,0.6c0,0,1.1-0.7,1.8-1.5c0.1-0.1,0.2-0.2,0.2-0.3
			L11.5,21c0,0,1.7-0.6,2-1.5c0.4-1.1,0.6-1.4,0.6-1.4c0.3,0.7,0.3,0.7,0.6,1.3c0.3,0.5,1.5,1.5,1.5,1.5l-1.3-0.4c0,0,0,0.1,0.1,0.1
			c0.3,0.9,1.6,1.5,1.6,1.5l-1.9-0.4c0.1,0.1,0.2,0.3,0.3,0.4c0.6,0.6,1.8,1.7,1.8,1.7s-0.8-0.5-1.7-0.8c0,0,0,0,0,0
			c0.5,0.8,2.1,2,2.1,2L15,24.2c0.6,0.9,3.1,2.7,3.1,2.7S15.8,25.9,14.3,25.7z"/> <path fill="#A9BF38" d="M10.8,43.4C9.9,45.7,8.6,48,7.1,49H20V37.5C16,37.2,11.7,41.1,10.8,43.4z"/> <path fill="#A9BF38" d="M0,45.3c2-0.4,5-1.4,6.4-3c1.9-2.2,4.4-4.2,6.9-5.2C12.1,37,8,36.7,7,36.4v0.2l-0.3,2l0,1.7
			c0,0.7-0.9,0-0.9,0C5.5,40.3,5,40,5,39.7v-1.2l0.1-0.9L5,36.5v-0.4c-1,0-4,0.9-5,1.7V45.3z"/> <path fill="#A9BF38" d="M0,35.3v2.2c1-1.1,3.4-2.7,4.1-3.7L0,35.3z"/> </g> <g> <path fill="#2878AA" d="M44,17.1v-5l-2,0V12h-2.2l-0.1-2.8l-0.6,0l-1.5,0.1c0,0-0.1-0.6-0.1-0.7c0-0.1-0.5-0.1-0.5-0.1V6.2V6.1
			c0,0,0-1.5,0-1.7c0-0.1-0.5-0.1-0.5-0.1l0-3.6l0-0.8H34v5h-1V4.9V6l0,0v3l0,0c0,0,0-2,0-2.1s-1.2-0.4-1.2-0.4s0-0.7,0-1
			c0-0.2-1.5-0.4-1.8-0.3C30,5.2,30,5.2,30,5.3v11.9L44,17.1z"/> <polygon opacity="0.15" fill="#FFFFFF" enable-background="new    " points="22.6,17.1 22.7,49.3 30,49.3 30,17.1 		"/> <path fill="#2878AA" d="M30,17.1V5.3c0,0-0.3-0.1-0.3-0.1L29.6,6H29v2l0,0v8h-1V9.2L26.2,9H24v1l0,0l0,0h-1V9h0.2h0h-0.4h-0.5
			l0.2,8L30,17.1z"/> <path opacity="0.15" fill="#FFFFFF" enable-background="new    " d="M30,17.1V5.3c0,0-0.3-0.1-0.3-0.1L29.6,6H29v2l0,0v8h-1V9.2
			L26.2,9H24v1l0,0l0,0h-1V9h0.2h0h-0.4h-0.5l0.2,8L30,17.1z"/> </g> </g> </symbol><symbol viewBox="0 0 202.3 47.2" id="logo-resource-fund"><title>logo-resource-fund</title> <g> <path fill="#4D4D4F" d="M58.6,20l-1.6-2.2h0V20h-0.7v-4.9c0.3,0,0.7,0,1.2,0c1,0,1.6,0.3,1.6,1.3c0,0.8-0.6,1.3-1.5,1.4
		c0.1,0.2,0.3,0.4,0.4,0.5l1.4,1.7L58.6,20L58.6,20z M57.3,15.6c-0.2,0-0.3,0-0.4,0v1.7c0.1,0,0.2,0,0.4,0c0.7,0,1.1-0.4,1.1-0.9
		C58.4,15.9,58,15.6,57.3,15.6"/> <polygon fill="#4D4D4F" points="61.7,20 61.7,15.1 64.2,15.1 64.2,15.6 62.4,15.6 62.4,17.2 64.1,17.2 64.1,17.7 62.4,17.7 
		62.4,19.4 64.2,19.4 64.2,20 	"/> <path fill="#4D4D4F" d="M67.6,20c-0.4,0-0.7,0-1-0.1l0-0.6c0.3,0.1,0.7,0.2,1,0.2c0.6,0,1.1-0.2,1.1-0.8c0-1.1-2.2-0.7-2.2-2.2
		c0-0.8,0.6-1.4,1.7-1.4c0.3,0,0.6,0,0.9,0.1l0,0.6c-0.3-0.1-0.6-0.1-0.9-0.1c-0.7,0-1,0.3-1,0.7c0,1.1,2.2,0.7,2.2,2.2
		C69.4,19.4,68.7,20,67.6,20"/> <path fill="#4D4D4F" d="M73.7,20c-1.5,0-2.2-1-2.2-2.4c0-1.6,1-2.5,2.3-2.5c1.3,0,2.2,0.8,2.2,2.4C76,19.1,74.9,20,73.7,20
		 M73.7,15.6c-0.8,0-1.5,0.7-1.5,1.9c0,1.2,0.5,1.9,1.5,1.9c0.8,0,1.5-0.6,1.5-1.9C75.3,16.3,74.7,15.6,73.7,15.6"/> <path fill="#4D4D4F" d="M80.1,20c-1.5,0-1.8-0.8-1.8-1.7v-3.2H79v3.2c0,0.7,0.2,1.2,1.2,1.2c0.8,0,1.3-0.4,1.3-1.3v-3.1h0.6v3
		C82.1,19.4,81.4,20,80.1,20"/> <path fill="#4D4D4F" d="M87.2,20l-1.6-2.2h0V20h-0.7v-4.9c0.3,0,0.7,0,1.2,0c1,0,1.6,0.3,1.6,1.3c0,0.8-0.6,1.3-1.5,1.4
		c0.1,0.2,0.3,0.4,0.4,0.5l1.4,1.7L87.2,20L87.2,20z M86,15.6c-0.2,0-0.3,0-0.4,0v1.7c0.1,0,0.2,0,0.4,0c0.7,0,1.1-0.4,1.1-0.9
		C87.1,15.9,86.7,15.6,86,15.6"/> <path fill="#4D4D4F" d="M92.2,20c-1.6,0-2.2-1-2.2-2.4c0-1.5,0.7-2.6,2.4-2.6c0.4,0,0.7,0.1,1.1,0.1l-0.1,0.6
		c-0.4-0.1-0.7-0.2-1.1-0.2c-1.1,0-1.6,0.8-1.6,1.9c0,1.2,0.5,1.9,1.6,1.9c0.4,0,0.8-0.1,1.1-0.2l0.1,0.6C93.1,19.9,92.7,20,92.2,20
		"/> <polygon fill="#4D4D4F" points="96,20 96,15.1 98.5,15.1 98.5,15.6 96.6,15.6 96.6,17.2 98.4,17.2 98.4,17.7 96.6,17.7 96.6,19.4 
		98.5,19.4 98.5,20 	"/> <path fill="#4D4D4F" d="M101.8,20c-0.4,0-0.7,0-1-0.1l0-0.6c0.3,0.1,0.7,0.2,1,0.2c0.6,0,1.1-0.2,1.1-0.8c0-1.1-2.2-0.7-2.2-2.2
		c0-0.8,0.6-1.4,1.7-1.4c0.3,0,0.6,0,0.9,0.1l0,0.6c-0.3-0.1-0.6-0.1-0.9-0.1c-0.7,0-1,0.3-1,0.7c0,1.1,2.2,0.7,2.2,2.2
		C103.6,19.4,103,20,101.8,20"/> <polygon fill="#4D4D4F" points="109.1,20 109.1,15.1 109.8,15.1 109.8,19.4 111.5,19.4 111.5,20 	"/> <polygon fill="#4D4D4F" points="113.6,20 113.6,15.1 116.1,15.1 116.1,15.6 114.2,15.6 114.2,17.2 116,17.2 116,17.7 114.2,17.7 
		114.2,19.4 116.1,19.4 116.1,20 	"/> <path fill="#4D4D4F" d="M122.2,15.9c-0.4-0.2-0.8-0.3-1.3-0.3c-1,0-1.9,0.6-1.9,1.9c0,1.2,0.7,1.9,1.8,1.9c0.3,0,0.6-0.1,0.8-0.1
		v-1.8h0.7v2.3c-0.5,0.2-1.1,0.3-1.6,0.3c-1.5,0-2.4-0.9-2.4-2.4s1-2.6,2.6-2.6c0.5,0,0.9,0.1,1.3,0.2L122.2,15.9z"/> <path fill="#4D4D4F" d="M127.9,20l-0.4-1.1h-2.1L125,20h-0.7l1.8-4.9h0.7l1.8,4.9H127.9z M126.7,16.6c-0.1-0.2-0.2-0.5-0.2-0.7h0
		c-0.1,0.2-0.1,0.5-0.2,0.7l-0.6,1.7h1.7L126.7,16.6z"/> <path fill="#4D4D4F" d="M132.6,20c-1.6,0-2.2-1-2.2-2.4c0-1.5,0.7-2.6,2.4-2.6c0.4,0,0.7,0.1,1.1,0.1l-0.1,0.6
		c-0.4-0.1-0.7-0.2-1.1-0.2c-1.1,0-1.6,0.8-1.6,1.9c0,1.2,0.5,1.9,1.6,1.9c0.4,0,0.8-0.1,1.1-0.2l0.1,0.6
		C133.5,19.9,133.1,20,132.6,20"/> <path fill="#4D4D4F" d="M137.8,18.2V20h-0.7v-1.8l-1.5-3.1h0.7l0.8,1.6c0.1,0.3,0.3,0.6,0.4,0.8l0,0c0.1-0.3,0.3-0.6,0.4-0.9
		l0.7-1.6h0.7L137.8,18.2z"/> <polygon fill="#4D4D4F" points="145.1,15.6 145.1,17.2 146.9,17.2 146.9,17.8 145.1,17.8 145.1,20 144.5,20 144.5,15.1 147,15.1 
		147,15.6 	"/> <path fill="#4D4D4F" d="M151.1,20c-1.5,0-1.8-0.8-1.8-1.7v-3.2h0.7v3.2c0,0.7,0.2,1.2,1.2,1.2c0.8,0,1.3-0.4,1.3-1.3v-3.1h0.6v3
		C153,19.4,152.4,20,151.1,20"/> <path fill="#4D4D4F" d="M158.8,20l-1.9-3c-0.2-0.4-0.4-0.7-0.5-1c0,0.5,0.1,1.7,0.1,2.5v1.6h-0.6v-4.9h0.9l1.8,2.9
		c0.2,0.3,0.4,0.7,0.6,1.1c0-0.6-0.1-1.8-0.1-2.6v-1.4h0.6V20L158.8,20L158.8,20z"/> <path fill="#4D4D4F" d="M163.7,20c-0.5,0-0.9,0-1.2,0v-4.9c0.4,0,0.9,0,1.4,0c1.6,0,2.5,0.7,2.5,2.4C166.4,19.1,165.3,20,163.7,20
		 M163.9,15.6c-0.2,0-0.5,0-0.7,0v3.7c0.2,0,0.4,0,0.6,0c1.1,0,1.9-0.6,1.9-1.9C165.7,16.3,165.1,15.6,163.9,15.6"/> <path fill="#4D4D4F" d="M58.1,32.4c-1.6,0-2.2-1-2.2-2.4c0-1.5,0.7-2.6,2.4-2.6c0.4,0,0.7,0.1,1.1,0.1l-0.1,0.6
		c-0.4-0.1-0.7-0.2-1.1-0.2c-1.1,0-1.6,0.8-1.6,1.9c0,1.2,0.5,1.9,1.6,1.9c0.4,0,0.8-0.1,1.1-0.2l0.1,0.6
		C59.1,32.4,58.6,32.4,58.1,32.4"/> <path fill="#4D4D4F" d="M63.3,32.4l-1.2-1.6h0v1.6h-0.7v-3.7c0.2,0,0.7,0,1.1,0c0.9,0,1.4,0.3,1.4,1c0,0.6-0.5,1-1.1,1.1
		c0.1,0.1,0.2,0.2,0.3,0.4l1,1.3H63.3L63.3,32.4L63.3,32.4z M62.4,29.1c-0.2,0-0.3,0-0.4,0v1.2c0.1,0,0.3,0,0.4,0
		c0.4,0,0.7-0.2,0.7-0.6C63.2,29.3,62.9,29.1,62.4,29.1"/> <polygon fill="#4D4D4F" points="66,32.4 66,28.6 68.1,28.6 68.1,29.2 66.7,29.2 66.7,30.2 68.1,30.2 68.1,30.7 66.7,30.7 
		66.7,31.9 68.1,31.9 68.1,32.4 	"/> <path fill="#4D4D4F" d="M72.6,32.4l-0.3-0.8h-1.7l-0.3,0.8h-0.7l1.4-3.7h0.7l1.4,3.7H72.6z M71.7,29.9c-0.1-0.2-0.1-0.4-0.2-0.6
		l0,0c0,0.2-0.1,0.4-0.2,0.6l-0.5,1.2h1.3L71.7,29.9z"/> <polygon fill="#4D4D4F" points="76,29.2 76,32.4 75.3,32.4 75.3,29.2 74.2,29.2 74.2,28.6 77,28.6 77,29.2 	"/> <rect x="78.8" y="28.6" fill="#4D4D4F" width="0.7" height="3.7"/> <path fill="#4D4D4F" d="M83.3,32.4h-0.7l-1.4-3.7h0.7l0.8,2.1c0.1,0.3,0.2,0.6,0.3,1l0,0c0.1-0.3,0.2-0.6,0.3-0.9l0.8-2.1h0.7
		L83.3,32.4z"/> <polygon fill="#4D4D4F" points="86.4,32.4 86.4,28.6 88.5,28.6 88.5,29.2 87.1,29.2 87.1,30.2 88.5,30.2 88.5,30.7 87.1,30.7 
		87.1,31.9 88.5,31.9 88.5,32.4 	"/> <path fill="#4D4D4F" d="M93.9,32.4c-0.4,0-0.7,0-1-0.1l0-0.6c0.3,0.1,0.7,0.2,1,0.2c0.6,0,1.1-0.2,1.1-0.8c0-1.1-2.2-0.7-2.2-2.2
		c0-0.8,0.6-1.4,1.7-1.4c0.3,0,0.6,0,0.9,0.1l0,0.6c-0.3-0.1-0.6-0.1-0.9-0.1c-0.7,0-1,0.3-1,0.7c0,1.1,2.2,0.7,2.2,2.2
		C95.7,31.8,95.1,32.4,93.9,32.4"/> <path fill="#4D4D4F" d="M99.2,32.4c-1.2,0-1.8-0.8-1.8-1.9c0-1.2,0.9-2,1.9-2c1.1,0,1.8,0.7,1.8,1.9
		C101.1,31.7,100.2,32.4,99.2,32.4 M99.2,29.1c-0.6,0-1.2,0.5-1.2,1.3c0,0.8,0.3,1.4,1.1,1.4c0.7,0,1.2-0.4,1.2-1.3
		C100.4,29.6,99.9,29.1,99.2,29.1"/> <polygon fill="#4D4D4F" points="103,32.4 103,28.6 103.7,28.6 103.7,31.8 105,31.8 105,32.4 	"/> <path fill="#4D4D4F" d="M108.3,32.4c-1,0-1.6-0.5-1.6-1.4v-2.4h0.7V31c0,0.6,0.4,0.9,1,0.9c0.7,0,1-0.4,1-1v-2.3h0.6V31
		C109.9,31.8,109.5,32.4,108.3,32.4"/> <polygon fill="#4D4D4F" points="113.3,29.2 113.3,32.4 112.7,32.4 112.7,29.2 111.6,29.2 111.6,28.6 114.4,28.6 114.4,29.2 	"/> <rect x="116.2" y="28.6" fill="#4D4D4F" width="0.7" height="3.7"/> <path fill="#4D4D4F" d="M120.6,32.4c-1.2,0-1.8-0.8-1.8-1.9c0-1.2,0.9-2,1.9-2c1.1,0,1.8,0.7,1.8,1.9
		C122.5,31.7,121.7,32.4,120.6,32.4 M120.6,29.1c-0.6,0-1.2,0.5-1.2,1.3c0,0.8,0.3,1.4,1.1,1.4c0.7,0,1.2-0.4,1.2-1.3
		C121.8,29.6,121.4,29.1,120.6,29.1"/> <path fill="#4D4D4F" d="M126.9,32.4l-1.4-2.2c-0.1-0.2-0.3-0.5-0.4-0.7l0,0c0,0.2,0,0.5,0,0.9v2h-0.6v-3.7h0.8l1.4,2.2
		c0.2,0.2,0.3,0.5,0.4,0.7l0,0c0-0.2,0-0.6,0-1.2v-1.7h0.6v3.8H126.9z"/> <path fill="#4D4D4F" d="M130.7,32.4c-0.3,0-0.6,0-0.8-0.1l0-0.6c0.2,0.1,0.5,0.1,0.8,0.1c0.4,0,0.8-0.2,0.8-0.6
		c0-0.7-1.8-0.4-1.8-1.6c0-0.7,0.5-1.1,1.5-1.1c0.2,0,0.5,0,0.7,0.1l0,0.6c-0.2-0.1-0.5-0.1-0.7-0.1c-0.5,0-0.8,0.2-0.8,0.5
		c0,0.7,1.8,0.4,1.8,1.6C132.2,32,131.6,32.4,130.7,32.4"/> <path fill="#4D4D4F" d="M134.7,32c0,0.2-0.2,0.4-0.4,0.4c-0.2,0-0.4-0.2-0.4-0.4c0-0.2,0.2-0.4,0.4-0.4
		C134.5,31.5,134.7,31.8,134.7,32"/> <polygon fill="#4D4D4F" points="138.9,32.4 138.9,27.5 139.5,27.5 139.5,31.8 141.3,31.8 141.3,32.4 	"/> <path fill="#4D4D4F" d="M145.4,32.4l-0.3-0.8h-1.7l-0.3,0.8h-0.7l1.4-3.7h0.7l1.4,3.7H145.4z M144.5,29.9c-0.1-0.2-0.1-0.4-0.2-0.6
		l0,0c0,0.2-0.1,0.4-0.2,0.6l-0.5,1.2h1.3L144.5,29.9z"/> <path fill="#4D4D4F" d="M148.5,32.4c-0.3,0-0.6,0-0.8-0.1l0-0.6c0.2,0.1,0.5,0.1,0.8,0.1c0.4,0,0.8-0.2,0.8-0.6
		c0-0.7-1.8-0.4-1.8-1.6c0-0.7,0.5-1.1,1.5-1.1c0.2,0,0.5,0,0.7,0.1l0,0.6c-0.2-0.1-0.5-0.1-0.7-0.1c-0.5,0-0.8,0.2-0.8,0.5
		c0,0.7,1.8,0.4,1.8,1.6C150,32,149.4,32.4,148.5,32.4"/> <polygon fill="#4D4D4F" points="153.1,29.2 153.1,32.4 152.4,32.4 152.4,29.2 151.4,29.2 151.4,28.6 154.2,28.6 154.2,29.2 	"/> <rect x="155.9" y="28.6" fill="#4D4D4F" width="0.7" height="3.7"/> <path fill="#4D4D4F" d="M161.3,32.4l-1.4-2.2c-0.1-0.2-0.3-0.5-0.4-0.7l0,0c0,0.2,0,0.5,0,0.9v2h-0.6v-3.7h0.8l1.4,2.2
		c0.2,0.2,0.3,0.5,0.4,0.7l0,0c0-0.2,0-0.6,0-1.2v-1.7h0.6v3.8H161.3z"/> <path fill="#4D4D4F" d="M166.1,32.4c-1.1,0-1.9-0.6-1.9-1.9c0-1.1,0.8-2,2.1-2c0.4,0,0.7,0.1,1.1,0.2l-0.1,0.6
		c-0.3-0.1-0.7-0.2-1-0.2c-0.7,0-1.4,0.5-1.4,1.4c0,0.9,0.5,1.3,1.3,1.3c0.2,0,0.4,0,0.6-0.1v-1.3h0.7v1.8
		C167,32.4,166.6,32.4,166.1,32.4"/> <path fill="#4D4D4F" d="M174.4,32.4l-1.6-2.2h0v2.2h-0.7v-4.9c0.3,0,0.7,0,1.2,0c1,0,1.6,0.3,1.6,1.3c0,0.8-0.6,1.3-1.5,1.4
		c0.1,0.2,0.3,0.4,0.4,0.5l1.4,1.7L174.4,32.4L174.4,32.4z M173.2,28c-0.2,0-0.3,0-0.4,0v1.7c0.1,0,0.2,0,0.4,0
		c0.7,0,1.1-0.4,1.1-0.9C174.3,28.3,173.9,28,173.2,28"/> <polygon fill="#4D4D4F" points="177.1,32.4 177.1,28.6 179.2,28.6 179.2,29.2 177.7,29.2 177.7,30.2 179.1,30.2 179.1,30.7 
		177.7,30.7 177.7,31.9 179.2,31.9 179.2,32.4 	"/> <path fill="#4D4D4F" d="M181.9,32.4c-0.3,0-0.6,0-0.8-0.1l0-0.6c0.2,0.1,0.5,0.1,0.8,0.1c0.4,0,0.8-0.2,0.8-0.6
		c0-0.7-1.8-0.4-1.8-1.6c0-0.7,0.5-1.1,1.5-1.1c0.2,0,0.5,0,0.7,0.1l0,0.6c-0.2-0.1-0.5-0.1-0.7-0.1c-0.5,0-0.8,0.2-0.8,0.5
		c0,0.7,1.8,0.4,1.8,1.6C183.5,32,182.8,32.4,181.9,32.4"/> <path fill="#4D4D4F" d="M187.1,32.4c-1,0-1.6-0.5-1.6-1.4v-2.4h0.7V31c0,0.6,0.4,0.9,1,0.9c0.7,0,1-0.4,1-1v-2.3h0.6V31
		C188.7,31.8,188.3,32.4,187.1,32.4"/> <polygon fill="#4D4D4F" points="191,32.4 191,28.6 191.7,28.6 191.7,31.8 193,31.8 193,32.4 	"/> <polygon fill="#4D4D4F" points="195.7,29.2 195.7,32.4 195,32.4 195,29.2 193.9,29.2 193.9,28.6 196.8,28.6 196.8,29.2 	"/> <path fill="#4D4D4F" d="M199.1,32.4c-0.3,0-0.6,0-0.8-0.1l0-0.6c0.2,0.1,0.5,0.1,0.8,0.1c0.4,0,0.8-0.2,0.8-0.6
		c0-0.7-1.8-0.4-1.8-1.6c0-0.7,0.5-1.1,1.5-1.1c0.2,0,0.5,0,0.7,0.1l0,0.6c-0.2-0.1-0.5-0.1-0.7-0.1c-0.5,0-0.8,0.2-0.8,0.5
		c0,0.7,1.8,0.4,1.8,1.6C200.6,32,200,32.4,199.1,32.4"/> <path fill="#4D4D4F" d="M202.3,32c0,0.2-0.2,0.4-0.4,0.4s-0.4-0.2-0.4-0.4c0-0.2,0.2-0.4,0.4-0.4S202.3,31.8,202.3,32"/> <polygon fill="#00728F" points="43.7,10.7 35.1,15 41.2,8.1 40.8,7.7 28.4,20.2 44,11.2 	"/> <polygon fill="#00728F" points="35,16.4 28.4,20.2 33.7,14.8 	"/> <polygon fill="#78A22F" points="37.2,4 30.9,11.2 34,2.5 33.4,2.3 26.7,18.6 37.7,4.3 	"/> <polygon fill="#78A22F" points="31.3,12.6 26.7,18.6 29.6,11.6 	"/> <polygon fill="#00728F" points="24.5,0.2 24.6,17.8 29.3,0.4 28.7,0.3 25.6,9.4 25.2,0.2 	"/> <polygon fill="#00728F" points="26.6,10.5 24.6,17.8 24.6,10.2 	"/> <polygon fill="#00728F" points="20,0 19.4,0.1 20,9.7 16.1,1.3 15.5,1.6 22.3,17.9 	"/> <polygon fill="#00728F" points="21.3,10.3 22.3,17.9 19.4,10.9 	"/> <polygon fill="#00928F" points="10.7,3.5 15,12.1 8.2,5.9 7.7,6.4 20.2,18.8 11.2,3.2 	"/> <polygon fill="#00928F" points="16.4,12.2 20.2,18.8 14.8,13.4 	"/> <polygon fill="#78A22F" points="4,10 11.2,16.2 2.6,13.2 2.3,13.8 18.6,20.5 4.3,9.5 	"/> <polygon fill="#78A22F" points="12.6,15.8 18.6,20.5 11.6,17.6 	"/> <polygon fill="#00928F" points="0.3,18.5 9.4,21.5 0.2,22 0.2,22.6 17.8,22.6 0.4,17.9 	"/> <polygon fill="#00928F" points="10.5,20.6 17.8,22.6 10.2,22.6 	"/> <polygon fill="#00728F" points="0,27.2 0.1,27.8 9.7,27.1 1.4,31.1 1.6,31.7 17.9,24.9 	"/> <polygon fill="#00728F" points="10.4,25.8 17.9,24.9 10.9,27.8 	"/> <polygon fill="#00728F" points="3.5,36.5 12.1,32.2 5.9,39 6.4,39.5 18.8,26.9 3.2,35.9 	"/> <polygon fill="#00728F" points="12.2,30.7 18.8,26.9 13.5,32.4 	"/> <polygon fill="#78A22F" points="10,43.2 16.3,35.9 13.2,44.6 13.8,44.8 20.5,28.5 9.5,42.8 	"/> <polygon fill="#78A22F" points="15.8,34.5 20.5,28.5 17.6,35.6 	"/> <polygon fill="#00728F" points="17.9,46.7 18.5,46.9 21.6,37.8 22,47 22.7,47 22.6,29.3 	"/> <polygon fill="#00728F" points="20.6,36.7 22.6,29.3 22.6,36.9 	"/> <polygon fill="#00728F" points="27.2,47.2 27.8,47 27.1,37.5 31.1,45.8 31.7,45.5 24.9,29.3 	"/> <polygon fill="#00728F" points="25.9,36.8 24.9,29.3 27.8,36.3 	"/> <polygon fill="#00928F" points="36.5,43.7 32.2,35.1 39,41.2 39.5,40.8 27,28.3 36,44 	"/> <polygon fill="#00928F" points="30.7,34.9 27,28.3 32.4,33.7 	"/> <polygon fill="#78A22F" points="43.2,37.2 35.9,30.9 44.6,34 44.9,33.4 28.5,26.7 42.8,37.7 	"/> <polygon fill="#78A22F" points="34.5,31.3 28.5,26.7 35.6,29.6 	"/> <polygon fill="#00928F" points="29.3,24.5 46.8,29.2 46.9,28.7 37.8,25.6 47,25.1 47,24.5 	"/> <polygon fill="#00928F" points="36.7,26.5 29.3,24.5 37,24.5 	"/> <polygon fill="#00728F" points="29.3,22.3 47.2,19.9 47.1,19.4 37.5,20 45.8,16.1 45.6,15.5 	"/> <polygon fill="#00728F" points="36.8,21.3 29.3,22.3 36.3,19.3 	"/> </g> </symbol><symbol viewBox="0 0 119.5 26.7" id="logo-stamen"><title>logo-stamen</title> <g> <g> <path fill="#231F20" d="M5.1,18.2c0.2,1.2,0.5,2,1,2.6c0.9,1,2.4,1.6,4.5,1.6c1.3,0,2.3-0.2,3.1-0.4c1.5-0.6,2.2-1.5,2.2-2.9
			c0-0.8-0.4-1.5-1.1-1.9c-0.7-0.5-1.9-0.9-3.5-1.2l-2.7-0.6C5.8,14.7,4,14,3,13.4c-1.8-1.2-2.5-3-2.5-5.5c0-2.2,0.8-4.1,2.5-5.7
			S7.1,0,10.3,0c2.7,0,5,0.7,6.9,2.2c1.9,1.4,2.9,3.5,3,6.1h-5.1C15,6.8,14.3,5.7,13,5c-0.9-0.4-1.9-0.6-3.1-0.6
			c-1.4,0-2.5,0.2-3.3,0.8C5.7,5.7,5.3,6.5,5.3,7.5c0,0.9,0.4,1.6,1.2,2c0.6,0.3,1.7,0.6,3.3,1l4.5,1c1.9,0.5,3.4,1,4.4,1.8
			c1.5,1.2,2.2,2.9,2.2,5.2c0,2.3-0.9,4.2-2.7,5.7c-1.8,1.5-4.3,2.3-7.6,2.3c-3.3,0-6-0.7-7.9-2.2C1,22.9,0,20.8,0,18.2H5.1z"/> <path fill="#231F20" d="M22.1,10.9V7.4h2.6V2.2h4.9v5.3h3v3.4h-3v10c0,0.8,0.1,1.3,0.3,1.4c0.2,0.2,0.8,0.3,1.8,0.3
			c0.2,0,0.3,0,0.5,0c0.2,0,0.3,0,0.5-0.1v3.7l-2.3,0.1c-2.3,0.1-3.9-0.3-4.8-1.2c-0.6-0.6-0.8-1.4-0.8-2.6V10.9H22.1z"/> <path fill="#231F20" d="M42.8,14.6c0.9-0.1,1.6-0.2,1.9-0.4c0.7-0.3,1-0.8,1-1.4c0-0.8-0.2-1.3-0.8-1.6c-0.6-0.3-1.4-0.5-2.4-0.5
			c-1.2,0-2,0.3-2.5,0.9c-0.3,0.4-0.6,1-0.7,1.7h-4.7c0.1-1.6,0.6-2.9,1.4-4c1.3-1.7,3.5-2.5,6.7-2.5c2.1,0,3.9,0.4,5.5,1.2
			c1.6,0.8,2.4,2.3,2.4,4.6v8.6c0,0.6,0,1.4,0,2.2c0,0.6,0.2,1.1,0.3,1.3c0.2,0.2,0.4,0.4,0.7,0.6v0.7h-5.3c-0.2-0.4-0.2-0.7-0.3-1
			c-0.1-0.3-0.1-0.7-0.2-1.1c-0.6,0.7-1.4,1.4-2.3,1.9c-1,0.6-2.2,1-3.6,1c-1.7,0-3.1-0.5-4.2-1.4S34,22.8,34,21c0-2.3,0.9-4,2.7-5
			c1-0.6,2.4-1,4.3-1.2L42.8,14.6z M45.8,16.8c-0.3,0.2-0.6,0.3-1,0.5c-0.3,0.2-0.7,0.2-1.3,0.3l-1.1,0.2c-1,0.2-1.8,0.4-2.2,0.6
			c-0.8,0.5-1.1,1.1-1.1,2.1c0,0.9,0.2,1.4,0.7,1.8c0.5,0.4,1,0.6,1.7,0.6c1,0,2.1-0.3,2.9-1c0.9-0.6,1.4-1.8,1.4-3.4L45.8,16.8
			L45.8,16.8z"/> <path fill="#231F20" d="M77.3,7.3c0.8,0.3,1.5,0.9,2.2,1.7c0.6,0.6,0.9,1.4,1,2.4c0.1,0.6,0.2,1.5,0.2,2.8V26h-5V14.1
			c0-0.7-0.1-1.3-0.3-1.8c-0.4-0.9-1.3-1.3-2.4-1.3c-1.4,0-2.3,0.6-2.8,1.7c-0.2,0.6-0.4,1.3-0.4,2.2v11.2h-4.9V14.9
			c0-1.1-0.1-1.9-0.3-2.4c-0.4-0.9-1.2-1.4-2.4-1.4c-1.4,0-2.3,0.5-2.8,1.4C59.1,13,59,13.8,59,14.8v11.2H54V7.3h4.7V10
			c0.6-1,1.2-1.7,1.8-2.1c1-0.7,2.2-1.1,3.7-1.1c1.4,0,2.5,0.3,3.5,1c0.7,0.6,1.3,1.4,1.6,2.2c0.6-1.1,1.4-1.9,2.4-2.4
			c1-0.5,2.2-0.8,3.3-0.8C75.6,6.9,76.4,7,77.3,7.3z"/> <path fill="#231F20" d="M96.3,7.6c1.3,0.6,2.4,1.5,3.2,2.8c0.8,1.1,1.3,2.4,1.5,3.8c0.2,0.9,0.2,2.1,0.2,3.7H87.5
			c0.1,1.9,0.7,3.2,2,4c0.7,0.5,1.7,0.7,2.7,0.7c1.1,0,2-0.3,2.7-0.9c0.4-0.3,0.7-0.7,1-1.3h4.9c-0.2,1.1-0.7,2.2-1.8,3.4
			c-1.7,1.8-4,2.7-7,2.7c-2.5,0-4.7-0.8-6.6-2.3c-1.9-1.5-2.9-4.1-2.9-7.5c0-3.3,0.9-5.7,2.5-7.5c1.7-1.8,3.9-2.6,6.7-2.6
			C93.5,6.8,95,7.1,96.3,7.6z M88.9,11.9c-0.7,0.7-1.1,1.7-1.3,2.9h8.4c-0.1-1.3-0.6-2.2-1.3-2.9c-0.8-0.6-1.8-1-2.9-1
			C90.6,10.8,89.6,11.2,88.9,11.9z"/> <path fill="#231F20" d="M117.7,8.3c1.2,1,1.8,2.7,1.8,5v12.6h-5V14.6c0-1-0.2-1.8-0.4-2.2c-0.5-1-1.4-1.4-2.7-1.4
			c-1.6,0-2.7,0.7-3.3,2.1c-0.3,0.7-0.5,1.7-0.5,2.9V26h-4.9V7.3h4.8V10c0.6-1,1.2-1.7,1.8-2.1c1-0.7,2.2-1.1,3.8-1.1
			C114.9,6.8,116.5,7.3,117.7,8.3z"/> </g> </g> </symbol></svg>