<?xml version="1.0" encoding="utf-8"?>
<!-- Generator: Adobe Illustrator 18.0.0, SVG Export Plug-In . SVG Version: 6.00 Build 0)  -->
<!DOCTYPE svg PUBLIC "-//W3C//DTD SVG 1.1//EN" "http://www.w3.org/Graphics/SVG/1.1/DTD/svg11.dtd">
<svg version="1.1" id="Layer_1" xmlns="http://www.w3.org/2000/svg" xmlns:xlink="http://www.w3.org/1999/xlink" x="0px" y="0px"
	 width="40px" height="40px" viewBox="0 0 40 40" enable-background="new 0 0 40 40" xml:space="preserve">
<g>
	<path fill="#4CAF50" d="M35.2,40c2.6,0,4.8-2.1,4.8-4.8V4.8C40,2.1,37.9,0,35.2,0H4.8C2.1,0,0,2.1,0,4.8v30.4C0,37.9,2.1,40,4.8,40
		H35.2z"/>
	<path fill="#FFFFFF" d="M9.5,32.9c3.2,0,5.8-2.6,5.8-5.8c0-3.2-2.6-5.8-5.8-5.8c-3.2,0-5.8,2.6-5.8,5.8C3.7,30.3,6.3,32.9,9.5,32.9
		z M2.4,27.1c0-3.9,3.2-7.1,7.1-7.1c3.9,0,7.1,3.2,7.1,7.1c0,3.9-3.2,7.1-7.1,7.1C5.6,34.2,2.4,31,2.4,27.1z"/>
	<path fill="#FFFFFF" d="M30.5,32.9c3.2,0,5.8-2.6,5.8-5.8c0-3.2-2.6-5.8-5.8-5.8c-3.2,0-5.8,2.6-5.8,5.8
		C24.7,30.3,27.3,32.9,30.5,32.9z M23.4,27.1c0-3.9,3.2-7.1,7.1-7.1c3.9,0,7.1,3.2,7.1,7.1c0,3.9-3.2,7.1-7.1,7.1
		C26.6,34.2,23.4,31.1,23.4,27.1z"/>
	<path fill="#FFFFFF" d="M23.4,9.8c1.5,0,2.7-1.2,2.7-2.7c0-1.5-1.2-2.7-2.7-2.7c-1.5,0-2.7,1.2-2.7,2.7C20.7,8.6,21.9,9.8,23.4,9.8
		z"/>
	<path fill="#FFFFFF" d="M23.5,16.2c-0.4,0-0.8-0.2-1.1-0.7l-1.7-2.7L17,16.4l3.3,1.8c1.4,0.7,1.2,1.9,1.2,1.9v7.5
		c0,0.9-0.7,1.5-1.5,1.5c-0.9,0-1.5-0.7-1.5-1.5v-6l-5.8-3.2c-0.7-0.4-1.2-1.1-1.2-2c0-0.6,0.2-1.1,0.6-1.5l5.7-5.7
		c0.7-0.8,1.7-0.7,1.7-0.7c1.2,0,1.8,1,1.8,1l2.9,4.6l4.5,0c1.6,0,1.6,2.1,0,2.1H23.5z"/>
</g>
</svg>
