<?xml version="1.0" encoding="utf-8"?>
<!-- Generator: Adobe Illustrator 18.0.0, SVG Export Plug-In . SVG Version: 6.00 Build 0)  -->
<!DOCTYPE svg PUBLIC "-//W3C//DTD SVG 1.1//EN" "http://www.w3.org/Graphics/SVG/1.1/DTD/svg11.dtd">
<svg version="1.1" id="Layer_1" xmlns="http://www.w3.org/2000/svg" xmlns:xlink="http://www.w3.org/1999/xlink" x="0px" y="0px"
   width="40px" height="40px" viewBox="0 0 40 40" enable-background="new 0 0 40 40" xml:space="preserve">
<g>
  <path fill="currentColor" d="M35.2,40c2.6,0,4.8-2.1,4.8-4.8V4.8C40,2.1,37.9,0,35.2,0H4.8C2.1,0,0,2.1,0,4.8v30.5C0,37.9,2.1,40,4.8,40H35.2z"/>
  <path d="M9,23.7c1.8,0,3.2-1.4,3.2-3.2c0-1.8-1.4-3.3-3.2-3.3s-3.2,1.5-3.2,3.3C5.8,22.2,7.2,23.7,9,23.7z"/>
  <g>
    <path d="M27,29.2c0.1-0.1,0.3-0.1,0.5,0.1l0.6,0.8c0.1,0.1,0.1,0.3-0.1,0.5l-4.4,3.2c-0.1,0.1-0.3,0.1-0.5-0.1
      l-0.6-0.8c-0.1-0.1-0.1-0.3,0.1-0.5L27,29.2z"/>
  </g>
  <polygon points="22.1,25.1 20.4,22.1 19.5,22.7 21.2,25.8   "/>
  <polygon points="18.1,18 11.3,6.2 10,6.2 17.1,18.7   "/>
  <path d="M24.4,24.3c0.4-0.3,0.8-0.5,1.3-0.5H32c1.2,0,2.2,1,2.2,2.2s-1,2.2-2.2,2.2h-5.2l-6.7,4.7
    c-2.3,1.7-3.8-0.2-3.8-0.2l-5.2-5.2c-0.9-1.1-0.7-3.1,0.4-3.9l7.2-5.2c0.7-0.6,1.8-0.5,2.4,0.2c0.6,0.7,0.5,1.8-0.2,2.4l-4.6,3.4
    l3.3,3.3L24.4,24.3z"/>
</g>
</svg>
