<?xml version="1.0" encoding="utf-8"?>
<!-- Generator: Adobe Illustrator 18.0.0, SVG Export Plug-In . SVG Version: 6.00 Build 0)  -->
<!DOCTYPE svg PUBLIC "-//W3C//DTD SVG 1.1//EN" "http://www.w3.org/Graphics/SVG/1.1/DTD/svg11.dtd">
<svg version="1.1" id="Layer_1" xmlns="http://www.w3.org/2000/svg" xmlns:xlink="http://www.w3.org/1999/xlink" x="0px" y="0px"
	 width="40px" height="40px" viewBox="0 0 40 40" enable-background="new 0 0 40 40" xml:space="preserve">
<g>
	<path fill="currentColor" d="M35.2,40c2.6,0,4.8-2.1,4.8-4.8V4.8C40,2.1,37.9,0,35.2,0H4.8C2.1,0,0,2.1,0,4.8v30.5C0,37.9,2.1,40,4.8,40H35.2z"/>
	<path d="M19.3,11.4c0,1.3-1.1,2.4-2.4,2.4c-1.3,0-2.4-1.1-2.4-2.4S15.6,9,16.9,9C18.2,9,19.3,10.1,19.3,11.4z
		 M28.3,2.4c-1.5,0-2.7,1.2-2.7,2.7s1.2,2.7,2.7,2.7S31,6.6,31,5.1C31,3.6,29.8,2.4,28.3,2.4z M23.9,17.4c0.7,0,1.3-0.5,1.4-1.1
		s1.4-6,1.4-6c0.2-0.7-0.3-1.4-0.9-1.6c-0.7-0.2-1.4,0.3-1.6,1l-1.1,4.9h-6.9c-0.9,0-1.5,0.7-1.7,1.8l-1.2,7.3
		c0,0.2-0.1,0.6-0.1,0.9v6.2L9.4,35c-0.6,0.7-0.5,1.7,0.2,2.2c0.3,0.3,0.7,0.4,1,0.4c0.4,0,0.9-0.2,1.2-0.5l4.2-4.8
		c0.2-0.2,0.4-0.7,0.4-1.1v-5.5L22,27l-1,5.1c-0.2,0.8,0.3,1.7,1.1,1.9c0.1,0,0.3,0,0.4,0c0.7,0,1.3-0.5,1.5-1.2l1.5-6.9
		c0.2-0.8-0.2-1.8-1.5-2l-6.3-1.3l0.9-5.2H23.9z"/>
</g>
</svg>
