<?xml version="1.0" encoding="utf-8"?>
<!-- Generator: Adobe Illustrator 18.0.0, SVG Export Plug-In . SVG Version: 6.00 Build 0)  -->
<!DOCTYPE svg PUBLIC "-//W3C//DTD SVG 1.1//EN" "http://www.w3.org/Graphics/SVG/1.1/DTD/svg11.dtd">
<svg version="1.1" id="Layer_1" xmlns="http://www.w3.org/2000/svg" xmlns:xlink="http://www.w3.org/1999/xlink" x="0px" y="0px"
	 width="40px" height="40px" viewBox="0 0 40 40" enable-background="new 0 0 40 40" xml:space="preserve">
<g>
	<path fill="#4CAF50" d="M35.2,40c2.6,0,4.8-2.1,4.8-4.8V4.8C40,2.1,37.9,0,35.2,0H4.8C2.1,0,0,2.1,0,4.8v30.5C0,37.9,2.1,40,4.8,40
		H35.2z"/>
	<path fill="#FFFFFF" d="M20.5,8.3c1.5,0,2.7-1.2,2.7-2.7c0-1.5-1.2-2.7-2.7-2.7c-1.5,0-2.7,1.2-2.7,2.7C17.8,7.1,19,8.3,20.5,8.3z"
		/>
	<path fill="#FFFFFF" d="M15.9,8.8C16,8.4,15.8,8,15.4,7.8l-2.2-0.5c-0.4-0.1-0.8,0.2-0.9,0.6l-1.9,7.8c-0.1,0.4,0.2,0.8,0.6,0.9
		l2.2,0.5c0.4,0.1,0.8-0.1,0.9-0.6L15.9,8.8z"/>
	<path fill="#FFFFFF" d="M26.2,36.4C26.2,36.4,26.2,36.4,26.2,36.4c0,0.4,0.3,0.7,0.6,0.7c0.3,0,0.6-0.2,0.6-0.5l4.5-24.4
		c0,0,0,0,0,0c0-0.3-0.3-0.6-0.6-0.6c-0.3,0-0.5,0.2-0.6,0.5L26.2,36.4z"/>
	<path fill="#FFFFFF" d="M11.3,34.8c0,0.1,0,0.3,0,0.4c0,1,0.8,1.9,1.9,1.9c0.9,0,1.6-0.6,1.8-1.3l3.2-13.4l3.1,13.3
		c0.2,0.8,0.9,1.4,1.8,1.4c1,0,1.9-0.8,1.9-1.9c0-0.1,0-0.3,0-0.4l-4.2-17.7l0.4-1.6l0.3,1.2c0.3,0.8,1,0.9,1,0.9l4.4,1.1
		c0.1,0,0.2,0,0.3,0c0.7,0,1.3-0.6,1.3-1.3c0-0.6-0.4-1.1-1-1.3l-3.8-0.9l-1-4.2c-0.5-2.3-2.7-2.3-2.7-2.3c-2.2-0.1-2.7,2.2-2.7,2.2
		L11.3,34.8z"/>
</g>
</svg>
