<?xml version="1.0" encoding="utf-8"?>
<!-- Generator: Adobe Illustrator 18.0.0, SVG Export Plug-In . SVG Version: 6.00 Build 0)  -->
<!DOCTYPE svg PUBLIC "-//W3C//DTD SVG 1.1//EN" "http://www.w3.org/Graphics/SVG/1.1/DTD/svg11.dtd">
<svg version="1.1" id="Layer_1" xmlns="http://www.w3.org/2000/svg" xmlns:xlink="http://www.w3.org/1999/xlink" x="0px" y="0px"
	 width="40px" height="40px" viewBox="0 0 40 40" enable-background="new 0 0 40 40" xml:space="preserve">
<g>
	<path fill="currentColor" d="M35.2,40c2.6,0,4.8-2.1,4.8-4.8V4.8C40,2.1,37.9,0,35.2,0H4.8C2.1,0,0,2.1,0,4.8v30.4C0,37.9,2.1,40,4.8,40
		H35.2z"/>
	<path d="M7.6,22.5c0.4-0.1,0.9-0.2,1.3-0.2c0.7,0,1.4,0.2,2,0.4c0.6,0.3,1.3,0.4,1.9,0.4c0.7,0,1.4-0.2,2-0.4
		c0.6-0.3,1.3-0.4,2-0.4c0.7,0,1.4,0.2,2,0.4c0.6,0.3,1.3,0.4,2,0.4c0.7,0,1.4-0.2,2-0.4c0.6-0.3,1.3-0.4,2-0.4c0.7,0,1.4,0.2,2,0.4
		c0.6,0.3,1.3,0.4,2,0.4c0.7,0,1.4-0.2,2-0.4c0.6-0.3,1.3-0.4,2-0.4c0.6,0,1.2,0.1,1.7,0.3l2.2-6.1c0.1-0.2,0-0.3-0.3-0.3
		c-0.2,0-15.6-0.4-15.6-0.4l2.1-3.6l2.6,0.1v-1.7l-10.9-0.2l-3.2,5.2l-8.6-0.2c-0.1,0-0.2,0.1-0.1,0.3c0.1,0.2,3.8,5.6,3.9,5.9
		C6.8,21.9,7.2,22.2,7.6,22.5z M15.1,12l4.9,0.2l-2.2,3.5L13,15.6L15.1,12z M36.7,29.3c-0.7,0-1.4-0.2-2-0.4c-0.6-0.3-1.3-0.5-2-0.5
		c-0.7,0-1.4,0.2-2,0.5c-0.6,0.3-1.3,0.4-2,0.4c-0.7,0-1.4-0.2-2-0.4c-0.6-0.3-1.3-0.5-2-0.5c-0.7,0-1.4,0.2-2,0.5
		c-0.6,0.3-1.3,0.4-2,0.4c-0.7,0-1.4-0.2-2-0.4c-0.6-0.3-1.3-0.5-2-0.5c-0.7,0-1.4,0.2-2,0.5c-0.6,0.3-1.3,0.4-2,0.4
		c-0.7,0-1.4-0.2-1.9-0.4c-0.6-0.3-1.3-0.5-2-0.5c-0.7,0-1.4,0.2-2,0.5c-0.6,0.3-1.3,0.4-2,0.4v-2.9c0.7,0,1.4-0.2,2-0.4
		c0.6-0.3,1.3-0.4,2-0.4c0.7,0,1.4,0.2,2,0.4c0.6,0.3,1.3,0.4,1.9,0.4c0.7,0,1.4-0.2,2-0.4c0.6-0.3,1.3-0.4,2-0.4
		c0.7,0,1.4,0.2,2,0.4c0.6,0.3,1.3,0.4,2,0.4c0.7,0,1.4-0.2,2-0.4c0.6-0.3,1.3-0.4,2-0.4c0.7,0,1.4,0.2,2,0.4c0.6,0.3,1.3,0.4,2,0.4
		c0.7,0,1.4-0.2,2-0.4c0.6-0.3,1.3-0.4,2-0.4c0.7,0,1.4,0.2,2,0.4c0.6,0.3,1.3,0.4,2,0.4V29.3z"/>
</g>
</svg>
