<?xml version="1.0" encoding="utf-8"?>
<!-- Generator: Adobe Illustrator 18.0.0, SVG Export Plug-In . SVG Version: 6.00 Build 0)  -->
<!DOCTYPE svg PUBLIC "-//W3C//DTD SVG 1.1//EN" "http://www.w3.org/Graphics/SVG/1.1/DTD/svg11.dtd">
<svg version="1.1" id="Layer_1" xmlns="http://www.w3.org/2000/svg" xmlns:xlink="http://www.w3.org/1999/xlink" x="0px" y="0px"
	 width="40px" height="40px" viewBox="0 0 40 40" enable-background="new 0 0 40 40" xml:space="preserve">
<g>
	<path fill="#2196F3" d="M35.2,40c2.6,0,4.8-2.1,4.8-4.8V4.8C40,2.1,37.9,0,35.2,0H4.8C2.1,0,0,2.1,0,4.8v30.4C0,37.9,2.1,40,4.8,40
		H35.2z"/>
	<circle fill="#FFFFFF" cx="12.6" cy="8.7" r="2.7"/>
	<path fill="#FFFFFF" d="M31.8,15.6c-0.9-5.1-3-9.8-5.3-12.8l0,0l0,0c-1.5,2-2.9,4.8-4,7.9c0,0-0.1,0.1-0.1,0.1l-3.1,3.1l-3-1.7
		C15.9,12,15.6,12,15.6,12h-1.1h-4c0,0-1.3-0.1-1.3,1.2v9.6l-2,12c-0.3,1.1,0.3,2.2,1.4,2.4c1.1,0.3,2.2-0.3,2.4-1.4l1.5-10.5
		l1.5,10.5c0.3,1.1,1.4,1.7,2.4,1.4c1.1-0.3,1.7-1.4,1.4-2.4l-2-12.2v-7l2.6,1.4c0.2,0.2,0.5,0.3,0.8,0.3c0.4,0,0.8-0.2,1.1-0.5
		l0.7-0.7c0,0.1,0,0.2,0,0.2c0,0,0,0,0,0c-0.1,0.4-0.1,0.7-0.1,1.1c0,0.4-0.1,0.8-0.1,1.1c0,0.2,0,0.3,0,0.5c0,0.3,0,0.7,0,1
		c0,0.3,0,0.7,0,1c0,0.2,0,0.3,0,0.5c0,0.4,0.1,0.8,0.1,1.1c0,0.4,0.1,0.7,0.1,1.1c0,0,0,0,0,0c0.7,5.3,2.9,10.3,5.2,13.4l0,0l0,0
		c2.3-2.9,4.4-7.7,5.3-12.8c0.3-1.4,0.4-2.9,0.4-4.4C32.2,18.5,32.1,17.1,31.8,15.6z"/>
	<g>
		<path fill="#FFFFFF" d="M32,32.4c0.7,0,1.4,0.2,2,0.5c0.6,0.3,1.3,0.4,2,0.4v-2.9c-0.7,0-1.4-0.2-2-0.4c-0.6-0.3-1.3-0.4-2-0.4
			c-0.2,0-0.3,0-0.5,0c-0.4,1.1-0.8,2.2-1.3,3.2C30.8,32.5,31.4,32.4,32,32.4z"/>
		<path fill="#FFFFFF" d="M20.1,30.3c-0.6,0-1.3-0.1-1.8-0.4l0.5,3.1c0.4,0.1,0.9,0.2,1.3,0.2c0.7,0,1.4-0.2,2-0.4
			c0.2-0.1,0.5-0.2,0.7-0.3c-0.4-0.8-0.7-1.7-1-2.6C21.2,30.2,20.7,30.3,20.1,30.3z"/>
		<path fill="#FFFFFF" d="M6.2,29.9c-0.6,0.3-1.3,0.4-2,0.4v2.9c0.7,0,1.4-0.2,2-0.4c0.2-0.1,0.3-0.1,0.5-0.2l0.5-3.1
			C6.8,29.6,6.5,29.7,6.2,29.9z"/>
		<path fill="#FFFFFF" d="M32.4,26.4c0.6,0,1.1,0.2,1.6,0.4c0.6,0.3,1.3,0.4,2,0.4v-2.9c-0.7,0-1.4-0.2-2-0.4
			c-0.3-0.2-0.7-0.3-1.1-0.3c0,0.3-0.1,0.7-0.1,1C32.7,25.2,32.6,25.8,32.4,26.4z"/>
		<path fill="#FFFFFF" d="M6.2,23.9c-0.6,0.3-1.3,0.4-2,0.4v2.9c0.7,0,1.4-0.2,2-0.4c0.5-0.2,1-0.4,1.5-0.4l0.5-3
			C7.5,23.4,6.8,23.6,6.2,23.9z"/>
		<path fill="#FFFFFF" d="M20.1,24.3c-0.7,0-1.4-0.2-2-0.4c-0.3-0.1-0.6-0.2-0.9-0.3l0.5,3.1c0.1,0.1,0.3,0.1,0.4,0.2
			c0.6,0.3,1.3,0.4,2,0.4c0.3,0,0.5,0,0.8-0.1c-0.2-1-0.4-1.9-0.6-2.9C20.3,24.3,20.2,24.3,20.1,24.3z"/>
	</g>
</g>
</svg>
