<?xml version="1.0" encoding="utf-8"?>
<!-- Generator: Adobe Illustrator 18.0.0, SVG Export Plug-In . SVG Version: 6.00 Build 0)  -->
<!DOCTYPE svg PUBLIC "-//W3C//DTD SVG 1.1//EN" "http://www.w3.org/Graphics/SVG/1.1/DTD/svg11.dtd">
<svg version="1.1" id="Layer_1" xmlns="http://www.w3.org/2000/svg" xmlns:xlink="http://www.w3.org/1999/xlink" x="0px" y="0px"
	 width="40px" height="40px" viewBox="0 0 40 40" enable-background="new 0 0 40 40" xml:space="preserve">
<g>
	<path fill="#00BCD4" d="M35.2,40c2.6,0,4.8-2.1,4.8-4.8V4.8C40,2.1,37.9,0,35.2,0H4.8C2.1,0,0,2.1,0,4.8v30.4C0,37.9,2.1,40,4.8,40
		H35.2z"/>
	<path fill="#FFFFFF" d="M18.7,33.6v-3.8L16.6,31l-1.1-0.6V29l3.2-1.8v-2.5l-2.3,1.5v-2.7l-2.2,1.3v3.6l-1.2,0.7l-1-0.7V26l-3.3,1.9
		l-1.4-0.6v-1.5l3.5-1.9l-2.2-1.1v-1.4l1.2-0.7l3.1,1.9l2.2-1.3l-0.1,0L12.7,20l2.2-1.3l-2.2-1.3l-3.1,1.8l-1.2-0.6v-1.4l2.1-1.2
		l-3.4-1.8v-1.5L8.5,12l3.3,1.9v-2.5l1-0.7l1.2,0.7l0,3.7l2.2,1.3l0-2.6l2.4,1.3v-2.5l-3.2-1.8V9.5l1.1-0.6l2.1,1.2V6.2l1.2-0.8
		l1.2,0.8V10l2.2-1.2l1.1,0.7v1.2l-3.3,1.9v2.5l2.2-1.4v2.7l2.3-1.3v-3.9l1.1-0.5l1.2,0.5v2.5l3.4-1.9l1.2,0.7v1.4L29.3,16l2.1,1.2
		v1.4l-1.1,0.6l-3.2-1.9l-2.2,1.4L27,20l-2.2,1.3l2.3,1.2l3.2-1.8l1,0.7v1.3l-2,1.1l3.2,1.9v1.5l-1.4,0.6L28,26.1v2.4l-1.1,0.6
		l-1.1-0.6v-3.6l-2.3-1.3v2.5l-2.2-1.4v2.5l3.2,1.8v1.4L23.3,31l-2.1-1.2v3.8l-1.2,0.8L18.7,33.6z M17.8,20l1.1,1.7h2.1l1-1.7
		l-1-1.8h-2.1L17.8,20z"/>
</g>
</svg>
