<?xml version="1.0" encoding="utf-8"?>
<!-- Generator: Adobe Illustrator 18.0.0, SVG Export Plug-In . SVG Version: 6.00 Build 0)  -->
<!DOCTYPE svg PUBLIC "-//W3C//DTD SVG 1.1//EN" "http://www.w3.org/Graphics/SVG/1.1/DTD/svg11.dtd">
<svg version="1.1" id="Layer_1" xmlns="http://www.w3.org/2000/svg" xmlns:xlink="http://www.w3.org/1999/xlink" x="0px" y="0px"
	 width="40px" height="40px" viewBox="0 0 40 40" enable-background="new 0 0 40 40" xml:space="preserve">
<path fill="currentColor" d="M35.2,40c2.6,0,4.8-2.1,4.8-4.8V4.8C40,2.1,37.9,0,35.2,0H4.8C2.1,0,0,2.1,0,4.8v30.5C0,37.9,2.1,40,4.8,40H35.2z"/>
<g>
	<path d="M7.6,19.5c-0.7,0-1.2,0.5-1.2,1.2s0.5,1.2,1.2,1.2s1.2-0.5,1.2-1.2S8.3,19.5,7.6,19.5z"/>
	<g>
		<path d="M24.2,9.5c1.4,0,2.6-1.2,2.6-2.6s-1.2-2.6-2.6-2.6s-2.6,1.2-2.6,2.6S22.7,9.5,24.2,9.5z"/>
		<path d="M35.3,32.5l-4.2-5l-1.3-7.7L29.6,19c0,0-0.5-2.4-0.9-4.3c0.7,0.4,1.2,0.7,1.3,0.7c0,0.1,2.2,4.2,2.2,4.2
			c0.2,0.3,0.4,0.5,0.8,0.6c0.3,0.1,0.7,0.1,1-0.1c0.3-0.2,0.5-0.4,0.6-0.8c0.1-0.3,0.1-0.7-0.1-1l-2.4-4.6c0,0-0.1-0.2-0.2-0.3
			c-0.2-0.2-0.6-0.4-0.6-0.4l-4.7-2.7C26,10,25.4,9.9,24.7,10c-0.3,0.1-0.5,0.2-0.8,0.3c0,0-1.1,0.5-1.7,1.9l-2.4,5.2
			c0,0-3.7,0.7-3.8,0.7h-0.1l-3.4-2.4c-0.8-0.5-0.9-2.1-0.9-2.2c0-1.1-0.7-2.1-1.7-2.8c-0.9-0.6-2-0.9-3-0.8
			C6.1,9.9,5.4,10.3,5,10.9c-0.3,0.5-0.5,1.1-0.5,1.7v0.5c0.2,1,0.8,2,1.7,2.6c0.9,0.7,2,0.9,3,0.8h0.2c0,0,1.5-0.5,2.3,0
			c0,0,2.6,1.8,3.2,2.3c-0.1,0.1-0.2,0.4-0.2,0.6c0,0.1,0,0.2,0,0.2c0.1,0.7,0.8,1.2,1.5,1l4.5-0.9c0,0,0.4-0.1,0.6-0.2
			c0.2-0.2,0.4-0.5,0.4-0.5l1.2-2.4c0,0,0.8,3.9,0.8,4c-0.1,0.1-3.7,3.9-3.7,3.9l-0.1,0.1c-0.4,0.3-0.6,0.8-0.6,1.2V34
			c0,0.9,0.7,1.6,1.6,1.6s1.6-0.7,1.6-1.6c0,0,0-6.7,0-6.8c0.3-0.3,3.1-3.3,3.9-4.1c0.1,0.5,0.8,4.6,0.8,4.6c0.1,0.4,0.2,0.7,0.5,1
			l5,5.9c0.3,0.3,0.7,0.5,1.1,0.6c0.4,0,0.8-0.1,1.1-0.4c0.4-0.3,0.6-0.8,0.6-1.2C35.6,33.2,35.5,32.8,35.3,32.5z M10.4,14.7
			c-0.3,0.4-0.7,0.6-1.2,0.7c-0.7,0.1-1.6-0.1-2.3-0.6s-1.2-1.2-1.3-2v-0.4c0-0.4,0.1-0.7,0.3-1c0.7-1,2.3-1,3.5-0.1
			C10.6,12.3,11,13.8,10.4,14.7z"/>
	</g>
</g>
</svg>
