<?xml version="1.0" encoding="utf-8"?>
<!-- Generator: Adobe Illustrator 18.0.0, SVG Export Plug-In . SVG Version: 6.00 Build 0)  -->
<!DOCTYPE svg PUBLIC "-//W3C//DTD SVG 1.1//EN" "http://www.w3.org/Graphics/SVG/1.1/DTD/svg11.dtd">
<svg version="1.1" id="Layer_1" xmlns="http://www.w3.org/2000/svg" xmlns:xlink="http://www.w3.org/1999/xlink" x="0px" y="0px"
	 width="40px" height="40px" viewBox="0 0 40 40" enable-background="new 0 0 40 40" xml:space="preserve">
<g>
	<path fill="#2196F3" d="M35.2,40c2.6,0,4.8-2.1,4.8-4.8V4.8C40,2.1,37.9,0,35.2,0H4.8C2.1,0,0,2.1,0,4.8v30.4C0,37.9,2.1,40,4.8,40
		H35.2z"/>
	<path fill="#FFFFFF" d="M36.2,33c-0.7,0-1.4-0.2-2-0.4c-0.6-0.3-1.3-0.4-2-0.4c-0.7,0-1.4,0.2-2,0.4c-0.6,0.3-1.3,0.4-2,0.4
		c-0.7,0-1.4-0.2-2-0.4c-0.6-0.3-1.3-0.4-2-0.4c-0.7,0-1.4,0.2-2,0.4c-0.6,0.3-1.3,0.4-2,0.4c-0.7,0-1.4-0.2-2-0.4
		c-0.6-0.3-1.3-0.4-2-0.4c-0.7,0-1.4,0.2-2,0.4c-0.6,0.3-1.3,0.4-2,0.4c-0.7,0-1.4-0.2-2-0.4c-0.6-0.3-1.3-0.4-2-0.4
		c-0.7,0-1.4,0.2-2,0.4c-0.6,0.3-1.3,0.4-2,0.4v-2.9c0.7,0,1.4-0.2,2-0.4c0.6-0.3,1.3-0.5,2-0.5c0.7,0,1.4,0.2,2,0.5
		c0.6,0.3,1.3,0.4,2,0.4c0.7,0,1.4-0.2,2-0.4c0.6-0.3,1.3-0.5,2-0.5c0.7,0,1.4,0.2,2,0.5c0.6,0.3,1.3,0.4,2,0.4c0.7,0,1.4-0.2,2-0.4
		c0.6-0.3,1.3-0.5,2-0.5c0.7,0,1.4,0.2,2,0.5c0.6,0.3,1.3,0.4,2,0.4c0.7,0,1.4-0.2,2-0.4c0.6-0.3,1.3-0.5,2-0.5c0.7,0,1.4,0.2,2,0.5
		c0.6,0.3,1.3,0.4,2,0.4V33z"/>
	<path fill="#FFFFFF" d="M31.6,24.7c2.1,0,3.8-1.7,3.8-3.8c0-2.1-1.7-3.8-3.8-3.8c-2.1,0-3.8,1.7-3.8,3.8
		C27.8,23,29.3,24.7,31.6,24.7z"/>
	<path fill="#FFFFFF" d="M9.6,26.8c0.3,0.1,0.6,0.2,0.8,0.3c0.6,0.3,1.3,0.4,2,0.4c0.7,0,1.4-0.2,2-0.4c0.6-0.3,1.3-0.5,2-0.5
		c0.7,0,1.4,0.2,2,0.5c0.6,0.3,1.3,0.4,2,0.4c0.7,0,1.4-0.2,2-0.4c0.6-0.3,1.3-0.5,2-0.5c0.7,0,1.4,0.2,2,0.5c0.6,0.3,1.3,0.4,2,0.4
		c0.5,0,1-0.1,1.5-0.2l-6.3-11.4l7.3-1.3c1.1-0.2,1.9-1.1,1.9-2.1c0-1.2-1-2.2-2.2-2.2c-0.1,0-0.2,0-0.2,0l-11.3,2.1
		c-0.8,0.2-1.8,1.3-1.2,2.8c0,0.1,0.1,0.1,0.1,0.2l3,5.3L9.6,26.8z"/>
</g>
</svg>
