<?xml version="1.0" encoding="utf-8"?>
<!-- Generator: Adobe Illustrator 18.0.0, SVG Export Plug-In . SVG Version: 6.00 Build 0)  -->
<!DOCTYPE svg PUBLIC "-//W3C//DTD SVG 1.1//EN" "http://www.w3.org/Graphics/SVG/1.1/DTD/svg11.dtd">
<svg version="1.1" id="Layer_1" xmlns="http://www.w3.org/2000/svg" xmlns:xlink="http://www.w3.org/1999/xlink" x="0px" y="0px"
	 width="40px" height="40px" viewBox="0 0 40 40" enable-background="new 0 0 40 40" xml:space="preserve">
<g>
	<path fill="#4CAF50" d="M35.2,40c2.6,0,4.8-2.1,4.8-4.8V4.8C40,2.1,37.9,0,35.2,0H4.8C2.1,0,0,2.1,0,4.8v30.5C0,37.9,2.1,40,4.8,40
		H35.2z"/>
	<rect x="12.5" y="6.3" fill="#FFFFFF" width="5.1" height="3.6"/>
	<path fill="#FFFFFF" d="M23.3,21.9c-0.5,0-0.9-0.4-0.9-0.9V11h7.7l3.2,13.7l0,0.9v6.1c0,0.5-0.4,0.8-0.8,0.8h-7.5
		c-0.5,0-0.8-0.4-0.8-0.8v-9.7H23.3"/>
	<path fill="#FFFFFF" d="M16.7,22c0.5,0,0.9-0.4,0.9-0.9V11H9.9L6.7,24.7l0,0.9v6.1c0,0.5,0.4,0.8,0.8,0.8H15c0.5,0,0.9-0.4,0.9-0.8
		V22H16.7"/>
	<rect x="18.7" y="11" fill="#FFFFFF" width="2.6" height="9.3"/>
	<rect x="22.5" y="6.3" fill="#FFFFFF" width="5.1" height="3.6"/>
</g>
</svg>
