<?xml version="1.0" encoding="utf-8"?>
<!-- Generator: Adobe Illustrator 18.0.0, SVG Export Plug-In . SVG Version: 6.00 Build 0)  -->
<!DOCTYPE svg PUBLIC "-//W3C//DTD SVG 1.1//EN" "http://www.w3.org/Graphics/SVG/1.1/DTD/svg11.dtd">
<svg version="1.1" id="Layer_1" xmlns="http://www.w3.org/2000/svg" xmlns:xlink="http://www.w3.org/1999/xlink" x="0px" y="0px"
	 width="40px" height="40px" viewBox="0 0 40 40" enable-background="new 0 0 40 40" xml:space="preserve">
<g>
	<path fill="#4CAF50" d="M35.2,40c2.6,0,4.8-2.1,4.8-4.8V4.8C40,2.1,37.9,0,35.2,0H4.8C2.1,0,0,2.1,0,4.8v30.4C0,37.9,2.1,40,4.8,40
		H35.2z"/>
	<path fill="#FFFFFF" d="M16.8,7.9c1.3,0,2.3-1,2.3-2.3c0-1.3-1-2.3-2.3-2.3c-1.3,0-2.3,1-2.3,2.3C14.5,6.9,15.6,7.9,16.8,7.9z"/>
	<path fill="#FFFFFF" d="M33.9,14.5l-2.4-0.5l-1.4,2.8c0.2,0.1,0.5,0.1,0.7,0.1C32.3,17,33.5,15.9,33.9,14.5z M4,19.3
		c0-1.9,1.5-3.4,3.4-3.4h7.1v-5.1c0-1.3,1-2.3,2.3-2.3c1.3,0,2.3,1,2.3,2.3v0.8l3.4,0.9c0.6,0.1,1,0.7,0.8,1.3
		c-0.1,0.6-0.7,1-1.3,0.8l-2.9-0.7v2h3.4l9.3-9.7l-0.3,2.5l4.6,3.1c0.8,0.4,1,1.4,0.6,2.2c-0.3,0.6-1,0.9-1.7,0.8l-0.4-0.1
		c-0.4,1.8-2.1,3.1-4,3.1c-0.4,0-0.8-0.1-1.1-0.1l-3.5,7.1v9.8c0,0.8-0.7,1.5-1.5,1.5c-0.8,0-1.5-0.7-1.5-1.5v-10h-7.7l-1.4,2.4
		l2.9,6.9c0.4,0.7,0.2,1.7-0.6,2.1c-0.7,0.4-1.7,0.2-2.1-0.6l-3.4-7.9v-2.5l-1.5,2.4v7.4c0,0.8-0.7,1.5-1.5,1.5
		c-0.8,0-1.5-0.7-1.5-1.5v-8.5l1.3-2v-6.7l-1.2,1.9v5.5H4V19.3z"/>
</g>
</svg>
