<?xml version="1.0" encoding="utf-8"?>
<!-- Generator: Adobe Illustrator 18.0.0, SVG Export Plug-In . SVG Version: 6.00 Build 0)  -->
<!DOCTYPE svg PUBLIC "-//W3C//DTD SVG 1.1//EN" "http://www.w3.org/Graphics/SVG/1.1/DTD/svg11.dtd">
<svg version="1.1" id="Layer_1" xmlns="http://www.w3.org/2000/svg" xmlns:xlink="http://www.w3.org/1999/xlink" x="0px" y="0px"
	 width="40px" height="40px" viewBox="0 0 40 40" enable-background="new 0 0 40 40" xml:space="preserve">
<path fill="currentColor" d="M35.2,40c2.6,0,4.8-2.1,4.8-4.8V4.8C40,2.1,37.9,0,35.2,0H4.8C2.1,0,0,2.1,0,4.8v30.5C0,37.9,2.1,40,4.8,40H35.2z"/>
<g>
	<circle cx="23.1" cy="9.3" r="2.7"/>
	<path d="M30.4,35.4l-4-12v-9.6c0-1.3-1.3-1.2-1.3-1.2h-4H20c0,0-0.2,0-0.7,0.3l-3,1.7l-3-3.1
		c-0.5-0.6-1.4-0.7-2-0.2s-0.6,1.4-0.1,2l4,4c0.3,0.3,0.6,0.5,1.1,0.5c0.3,0,0.6-0.1,0.8-0.3l2.6-1.4v7l-4,12.2
		c-0.3,1.1,0.3,2.2,1.4,2.4c1.1,0.3,2.2-0.3,2.4-1.4L23,25.8l3.5,10.5c0.3,1.1,1.4,1.7,2.4,1.4C30,37.5,30.7,36.5,30.4,35.4z"/>
	<g>
		<path d="M10.5,14.7c0.1,0.1,0.4,0.1,0.5,0l0,0c0.1-0.1,0.1-0.4,0-0.5l-0.8-0.8c-0.1-0.1-0.4-0.1-0.5,0l0,0
			c-0.1,0.1-0.1,0.4,0,0.5L10.5,14.7z"/>
	</g>
	<path d="M17.9,5.7l-4.6,5l0.6,0.6L19,6.9l3.4-3.1c0.1-0.2,0.2-0.4,0.2-0.6c0-0.5-0.4-0.9-0.9-0.9
		c-0.2,0-0.4,0.1-0.6,0.2L17.9,5.7z"/>
</g>
</svg>
