<?xml version="1.0" encoding="utf-8"?>
<!-- Generator: Adobe Illustrator 18.0.0, SVG Export Plug-In . SVG Version: 6.00 Build 0)  -->
<!DOCTYPE svg PUBLIC "-//W3C//DTD SVG 1.1//EN" "http://www.w3.org/Graphics/SVG/1.1/DTD/svg11.dtd">
<svg version="1.1" id="Layer_1" xmlns="http://www.w3.org/2000/svg" xmlns:xlink="http://www.w3.org/1999/xlink" x="0px" y="0px"
	 width="40px" height="40px" viewBox="0 0 40 40" enable-background="new 0 0 40 40" xml:space="preserve">
<g>
	<path fill="currentColor" d="M35.2,40c2.6,0,4.8-2.1,4.8-4.8V4.8C40,2.1,37.9,0,35.2,0H4.8C2.1,0,0,2.1,0,4.8v30.4C0,37.9,2.1,40,4.8,40
		H35.2z"/>
	<g>
		<g>
			<path d="M29.5,14V9.9h-0.4c-1.1,0-2.1,0.9-2.1,2.1c0,1.1,0.9,2.1,2.1,2.1H29.5z"/>
		</g>
		<path d="M26.3,13.1l-1.8-3.6c-0.4-0.7-1.2-1.2-2.1-1.2h-4.2c-0.4,0-0.7,0.3-0.7,0.7c0,0.4,0.3,0.7,0.7,0.7l4.2,0
			c0.3,0,0.7,0.2,0.9,0.6l1.2,2.3L26.3,13.1z"/>
		<path d="M34.6,16.9c0.5,0.2,0.9,0.7,0.9,1.3l-3,0c-4,0-7.3,3.3-7.3,7.3h-9.9c0-3.2-2.1-6-5-6.9l-5.5-1.8l0.9-1.4
			c0.3-0.5,0.9-0.8,1.5-0.8c0.1,0,0.3,0,0.4,0l12.2,3.8c0.1,0,0.3,0.1,0.5,0.1c0.5,0,1-0.3,1.3-0.7l2.8-4L34.6,16.9z"/>
		<path d="M26.5,26.7c0-2.7,2.2-4.9,5-4.9c2.7,0,4.9,2.2,4.9,4.9c0,2.7-2.2,4.9-4.9,4.9
			C28.7,31.6,26.5,29.4,26.5,26.7z M31.4,28.5c1,0,1.9-0.8,1.9-1.8c0-1-0.8-1.8-1.9-1.8c-1,0-1.8,0.8-1.8,1.8
			C29.6,27.7,30.4,28.5,31.4,28.5z"/>
		<path d="M3.2,26.2c0-3,2.4-5.4,5.4-5.4c3,0,5.4,2.4,5.4,5.4c0,3-2.4,5.4-5.4,5.4C5.6,31.6,3.2,29.2,3.2,26.2z
			 M8.6,28.2c1.1,0,2-0.9,2-2c0-1.1-0.9-2-2-2c-1.1,0-2,0.9-2,2C6.6,27.3,7.5,28.2,8.6,28.2z"/>
	</g>
</g>
</svg>
