<?xml version="1.0" encoding="utf-8"?>
<!-- Generator: Adobe Illustrator 18.0.0, SVG Export Plug-In . SVG Version: 6.00 Build 0)  -->
<!DOCTYPE svg PUBLIC "-//W3C//DTD SVG 1.1//EN" "http://www.w3.org/Graphics/SVG/1.1/DTD/svg11.dtd">
<svg version="1.1" id="Layer_1" xmlns="http://www.w3.org/2000/svg" xmlns:xlink="http://www.w3.org/1999/xlink" x="0px" y="0px"
	 width="40px" height="40px" viewBox="0 0 40 40" enable-background="new 0 0 40 40" xml:space="preserve">
<g>
	<path fill="currentColor" d="M35.2,40c2.6,0,4.8-2.1,4.8-4.8V4.8C40,2.1,37.9,0,35.2,0H4.8C2.1,0,0,2.1,0,4.8v30.4C0,37.9,2.1,40,4.8,40
		H35.2z"/>
	<path d="M23,25c0.7,0,1.3-0.6,1.3-1.3c0-0.7-0.6-1.3-1.3-1.3c-0.7,0-1.3,0.6-1.3,1.3C21.7,24.4,22.3,25,23,25z
		 M35.9,34.4C28.2,34.5,20.2,33,14,28.1l0,0c0,0-0.1-0.1-0.1-0.1c0-0.1,0.1-0.2,0.2-0.2l6.1,0c0.3,0,0.5-0.2,0.5-0.5
		c0-0.2-0.1-0.4-0.3-0.5l-5.5-2.6c-0.1-0.1-0.2-0.2-0.2-0.3c0-0.1,0-0.2,0.1-0.3l0,0c0,0,6.7-5.9,21.1-5.8V34.4z"/>
	<path d="M33,4.9c-4.8,0.1-9.4,2.1-14.6,6.4c-0.2-0.1-0.6-0.2-0.6-0.2c-0.8,0-1.5,0.7-1.5,1.5c0,0,0.1,0.3,0.1,0.5
		c-0.2,0.1-4.2,4-4.2,4l-3.6,3.4c-0.3,0.3-0.8,0.5-1.2,0.4c-0.5,0-0.9-0.2-1.2-0.6c-0.3-0.3-0.4-0.7-0.4-1.1c0-0.5,0.2-0.9,0.6-1.3
		c0,0,0.3-0.2,0.5-0.3c0,0.3,0.2,1.2,0.2,1.2l2.9-3.7l-3.2,1.1C5.7,16.5,5.4,17,5.3,17c-1.2,1.1-1.3,2.9-0.2,4.2
		c1.1,1.2,3,1.3,4.2,0.2l0,0l3.4-3.2c0,0,4.2-4,4.3-4.1c0.2,0.1,0.6,0.2,0.6,0.2c0.8,0,1.5-0.7,1.5-1.5c0,0,0-0.2-0.1-0.4
		c5.1-4.2,9.5-6.1,13.9-6.2c0.9,0,1.6,0.1,2.8,0.4l0.2,0.1V5.3l-0.2,0C34.7,5,33.9,4.9,33,4.9z"/>
</g>
</svg>
