<?xml version="1.0" encoding="utf-8"?>
<!-- Generator: Adobe Illustrator 18.0.0, SVG Export Plug-In . SVG Version: 6.00 Build 0)  -->
<!DOCTYPE svg PUBLIC "-//W3C//DTD SVG 1.1//EN" "http://www.w3.org/Graphics/SVG/1.1/DTD/svg11.dtd">
<svg version="1.1" id="Layer_1" xmlns="http://www.w3.org/2000/svg" xmlns:xlink="http://www.w3.org/1999/xlink" x="0px" y="0px"
	 width="40px" height="40px" viewBox="0 0 40 40" enable-background="new 0 0 40 40" xml:space="preserve">
<g>
	<path d="M4.8,0.8c-2.2,0-4,1.8-4,4v30.4c0,2.2,1.8,4,4,4h30.4c2.2,0,4-1.8,4-4V4.8c0-2.2-1.8-4-4-4H4.8z"/>
	<path fill="currentColor" d="M35.2,40c2.6,0,4.8-2.1,4.8-4.8V4.8C40,2.1,37.9,0,35.2,0H4.8C2.1,0,0,2.1,0,4.8v30.4C0,37.9,2.1,40,4.8,40
		H35.2z"/>
	<polygon points="22.9,17 6.2,9 6.2,7.4 23.5,15.7 	"/>
	<path d="M17.2,25.7h7.3v6.5c0,1.1,0.9,1.9,1.9,1.9l0,0c1.1,0,1.9-0.9,1.9-1.9v-6.5c0.6,0,0.6-0.4,0.6-0.8V20l-6.1-3
		h-13l-1.7-0.9C7.7,15.8,7,16,6.7,16.5l0,0C6.4,17,6.6,17.7,7.2,18l2.6,1.5v12.7c0,1.1,0.9,1.9,1.9,1.9l0,0c1.1,0,1.9-0.9,1.9-1.9
		l0-5l3.5,5.9c0.5,0.9,1.7,1.2,2.7,0.7l0,0c0.9-0.5,1.2-1.7,0.7-2.7L17.2,25.7z"/>
	<polygon points="23.5,15.7 29,18.3 29,17.3 33.5,17.3 35.2,13.7 23.5,8.2 	"/>
</g>
</svg>
