<?xml version="1.0" encoding="utf-8"?>
<!-- Generator: Adobe Illustrator 18.0.0, SVG Export Plug-In . SVG Version: 6.00 Build 0)  -->
<!DOCTYPE svg PUBLIC "-//W3C//DTD SVG 1.1//EN" "http://www.w3.org/Graphics/SVG/1.1/DTD/svg11.dtd">
<svg version="1.1" id="Layer_1" xmlns="http://www.w3.org/2000/svg" xmlns:xlink="http://www.w3.org/1999/xlink" x="0px" y="0px"
	 width="40px" height="40px" viewBox="0 0 40 40" enable-background="new 0 0 40 40" xml:space="preserve">
<path fill="currentColor" d="M35.2,40c2.6,0,4.8-2.1,4.8-4.8V4.8C40,2.1,37.9,0,35.2,0H4.8C2.1,0,0,2.1,0,4.8v30.4C0,37.9,2.1,40,4.8,40H35.2z"/>
<g>
	<polygon points="7.4,35 35.8,35 35.8,32 10.3,32 10.3,19.7 35.8,8.1 35.8,5.1 4.2,19.4 4.2,22.3 7.4,21 	"/>
	<path d="M28.7,18.9v1.6h-2.6l1.5,3.8h3.9v1.6h-3.3l1.8,4.4h-1.8l-1.8-4.4h-5.8l-1.8,4.4h-1.9l1.8-4.4h-3.3v-1.6h3.9
		l1.5-3.8h-2.6v-1.6H28.7z M25.7,24.2l-1.5-3.7h-1.5l-1.5,3.7H25.7z"/>
</g>
</svg>
