<?xml version="1.0" encoding="utf-8"?>
<!-- Generator: Adobe Illustrator 18.0.0, SVG Export Plug-In . SVG Version: 6.00 Build 0)  -->
<!DOCTYPE svg PUBLIC "-//W3C//DTD SVG 1.1//EN" "http://www.w3.org/Graphics/SVG/1.1/DTD/svg11.dtd">
<svg version="1.1" id="Layer_1" xmlns="http://www.w3.org/2000/svg" xmlns:xlink="http://www.w3.org/1999/xlink" x="0px" y="0px"
	 width="40px" height="40px" viewBox="0 0 40 40" enable-background="new 0 0 40 40" xml:space="preserve">
<g>
	<path fill="currentColor" d="M35.2,40c2.6,0,4.8-2.1,4.8-4.8V4.8C40,2.1,37.9,0,35.2,0H4.8C2.1,0,0,2.1,0,4.8v30.4C0,37.9,2.1,40,4.8,40
		H35.2z"/>
	<path d="M31.9,24c-0.7,0-1.4,0.2-2,0.5c-0.6,0.3-1.3,0.4-2,0.4c-0.7,0-1.4-0.2-2-0.4c-0.6-0.3-1.3-0.5-2-0.5
		c-0.7,0-1.4,0.2-2,0.5c-0.6,0.3-1.3,0.4-2,0.4c-0.7,0-1.4-0.2-2-0.4c-0.6-0.3-1.3-0.5-2-0.5c-0.7,0-1.4,0.2-2,0.5
		c-0.6,0.3-1.3,0.4-2,0.4c-0.7,0-1.4-0.2-2-0.4c-0.6-0.3-1.3-0.5-2-0.5c-0.7,0-1.4,0.2-2,0.5c-0.6,0.3-1.3,0.4-2,0.4v2.9
		c0.7,0,1.4-0.2,2-0.4c0.6-0.3,1.3-0.5,2-0.5c0.7,0,1.4,0.2,2,0.5c0.5,0.2,1.1,0.3,1.6,0.4l-2.4,2.4c-0.8-0.5-1.8-0.4-2.5,0.3
		L4,33.3c-0.8,0.8-0.8,2,0,2.8c0.8,0.8,2,0.8,2.8,0l2.8-2.8c0.6-0.6,0.7-1.6,0.3-2.3l3.4-3.4c0.2-0.1,0.4-0.1,0.7-0.2
		c0.6-0.3,1.3-0.5,2-0.5c0.7,0,1.4,0.2,2,0.5c0.6,0.3,1.3,0.4,2,0.4c0.7,0,1.4-0.2,2-0.4c0.6-0.3,1.3-0.5,2-0.5c0.7,0,1.4,0.2,2,0.5
		c0.6,0.3,1.3,0.4,2,0.4c0.7,0,1.4-0.2,2-0.4c0.6-0.3,1.3-0.5,2-0.5c0.7,0,1.4,0.2,2,0.5c0.6,0.3,1.3,0.4,2,0.4v-2.9
		c-0.7,0-1.4-0.2-2-0.4C33.3,24.2,32.6,24,31.9,24z"/>
	<path d="M33.3,9.7L36,6.9c0.8-0.8,0.8-2,0-2.8c-0.8-0.8-2-0.8-2.8,0l-2.8,2.8c-0.7,0.7-0.8,1.7-0.3,2.5l-3.5,3.5
		l-6.9-2.6c-0.2-0.1-0.4-0.2-0.6-0.3c-1.5-0.5-3.1,0.4-3.5,1.9L13.6,19c0,0.1,0,0.2,0,0.2H4.1V23c0.5,0,1-0.1,1.5-0.3
		c0.8-0.4,1.6-0.5,2.5-0.5c0.8,0,1.7,0.2,2.4,0.5c0.5,0.2,1,0.3,1.5,0.3c0.5,0,1-0.1,1.5-0.3c0.8-0.4,1.6-0.5,2.5-0.5
		c0.8,0,1.7,0.2,2.4,0.5c0.5,0.2,1,0.3,1.5,0.3c0.5,0,1-0.1,1.5-0.3c0.8-0.4,1.6-0.5,2.4-0.5c0.9,0,1.7,0.2,2.4,0.5
		c0.5,0.2,1,0.3,1.5,0.3c0.5,0,1-0.1,1.5-0.3c0.8-0.4,1.6-0.5,2.5-0.5c0.1,0,0.7,0,1.3-0.3c1-0.4,1.4-0.7,2.3-1.2
		c0.7-0.4,1.3-1.4-0.3-1.4c-0.4,0-13.5,0-13.5,0l4-4l0.5,0.2c0.7,0.2,1.4-0.1,1.7-0.8c0.2-0.5,0-1-0.3-1.4l3.3-3.3
		C31.7,10.4,32.6,10.3,33.3,9.7z M20.3,19.2h-0.9l1.7-5.7l3.5,1.3L20.3,19.2z"/>
	<path d="M20.3,6.5l-0.4,0.8c-0.2,0.5-0.7,0.8-1.3,0.8h-0.9C18.2,8.8,19,9.2,20,9.2c1.5,0,2.7-1.2,2.7-2.7V6.4h-2.3
		C20.3,6.4,20.3,6.5,20.3,6.5z"/>
	<path d="M18.6,7.4c0.3,0,0.6-0.2,0.7-0.4l0.4-0.8c0.1-0.3,0.4-0.5,0.8-0.5h2.8c-0.4-1.4-1.7-2.5-3.2-2.5
		c-1.8,0-3.3,1.5-3.3,3.3c0,0.3,0,0.6,0.1,0.9H18.6z"/>
</g>
</svg>
