<?xml version="1.0" encoding="utf-8"?>
<!-- Generator: Adobe Illustrator 18.0.0, SVG Export Plug-In . SVG Version: 6.00 Build 0)  -->
<!DOCTYPE svg PUBLIC "-//W3C//DTD SVG 1.1//EN" "http://www.w3.org/Graphics/SVG/1.1/DTD/svg11.dtd">
<svg version="1.1" id="Layer_1" xmlns="http://www.w3.org/2000/svg" xmlns:xlink="http://www.w3.org/1999/xlink" x="0px" y="0px"
	 width="40px" height="40px" viewBox="0 0 40 40" enable-background="new 0 0 40 40" xml:space="preserve">
<path fill="currentColor" d="M35.2,40c2.6,0,4.8-2.1,4.8-4.8V4.8C40,2.1,37.9,0,35.2,0H4.8C2.1,0,0,2.1,0,4.8v30.5C0,37.9,2.1,40,4.8,40H35.2z"/>
<g>
	<path d="M3.5,36.8l9.3-12.4H7l8.6-10.3h-5.1l9.6-11l9.6,11h-5.2l8.6,10.3h-5.8l9.2,12.4H26v-5.1h2.8L20,20.1
		l-8.8,11.6H14v5.1H3.5z M21.5,31.8h-3v5.1h3V31.8z"/>
</g>
</svg>
