<?xml version="1.0" encoding="utf-8"?>
<!-- Generator: Adobe Illustrator 18.0.0, SVG Export Plug-In . SVG Version: 6.00 Build 0)  -->
<!DOCTYPE svg PUBLIC "-//W3C//DTD SVG 1.1//EN" "http://www.w3.org/Graphics/SVG/1.1/DTD/svg11.dtd">
<svg version="1.1" id="Layer_1" xmlns="http://www.w3.org/2000/svg" xmlns:xlink="http://www.w3.org/1999/xlink" x="0px" y="0px"
	 width="40px" height="40px" viewBox="0 0 40 40" enable-background="new 0 0 40 40" xml:space="preserve">
<g>
	<path fill="#4CAF50" d="M35.2,40c2.6,0,4.8-2.1,4.8-4.8V4.8C40,2.1,37.9,0,35.2,0H4.8C2.1,0,0,2.1,0,4.8v30.4C0,37.9,2.1,40,4.8,40
		H35.2z"/>
	<path fill="#FFFFFF" d="M20.4,8.5c1.5,0,2.7-1.3,2.7-2.8C23,4.1,21.8,3,20.2,3c-1.5,0-2.7,1.3-2.7,2.8C17.6,7.3,18.9,8.5,20.4,8.5z
		"/>
	<path fill="#FFFFFF" d="M29.8,17.6l-4-2.2l-3.3-5.2C21.8,9.6,21,9.1,20,9.1c-0.7,0-1.4,0.3-1.9,0.8l-5,5c-0.2,0.2-0.3,0.4-0.3,0.6
		l-0.6,5.5c0,0.1,0,0.1,0,0.2c0,0.7,0.6,1.2,1.3,1.2c0.6,0,1.1-0.6,1.2-1.2l0.5-4.8l1.8-1.7l-1.6,13.3l-2.9,6.3
		c-0.1,0.2-0.2,0.5-0.2,0.8c0,1,0.9,1.8,1.9,1.8c0.7,0,1.3-0.5,1.6-1.1l3.1-6.8c0.1-0.2,0.3-0.6,0.3-0.8l0.4-3.3l3.2,10.7
		c0.3,0.7,1,1.3,1.8,1.3c1,0,1.8-0.9,1.8-1.9c0-0.1,0-0.2-0.1-0.4L22,19.9l0.6-4.8l1.3,1.9c0.1,0.1,0.2,0.2,0.3,0.3l4.4,2.4
		c0.2,0.1,0.4,0.1,0.6,0.1c0.7,0,1.2-0.6,1.2-1.3C30.3,18.2,30.1,17.8,29.8,17.6z"/>
</g>
</svg>
