<?xml version="1.0" encoding="utf-8"?>
<!-- Generator: Adobe Illustrator 18.0.0, SVG Export Plug-In . SVG Version: 6.00 Build 0)  -->
<!DOCTYPE svg PUBLIC "-//W3C//DTD SVG 1.1//EN" "http://www.w3.org/Graphics/SVG/1.1/DTD/svg11.dtd">
<svg version="1.1" id="Layer_1" xmlns="http://www.w3.org/2000/svg" xmlns:xlink="http://www.w3.org/1999/xlink" x="0px" y="0px"
	 width="40px" height="40px" viewBox="0 0 40 40" enable-background="new 0 0 40 40" xml:space="preserve">
<path fill="currentColor" d="M35.2,40c2.6,0,4.8-2.1,4.8-4.8V4.8C40,2.1,37.9,0,35.2,0H4.8C2.1,0,0,2.1,0,4.8v30.5C0,37.9,2.1,40,4.8,40H35.2z"/>
<g>
	<rect x="17.3" y="16.5" fill="none" width="5.1" height="13.1"/>
	<rect x="25.5" y="16.5" fill="none" width="4.6" height="13.1"/>
	<rect x="9.7" y="16.5" fill="none" width="4.6" height="13.1"/>
	<path d="M5.4,29.6l-1.9,3.1h33.1l-1.8-3.2H33v-13h3.2v-4.6h-2.4L20.2,7.3L6.3,11.9H3.8v4.6h3v13.1H5.4z M17.4,16.5
		h5.1v13.1h-5.1V16.5z M25.5,16.5h4.6v13.1h-4.6V16.5z M14.4,16.5v13.1H9.8V16.5H14.4z"/>
</g>
</svg>
