<svg xmlns="http://www.w3.org/2000/svg" xmlns:xlink="http://www.w3.org/1999/xlink" x="0px" y="0px"
	 width="552px" height="189px" viewBox="0 0 552 189" enable-background="new 0 0 552 189" xml:space="preserve">
<g>
	<path fill="#EEEFF3" d="M361.4,80.2c-1.5-1.3-3.8-2.2-6.8-2.2H350v14h4.6c1.6,0,3,0.8,4.2,0.3c1.1-0.4,2.1-0.5,2.8-1.2
		c0.7-0.7,1.3-1.3,1.6-2.3c0.3-1,0.5-2.1,0.5-3.2C363.6,83.3,362.9,81.5,361.4,80.2z"/>
	<path fill="#EEEFF3" d="M158.2,84.3c-0.4-1.2-0.8-2.5-1.2-3.9c-0.4,1.4-0.7,2.8-1.1,4c-0.4,1.2-0.8,2-1.1,2.9L150,101h14.1
		l-4.8-13.8C159,86.3,158.6,85.5,158.2,84.3z"/>
	<path fill="#EEEFF3" d="M308.9,84.3c-0.4-1.2-0.8-2.5-1.2-3.9c-0.4,1.4-0.7,2.8-1.1,4c-0.4,1.2-0.8,2-1.1,2.9l-4.7,13.8h14.1
		L310,87.2C309.7,86.3,309.3,85.5,308.9,84.3z"/>
	<path fill="#EEEFF3" d="M271,80.8c-0.7-0.7-1.6-1.6-2.7-1.9c-1.1-0.4-2.4-0.9-3.9-0.9H260v17h4.4c3.1,0,5.3-0.7,6.7-2.2
		c1.4-1.5,2.1-3.6,2.1-6.2c0-1.2-0.2-2.3-0.5-3.2C272.3,82.4,271.8,81.5,271,80.8z"/>
	<path fill="#EEEFF3" d="M0,0v189h552V0H0z M123.9,118.4c-3.1,1.4-6.8,2.1-11.1,2.1c-3.9,0-7.4-0.7-10.5-2c-3.1-1.3-5.7-3.2-7.9-5.5
		c-2.2-2.3-3.8-5.1-5-8.3c-1.2-3.2-1.7-6.7-1.7-10.5c0-3.8,0.6-7.4,1.9-10.6c1.2-3.2,3-6,5.3-8.3s5-4.1,8.1-5.4
		c3.2-1.3,6.6-1.9,10.4-1.9c1.9,0,3.8,0.2,5.5,0.5c1.7,0.3,3.3,0.8,4.8,1.4c1.5,0.6,2.9,1.3,4.1,2.2c1.2,0.8,2.4,1.8,3.3,2.8l-4,5.4
		c-0.3,0.3-0.6,0.6-0.9,0.9c-0.4,0.3-0.8,0.4-1.5,0.4c-0.4,0-0.8-0.1-1.2-0.3c-0.4-0.2-0.8-0.4-1.2-0.7c-0.4-0.3-0.9-0.6-1.4-0.9
		s-1.1-0.6-1.8-0.9c-0.7-0.3-1.5-0.5-2.4-0.7c-0.9-0.2-2-0.3-3.3-0.3c-2,0-3.8,0.4-5.4,1.1c-1.6,0.7-3.1,1.8-4.2,3.2
		c-1.2,1.4-2.1,3.1-2.8,5.2c-0.6,2-1,4.4-1,7c0,2.6,0.4,5,1.1,7c0.7,2,1.7,3.8,2.9,5.2c1.2,1.4,2.7,2.5,4.3,3.2
		c1.6,0.7,3.4,1.1,5.3,1.1c1.1,0,2.1-0.1,3-0.2c0.9-0.1,1.7-0.3,2.5-0.5c0.8-0.2,1.5-0.6,2.2-1c0.7-0.4,1.4-0.9,2.1-1.6
		c0.3-0.2,0.6-0.4,0.9-0.6c0.3-0.2,0.7-0.2,1-0.2c0.3,0,0.6,0.1,0.8,0.2c0.3,0.1,0.6,0.3,0.8,0.5l4.7,5
		C129.6,115,127,117,123.9,118.4z M173.8,120c-1,0-1.9-0.3-2.5-0.8c-0.6-0.5-1.1-1.3-1.4-2.1l-3-9.2h-19.6l-3,9.2
		c-0.3,0.7-0.7,1.4-1.4,1.9c-0.7,0.5-1.5,0.9-2.5,0.9H131l19.9-51h12.2l19.9,51H173.8z M219,120h-32V69h10v42h22V120z M237,120h-14
		V69h14V120z M273.6,102.1c-2.6,0.9-5.7,1.9-9.2,1.9H260v16h-12V69h16.4c3.6,0,6.7,0.1,9.3,1c2.6,0.9,4.7,1.9,6.4,3.4
		c1.7,1.5,2.9,3.2,3.7,5.3c0.8,2,1.2,4.2,1.2,6.6c0,2.6-0.4,4.9-1.2,7.1c-0.8,2.1-2.1,4.3-3.8,5.8
		C278.4,99.7,276.3,101.2,273.6,102.1z M324.5,120c-1,0-1.9-0.3-2.5-0.8c-0.6-0.5-1.1-1.3-1.4-2.1l-3-9.2h-19.6l-3,9.2
		c-0.3,0.7-0.7,1.4-1.4,1.9c-0.7,0.5-1.5,0.9-2.5,0.9h-9.3l19.9-51h12.2l19.9,51H324.5z M369.2,120c-2,0-3.4-0.8-4.3-2.3l-8.6-15
		c-0.4-0.6-0.8-1.5-1.3-1.8s-1.2-0.9-2.1-0.9H350v20h-10V69h14.6c3.7,0,6.9,0.1,9.5,0.9c2.6,0.8,4.8,1.7,6.4,3.1
		c1.7,1.4,2.9,2.9,3.6,4.8c0.8,1.9,1.1,3.9,1.1,6c0,1.7-0.2,3.2-0.7,4.7c-0.4,1.5-1.1,2.8-2,4.1c-0.9,1.3-1.9,2.4-3.2,3.4
		c-1.3,1-2.8,1.8-4.4,2.4c0.8,0.4,1.5,0.9,2.2,1.5c0.7,0.6,1.3,1.4,1.8,2.2l11,18H369.2z M419.7,120c-0.7,0-1.3-0.1-1.7-0.2
		c-0.5-0.1-0.9-0.3-1.3-0.4c-0.4-0.2-0.7-0.4-0.9-0.7c-0.3-0.3-0.5-0.6-0.7-0.9l-11.7-17.9c-0.4-0.7-1-1.6-1.6-1.9
		c-0.6-0.3-1.5-0.9-2.6-0.9H395v23h-11V69h11v20h3.2c1.8,0,3-0.4,3.8-1.5l11.6-16.8c0.7-0.9,1.4-1.2,2.2-1.5c0.8-0.3,1.8-0.2,3-0.2
		h10.4l-15.3,20.5c-1.1,1.4-2.3,2.3-3.5,3c0.9,0.3,1.7,0.7,2.4,1.3c0.7,0.6,1.4,1.4,2.1,2.3l15.5,23.9H419.7z M465.1,110.1
		c-0.8,2.1-2,3.9-3.6,5.4c-1.6,1.5-3.5,2.8-5.8,3.6c-2.3,0.9-4.9,1.3-7.8,1.3c-1.6,0-3.2-0.2-4.9-0.5c-1.7-0.3-3.3-0.8-4.8-1.4
		c-1.6-0.6-3-1.3-4.4-2.1c-1.4-0.8-2.6-1.7-3.6-2.8l3.5-5.6c0.3-0.4,0.7-0.7,1.1-1c0.5-0.3,1-0.4,1.5-0.4c0.7,0,1.4,0.2,2.1,0.7
		c0.7,0.4,1.5,0.9,2.4,1.5c0.9,0.5,1.9,1,3.1,1.5c1.2,0.4,2.6,0.7,4.2,0.7c2.2,0,3.9-0.5,5.1-1.4c1.2-1,1.8-2.5,1.8-4.5
		c0-1.2-0.3-2.2-1-2.9c-0.7-0.8-1.5-1.4-2.6-1.9c-1.1-0.5-2.3-0.9-3.7-1.3c-1.4-0.4-2.8-0.8-4.2-1.3c-1.4-0.5-2.8-1-4.2-1.7
		c-1.4-0.7-2.6-1.6-3.7-2.7c-1.1-1.1-1.9-2.5-2.6-4.1c-0.7-1.6-1-3.7-1-6.1c0-1.9,0.4-3.8,1.2-5.7c0.8-1.8,1.9-3.5,3.4-4.9
		c1.5-1.4,3.4-2.6,5.5-3.4c2.2-0.9,4.7-1.3,7.5-1.3c1.6,0,3.1,0.1,4.6,0.4c1.5,0.2,2.9,0.6,4.3,1.1c1.3,0.5,2.6,1.1,3.8,1.7
		c1.2,0.7,2.2,1.4,3.1,2.3l-3,5.5c-0.4,0.6-0.7,1-1.1,1.3c-0.4,0.3-0.9,0.4-1.5,0.4c-0.5,0-1.1-0.2-1.7-0.5
		c-0.6-0.3-1.3-0.7-2.1-1.1c-0.8-0.4-1.7-0.8-2.7-1.1c-1-0.3-2.2-0.5-3.5-0.5c-2.2,0-3.9,0.5-5,1.4c-1.1,1-1.6,2.2-1.6,3.9
		c0,1,0.3,1.9,1,2.6c0.7,0.7,1.5,1.3,2.6,1.8s2.3,0.9,3.7,1.4c1.4,0.4,2.8,0.9,4.2,1.4c1.4,0.5,2.8,1.1,4.2,1.8
		c1.4,0.7,2.6,1.6,3.7,2.6c1.1,1.1,1.9,2.4,2.6,3.9c0.7,1.5,1,3.4,1,5.5C466.4,105.8,466,108,465.1,110.1z"/>
</g>
</svg>
