<svg xmlns="http://www.w3.org/2000/svg" xmlns:xlink="http://www.w3.org/1999/xlink" x="0px" y="0px"
   width="21.8px" height="21.8px" viewBox="0 0 21.8 21.8" enable-background="new 0 0 21.8 21.8" xml:space="preserve">
<path fill="#EEEFF2" d="M19.3,2.5c-3.3-3.3-8.7-3.3-12,0C4.6,5.2,4.1,9.3,5.8,12.5l-5.2,5.2c-0.9,0.9-0.9,2.4,0,3.3l0.1,0.1
  c0.9,0.9,2.4,0.9,3.3,0l5.2-5.2c3.2,1.7,7.3,1.3,10.1-1.5C22.6,11.2,22.6,5.8,19.3,2.5z M16.8,12c-2,2-5.1,2-7.1,0c-2-2-2-5.1,0-7.1
  s5.1-2,7.1,0C18.8,6.9,18.8,10.1,16.8,12z"/>
</svg>
