<svg xmlns="http://www.w3.org/2000/svg" xmlns:xlink="http://www.w3.org/1999/xlink" x="0px" y="0px"
   width="28.7px" height="29.3px" viewBox="0 0 28.7 29.3" enable-background="new 0 0 28.7 29.3" xml:space="preserve">
<g>
  <g>
    <circle fill="#EEEFF2" cx="14.3" cy="14.6" r="6.6"/>
    <path fill="#EEEFF2" d="M28.7,14.1h-4.8C23.7,9,19.7,5,14.6,4.8V0h-0.9v4.8C8.7,5,4.7,9,4.5,14.1H0v0.8h4.5
      c0.2,5.1,4.2,9.1,9.3,9.3v5.1h0.9v-5.1c5.1-0.2,9-4.2,9.3-9.3h4.8V14.1z M14.2,23.4c-4.9,0-8.9-4-8.9-8.9s4-8.9,8.9-8.9
      s8.9,4,8.9,8.9S19.1,23.4,14.2,23.4z"/>
  </g>
</g>
</svg>