<?xml version="1.0" encoding="utf-8"?>
<!-- Generator: Adobe Illustrator 19.1.0, SVG Export Plug-In . SVG Version: 6.00 Build 0)  -->
<svg version="1.1" id="Layer_1" xmlns="http://www.w3.org/2000/svg" xmlns:xlink="http://www.w3.org/1999/xlink" x="0px" y="0px"
	 viewBox="0 0 30 30" style="enable-background:new 0 0 30 30;" xml:space="preserve">
<style type="text/css">
	.st0{fill:#33322E;}
	.st1{fill:#FFFFFF;}
</style>
<rect class="st0" width="30" height="30"/>
<g>
	<path class="st1" d="M23,15c0,2,0,4.1,0,6.1c0,0.2,0,0.5-0.1,0.7c-0.3,0.6-0.8,1-1.4,1.1c-0.1,0-0.2,0-0.3,0c-1.1,0-2.3,0-3.4,0
		c-3,0-5.9,0-8.9,0c-0.3,0-0.5,0-0.7-0.1c-0.6-0.3-1-0.8-1.1-1.5c0-0.1,0-0.2,0-0.3c0-3.7,0-7.3,0-11c0-0.4,0-0.8,0-1.2
		C7,8.4,7.2,8,7.5,7.6C7.8,7.3,8.2,7.1,8.6,7c0.1,0,0.2,0,0.3,0C13,7,17,7,21.1,7c0.8,0,1.4,0.5,1.7,1.1C23,8.4,23,8.6,23,8.8
		C23,10.9,23,12.9,23,15z M8.9,13.8c0,0.1,0,0.1,0,0.2c0,2.2,0,4.3,0,6.5c0,0,0,0.1,0,0.1c0,0.4,0.3,0.6,0.6,0.6c0,0,0.1,0,0.1,0
		c3.6,0,7.2,0,10.8,0c0,0,0.1,0,0.1,0c0.3,0,0.6-0.3,0.6-0.6c0,0,0-0.1,0-0.1c0-2.2,0-4.3,0-6.5c0,0,0-0.1,0-0.1c0,0,0,0,0-0.1
		c0,0,0,0,0,0c-0.4,0-0.9,0-1.3,0c0,0,0,0-0.1,0c0.3,1,0.2,2-0.2,3c-0.4,1-1,1.8-1.9,2.3c-1.6,1-3.6,1.1-5.2,0.1
		c-0.2-0.1-0.4-0.3-0.7-0.5c-0.2-0.2-0.4-0.4-0.6-0.5c-0.2-0.2-0.3-0.4-0.5-0.6c-0.1-0.2-0.3-0.5-0.4-0.7c-0.1-0.2-0.2-0.5-0.2-0.8
		c-0.1-0.3-0.1-0.5-0.1-0.8c0-0.3,0-0.5,0-0.8c0-0.3,0.1-0.5,0.1-0.8c0,0,0,0-0.1,0C9.7,13.8,9.3,13.8,8.9,13.8z M18.1,15
		c0-1.7-1.3-3.1-3.1-3.1c-1.7,0-3.1,1.4-3.1,3.1c0,1.7,1.4,3.1,3.1,3.1C16.7,18.1,18.1,16.7,18.1,15z M21.2,10.4L21.2,10.4
		c0-0.2,0-0.3,0-0.5c0-0.2,0-0.3,0-0.5c0-0.2-0.1-0.5-0.4-0.6c-0.1,0-0.2,0-0.2,0c-0.5,0-0.9,0-1.4,0c-0.2,0-0.3,0-0.5,0
		c-0.3,0-0.5,0.2-0.6,0.5c0,0.1,0,0.1,0,0.2c0,0.6,0,1.1,0,1.7c0,0,0,0.1,0,0.1c0,0.3,0.2,0.5,0.4,0.6c0.1,0,0.2,0,0.2,0
		c0.6,0,1.2,0,1.8,0c0,0,0,0,0.1,0c0.2,0,0.3-0.1,0.5-0.2c0.1-0.1,0.1-0.2,0.1-0.4C21.2,11,21.2,10.7,21.2,10.4z"/>
</g>
</svg>
