<svg xmlns="http://www.w3.org/2000/svg" x="0px" y="0px"
	 width="20px" height="20px" viewBox="0 0 20 20" enable-background="new 0 0 20 20" xml:space="preserve">
<rect fill="#33332F" width="20" height="20"/>
<g>
	<path fill="#FFFFFF" d="M18,10c0,2,0,4.1,0,6.1c0,0.2,0,0.5-0.1,0.7c-0.3,0.6-0.8,1-1.4,1.1c-0.1,0-0.2,0-0.3,0c-1.1,0-2.3,0-3.4,0
		c-3,0-5.9,0-8.9,0c-0.3,0-0.5,0-0.7-0.1c-0.6-0.3-1-0.8-1.1-1.5c0-0.1,0-0.2,0-0.3c0-3.7,0-7.3,0-11c0-0.4,0-0.8,0-1.2
		C2,3.4,2.2,3,2.5,2.6C2.8,2.3,3.2,2.1,3.6,2c0.1,0,0.2,0,0.3,0C8,2,12,2,16.1,2c0.8,0,1.4,0.5,1.7,1.1C18,3.4,18,3.6,18,3.8
		C18,5.9,18,7.9,18,10z M3.9,8.8c0,0.1,0,0.1,0,0.2c0,2.2,0,4.3,0,6.5c0,0,0,0.1,0,0.1c0,0.4,0.3,0.6,0.6,0.6c0,0,0.1,0,0.1,0
		c3.6,0,7.2,0,10.8,0c0,0,0.1,0,0.1,0c0.3,0,0.6-0.3,0.6-0.6c0,0,0-0.1,0-0.1c0-2.2,0-4.3,0-6.5c0,0,0-0.1,0-0.1c0,0,0,0,0-0.1
		c0,0,0,0,0,0c-0.4,0-0.9,0-1.3,0c0,0,0,0-0.1,0c0.3,1,0.2,2-0.2,3c-0.4,1-1,1.8-1.9,2.3c-1.6,1-3.6,1.1-5.2,0.1
		c-0.2-0.1-0.4-0.3-0.7-0.5c-0.2-0.2-0.4-0.4-0.6-0.5C6.1,13,6,12.8,5.8,12.6c-0.1-0.2-0.3-0.5-0.4-0.7c-0.1-0.2-0.2-0.5-0.2-0.8
		c-0.1-0.3-0.1-0.5-0.1-0.8c0-0.3,0-0.5,0-0.8c0-0.3,0.1-0.5,0.1-0.8c0,0,0,0-0.1,0C4.7,8.8,4.3,8.8,3.9,8.8z M13.1,10
		c0-1.7-1.3-3.1-3.1-3.1c-1.7,0-3.1,1.4-3.1,3.1c0,1.7,1.4,3.1,3.1,3.1C11.7,13.1,13.1,11.7,13.1,10z M16.2,5.4L16.2,5.4
		c0-0.2,0-0.3,0-0.5c0-0.2,0-0.3,0-0.5c0-0.2-0.1-0.5-0.4-0.6c-0.1,0-0.2,0-0.2,0c-0.5,0-0.9,0-1.4,0c-0.2,0-0.3,0-0.5,0
		c-0.3,0-0.5,0.2-0.6,0.5c0,0.1,0,0.1,0,0.2c0,0.6,0,1.1,0,1.7c0,0,0,0.1,0,0.1c0,0.3,0.2,0.5,0.4,0.6c0.1,0,0.2,0,0.2,0
		c0.6,0,1.2,0,1.8,0c0,0,0,0,0.1,0c0.2,0,0.3-0.1,0.5-0.2c0.1-0.1,0.1-0.2,0.1-0.4C16.2,6,16.2,5.7,16.2,5.4z"/>
</g>
</svg>
