<?xml version="1.0" encoding="utf-8"?>
<!-- Generator: Adobe Illustrator 18.0.0, SVG Export Plug-In . SVG Version: 6.00 Build 0)  -->
<!DOCTYPE svg PUBLIC "-//W3C//DTD SVG 1.1//EN" "http://www.w3.org/Graphics/SVG/1.1/DTD/svg11.dtd">
<svg version="1.1" id="Layer_1" xmlns="http://www.w3.org/2000/svg" xmlns:xlink="http://www.w3.org/1999/xlink" x="0px" y="0px"
	 width="105.2px" height="49.1px" viewBox="0 0 105.2 49.1" enable-background="new 0 0 105.2 49.1" xml:space="preserve">
<g transform="translate(0.000000,450.000000) scale(0.100000,-0.100000)">
	<path d="M912.2,4499.1c-16.8-4.1-26.7-16.8-26.8-33.9c0-19.3,12.5-33.4,31.2-35c21.3-1.9,38.3,13.4,38.3,34.5
		c0,10.6-2,16.1-9.1,23.7C937.4,4497.6,923.9,4502,912.2,4499.1z"/>
	<path d="M627.9,4213.2c0-203.4,0-204.3,2.7-204.3s2.7,1,2.7,63.3v63.3l3.8,1.5c9.8,3.8,9.9,3.7,16.6-9.3
		c3.4-6.5,9.9-17.7,14.3-24.5c7.9-12.3,8.3-12.7,13.2-12.7c7.8,0,34.9,12.7,57.5,26.8c6.4,4.1,6.4,4.2,15.8-13.5
		c3.8-7.4,7.6-13.4,8.4-13.4c1.8,0,0.4,3.8-6.5,18.9c-3.3,7.1-6,13.5-6,14.4c0,0.8,4,4.5,8.9,8c4.8,3.5,14.6,11.6,21.7,18
		c7.1,6.3,13.2,11.4,13.6,11.4c1.8,0,13.2-32.4,16.2-45.8c0.4-2.3-1.2-4.8-7.1-10.4c-4.2-4.1-9.7-9.1-12.1-11l-4.6-3.7h3.8
		c2.5,0,6.5,2.5,12.7,7.6l9,7.8l1.4-7.4l1.4-7.4l0.7,9.1c0.7,8.6,1.1,9.7,7.8,17.7c3.8,4.8,8.3,10.1,9.8,12l2.7,3.4l0.1-6.8
		c0.3-8.2,2.5-14.8,2.7-8.2c1.1,20.2,2.6,27.8,7.9,40.2l5.6,12.9l0.4-6.1c1.1-23.7-3.7-48.8-13.1-68.4l-3.1-6.5h3.7
		c3.4,0,4.1,1,7.4,9.9c15.5,43,15,86-1.9,121.9c-5.2,10.9-14.2,25.3-20.7,33.2c-2.7,3.1-3.4,3.4-5.6,1.8c-2.5-1.8-2.5-2.3-0.4-11.4
		c2.3-10.2,2.9-20.2,1.1-22.9c-0.7-1.2-2.7,1.1-6.1,6.8c-2.7,4.6-6.1,9.9-7.6,11.7c-2.5,3.3-2.7,3.3-6,1.1l-3.5-2.3l7.1-11.2
		c4-6.3,8.3-14,9.7-17.2l2.6-5.9l-3-6.4c-1.6-3.5-5.6-10.2-8.6-15l-5.6-8.4l-6.5,11.6c-6.1,11-19.8,30.7-21.3,30.7
		c-1.4,0-8.6-5.7-8.6-6.8c0-0.5,2.6-4.4,5.9-8.4c7.5-9.1,16.1-21.9,19.9-29.4l3-5.7l-4.4-5.3c-4.6-5.9-16.3-16.5-30.1-27.1l-9-7.2
		l-5.9,10.6c-22.9,42.2-32.4,56.1-53.9,79.4l-10.8,11.4l9.5,6.3c5.3,3.5,13.2,9.1,17.4,12.7l7.8,6.3l8.6-6.3
		c4.8-3.4,12.1-9.4,16.5-13.2l7.9-6.8l3.3,4.1c1.8,2.2,3.3,4.4,3.4,4.9c0,1.4-13.2,11.9-22.9,18.1c-4.6,3-8.4,5.9-8.4,6.3
		s1.8,3.1,4,5.9c2.2,2.7,6,8,8.3,11.7c2.5,3.8,5,6.8,5.7,6.8c2.7,0,17-8.4,26.6-15.5l9.8-7.4l2.9,3.1l3,3.1l-10.1,7.1
		c-5.4,3.8-14.3,9.1-19.6,11.9l-9.8,4.8l2.2,6.7c2.6,7.8,2,7.9,18.9-0.4c14.7-7.1,17.4-9.8,19.6-19.3l1.6-7.8l5.3,5.2
		c2.9,2.7,5.2,5.7,5.2,6.5c0,2.2-17.8,13.6-30.7,19.8c-35,16.6-79.2,20.7-119.6,11l-10.5-2.5v52.2c0,51.4,0,52.3-2.7,52.3
		S627.9,4416.6,627.9,4213.2z M714.1,4315.2c5.4-0.8,10.6-2.2,11.6-2.9c0.8-0.8,1.6-4.2,1.6-7.5v-6.1l-4.4,1
		c-14.8,3.1-26.2,4.6-34.7,4.8c-5.4,0-9.9,0.4-9.9,0.8c0,0.5,0.7,3.3,1.6,6.1l1.5,5.3h11.4C699.1,4316.7,708.8,4316,714.1,4315.2z
		 M661.4,4298.1c-1.1-2.2-3.7-5.9-5.9-8.4l-3.8-4.5l-9.3,1l-9.1,1v5.3c0,3.1,0.7,5.7,1.8,6c2.5,1,17.3,3,23.2,3.3l5.2,0.1
		L661.4,4298.1z M696.8,4299.7c16.5-2.9,27.8-6.1,27.8-8c0-2.2-6.8-12.8-12.1-18.8l-4.4-4.9l-8.9,4c-7.6,3.5-24.9,8.9-36.4,11.4
		l-4,0.8l8,8.7C676.1,4302.8,676.9,4303.1,696.8,4299.7z M667.6,4277.3c11.4-3.8,30.5-12.7,33.1-15.4c1.4-1.4-8.3-10.9-22.1-21.7
		l-7.1-5.6l-12.7,11.4c-6.9,6.3-15.3,13.5-18.5,16.1l-5.9,4.9l9.9,6.9c5.4,3.8,10.4,6.9,10.8,7.1
		C655.7,4281.3,661.2,4279.5,667.6,4277.3z M658,4237.4l6.8-7.6l-11.3-6.8c-6.3-3.7-13.4-7.8-15.7-9l-4.5-2.3v25.6v25.5l9-8.7
		C647.2,4249.1,654.3,4241.7,658,4237.4z M836.7,4223.4c3.4-6.7,7.6-17.3,9.7-23.4l3.4-11.2l-3.1-12.7c-3.4-13.2-7.4-24.7-7.5-22.1
		c-0.4,6.8-5,28.2-8.4,39.2c-4,12.8-4.1,13.9-2.6,23c1,5.2,1.2,12.4,0.8,15.8C827.9,4240,829.1,4238.7,836.7,4223.4z M693.1,4195.7
		c7.9-9.9,14.6-18.5,14.8-19.2c0.7-1.9-49.5-28.7-54.1-28.7c-0.4,0-5.3,7.6-10.8,16.8l-9.8,16.9v12.9v12.9l17.4,8.9l17.3,8.9
		l5.3-5.6C676.2,4216.3,685.1,4205.7,693.1,4195.7z M826.5,4178.2c2.3-8.2,5.2-19.5,6.1-25.2c2.2-12,2.2-12.1-9.5-27.2
		c-6.5-8.4-8.6-9.7-8.6-4.8c0,5.2-3.8,21.4-8.3,35.8l-4.4,13.9l7.6,8.9c4.1,4.9,8.3,10.2,9.1,11.9c0.8,1.5,2,2.5,2.6,2.2
		C821.9,4193.2,824.2,4186.2,826.5,4178.2z M727.3,4148.9l15.5-23.3l-3.1-2.2c-8.9-6-32.3-18.9-43.7-24.1
		c-10.1-4.6-13.4-5.6-14.4-4.2c-1.5,1.5-25.1,45.5-25.5,47.5c-0.1,0.5,6.1,4.1,14,7.6c7.9,3.7,20.2,10.1,27.2,14.3
		s13.2,7.6,13.6,7.6C711.4,4172.3,718.7,4161.8,727.3,4148.9z"/>
	<path d="M977.3,4414c-70.8-7.4-127.1-23.7-171.2-49.9l-9.1-5.4l-0.4-16.2c-0.3-8.9-0.3-16.2-0.3-16.2c0.1,0,6.3,3.4,13.6,7.6
		c57.5,32.7,118.9,55.7,171.7,64.4c18.4,3,24.2,3.7,48.8,5.6c21,1.6,26.7,4.5,16.9,8.3C1042.7,4413.8,989.4,4415.2,977.3,4414z"/>
	<path d="M955.5,4361.5c-65.3-9.5-143.7-61.3-205.8-135.7c-8.9-10.5-23-30.7-26.4-37.2l-1.8-3.4l3.3,2.9
		c12.3,10.9,51.5,42.8,69.9,56.5c25.2,19.1,61.4,43.3,83.2,55.9c34.1,19.5,69.6,33.5,75.6,29.8c1.5-1-1.5-4.8-13.1-16.6
		c-15.3-15.7-25.6-28.5-38.7-48l-7.2-10.9l1.6-12.3c0.8-6.8,2.2-16.2,3-21l1.5-8.4l6.8,9.8c11.6,16.9,20.3,26.7,48.2,54.2
		c38,37.3,36,34.6,36,48.5c0,13.5-4,27.2-9.7,33.4c-3.3,3.4-4.5,4-11,3.8C967,4362.8,960,4362.2,955.5,4361.5z"/>
	<path d="M481.3,4350c-5.6-2.7-8.9-8.9-9.7-18.4c-0.7-7.4-1.1-8-4-8c-3.1,0-3.3-0.5-3.3-8.2c0-7.8,0.1-8.2,3.4-8.2h3.4v-33.4v-33.4
		h10.2h10.2l0.3,33.1l0.4,33l6.5,0.4l6.4,0.4v8.2v8h-6.8c-6.4,0-6.8,0.3-6.8,3.4c0,5.2,4.9,9.3,9.7,8.3l4-0.7v8.7v8.9h-9.8
		C489.5,4352.1,483.9,4351.3,481.3,4350z"/>
	<path d="M29.3,4348.7c-11.2-4-22.1-16.3-26-29.7c-1.2-4-2.6-12.4-3-18.8c-2-29.8,9-52.7,28.6-59.3c10.2-3.4,26.8-2.2,36.9,2.7
		l7.6,3.7v27.9v27.8h-17h-17v-9.5v-9.5h6.8H53v-12.3c0-12-0.1-12.3-3.5-13.1c-4.6-1.2-11.9,0.1-16.1,2.9c-13.2,8.7-15.9,45.9-4.4,61
		c7.4,9.5,17.2,11.2,27.2,4.4l4.6-3.1l5.6,8.3c6.3,9.7,6.1,10.5-4.6,15.4C53.8,4351.3,38,4351.9,29.3,4348.7z"/>
	<path d="M356.8,4294.9v-54.5H367h10.2v54.5v54.5H367h-10.2V4294.9z"/>
	<path d="M311.3,4324.9c-2.2-0.7-6-3.3-8.6-5.7l-4.5-4.4v4.4v4.4H288h-10.2V4282v-41.6H288h10.2l0.1,27.7c0,30.8,1.1,36.2,7.1,38.3
		c2.6,1,4.6,1,6.1,0c5-3.3,5.7-7.2,5.7-36.9v-29h10.2h10.2v33.8c0,32.3-0.1,34.1-3,39.8c-1.8,3.3-4.6,7.1-6.5,8.3
		C323.9,4325.3,316.4,4326.5,311.3,4324.9z"/>
	<path d="M426.8,4324.3c-2.3-1.1-5.9-3.7-7.9-5.7l-3.5-4v4.5v4.4h-10.2h-10.2V4282v-41.6h10.2h10.2v29c0,29.7,0.7,33.6,5.7,36.9
		c1.5,1,3.5,1,6.1,0c6-2,7.1-7.5,7.1-38.3l0.1-27.7h10.4h10.4l-0.5,34.5c-0.4,31.6-0.7,34.7-3.3,39.6c-1.5,3-4.2,6.5-6.1,7.9
		C440.5,4325.7,432,4326.7,426.8,4324.3z"/>
	<path d="M114,4319.4l-5.2-5.6v4.9v4.8H98.6H88.4V4282v-41.6h10.1h10.1l0.5,24.2c0.4,19.6,1,24.9,2.9,28.5c2.5,4.6,8.4,8.6,13.2,8.6
		c2.6,0,2.7,0.8,2.7,11.6v11.6h-4.4C120.4,4324.9,118.1,4323.5,114,4319.4z"/>
	<path d="M153.1,4322.6c-6.8-3.5-11.2-8.4-15.1-17.2c-3.3-7.4-3.8-10.2-3.8-22.1c0-15.8,1.6-22.3,7.8-31.5
		c8.9-13.2,26.3-17.3,41.3-9.7c10.2,5.2,10.6,6,5.7,13.9c-2.3,3.8-4.4,6.9-4.5,7.2c-0.3,0.3-2.7-1.1-5.4-3.1
		c-9.9-6.7-20.4-2.9-23.7,8.6l-1.4,4.4h20.6h20.6l-0.7,13.4c-1,18.7-6.8,30.8-17.7,36.5C171.8,4325.6,158.3,4325.3,153.1,4322.6z
		 M172.4,4301.6c0.8-1.8,2-5.6,2.5-8.3l1-5.2h-11.2h-11.2l1,5.2c1.4,7.4,3.7,11.6,7.5,13.5C166,4308.8,169.9,4306.9,172.4,4301.6z"
		/>
	<path d="M223.9,4322.6c-10.2-5.3-16.2-15.3-18.5-30.8c-4.9-33.4,13.8-58.4,39.6-52.9c6.3,1.4,16.5,6.5,18.1,9.3
		c0.5,1-5.3,12.1-7.9,15.1c-0.3,0.3-2.7-1.1-5.4-3.1c-3-1.9-7.1-3.4-9.7-3.4c-5.7,0-11.9,5-13.8,11.4l-1.5,4.9h20.4h20.6l-0.7,13.4
		c-1,18.7-6.8,30.8-17.7,36.5C242.6,4325.6,229.1,4325.3,223.9,4322.6z M243.3,4301.6c0.8-1.8,2-5.6,2.5-8.3l1-5.2h-11.2h-11.2l1,5
		C228,4307.9,237.8,4312.5,243.3,4301.6z"/>
	<path d="M529.1,4322.6c-6.7-3.4-12.5-9.8-15.9-17.3c-2.6-6-3.1-9.3-3.1-23.4c0-16.2,0.1-16.6,4.8-25.9c3.8-7.5,6.1-10.1,11.4-13.4
		c5.6-3.5,7.9-4.1,15.7-4.1c13.8,0,22.1,5.7,28.6,19.6c3.3,6.8,3.5,9,3.5,23.8c0,14.2-0.4,17.3-3.1,23.2
		c-6.3,13.6-15.4,19.8-29.2,19.8C536.7,4324.8,531.6,4323.9,529.1,4322.6z M548.4,4304.2c4.1-4.6,5.9-11.2,5.9-22.1
		c0-16.5-4.2-25.3-12.1-25.3c-7.9,0-12.4,9.1-12.4,25.2c0,5.3,0.5,11.6,1.4,14.2C534,4306.4,542.9,4310.3,548.4,4304.2z"/>
	<path d="M506.6,4146.4v-55.9h10.2h10.2v12.8c0,10.2,0.5,13.4,2.5,15.8c2.5,3,2.5,3,8.4-12.8l5.9-15.8h11.4c13.5,0,13.5-3.4,1,27
		c-4.8,11.7-8.7,22.1-8.7,23.2s4.4,9,9.5,17.4c5.3,8.6,9.5,15.8,9.5,16.2s-5.2,0.7-11.4,0.7h-11.6l-7.9-14.6l-7.9-14.7l-0.4,28.3
		l-0.3,28.2h-10.2h-10.2V4146.4z"/>
	<path d="M70.7,4145.7v-55.2h10.2h10.2l0.3,30.1l0.4,30.1l15.7-30.1l15.7-30.1h9.3h9.1v55.2v55.2h-10.2h-10.2l-0.3-29.3l-0.4-29.3
		l-15.3,28.9l-15.1,29l-9.7,0.4l-9.7,0.4V4145.7z"/>
	<path d="M230.1,4185.9c0-10.8,0-10.9-3.4-10.9c-3.3,0-3.4-0.3-3.4-8.9s0.1-8.9,3.4-8.9h3.4v-27.5c0-19.2,0.5-28.6,1.8-30.9
		c4.1-7.9,15-11.4,26.2-8.3l6.1,1.8v8.6v8.7l-3.5-1.5c-2.7-1-4.4-0.8-6.8,0.8c-3.3,2-3.3,2.5-3.3,25.2v23.2h6.8h6.8v8.9v8.9h-6.8
		h-6.8v10.9v10.9h-10.2h-10.2V4185.9z"/>
	<path d="M173.3,4173c-12.8-6.4-18.4-18.5-18.5-40.2c0-12.9,0.3-15.1,3.8-22.9c4.2-9.4,11.7-16.9,19.5-19.5
		c9.4-3.1,23.8-0.1,32.7,6.7l3.3,2.5l-4.6,7.8l-4.6,7.6l-4.1-3.3c-5.4-4.5-11.4-5.6-16.8-2.9c-4.5,2.3-8.3,8.3-8.3,13.1
		c0,2.6,0.7,2.7,19.8,2.7h19.8v9.5c0,19.8-6.1,33.4-17.7,39.2C189.5,4177.3,181.8,4177.2,173.3,4173z M190.4,4156.1
		c2.5-2.5,5.6-10.8,5.6-14.7c0-1.2-3.1-1.8-10.9-1.8c-6,0-10.9,0.4-10.9,1.1c0,3.5,3.4,12.4,5.9,15
		C183.5,4159.4,187,4159.5,190.4,4156.1z"/>
	<path d="M397.9,4174.6c-7.4-2.9-13.5-8.7-17.6-16.9c-3.5-7.5-3.8-8.9-3.8-25.6c0-16.6,0.3-18.1,3.7-24.7
		c6.9-13.2,16.9-19.1,31.2-18c16.1,1.2,27.2,14.7,29.2,35.7c2.2,22.8-5,40.9-18.9,48.1C416.3,4176,403.5,4176.8,397.9,4174.6z
		 M413.7,4155.3c10.1-8.4,9.1-41.1-1.4-47c-3.4-1.8-4.2-1.8-7.5,0c-6.1,3.3-8.9,10.8-8.9,23.6c-0.1,13.2,1.9,20.3,6.7,24.1
		C407.2,4159.5,408.8,4159.4,413.7,4155.3z"/>
	<path d="M485.4,4174.5c-2.3-1.1-5.4-3.5-7.1-5.6l-3-3.8v5v4.9h-10.2h-10.2v-42.2v-42.2h10.1h10.2l0.4,25.7
		c0.4,29.6,1.2,32,11.7,35.3l5.7,1.9v11.4C493,4177.3,492.7,4177.6,485.4,4174.5z"/>
	<path d="M273.7,4174.5c0-0.3,4-19.1,8.9-41.7c4.9-22.6,8.9-41.4,8.9-41.7s4.5-0.5,9.9-0.5h10.1l4.6,21.8c2.6,12,5,21.8,5.4,21.8
		s2.9-9.8,5.4-21.8l4.5-21.8h9.9c9.1,0,9.9,0.3,10.6,3.1c3.1,12.9,17,78.1,17,79.6c0,1.4-2.6,1.8-9.9,1.8H349l-3.8-21.4
		c-2-11.9-4.2-22.1-4.8-22.6s-3,9.1-5.6,21.5l-4.5,22.5h-8.6c-7.8,0-8.6-0.3-9.3-3c-0.4-1.8-2.6-12-4.9-22.9
		c-2.2-10.8-4.2-19.8-4.5-20c-0.1-0.1-2,9-4.1,20.4c-2,11.3-4.1,21.8-4.4,23.2c-0.7,1.9-2.3,2.3-10.9,2.3
		C278.2,4175,273.7,4174.8,273.7,4174.5z"/>
</g>
</svg>
