<?xml version="1.0" encoding="utf-8"?>
<!-- Generator: Adobe Illustrator 19.1.0, SVG Export Plug-In . SVG Version: 6.00 Build 0)  -->
<svg version="1.1" id="Layer_1" xmlns="http://www.w3.org/2000/svg" xmlns:xlink="http://www.w3.org/1999/xlink" x="0px" y="0px"
	 width="55px" height="49px" viewBox="0 0 55 49" enable-background="new 0 0 55 49" xml:space="preserve">
<path fill="#D6B329" d="M54.8,14L54.8,14c0-0.1-0.4-0.5-1.2-0.6c-0.8-0.1-6.4,0.2-6.9-0.7c-0.1-0.1,0.1-0.1,0.2-0.2
	c0.1-0.2,0.3-0.2,0.5-0.3c0.1,0,0.3,0,0.4-0.1c0.1-0.1-0.3-0.1-0.1-0.1c0.1,0,0.7,0,0.7,0l0.1,0h0.2l0.5,0h0.3l0.2,0l0.2,0l0.8,0
	l0.4,0l1.9-0.1c0,0,0.2,0,0.3,0s0.1-0.1,0.2-0.1c0.1,0,0.6,0,0.6,0l0.3,0h0.3c0,0,0.1-0.2,0.1-0.2c0,0-0.2-0.2-0.2-0.2L54,11.2
	c0,0-0.2,0.1-0.3,0.1c-0.1,0-0.2-0.1-0.2-0.1l-0.2,0l-0.6-0.2c0,0-0.2,0-0.2,0.1c-0.1,0.1-0.3-0.2-0.4-0.1c-0.1,0.1-0.2,0-0.2,0
	s0-0.5-0.5-0.7c-0.4-0.2-1.1-0.5-1.3-0.7c-0.2-0.1-0.1,0-0.3,0c-0.2,0-0.8-0.1-0.9-0.1c-0.1,0-1.4,0-2.6,0l0,0
	c-0.6-0.1-1.8-0.1-2.6-0.1c-0.2,0-0.4,0-0.7,0l-0.7-6.7l0-0.4l0.2-0.1l0-0.1l-0.1-0.1l-0.2,0V1.7l0.3,0V1.3l-0.4-0.2l0-0.5l0.1-0.1
	l-0.6-0.4c0,0,0.1-0.2-0.1-0.2c-0.1,0-0.2,0.1-0.1,0.1c0.1,0.1,0,0.1,0,0.1L41,0.5l0,0.1l0,0.5l-0.4,0.2l0,0.3l0.4,0l0,0.3h-0.2
	l-0.2,0.1l-0.1,0.1l0.1,0.1l0.2,0.1l0,0.3l0,0.3l-0.2,6.6l-3.3,0.2l0,3v8.5h0v19h17.5V14H54.8z M49.9,21.5c0.1-0.1,0.2-0.2,0.3-0.4
	c0.3-0.3,0.6-0.7,1-1c0.4-0.3,0.8-0.7,1.2-0.9c0.2-0.1,0.3-0.2,0.4-0.3c0.1-0.1,0.2-0.1,0.2-0.1s0,0.1-0.1,0.1
	c-0.1,0.1-0.2,0.2-0.3,0.4c-0.3,0.3-0.6,0.7-1,1c-0.4,0.3-0.8,0.7-1.2,0.9C50.2,21.4,50.1,21.5,49.9,21.5c0,0.1-0.1,0.1-0.1,0.1
	S49.8,21.6,49.9,21.5z M46.1,17c0-0.2,0.1-0.4,0.1-0.5c0-0.1,0-0.2,0-0.2s0,0.1,0,0.2c0,0.1,0.1,0.3,0.1,0.5c0.1,0.4,0.1,1,0.1,1.5
	c0,0.5,0,1.1-0.1,1.5c0,0.2-0.1,0.4-0.1,0.5c0,0.1,0,0.2,0,0.2s0-0.1,0-0.2c0-0.1-0.1-0.3-0.1-0.5c-0.1-0.4-0.1-1-0.1-1.5
	C46,17.9,46.1,17.4,46.1,17z M39.7,18.6c0.1,0.1,0.3,0.2,0.4,0.4c0.1,0.1,0.2,0.2,0.3,0.3c0.1,0.1,0.2,0.2,0.3,0.3
	c0.2,0.2,0.4,0.4,0.6,0.6c0.2,0.2,0.4,0.5,0.6,0.7c0.2,0.2,0.3,0.4,0.5,0.6c0.1,0.2,0.2,0.4,0.3,0.5c0.1,0.1,0.1,0.2,0.1,0.2
	s-0.1,0-0.2-0.1c-0.1-0.1-0.3-0.2-0.4-0.4c-0.1-0.1-0.2-0.2-0.3-0.3c-0.1-0.1-0.2-0.2-0.3-0.3c-0.2-0.2-0.4-0.4-0.6-0.6
	c-0.2-0.2-0.4-0.5-0.6-0.7c-0.2-0.2-0.4-0.4-0.5-0.6C39.8,19,39.7,18.8,39.7,18.6c-0.1-0.1-0.2-0.1-0.2-0.1S39.6,18.6,39.7,18.6z
	 M38.2,25.8c-0.2,0-0.4-0.1-0.5-0.1c-0.1,0-0.2,0-0.2,0s0.1,0,0.2,0c0.1,0,0.3-0.1,0.5-0.1c0.4-0.1,1-0.1,1.5-0.1
	c0.6,0,1.1,0,1.5,0.1c0.2,0,0.4,0.1,0.5,0.1c0.1,0,0.2,0,0.2,0s-0.1,0-0.2,0c-0.1,0-0.3,0.1-0.5,0.1c-0.4,0.1-1,0.1-1.5,0.1
	C39.2,25.9,38.6,25.8,38.2,25.8z M43.1,29c-0.1,0.1-0.2,0.3-0.3,0.5c-0.1,0.2-0.3,0.4-0.5,0.6c-0.2,0.2-0.4,0.5-0.6,0.7
	c-0.2,0.2-0.4,0.5-0.6,0.7c-0.2,0.2-0.4,0.4-0.6,0.6c-0.2,0.2-0.3,0.3-0.4,0.4c-0.1,0.1-0.2,0.1-0.2,0.1s0-0.1,0.1-0.2
	c0.1-0.1,0.2-0.3,0.3-0.5c0.1-0.2,0.3-0.4,0.5-0.6c0.2-0.2,0.4-0.5,0.6-0.7c0.2-0.2,0.4-0.5,0.6-0.7c0.2-0.2,0.4-0.4,0.6-0.6
	C42.8,29.2,43,29.1,43.1,29c0-0.1,0.1-0.2,0.1-0.2S43.2,28.9,43.1,29z M46.4,33.9c0,0.3,0,0.6,0,0.9c0,0.3,0,0.5-0.1,0.6
	c0,0.1,0,0.2,0,0.2s0-0.1,0-0.2c0-0.1-0.1-0.4-0.1-0.6c0-0.3-0.1-0.6-0.1-0.9c0-0.3,0-0.7,0-1c0-0.3,0-0.7,0-1c0-0.3,0-0.6,0-0.9
	c0-0.3,0-0.5,0.1-0.6c0-0.1,0-0.2,0-0.2s0,0.1,0,0.2c0,0.1,0.1,0.4,0.1,0.6c0,0.3,0.1,0.6,0.1,0.9c0,0.3,0,0.7,0,1
	C46.4,33.2,46.4,33.5,46.4,33.9z M46.3,28.7c-1.9,0-3.4-1.5-3.4-3.4c0-1.9,1.5-3.4,3.4-3.4c1.9,0,3.4,1.5,3.4,3.4
	C49.7,27.2,48.2,28.7,46.3,28.7z M52.6,32.2c-0.1-0.1-0.3-0.2-0.5-0.3c-0.2-0.1-0.4-0.3-0.6-0.5c-0.2-0.2-0.4-0.4-0.7-0.6
	c-0.2-0.2-0.4-0.4-0.6-0.7c-0.2-0.2-0.4-0.4-0.5-0.6c-0.1-0.2-0.3-0.3-0.3-0.5c-0.1-0.1-0.1-0.2-0.1-0.2s0.1,0,0.2,0.1
	c0.1,0.1,0.3,0.2,0.5,0.3c0.2,0.1,0.4,0.3,0.6,0.5c0.2,0.2,0.4,0.4,0.7,0.6c0.2,0.2,0.4,0.4,0.6,0.7c0.2,0.2,0.4,0.4,0.5,0.6
	C52.5,31.9,52.6,32,52.6,32.2c0.1,0.1,0.2,0.1,0.2,0.1S52.8,32.3,52.6,32.2z M54.4,25.7c-0.1,0-0.3,0.1-0.5,0.1
	c-0.4,0.1-0.9,0.1-1.4,0.1c-0.5,0-1,0-1.4-0.1c-0.2,0-0.4-0.1-0.5-0.1c-0.1,0-0.2,0-0.2,0s0.1,0,0.2,0c0.1,0,0.3-0.1,0.5-0.1
	c0.4-0.1,0.9-0.1,1.4-0.1c0.5,0,1,0,1.4,0.1C54.1,25.6,54.2,25.6,54.4,25.7c0.1-0.1,0.2,0,0.2,0S54.5,25.7,54.4,25.7z"/>
<g>
	<path fill="#2878AA" d="M4,43.2c0,0.6-0.2,1.1-0.6,1.4c-0.4,0.3-0.9,0.5-1.7,0.5H1.2v2H0v-5.8h1.8c0.7,0,1.2,0.2,1.6,0.5
		C3.8,42.1,4,42.6,4,43.2z M1.2,44.1h0.4c0.4,0,0.7-0.1,0.8-0.2c0.2-0.1,0.3-0.4,0.3-0.6c0-0.3-0.1-0.5-0.2-0.6
		c-0.2-0.1-0.4-0.2-0.7-0.2H1.2V44.1z"/>
	<path fill="#2878AA" d="M7.8,47.1l-0.2-0.6h0c-0.2,0.3-0.4,0.4-0.6,0.5c-0.2,0.1-0.5,0.1-0.8,0.1c-0.4,0-0.8-0.1-1-0.4
		c-0.2-0.2-0.4-0.6-0.4-1c0-0.5,0.2-0.8,0.5-1c0.3-0.2,0.8-0.3,1.5-0.4l0.8,0v-0.2c0-0.4-0.2-0.7-0.7-0.7c-0.4,0-0.8,0.1-1.2,0.3
		L5.1,43c0.5-0.3,1.1-0.4,1.7-0.4c0.6,0,1,0.1,1.4,0.4c0.3,0.3,0.5,0.6,0.5,1.2v2.9H7.8z M7.4,45.1l-0.5,0c-0.3,0-0.6,0.1-0.8,0.2
		c-0.2,0.1-0.3,0.3-0.3,0.5c0,0.3,0.2,0.5,0.6,0.5c0.3,0,0.5-0.1,0.7-0.2c0.2-0.2,0.3-0.4,0.3-0.6V45.1z"/>
	<path fill="#2878AA" d="M12.3,42.6c0.2,0,0.3,0,0.4,0l-0.1,1.1c-0.1,0-0.2,0-0.4,0c-0.4,0-0.7,0.1-0.9,0.3
		c-0.2,0.2-0.3,0.5-0.3,0.8v2.2H9.9v-4.4h0.9l0.2,0.7H11c0.1-0.2,0.3-0.4,0.6-0.6C11.8,42.7,12,42.6,12.3,42.6z"/>
	<path fill="#2878AA" d="M14.7,44.7l0.5-0.7l1.2-1.3h1.4L16,44.6l1.9,2.5h-1.4l-1.3-1.8l-0.5,0.4v1.4h-1.2V41h1.2v2.7L14.7,44.7
		L14.7,44.7z"/>
	<path fill="#2878AA" d="M21.6,45.8c0,0.5-0.2,0.8-0.5,1c-0.3,0.2-0.8,0.4-1.4,0.4c-0.3,0-0.6,0-0.8-0.1c-0.2,0-0.4-0.1-0.6-0.2v-1
		c0.2,0.1,0.5,0.2,0.8,0.3c0.3,0.1,0.5,0.1,0.7,0.1c0.4,0,0.7-0.1,0.7-0.4c0-0.1,0-0.2-0.1-0.2c-0.1-0.1-0.2-0.1-0.3-0.2
		c-0.1-0.1-0.3-0.2-0.6-0.3c-0.3-0.1-0.6-0.3-0.7-0.4c-0.2-0.1-0.3-0.3-0.3-0.4c-0.1-0.2-0.1-0.3-0.1-0.6c0-0.4,0.2-0.7,0.5-0.9
		c0.3-0.2,0.7-0.3,1.3-0.3c0.5,0,1,0.1,1.5,0.3l-0.4,0.9c-0.2-0.1-0.4-0.2-0.6-0.2c-0.2-0.1-0.4-0.1-0.6-0.1c-0.4,0-0.5,0.1-0.5,0.3
		c0,0.1,0.1,0.2,0.2,0.3c0.1,0.1,0.4,0.2,0.8,0.4c0.3,0.1,0.6,0.3,0.8,0.4c0.2,0.1,0.3,0.3,0.4,0.4C21.6,45.4,21.6,45.6,21.6,45.8z"
		/>
	<path fill="#A9BF38" d="M23.8,47.1h-1.2v-5.8h3.3v1h-2.1v1.5h2v1h-2V47.1z"/>
	<path fill="#A9BF38" d="M31,44.9c0,0.7-0.2,1.3-0.6,1.7c-0.4,0.4-0.9,0.6-1.6,0.6c-0.4,0-0.8-0.1-1.1-0.3c-0.3-0.2-0.6-0.5-0.7-0.8
		c-0.2-0.3-0.3-0.8-0.3-1.2c0-0.7,0.2-1.3,0.6-1.7c0.4-0.4,0.9-0.6,1.6-0.6c0.4,0,0.8,0.1,1.1,0.3c0.3,0.2,0.6,0.4,0.7,0.8
		C30.9,44,31,44.4,31,44.9z M27.9,44.9c0,0.4,0.1,0.8,0.2,1c0.1,0.2,0.4,0.3,0.7,0.3c0.3,0,0.6-0.1,0.7-0.3s0.2-0.6,0.2-1
		c0-0.4-0.1-0.8-0.2-1c-0.1-0.2-0.4-0.3-0.7-0.3c-0.3,0-0.6,0.1-0.7,0.3C28,44.1,27.9,44.5,27.9,44.9z"/>
	<path fill="#A9BF38" d="M34.4,42.6c0.2,0,0.3,0,0.4,0l-0.1,1.1c-0.1,0-0.2,0-0.4,0c-0.4,0-0.7,0.1-0.9,0.3s-0.3,0.5-0.3,0.8v2.2H32
		v-4.4h0.9l0.2,0.7h0.1c0.1-0.2,0.3-0.4,0.6-0.6C33.9,42.7,34.2,42.6,34.4,42.6z"/>
	<path fill="#A9BF38" d="M39.3,47.1l-0.3-1.5l-0.5-1.9h0l-0.8,3.5h-1.3l-1.3-4.4h1.2l0.5,2c0.1,0.3,0.2,0.8,0.2,1.4h0
		c0-0.2,0.1-0.5,0.1-1l0.1-0.3l0.5-2.1h1.3l0.5,2.1c0,0.1,0,0.1,0,0.3c0,0.1,0,0.2,0.1,0.4c0,0.1,0,0.3,0.1,0.4c0,0.1,0,0.2,0,0.3h0
		c0-0.2,0.1-0.4,0.1-0.8c0.1-0.3,0.1-0.6,0.1-0.7l0.5-2h1.2l-1.3,4.4H39.3z"/>
	<path fill="#A9BF38" d="M45.3,47.1l-0.2-0.6h0c-0.2,0.3-0.4,0.4-0.6,0.5c-0.2,0.1-0.5,0.1-0.8,0.1c-0.4,0-0.8-0.1-1-0.4
		c-0.2-0.2-0.4-0.6-0.4-1c0-0.5,0.2-0.8,0.5-1c0.3-0.2,0.8-0.3,1.5-0.4l0.8,0v-0.2c0-0.4-0.2-0.7-0.7-0.7c-0.4,0-0.8,0.1-1.2,0.3
		L42.7,43c0.5-0.3,1.1-0.4,1.7-0.4c0.6,0,1,0.1,1.4,0.4c0.3,0.3,0.5,0.6,0.5,1.2v2.9H45.3z M45,45.1l-0.5,0c-0.3,0-0.6,0.1-0.8,0.2
		c-0.2,0.1-0.3,0.3-0.3,0.5c0,0.3,0.2,0.5,0.6,0.5c0.3,0,0.5-0.1,0.7-0.2c0.2-0.2,0.3-0.4,0.3-0.6V45.1z"/>
	<path fill="#A9BF38" d="M49.9,42.6c0.2,0,0.3,0,0.4,0l-0.1,1.1c-0.1,0-0.2,0-0.4,0c-0.4,0-0.7,0.1-0.9,0.3s-0.3,0.5-0.3,0.8v2.2
		h-1.2v-4.4h0.9l0.2,0.7h0.1c0.1-0.2,0.3-0.4,0.6-0.6C49.4,42.7,49.6,42.6,49.9,42.6z"/>
	<path fill="#A9BF38" d="M52.5,47.2c-0.5,0-0.9-0.2-1.2-0.6c-0.3-0.4-0.4-1-0.4-1.7c0-0.7,0.2-1.3,0.5-1.7c0.3-0.4,0.7-0.6,1.2-0.6
		c0.6,0,1,0.2,1.3,0.6h0c-0.1-0.3-0.1-0.6-0.1-0.9V41h1.2v6.1H54l-0.2-0.6h-0.1C53.5,47,53,47.2,52.5,47.2z M52.9,46.2
		c0.3,0,0.5-0.1,0.7-0.3c0.1-0.2,0.2-0.5,0.2-0.9v-0.1c0-0.5-0.1-0.8-0.2-1c-0.1-0.2-0.4-0.3-0.7-0.3c-0.3,0-0.5,0.1-0.6,0.3
		c-0.1,0.2-0.2,0.6-0.2,1c0,0.4,0.1,0.8,0.2,1C52.4,46.1,52.6,46.2,52.9,46.2z"/>
</g>
<rect x="0" y="48" fill="#2878AA" width="55" height="1"/>
<path opacity="0.15" fill="#FFFFFF" d="M43.4,40.3V9.6c-0.1,0-0.2,0-0.3,0l-0.7-6.7l0-0.4l0.2-0.1l0-0.1l-0.1-0.1l-0.2,0V1.7l0.3,0
	V1.3l-0.4-0.2l0-0.5l0.1-0.1l-0.6-0.4c0,0,0.1-0.2-0.1-0.2c-0.1,0-0.2,0.1-0.1,0.1c0.1,0.1,0,0.1,0,0.1L41,0.5l0,0.1l0,0.5l-0.4,0.2
	l0,0.3l0.4,0l0,0.3h-0.2l-0.2,0.1l-0.1,0.1l0.1,0.1l0.2,0.1l0,0.3l0,0.3l-0.2,6.6l-3.3,0.2l0,3v8.5h0v19H43.4z"/>
<g>
	<path fill="none" d="M24.7,31.2c1.2,1.5,2.4,3.4,3.1,3.2c0.7-0.2,1,0.2,1.2,0.3c0.2,0.1,0.7,0.5,1.1,0.2c0.4-0.4,0.6-2.6,0.6-2.6
		l-0.3-3.4c0,0-0.1-0.3,0-0.4c0.1-0.1,0.3-0.5,0.3-0.5l-0.2-1.8c0,0-0.3-3.4-0.2-3.4c0.1,0,1.4-0.9,1.4-1c0-0.1,1.4-1.3,1.4-1.6
		c0-0.2,0.7-2.2,0.5-2.6c-0.2-0.4,0-0.5,0-0.7c0-0.2,0.3-0.8,0.3-0.8s0.2-1,0-1c0,0-0.8-1.2-1.2-0.3c-0.4,0.9-0.1,0.4-0.3,0.8
		c-0.2,0.4-0.2,0.1,0,0.6c0.1,0.4,0.1,0.5,0.1,0.5s0,0.2,0,0.7c0,0.5-0.8,2.4-0.8,2.4s-1.8,0.9-2.2,0.9c-0.4,0-1.1,0-1.1,0
		s0.2-1.7-1.1-1.8c-1.3,0-1.1,0.4-1.1,0.8c0,0.4,0.4,1.5,0.4,1.5l-0.3,0.1l0,0.3l-1.8-0.2v1.6c0.6,0.1,1.1,0,1.1,0s0.7,2.1,0.9,3.1
		c0.1,0.8,0.6,2.2,0.6,2.2s-0.3,1-0.2,1.2c0,0.2,0.6,1.9,0.6,1.9l-1-0.7c0,0,0.6-1,0-1.1c-0.6,0-1.2,0.1-1.2,0.1s0.4-1-0.1-1
		c0,0-0.1-0.2-0.6-0.1c0,0,0,0,0,0v2.2C24.6,31.1,24.7,31.2,24.7,31.2z"/>
	<path fill="#2878AA" d="M24.6,21.7l1.8,0.2l0-0.3l0.3-0.1c0,0-0.4-1.1-0.4-1.5c0-0.4-0.2-0.9,1.1-0.8c1.3,0,1.1,1.8,1.1,1.8
		s0.7,0,1.1,0c0.4,0,2.2-0.9,2.2-0.9s0.8-1.8,0.8-2.4c0-0.5,0-0.7,0-0.7s0-0.1-0.1-0.5c-0.1-0.4-0.2-0.2,0-0.6
		c0.2-0.4-0.1,0.1,0.3-0.8c0.4-0.9,1.2,0.3,1.2,0.3c0.2,0,0,1,0,1s-0.2,0.6-0.3,0.8c0,0.2-0.2,0.3,0,0.7c0.2,0.4-0.5,2.3-0.5,2.6
		c0,0.2-1.4,1.5-1.4,1.6c0,0.1-1.3,1-1.4,1c-0.1,0,0.2,3.4,0.2,3.4l0.2,1.8c0,0-0.2,0.4-0.3,0.5c-0.1,0.1,0,0.4,0,0.4l0.3,3.4
		c0,0-0.2,2.3-0.6,2.6c-0.4,0.4-0.9-0.1-1.1-0.2c-0.2-0.1-0.5-0.5-1.2-0.3c-0.7,0.2-1.9-1.7-3.1-3.2c-0.1-0.1-0.1-0.1-0.2-0.2v9.2
		h11.5V13.8l-11.5,0V21.7z"/>
	<path fill="#2878AA" d="M25.2,29c0.4,0,0.1,1,0.1,1s0.6-0.1,1.2-0.1c0.6,0,0,1.1,0,1.1l1,0.7c0,0-0.5-1.7-0.6-1.9
		c0-0.2,0.2-1.2,0.2-1.2s-0.4-1.4-0.6-2.2c-0.2-1-0.9-3.1-0.9-3.1s-0.4,0.1-1.1,0v5.5c0,0,0,0,0,0C25.1,28.8,25.2,29,25.2,29z"/>
	<path fill="#2878AA" d="M24.6,13.9l11.5,0v-1.2V9.8l-1.6,0l0,0.2h-1.6l-0.1-2.5l-0.5-0.1l-1.2,0c0,0,0-0.5,0-0.6
		c0-0.1-0.3-0.1-0.3-0.1l0-1.9l-0.1-0.1c0,0,0-1.2,0-1.4c0-0.1-0.5-0.1-0.5-0.1l0-2.8l0-0.5h-2.1v3.4h-0.4v0.3v1h-0.1l0,2l-0.2,0
		c0,0,0-1.2,0-1.3c0-0.1-1-0.3-1-0.3s0-0.6,0-0.8C26.4,4.1,25,4,24.8,4c-0.1,0-0.2,0-0.2,0.1V13.9z"/>
	<polygon opacity="0.15" fill="#FFFFFF" points="24.6,40.3 18.6,40.3 18.6,40.3 24.6,40.3 	"/>
	<path opacity="0.15" fill="#FFFFFF" d="M23.3,21.6l-1.6-2.2c0,0,0.1-1-0.2-0.9c-0.1,0-0.2-0.2-0.2-0.2s-0.1-0.6-0.7-0.5
		c-0.7,0-0.6,0.7-0.2,1.3c0.4,0.6,0.5,1.2,0.5,1.2s1.4,2.2,1.6,2.3c0.8,0.5,1.5,0.6,2.1,0.7v-1.6L23.3,21.6z"/>
	<path opacity="0.15" fill="#FFFFFF" d="M22.9,29c0,0-1.3,0.3-0.9,0.6c0.4,0.3,1,0.1,1.2,0.3c0.2,0.2,0.4,0.5,0.4,0.5
		s-0.6,0.5-0.2,0.6c0.5,0.2,0.9-0.1,1.2,0.1v-2.2C23.9,28.9,22.9,29,22.9,29z"/>
	<path fill="#2878AA" d="M24.6,31.1c-0.3-0.2-0.7,0.1-1.2-0.1c-0.4-0.2,0.2-0.6,0.2-0.6s-0.3-0.2-0.4-0.5c-0.2-0.2-0.8,0-1.2-0.3
		c-0.4-0.3,0.9-0.6,0.9-0.6s1-0.1,1.7-0.1v-5.5c-0.6-0.1-1.3-0.2-2.1-0.7c-0.2-0.1-1.6-2.3-1.6-2.3s-0.1-0.7-0.5-1.2
		c-0.4-0.6-0.4-1.3,0.2-1.3c0.7,0,0.7,0.5,0.7,0.5s0.2,0.2,0.2,0.2c0.3-0.1,0.2,0.9,0.2,0.9l1.6,2.2l1.3,0.1v-7.9V4.1
		c-0.1,0-0.1,0.1-0.1,0.1l0,0.8H24v1.3h-0.1v6.4h-0.9V7.3l-1.2-0.2h-2v1.2h-0.1V7.8h-0.1V7.5h-0.1l0-0.2H19h-0.4l0,32.9h6V31.1z"/>
	<path opacity="0.15" fill="#FFFFFF" d="M24.6,31.1c-0.3-0.2-0.7,0.1-1.2-0.1c-0.4-0.2,0.2-0.6,0.2-0.6s-0.3-0.2-0.4-0.5
		c-0.2-0.2-0.8,0-1.2-0.3c-0.4-0.3,0.9-0.6,0.9-0.6s1-0.1,1.7-0.1v-5.5c-0.6-0.1-1.3-0.2-2.1-0.7c-0.2-0.1-1.6-2.3-1.6-2.3
		s-0.1-0.7-0.5-1.2c-0.4-0.6-0.4-1.3,0.2-1.3c0.7,0,0.7,0.5,0.7,0.5s0.2,0.2,0.2,0.2c0.3-0.1,0.2,0.9,0.2,0.9l1.6,2.2l1.3,0.1v-7.9
		V4.1c-0.1,0-0.1,0.1-0.1,0.1l0,0.8H24v1.3h-0.1v6.4h-0.9V7.3l-1.2-0.2h-2v1.2h-0.1V7.8h-0.1V7.5h-0.1l0-0.2H19h-0.4l0,32.9h6V31.1z
		"/>
</g>
<g>
	<path fill="none" d="M10.3,26.2c0,0-0.1,0-0.4,0C10.1,26.2,10.3,26.2,10.3,26.2z"/>
	<path fill="none" d="M9.1,18.9c-0.1,0-0.2,0-0.2,0S9,18.9,9.1,18.9z"/>
	<path fill="none" d="M12.5,19.6l1.9,0.7c0,0-1.4-1-1.8-1.7c0,0,0,0,0,0c0.7,0.2,1.4,0.6,1.4,0.6s-1-0.9-1.5-1.4
		c-0.1-0.1-0.2-0.2-0.2-0.3l1.5,0.3c0,0-1.1-0.5-1.3-1.2c0,0,0-0.1,0-0.1l1,0.3c0,0-1-0.8-1.2-1.2c-0.3-0.5-0.3-0.5-0.5-1
		c0,0-0.1,0.2-0.5,1.2C10.9,16.5,9.6,17,9.6,17l1.5-0.5c-0.1,0.1-0.1,0.2-0.2,0.2C10.2,17.4,9.4,18,9.4,18l1.7-0.4
		c-0.1,0.2-0.2,0.4-0.4,0.5c-0.7,0.7-1.3,0.8-1.6,0.9c0.3,0,0.9-0.1,1.5-0.2c-0.4,0.9-1.9,1.8-1.9,1.8l1.5-0.6
		c-1.2,1.1-1.8,1.2-1.8,1.2s2.3-0.2,3-0.2l0,0.8l0,0.8c0,0.3,0.3,0,0.3,0c0.2,0,0.3-0.1,0.3-0.3v-0.5l0-0.4l0-0.4
		c1.2,0.2,3.1,1,3.1,1S13,20.4,12.5,19.6z"/>
	<path fill="#A9BF38" d="M15.2,6.3c-0.2-0.1-1.6-0.8-1.6-0.8l-1.4,1.1l-1.8-1.1L7.7,7.3L7.3,7.2L6.1,7.9v2.5h10.8v0.7l0,0V7.4
		C16.6,7.2,15.3,6.4,15.2,6.3z"/>
	<polygon fill="#A9BF38" points="0.1,10.4 0.1,6.9 0.1,6.9 0.1,6.9 0.1,11 0.1,11 0.1,10.4 	"/>
	<path fill="#A9BF38" d="M0.1,10.4L0.1,10.4l0,0.6v17.7c0,0,0,0,0,0V10.4z"/>
	<path fill="#A9BF38" d="M6.1,10.4v10.3C7,21.7,9,22.5,9,22.5l-2.8-1c0.1,0.1,0.2,0.3,0.3,0.4c1.2,1.4,2.9,2.4,2.9,2.4l-3.2-0.8
		c0.2,0.3,0.4,0.7,0.7,1c1.2,1.3,2.4,1.6,3,1.7c0.2,0,0.4,0,0.4,0s-0.1,0-0.4,0c-0.6-0.1-1.8-0.2-2.8-0.4c0.8,1.7,3.7,3.4,3.7,3.4
		l-2.8-1.1c1.6,1.5,2.7,2,3.2,2.2c0.9-0.4,1.9-0.5,2.9-0.5c1.3,0.1,2.3,0.4,3,0.5V11.1v-0.7H6.1z M11.9,20.9l0,0.4l0,0.4v0.5
		c0,0.2-0.1,0.3-0.3,0.3c0,0-0.3,0.3-0.3,0l0-0.8l0-0.8c-0.7,0-3,0.2-3,0.2s0.6,0,1.8-1.2l-1.5,0.6c0,0,1.5-0.9,1.9-1.8
		c-0.6,0.1-1.2,0.2-1.5,0.2c-0.1,0-0.2,0-0.2,0s0.1,0,0.2,0c0.3,0,0.9-0.2,1.6-0.9c0.2-0.2,0.3-0.3,0.4-0.5L9.4,18
		c0,0,0.9-0.5,1.5-1.3c0.1-0.1,0.1-0.1,0.2-0.2L9.6,17c0,0,1.4-0.5,1.6-1.2c0.3-0.9,0.5-1.2,0.5-1.2c0.2,0.6,0.2,0.5,0.5,1
		c0.2,0.4,1.2,1.2,1.2,1.2l-1-0.3c0,0,0,0.1,0,0.1c0.3,0.7,1.3,1.2,1.3,1.2l-1.5-0.3c0.1,0.1,0.2,0.2,0.2,0.3
		c0.5,0.5,1.5,1.4,1.5,1.4s-0.7-0.4-1.4-0.6c0,0,0,0,0,0c0.4,0.6,1.8,1.7,1.8,1.7l-1.9-0.7c0.5,0.8,2.5,2.2,2.5,2.2
		S13.2,21,11.9,20.9z"/>
	<path fill="#A9BF38" d="M9.3,40.3h7.6v-9.7c-3.5-0.2-7,3.1-7.7,5c-0.7,1.8-1.8,3.4-3.1,4.6v0.1L9.3,40.3z"/>
	<path fill="#A9BF38" d="M11,30.3C10,30.2,7.7,30,6.1,29.7v4C7.6,32.3,9.2,31,11,30.3z"/>
	<path fill="#A9BF38" d="M0.1,30.9V37c0,0,0,0,0,0L0.1,30.9C0.1,30.9,0.1,30.9,0.1,30.9z"/>
	<path fill="#A9BF38" d="M0.1,28.8v1.8c0,0,0,0,0,0L0.1,28.8L0.1,28.8z"/>
	<polygon opacity="0.15" fill="#FFFFFF" points="1.2,6.7 2.2,7.6 3.2,7 5.5,8.3 6.1,7.9 6.1,7.9 5.5,8.3 3.2,7 2.2,7.5 1.2,6.7 
		0.3,6.9 0.1,6.9 0.1,6.9 0.3,6.9 	"/>
	<path opacity="0.15" fill="#FFFFFF" d="M0.1,37v3.2l5.9,0c0,0,0.1-0.1,0.1-0.1v-6.4c-0.2,0.3-0.5,0.5-0.7,0.8
		C4.3,35.9,1.5,36.7,0.1,37z"/>
	<path opacity="0.15" fill="#FFFFFF" d="M5,18c-0.4,1.1-0.4,1-0.9,2c-0.4,0.8-2.3,2.3-2.3,2.3l1.9-0.6c0,0.1-0.1,0.1-0.1,0.2
		c-0.5,1.3-2.5,2.4-2.5,2.4L4,23.6c-0.2,0.2-0.3,0.4-0.4,0.6c-0.9,0.9-2.9,2.7-2.9,2.7s1.3-0.7,2.6-1.2c0,0,0,0,0,0.1
		c-0.6,1-2.5,2.5-3.1,3v0.1l3.3-1.2c-0.5,0.8-2.1,2.1-3.3,3v0.2c1.3-0.6,3.1-1.4,4.4-1.4v0.3l0.1,0.9l-0.1,0.8v1
		c0,0.3,0.2,0.5,0.5,0.5c0,0,0.6,0.6,0.6,0l-0.1-1.4l0.1-1.6l0-0.2c0.2,0,0.3,0.1,0.5,0.1v-9.1C6,20.5,6,20.4,5.9,20.2
		C5.2,18.5,5,18,5,18z"/>
	<path fill="#A9BF38" d="M6.1,10.4V7.9L5.5,8.3L3.2,7L2.2,7.6l-1-0.9L0.3,6.9l-0.2,0v3.4v18.3c0.6-0.5,2.5-2,3.1-3c0,0,0,0,0-0.1
		c-1.3,0.5-2.6,1.2-2.6,1.2s2-1.8,2.9-2.7C3.7,24,3.8,23.8,4,23.6l-2.9,0.7c0,0,2-1,2.5-2.4c0-0.1,0.1-0.1,0.1-0.2l-1.9,0.6
		c0,0,1.9-1.5,2.3-2.3c0.5-1,0.5-0.9,0.9-2c0,0,0.2,0.5,0.9,2.2C6,20.4,6,20.5,6.1,20.6V10.4z"/>
	<path opacity="0.15" fill="#FFFFFF" d="M6.1,10.4V7.9L5.5,8.3L3.2,7L2.2,7.6l-1-0.9L0.3,6.9l-0.2,0v3.4v18.3c0.6-0.5,2.5-2,3.1-3
		c0,0,0,0,0-0.1c-1.3,0.5-2.6,1.2-2.6,1.2s2-1.8,2.9-2.7C3.7,24,3.8,23.8,4,23.6l-2.9,0.7c0,0,2-1,2.5-2.4c0-0.1,0.1-0.1,0.1-0.2
		l-1.9,0.6c0,0,1.9-1.5,2.3-2.3c0.5-1,0.5-0.9,0.9-2c0,0,0.2,0.5,0.9,2.2C6,20.4,6,20.5,6.1,20.6V10.4z"/>
	<path fill="#A9BF38" d="M6.1,40.3v-0.1c0,0-0.1,0.1-0.1,0.1L6.1,40.3z"/>
	<path opacity="0.15" fill="#FFFFFF" d="M6.1,40.3v-0.1c0,0-0.1,0.1-0.1,0.1L6.1,40.3z"/>
	<path fill="#A9BF38" d="M5.6,29.8l-0.1,1.6l0.1,1.4c0,0.6-0.6,0-0.6,0c-0.3,0-0.5-0.2-0.5-0.5v-1l0.1-0.8l-0.1-0.9v-0.3
		c-1.3,0-3.1,0.8-4.4,1.4V37c1.4-0.3,4.2-1.1,5.3-2.5c0.2-0.3,0.5-0.5,0.7-0.8v-4c-0.2,0-0.3-0.1-0.5-0.1L5.6,29.8z"/>
	<path opacity="0.15" fill="#FFFFFF" d="M5.6,29.8l-0.1,1.6l0.1,1.4c0,0.6-0.6,0-0.6,0c-0.3,0-0.5-0.2-0.5-0.5v-1l0.1-0.8l-0.1-0.9
		v-0.3c-1.3,0-3.1,0.8-4.4,1.4V37c1.4-0.3,4.2-1.1,5.3-2.5c0.2-0.3,0.5-0.5,0.7-0.8v-4c-0.2,0-0.3-0.1-0.5-0.1L5.6,29.8z"/>
	<path fill="#A9BF38" d="M3.4,27.6l-3.3,1.2v1.8C1.3,29.7,2.9,28.4,3.4,27.6z"/>
	<path opacity="0.15" fill="#FFFFFF" d="M3.4,27.6l-3.3,1.2v1.8C1.3,29.7,2.9,28.4,3.4,27.6z"/>
</g>
</svg>
