<?xml version="1.0" encoding="utf-8"?>
<!-- Generator: Adobe Illustrator 18.0.0, SVG Export Plug-In . SVG Version: 6.00 Build 0)  -->
<!DOCTYPE svg PUBLIC "-//W3C//DTD SVG 1.1//EN" "http://www.w3.org/Graphics/SVG/1.1/DTD/svg11.dtd">
<svg version="1.1" id="Layer_1" xmlns="http://www.w3.org/2000/svg" xmlns:xlink="http://www.w3.org/1999/xlink" x="0px" y="0px"
	 width="202.3px" height="47.2px" viewBox="0 0 202.3 47.2" enable-background="new 0 0 202.3 47.2" xml:space="preserve">
<g>
	<path fill="#4D4D4F" d="M58.6,20l-1.6-2.2h0V20h-0.7v-4.9c0.3,0,0.7,0,1.2,0c1,0,1.6,0.3,1.6,1.3c0,0.8-0.6,1.3-1.5,1.4
		c0.1,0.2,0.3,0.4,0.4,0.5l1.4,1.7L58.6,20L58.6,20z M57.3,15.6c-0.2,0-0.3,0-0.4,0v1.7c0.1,0,0.2,0,0.4,0c0.7,0,1.1-0.4,1.1-0.9
		C58.4,15.9,58,15.6,57.3,15.6"/>
	<polygon fill="#4D4D4F" points="61.7,20 61.7,15.1 64.2,15.1 64.2,15.6 62.4,15.6 62.4,17.2 64.1,17.2 64.1,17.7 62.4,17.7 
		62.4,19.4 64.2,19.4 64.2,20 	"/>
	<path fill="#4D4D4F" d="M67.6,20c-0.4,0-0.7,0-1-0.1l0-0.6c0.3,0.1,0.7,0.2,1,0.2c0.6,0,1.1-0.2,1.1-0.8c0-1.1-2.2-0.7-2.2-2.2
		c0-0.8,0.6-1.4,1.7-1.4c0.3,0,0.6,0,0.9,0.1l0,0.6c-0.3-0.1-0.6-0.1-0.9-0.1c-0.7,0-1,0.3-1,0.7c0,1.1,2.2,0.7,2.2,2.2
		C69.4,19.4,68.7,20,67.6,20"/>
	<path fill="#4D4D4F" d="M73.7,20c-1.5,0-2.2-1-2.2-2.4c0-1.6,1-2.5,2.3-2.5c1.3,0,2.2,0.8,2.2,2.4C76,19.1,74.9,20,73.7,20
		 M73.7,15.6c-0.8,0-1.5,0.7-1.5,1.9c0,1.2,0.5,1.9,1.5,1.9c0.8,0,1.5-0.6,1.5-1.9C75.3,16.3,74.7,15.6,73.7,15.6"/>
	<path fill="#4D4D4F" d="M80.1,20c-1.5,0-1.8-0.8-1.8-1.7v-3.2H79v3.2c0,0.7,0.2,1.2,1.2,1.2c0.8,0,1.3-0.4,1.3-1.3v-3.1h0.6v3
		C82.1,19.4,81.4,20,80.1,20"/>
	<path fill="#4D4D4F" d="M87.2,20l-1.6-2.2h0V20h-0.7v-4.9c0.3,0,0.7,0,1.2,0c1,0,1.6,0.3,1.6,1.3c0,0.8-0.6,1.3-1.5,1.4
		c0.1,0.2,0.3,0.4,0.4,0.5l1.4,1.7L87.2,20L87.2,20z M86,15.6c-0.2,0-0.3,0-0.4,0v1.7c0.1,0,0.2,0,0.4,0c0.7,0,1.1-0.4,1.1-0.9
		C87.1,15.9,86.7,15.6,86,15.6"/>
	<path fill="#4D4D4F" d="M92.2,20c-1.6,0-2.2-1-2.2-2.4c0-1.5,0.7-2.6,2.4-2.6c0.4,0,0.7,0.1,1.1,0.1l-0.1,0.6
		c-0.4-0.1-0.7-0.2-1.1-0.2c-1.1,0-1.6,0.8-1.6,1.9c0,1.2,0.5,1.9,1.6,1.9c0.4,0,0.8-0.1,1.1-0.2l0.1,0.6C93.1,19.9,92.7,20,92.2,20
		"/>
	<polygon fill="#4D4D4F" points="96,20 96,15.1 98.5,15.1 98.5,15.6 96.6,15.6 96.6,17.2 98.4,17.2 98.4,17.7 96.6,17.7 96.6,19.4 
		98.5,19.4 98.5,20 	"/>
	<path fill="#4D4D4F" d="M101.8,20c-0.4,0-0.7,0-1-0.1l0-0.6c0.3,0.1,0.7,0.2,1,0.2c0.6,0,1.1-0.2,1.1-0.8c0-1.1-2.2-0.7-2.2-2.2
		c0-0.8,0.6-1.4,1.7-1.4c0.3,0,0.6,0,0.9,0.1l0,0.6c-0.3-0.1-0.6-0.1-0.9-0.1c-0.7,0-1,0.3-1,0.7c0,1.1,2.2,0.7,2.2,2.2
		C103.6,19.4,103,20,101.8,20"/>
	<polygon fill="#4D4D4F" points="109.1,20 109.1,15.1 109.8,15.1 109.8,19.4 111.5,19.4 111.5,20 	"/>
	<polygon fill="#4D4D4F" points="113.6,20 113.6,15.1 116.1,15.1 116.1,15.6 114.2,15.6 114.2,17.2 116,17.2 116,17.7 114.2,17.7 
		114.2,19.4 116.1,19.4 116.1,20 	"/>
	<path fill="#4D4D4F" d="M122.2,15.9c-0.4-0.2-0.8-0.3-1.3-0.3c-1,0-1.9,0.6-1.9,1.9c0,1.2,0.7,1.9,1.8,1.9c0.3,0,0.6-0.1,0.8-0.1
		v-1.8h0.7v2.3c-0.5,0.2-1.1,0.3-1.6,0.3c-1.5,0-2.4-0.9-2.4-2.4s1-2.6,2.6-2.6c0.5,0,0.9,0.1,1.3,0.2L122.2,15.9z"/>
	<path fill="#4D4D4F" d="M127.9,20l-0.4-1.1h-2.1L125,20h-0.7l1.8-4.9h0.7l1.8,4.9H127.9z M126.7,16.6c-0.1-0.2-0.2-0.5-0.2-0.7h0
		c-0.1,0.2-0.1,0.5-0.2,0.7l-0.6,1.7h1.7L126.7,16.6z"/>
	<path fill="#4D4D4F" d="M132.6,20c-1.6,0-2.2-1-2.2-2.4c0-1.5,0.7-2.6,2.4-2.6c0.4,0,0.7,0.1,1.1,0.1l-0.1,0.6
		c-0.4-0.1-0.7-0.2-1.1-0.2c-1.1,0-1.6,0.8-1.6,1.9c0,1.2,0.5,1.9,1.6,1.9c0.4,0,0.8-0.1,1.1-0.2l0.1,0.6
		C133.5,19.9,133.1,20,132.6,20"/>
	<path fill="#4D4D4F" d="M137.8,18.2V20h-0.7v-1.8l-1.5-3.1h0.7l0.8,1.6c0.1,0.3,0.3,0.6,0.4,0.8l0,0c0.1-0.3,0.3-0.6,0.4-0.9
		l0.7-1.6h0.7L137.8,18.2z"/>
	<polygon fill="#4D4D4F" points="145.1,15.6 145.1,17.2 146.9,17.2 146.9,17.8 145.1,17.8 145.1,20 144.5,20 144.5,15.1 147,15.1 
		147,15.6 	"/>
	<path fill="#4D4D4F" d="M151.1,20c-1.5,0-1.8-0.8-1.8-1.7v-3.2h0.7v3.2c0,0.7,0.2,1.2,1.2,1.2c0.8,0,1.3-0.4,1.3-1.3v-3.1h0.6v3
		C153,19.4,152.4,20,151.1,20"/>
	<path fill="#4D4D4F" d="M158.8,20l-1.9-3c-0.2-0.4-0.4-0.7-0.5-1c0,0.5,0.1,1.7,0.1,2.5v1.6h-0.6v-4.9h0.9l1.8,2.9
		c0.2,0.3,0.4,0.7,0.6,1.1c0-0.6-0.1-1.8-0.1-2.6v-1.4h0.6V20L158.8,20L158.8,20z"/>
	<path fill="#4D4D4F" d="M163.7,20c-0.5,0-0.9,0-1.2,0v-4.9c0.4,0,0.9,0,1.4,0c1.6,0,2.5,0.7,2.5,2.4C166.4,19.1,165.3,20,163.7,20
		 M163.9,15.6c-0.2,0-0.5,0-0.7,0v3.7c0.2,0,0.4,0,0.6,0c1.1,0,1.9-0.6,1.9-1.9C165.7,16.3,165.1,15.6,163.9,15.6"/>
	<path fill="#4D4D4F" d="M58.1,32.4c-1.6,0-2.2-1-2.2-2.4c0-1.5,0.7-2.6,2.4-2.6c0.4,0,0.7,0.1,1.1,0.1l-0.1,0.6
		c-0.4-0.1-0.7-0.2-1.1-0.2c-1.1,0-1.6,0.8-1.6,1.9c0,1.2,0.5,1.9,1.6,1.9c0.4,0,0.8-0.1,1.1-0.2l0.1,0.6
		C59.1,32.4,58.6,32.4,58.1,32.4"/>
	<path fill="#4D4D4F" d="M63.3,32.4l-1.2-1.6h0v1.6h-0.7v-3.7c0.2,0,0.7,0,1.1,0c0.9,0,1.4,0.3,1.4,1c0,0.6-0.5,1-1.1,1.1
		c0.1,0.1,0.2,0.2,0.3,0.4l1,1.3H63.3L63.3,32.4L63.3,32.4z M62.4,29.1c-0.2,0-0.3,0-0.4,0v1.2c0.1,0,0.3,0,0.4,0
		c0.4,0,0.7-0.2,0.7-0.6C63.2,29.3,62.9,29.1,62.4,29.1"/>
	<polygon fill="#4D4D4F" points="66,32.4 66,28.6 68.1,28.6 68.1,29.2 66.7,29.2 66.7,30.2 68.1,30.2 68.1,30.7 66.7,30.7 
		66.7,31.9 68.1,31.9 68.1,32.4 	"/>
	<path fill="#4D4D4F" d="M72.6,32.4l-0.3-0.8h-1.7l-0.3,0.8h-0.7l1.4-3.7h0.7l1.4,3.7H72.6z M71.7,29.9c-0.1-0.2-0.1-0.4-0.2-0.6
		l0,0c0,0.2-0.1,0.4-0.2,0.6l-0.5,1.2h1.3L71.7,29.9z"/>
	<polygon fill="#4D4D4F" points="76,29.2 76,32.4 75.3,32.4 75.3,29.2 74.2,29.2 74.2,28.6 77,28.6 77,29.2 	"/>
	<rect x="78.8" y="28.6" fill="#4D4D4F" width="0.7" height="3.7"/>
	<path fill="#4D4D4F" d="M83.3,32.4h-0.7l-1.4-3.7h0.7l0.8,2.1c0.1,0.3,0.2,0.6,0.3,1l0,0c0.1-0.3,0.2-0.6,0.3-0.9l0.8-2.1h0.7
		L83.3,32.4z"/>
	<polygon fill="#4D4D4F" points="86.4,32.4 86.4,28.6 88.5,28.6 88.5,29.2 87.1,29.2 87.1,30.2 88.5,30.2 88.5,30.7 87.1,30.7 
		87.1,31.9 88.5,31.9 88.5,32.4 	"/>
	<path fill="#4D4D4F" d="M93.9,32.4c-0.4,0-0.7,0-1-0.1l0-0.6c0.3,0.1,0.7,0.2,1,0.2c0.6,0,1.1-0.2,1.1-0.8c0-1.1-2.2-0.7-2.2-2.2
		c0-0.8,0.6-1.4,1.7-1.4c0.3,0,0.6,0,0.9,0.1l0,0.6c-0.3-0.1-0.6-0.1-0.9-0.1c-0.7,0-1,0.3-1,0.7c0,1.1,2.2,0.7,2.2,2.2
		C95.7,31.8,95.1,32.4,93.9,32.4"/>
	<path fill="#4D4D4F" d="M99.2,32.4c-1.2,0-1.8-0.8-1.8-1.9c0-1.2,0.9-2,1.9-2c1.1,0,1.8,0.7,1.8,1.9
		C101.1,31.7,100.2,32.4,99.2,32.4 M99.2,29.1c-0.6,0-1.2,0.5-1.2,1.3c0,0.8,0.3,1.4,1.1,1.4c0.7,0,1.2-0.4,1.2-1.3
		C100.4,29.6,99.9,29.1,99.2,29.1"/>
	<polygon fill="#4D4D4F" points="103,32.4 103,28.6 103.7,28.6 103.7,31.8 105,31.8 105,32.4 	"/>
	<path fill="#4D4D4F" d="M108.3,32.4c-1,0-1.6-0.5-1.6-1.4v-2.4h0.7V31c0,0.6,0.4,0.9,1,0.9c0.7,0,1-0.4,1-1v-2.3h0.6V31
		C109.9,31.8,109.5,32.4,108.3,32.4"/>
	<polygon fill="#4D4D4F" points="113.3,29.2 113.3,32.4 112.7,32.4 112.7,29.2 111.6,29.2 111.6,28.6 114.4,28.6 114.4,29.2 	"/>
	<rect x="116.2" y="28.6" fill="#4D4D4F" width="0.7" height="3.7"/>
	<path fill="#4D4D4F" d="M120.6,32.4c-1.2,0-1.8-0.8-1.8-1.9c0-1.2,0.9-2,1.9-2c1.1,0,1.8,0.7,1.8,1.9
		C122.5,31.7,121.7,32.4,120.6,32.4 M120.6,29.1c-0.6,0-1.2,0.5-1.2,1.3c0,0.8,0.3,1.4,1.1,1.4c0.7,0,1.2-0.4,1.2-1.3
		C121.8,29.6,121.4,29.1,120.6,29.1"/>
	<path fill="#4D4D4F" d="M126.9,32.4l-1.4-2.2c-0.1-0.2-0.3-0.5-0.4-0.7l0,0c0,0.2,0,0.5,0,0.9v2h-0.6v-3.7h0.8l1.4,2.2
		c0.2,0.2,0.3,0.5,0.4,0.7l0,0c0-0.2,0-0.6,0-1.2v-1.7h0.6v3.8H126.9z"/>
	<path fill="#4D4D4F" d="M130.7,32.4c-0.3,0-0.6,0-0.8-0.1l0-0.6c0.2,0.1,0.5,0.1,0.8,0.1c0.4,0,0.8-0.2,0.8-0.6
		c0-0.7-1.8-0.4-1.8-1.6c0-0.7,0.5-1.1,1.5-1.1c0.2,0,0.5,0,0.7,0.1l0,0.6c-0.2-0.1-0.5-0.1-0.7-0.1c-0.5,0-0.8,0.2-0.8,0.5
		c0,0.7,1.8,0.4,1.8,1.6C132.2,32,131.6,32.4,130.7,32.4"/>
	<path fill="#4D4D4F" d="M134.7,32c0,0.2-0.2,0.4-0.4,0.4c-0.2,0-0.4-0.2-0.4-0.4c0-0.2,0.2-0.4,0.4-0.4
		C134.5,31.5,134.7,31.8,134.7,32"/>
	<polygon fill="#4D4D4F" points="138.9,32.4 138.9,27.5 139.5,27.5 139.5,31.8 141.3,31.8 141.3,32.4 	"/>
	<path fill="#4D4D4F" d="M145.4,32.4l-0.3-0.8h-1.7l-0.3,0.8h-0.7l1.4-3.7h0.7l1.4,3.7H145.4z M144.5,29.9c-0.1-0.2-0.1-0.4-0.2-0.6
		l0,0c0,0.2-0.1,0.4-0.2,0.6l-0.5,1.2h1.3L144.5,29.9z"/>
	<path fill="#4D4D4F" d="M148.5,32.4c-0.3,0-0.6,0-0.8-0.1l0-0.6c0.2,0.1,0.5,0.1,0.8,0.1c0.4,0,0.8-0.2,0.8-0.6
		c0-0.7-1.8-0.4-1.8-1.6c0-0.7,0.5-1.1,1.5-1.1c0.2,0,0.5,0,0.7,0.1l0,0.6c-0.2-0.1-0.5-0.1-0.7-0.1c-0.5,0-0.8,0.2-0.8,0.5
		c0,0.7,1.8,0.4,1.8,1.6C150,32,149.4,32.4,148.5,32.4"/>
	<polygon fill="#4D4D4F" points="153.1,29.2 153.1,32.4 152.4,32.4 152.4,29.2 151.4,29.2 151.4,28.6 154.2,28.6 154.2,29.2 	"/>
	<rect x="155.9" y="28.6" fill="#4D4D4F" width="0.7" height="3.7"/>
	<path fill="#4D4D4F" d="M161.3,32.4l-1.4-2.2c-0.1-0.2-0.3-0.5-0.4-0.7l0,0c0,0.2,0,0.5,0,0.9v2h-0.6v-3.7h0.8l1.4,2.2
		c0.2,0.2,0.3,0.5,0.4,0.7l0,0c0-0.2,0-0.6,0-1.2v-1.7h0.6v3.8H161.3z"/>
	<path fill="#4D4D4F" d="M166.1,32.4c-1.1,0-1.9-0.6-1.9-1.9c0-1.1,0.8-2,2.1-2c0.4,0,0.7,0.1,1.1,0.2l-0.1,0.6
		c-0.3-0.1-0.7-0.2-1-0.2c-0.7,0-1.4,0.5-1.4,1.4c0,0.9,0.5,1.3,1.3,1.3c0.2,0,0.4,0,0.6-0.1v-1.3h0.7v1.8
		C167,32.4,166.6,32.4,166.1,32.4"/>
	<path fill="#4D4D4F" d="M174.4,32.4l-1.6-2.2h0v2.2h-0.7v-4.9c0.3,0,0.7,0,1.2,0c1,0,1.6,0.3,1.6,1.3c0,0.8-0.6,1.3-1.5,1.4
		c0.1,0.2,0.3,0.4,0.4,0.5l1.4,1.7L174.4,32.4L174.4,32.4z M173.2,28c-0.2,0-0.3,0-0.4,0v1.7c0.1,0,0.2,0,0.4,0
		c0.7,0,1.1-0.4,1.1-0.9C174.3,28.3,173.9,28,173.2,28"/>
	<polygon fill="#4D4D4F" points="177.1,32.4 177.1,28.6 179.2,28.6 179.2,29.2 177.7,29.2 177.7,30.2 179.1,30.2 179.1,30.7 
		177.7,30.7 177.7,31.9 179.2,31.9 179.2,32.4 	"/>
	<path fill="#4D4D4F" d="M181.9,32.4c-0.3,0-0.6,0-0.8-0.1l0-0.6c0.2,0.1,0.5,0.1,0.8,0.1c0.4,0,0.8-0.2,0.8-0.6
		c0-0.7-1.8-0.4-1.8-1.6c0-0.7,0.5-1.1,1.5-1.1c0.2,0,0.5,0,0.7,0.1l0,0.6c-0.2-0.1-0.5-0.1-0.7-0.1c-0.5,0-0.8,0.2-0.8,0.5
		c0,0.7,1.8,0.4,1.8,1.6C183.5,32,182.8,32.4,181.9,32.4"/>
	<path fill="#4D4D4F" d="M187.1,32.4c-1,0-1.6-0.5-1.6-1.4v-2.4h0.7V31c0,0.6,0.4,0.9,1,0.9c0.7,0,1-0.4,1-1v-2.3h0.6V31
		C188.7,31.8,188.3,32.4,187.1,32.4"/>
	<polygon fill="#4D4D4F" points="191,32.4 191,28.6 191.7,28.6 191.7,31.8 193,31.8 193,32.4 	"/>
	<polygon fill="#4D4D4F" points="195.7,29.2 195.7,32.4 195,32.4 195,29.2 193.9,29.2 193.9,28.6 196.8,28.6 196.8,29.2 	"/>
	<path fill="#4D4D4F" d="M199.1,32.4c-0.3,0-0.6,0-0.8-0.1l0-0.6c0.2,0.1,0.5,0.1,0.8,0.1c0.4,0,0.8-0.2,0.8-0.6
		c0-0.7-1.8-0.4-1.8-1.6c0-0.7,0.5-1.1,1.5-1.1c0.2,0,0.5,0,0.7,0.1l0,0.6c-0.2-0.1-0.5-0.1-0.7-0.1c-0.5,0-0.8,0.2-0.8,0.5
		c0,0.7,1.8,0.4,1.8,1.6C200.6,32,200,32.4,199.1,32.4"/>
	<path fill="#4D4D4F" d="M202.3,32c0,0.2-0.2,0.4-0.4,0.4s-0.4-0.2-0.4-0.4c0-0.2,0.2-0.4,0.4-0.4S202.3,31.8,202.3,32"/>
	<polygon fill="#00728F" points="43.7,10.7 35.1,15 41.2,8.1 40.8,7.7 28.4,20.2 44,11.2 	"/>
	<polygon fill="#00728F" points="35,16.4 28.4,20.2 33.7,14.8 	"/>
	<polygon fill="#78A22F" points="37.2,4 30.9,11.2 34,2.5 33.4,2.3 26.7,18.6 37.7,4.3 	"/>
	<polygon fill="#78A22F" points="31.3,12.6 26.7,18.6 29.6,11.6 	"/>
	<polygon fill="#00728F" points="24.5,0.2 24.6,17.8 29.3,0.4 28.7,0.3 25.6,9.4 25.2,0.2 	"/>
	<polygon fill="#00728F" points="26.6,10.5 24.6,17.8 24.6,10.2 	"/>
	<polygon fill="#00728F" points="20,0 19.4,0.1 20,9.7 16.1,1.3 15.5,1.6 22.3,17.9 	"/>
	<polygon fill="#00728F" points="21.3,10.3 22.3,17.9 19.4,10.9 	"/>
	<polygon fill="#00928F" points="10.7,3.5 15,12.1 8.2,5.9 7.7,6.4 20.2,18.8 11.2,3.2 	"/>
	<polygon fill="#00928F" points="16.4,12.2 20.2,18.8 14.8,13.4 	"/>
	<polygon fill="#78A22F" points="4,10 11.2,16.2 2.6,13.2 2.3,13.8 18.6,20.5 4.3,9.5 	"/>
	<polygon fill="#78A22F" points="12.6,15.8 18.6,20.5 11.6,17.6 	"/>
	<polygon fill="#00928F" points="0.3,18.5 9.4,21.5 0.2,22 0.2,22.6 17.8,22.6 0.4,17.9 	"/>
	<polygon fill="#00928F" points="10.5,20.6 17.8,22.6 10.2,22.6 	"/>
	<polygon fill="#00728F" points="0,27.2 0.1,27.8 9.7,27.1 1.4,31.1 1.6,31.7 17.9,24.9 	"/>
	<polygon fill="#00728F" points="10.4,25.8 17.9,24.9 10.9,27.8 	"/>
	<polygon fill="#00728F" points="3.5,36.5 12.1,32.2 5.9,39 6.4,39.5 18.8,26.9 3.2,35.9 	"/>
	<polygon fill="#00728F" points="12.2,30.7 18.8,26.9 13.5,32.4 	"/>
	<polygon fill="#78A22F" points="10,43.2 16.3,35.9 13.2,44.6 13.8,44.8 20.5,28.5 9.5,42.8 	"/>
	<polygon fill="#78A22F" points="15.8,34.5 20.5,28.5 17.6,35.6 	"/>
	<polygon fill="#00728F" points="17.9,46.7 18.5,46.9 21.6,37.8 22,47 22.7,47 22.6,29.3 	"/>
	<polygon fill="#00728F" points="20.6,36.7 22.6,29.3 22.6,36.9 	"/>
	<polygon fill="#00728F" points="27.2,47.2 27.8,47 27.1,37.5 31.1,45.8 31.7,45.5 24.9,29.3 	"/>
	<polygon fill="#00728F" points="25.9,36.8 24.9,29.3 27.8,36.3 	"/>
	<polygon fill="#00928F" points="36.5,43.7 32.2,35.1 39,41.2 39.5,40.8 27,28.3 36,44 	"/>
	<polygon fill="#00928F" points="30.7,34.9 27,28.3 32.4,33.7 	"/>
	<polygon fill="#78A22F" points="43.2,37.2 35.9,30.9 44.6,34 44.9,33.4 28.5,26.7 42.8,37.7 	"/>
	<polygon fill="#78A22F" points="34.5,31.3 28.5,26.7 35.6,29.6 	"/>
	<polygon fill="#00928F" points="29.3,24.5 46.8,29.2 46.9,28.7 37.8,25.6 47,25.1 47,24.5 	"/>
	<polygon fill="#00928F" points="36.7,26.5 29.3,24.5 37,24.5 	"/>
	<polygon fill="#00728F" points="29.3,22.3 47.2,19.9 47.1,19.4 37.5,20 45.8,16.1 45.6,15.5 	"/>
	<polygon fill="#00728F" points="36.8,21.3 29.3,22.3 36.3,19.3 	"/>
</g>
</svg>
