<?xml version="1.0" encoding="utf-8"?>
<!-- Generator: Adobe Illustrator 18.0.0, SVG Export Plug-In . SVG Version: 6.00 Build 0)  -->
<!DOCTYPE svg PUBLIC "-//W3C//DTD SVG 1.1//EN" "http://www.w3.org/Graphics/SVG/1.1/DTD/svg11.dtd">
<svg version="1.1" id="Layer_1" xmlns="http://www.w3.org/2000/svg" xmlns:xlink="http://www.w3.org/1999/xlink" x="0px" y="0px"
	 width="119.5px" height="26.7px" viewBox="0 0 119.5 26.7" enable-background="new 0 0 119.5 26.7" xml:space="preserve">
<g>
	<g>
		<path fill="#231F20" d="M5.1,18.2c0.2,1.2,0.5,2,1,2.6c0.9,1,2.4,1.6,4.5,1.6c1.3,0,2.3-0.2,3.1-0.4c1.5-0.6,2.2-1.5,2.2-2.9
			c0-0.8-0.4-1.5-1.1-1.9c-0.7-0.5-1.9-0.9-3.5-1.2l-2.7-0.6C5.8,14.7,4,14,3,13.4c-1.8-1.2-2.5-3-2.5-5.5c0-2.2,0.8-4.1,2.5-5.7
			S7.1,0,10.3,0c2.7,0,5,0.7,6.9,2.2c1.9,1.4,2.9,3.5,3,6.1h-5.1C15,6.8,14.3,5.7,13,5c-0.9-0.4-1.9-0.6-3.1-0.6
			c-1.4,0-2.5,0.2-3.3,0.8C5.7,5.7,5.3,6.5,5.3,7.5c0,0.9,0.4,1.6,1.2,2c0.6,0.3,1.7,0.6,3.3,1l4.5,1c1.9,0.5,3.4,1,4.4,1.8
			c1.5,1.2,2.2,2.9,2.2,5.2c0,2.3-0.9,4.2-2.7,5.7c-1.8,1.5-4.3,2.3-7.6,2.3c-3.3,0-6-0.7-7.9-2.2C1,22.9,0,20.8,0,18.2H5.1z"/>
		<path fill="#231F20" d="M22.1,10.9V7.4h2.6V2.2h4.9v5.3h3v3.4h-3v10c0,0.8,0.1,1.3,0.3,1.4c0.2,0.2,0.8,0.3,1.8,0.3
			c0.2,0,0.3,0,0.5,0c0.2,0,0.3,0,0.5-0.1v3.7l-2.3,0.1c-2.3,0.1-3.9-0.3-4.8-1.2c-0.6-0.6-0.8-1.4-0.8-2.6V10.9H22.1z"/>
		<path fill="#231F20" d="M42.8,14.6c0.9-0.1,1.6-0.2,1.9-0.4c0.7-0.3,1-0.8,1-1.4c0-0.8-0.2-1.3-0.8-1.6c-0.6-0.3-1.4-0.5-2.4-0.5
			c-1.2,0-2,0.3-2.5,0.9c-0.3,0.4-0.6,1-0.7,1.7h-4.7c0.1-1.6,0.6-2.9,1.4-4c1.3-1.7,3.5-2.5,6.7-2.5c2.1,0,3.9,0.4,5.5,1.2
			c1.6,0.8,2.4,2.3,2.4,4.6v8.6c0,0.6,0,1.4,0,2.2c0,0.6,0.2,1.1,0.3,1.3c0.2,0.2,0.4,0.4,0.7,0.6v0.7h-5.3c-0.2-0.4-0.2-0.7-0.3-1
			c-0.1-0.3-0.1-0.7-0.2-1.1c-0.6,0.7-1.4,1.4-2.3,1.9c-1,0.6-2.2,1-3.6,1c-1.7,0-3.1-0.5-4.2-1.4S34,22.8,34,21c0-2.3,0.9-4,2.7-5
			c1-0.6,2.4-1,4.3-1.2L42.8,14.6z M45.8,16.8c-0.3,0.2-0.6,0.3-1,0.5c-0.3,0.2-0.7,0.2-1.3,0.3l-1.1,0.2c-1,0.2-1.8,0.4-2.2,0.6
			c-0.8,0.5-1.1,1.1-1.1,2.1c0,0.9,0.2,1.4,0.7,1.8c0.5,0.4,1,0.6,1.7,0.6c1,0,2.1-0.3,2.9-1c0.9-0.6,1.4-1.8,1.4-3.4L45.8,16.8
			L45.8,16.8z"/>
		<path fill="#231F20" d="M77.3,7.3c0.8,0.3,1.5,0.9,2.2,1.7c0.6,0.6,0.9,1.4,1,2.4c0.1,0.6,0.2,1.5,0.2,2.8V26h-5V14.1
			c0-0.7-0.1-1.3-0.3-1.8c-0.4-0.9-1.3-1.3-2.4-1.3c-1.4,0-2.3,0.6-2.8,1.7c-0.2,0.6-0.4,1.3-0.4,2.2v11.2h-4.9V14.9
			c0-1.1-0.1-1.9-0.3-2.4c-0.4-0.9-1.2-1.4-2.4-1.4c-1.4,0-2.3,0.5-2.8,1.4C59.1,13,59,13.8,59,14.8v11.2H54V7.3h4.7V10
			c0.6-1,1.2-1.7,1.8-2.1c1-0.7,2.2-1.1,3.7-1.1c1.4,0,2.5,0.3,3.5,1c0.7,0.6,1.3,1.4,1.6,2.2c0.6-1.1,1.4-1.9,2.4-2.4
			c1-0.5,2.2-0.8,3.3-0.8C75.6,6.9,76.4,7,77.3,7.3z"/>
		<path fill="#231F20" d="M96.3,7.6c1.3,0.6,2.4,1.5,3.2,2.8c0.8,1.1,1.3,2.4,1.5,3.8c0.2,0.9,0.2,2.1,0.2,3.7H87.5
			c0.1,1.9,0.7,3.2,2,4c0.7,0.5,1.7,0.7,2.7,0.7c1.1,0,2-0.3,2.7-0.9c0.4-0.3,0.7-0.7,1-1.3h4.9c-0.2,1.1-0.7,2.2-1.8,3.4
			c-1.7,1.8-4,2.7-7,2.7c-2.5,0-4.7-0.8-6.6-2.3c-1.9-1.5-2.9-4.1-2.9-7.5c0-3.3,0.9-5.7,2.5-7.5c1.7-1.8,3.9-2.6,6.7-2.6
			C93.5,6.8,95,7.1,96.3,7.6z M88.9,11.9c-0.7,0.7-1.1,1.7-1.3,2.9h8.4c-0.1-1.3-0.6-2.2-1.3-2.9c-0.8-0.6-1.8-1-2.9-1
			C90.6,10.8,89.6,11.2,88.9,11.9z"/>
		<path fill="#231F20" d="M117.7,8.3c1.2,1,1.8,2.7,1.8,5v12.6h-5V14.6c0-1-0.2-1.8-0.4-2.2c-0.5-1-1.4-1.4-2.7-1.4
			c-1.6,0-2.7,0.7-3.3,2.1c-0.3,0.7-0.5,1.7-0.5,2.9V26h-4.9V7.3h4.8V10c0.6-1,1.2-1.7,1.8-2.1c1-0.7,2.2-1.1,3.8-1.1
			C114.9,6.8,116.5,7.3,117.7,8.3z"/>
	</g>
</g>
</svg>
