<?xml version="1.0" encoding="utf-8"?>
<!-- Generator: Adobe Illustrator 18.0.0, SVG Export Plug-In . SVG Version: 6.00 Build 0)  -->
<!DOCTYPE svg PUBLIC "-//W3C//DTD SVG 1.1//EN" "http://www.w3.org/Graphics/SVG/1.1/DTD/svg11.dtd">
<svg version="1.1" id="Layer_1" xmlns="http://www.w3.org/2000/svg" xmlns:xlink="http://www.w3.org/1999/xlink" x="0px" y="0px"
	 width="44px" height="49.3px" viewBox="0 0 44 49.3" enable-background="new 0 0 44 49.3" xml:space="preserve">
<g>
	<path fill="#2878AA" d="M22.4,15.7v33.6h21.3V15.7H22.4z M41.1,20c0,0-0.3,0.7-0.3,1c0,0.3-0.2,0.4,0,0.9c0.2,0.5-0.6,2.8-0.7,3.1
		s-1.7,1.8-1.7,1.9s-1.6,1.2-1.7,1.2c-0.1,0,0.3,4.1,0.3,4.1l0.2,2.1c0,0-0.3,0.5-0.4,0.6s0,0.5,0,0.5l0.3,4.1c0,0-0.2,2.8-0.7,3.2
		c-0.5,0.5-1.2-0.1-1.4-0.2c-0.3-0.1-0.6-0.6-1.4-0.3c-0.8,0.3-2.3-2.1-3.8-3.9c-0.4-0.6-0.9,0-1.7-0.3c-0.5-0.2,0.3-0.8,0.3-0.8
		s-0.3-0.3-0.5-0.6c-0.2-0.3-1,0-1.4-0.4c-0.5-0.4,1.2-0.7,1.2-0.7s1.3-0.1,2.1-0.2c0.6,0,0.8,0.2,0.8,0.2c0.5,0,0.1,1.3,0.1,1.3
		s0.7-0.2,1.4-0.1c0.7,0.1,0,1.3,0,1.3l1.2,0.9c0,0-0.7-2-0.7-2.3c-0.1-0.3,0.3-1.5,0.3-1.5s-0.5-1.7-0.7-2.7
		c-0.2-1.3-1.1-3.8-1.1-3.8s-1.8,0.4-3.8-0.8c-0.3-0.2-2-2.9-2-2.9s-0.2-0.8-0.7-1.5c-0.5-0.7-0.5-1.6,0.3-1.6
		c0.8,0,0.9,0.6,0.9,0.6s0.2,0.2,0.3,0.2c0.3-0.1,0.3,1.1,0.3,1.1l1.9,2.7l3.7,0.4l-0.1-0.4l0.3-0.2c0,0-0.5-1.3-0.5-1.8
		c0-0.5-0.2-1,1.4-1s1.3,2.1,1.3,2.1s0.9,0,1.4,0s2.7-1.1,2.7-1.1s1-2.2,1-2.9c0.1-0.7,0-0.9,0-0.9s0.1-0.1-0.1-0.6
		c-0.2-0.6-0.3-0.2,0-0.7s-0.1,0.1,0.4-1c0.5-1.1,1.4,0.3,1.4,0.3C41.4,18.8,41.1,20,41.1,20z"/>
	<g>
		<path fill="none" d="M15,24.2l2.3,0.9c0,0-1.7-1.2-2.1-2c0,0,0,0,0,0c0.8,0.3,1.7,0.8,1.7,0.8s-1.3-1.1-1.8-1.7
			c-0.1-0.1-0.2-0.2-0.3-0.4l1.9,0.4c0,0-1.3-0.7-1.6-1.5c0,0,0-0.1-0.1-0.1l1.3,0.4c0,0-1.2-1-1.5-1.5c-0.4-0.6-0.4-0.6-0.6-1.3
			c0,0-0.1,0.3-0.6,1.4c-0.3,0.9-2,1.5-2,1.5l1.8-0.6c-0.1,0.1-0.1,0.2-0.2,0.3c-0.8,0.9-1.8,1.5-1.8,1.5l2-0.6
			c-0.1,0.2-0.3,0.4-0.5,0.6c-0.8,0.8-1.5,1-1.9,1.1c0.4,0,1.1-0.1,1.8-0.2c-0.5,1.1-2.4,2.2-2.4,2.2l1.9-0.8
			c-1.5,1.4-2.2,1.4-2.2,1.4s2.8-0.2,3.7-0.3l0.1,1l-0.1,0.9c0,0.4,0.2,0,0.2,0c0.2,0,0.2-0.2,0.2-0.3v-0.7l0.1-0.5l0.1-0.5
			c1.5,0.2,3.8,1.2,3.8,1.2S15.6,25.1,15,24.2z"/>
		<path fill="#A9BF38" d="M20,9.3C20,9,18.3,8.1,18.1,8c-0.2-0.1-1.9-1-1.9-1l-1.7,1.3L12.4,7L9.2,9.2L8.7,9l-2.2,1.4L3.8,8.8
			L2.5,9.5L1.3,8.4L0.2,8.7L0,8.7l0,0V14l0,0v-1h20v1l0,0V9.3z"/>
		<path fill="#A9BF38" d="M0,13v0.7v21.6c1-0.6,3-2.4,3.8-3.7c0,0,0,0,0-0.1c-1.6,0.6-3.2,1.4-3.2,1.4s2.4-2.2,3.5-3.3
			c0.2-0.2,0.3-0.4,0.5-0.7l-3.5,0.8c0,0,2.5-1.3,3.1-2.9c0-0.1,0.1-0.2,0.1-0.2L2,27.4c0,0,2.3-1.9,2.8-2.8
			c0.7-1.2,0.7-1.1,1.1-2.4c0,0,0.2,0.6,1.1,2.7c0.6,1.6,3.7,2.8,3.7,2.8l-3.4-1.2c0.1,0.2,0.3,0.4,0.4,0.5c1.5,1.7,3.5,2.9,3.5,2.9
			l-3.9-1c0.2,0.4,0.5,0.8,0.9,1.2c1.5,1.5,2.9,2,3.6,2.1c-0.7-0.1-2.2-0.2-3.4-0.4c1,2.1,4.5,4.1,4.5,4.1l-3.5-1.4
			c2,1.9,3.3,2.4,3.9,2.6c1.1-0.4,2.1-0.7,3.3-0.6c1.6,0.1,3.4,0.5,3.4,0.6V13.8V13H0z M14.3,25.7l-0.2,0.5L14,26.6v0.7
			c0,0.2,0,0.3-0.2,0.3c0,0-0.3,0.4-0.3,0l0.1-0.9l0-1c-0.9,0.1-3.7,0.3-3.7,0.3s0.8-0.1,2.2-1.4l-1.9,0.8c0,0,1.9-1.1,2.4-2.2
			c-0.7,0.1-1.4,0.2-1.8,0.2c0.4-0.1,1.1-0.3,1.9-1.1c0.2-0.2,0.4-0.4,0.5-0.6l-2,0.6c0,0,1.1-0.7,1.8-1.5c0.1-0.1,0.2-0.2,0.2-0.3
			L11.5,21c0,0,1.7-0.6,2-1.5c0.4-1.1,0.6-1.4,0.6-1.4c0.3,0.7,0.3,0.7,0.6,1.3c0.3,0.5,1.5,1.5,1.5,1.5l-1.3-0.4c0,0,0,0.1,0.1,0.1
			c0.3,0.9,1.6,1.5,1.6,1.5l-1.9-0.4c0.1,0.1,0.2,0.3,0.3,0.4c0.6,0.6,1.8,1.7,1.8,1.7s-0.8-0.5-1.7-0.8c0,0,0,0,0,0
			c0.5,0.8,2.1,2,2.1,2L15,24.2c0.6,0.9,3.1,2.7,3.1,2.7S15.8,25.9,14.3,25.7z"/>
		<path fill="#A9BF38" d="M10.8,43.4C9.9,45.7,8.6,48,7.1,49H20V37.5C16,37.2,11.7,41.1,10.8,43.4z"/>
		<path fill="#A9BF38" d="M0,45.3c2-0.4,5-1.4,6.4-3c1.9-2.2,4.4-4.2,6.9-5.2C12.1,37,8,36.7,7,36.4v0.2l-0.3,2l0,1.7
			c0,0.7-0.9,0-0.9,0C5.5,40.3,5,40,5,39.7v-1.2l0.1-0.9L5,36.5v-0.4c-1,0-4,0.9-5,1.7V45.3z"/>
		<path fill="#A9BF38" d="M0,35.3v2.2c1-1.1,3.4-2.7,4.1-3.7L0,35.3z"/>
	</g>
	<g>
		<path fill="#2878AA" d="M44,17.1v-5l-2,0V12h-2.2l-0.1-2.8l-0.6,0l-1.5,0.1c0,0-0.1-0.6-0.1-0.7c0-0.1-0.5-0.1-0.5-0.1V6.2V6.1
			c0,0,0-1.5,0-1.7c0-0.1-0.5-0.1-0.5-0.1l0-3.6l0-0.8H34v5h-1V4.9V6l0,0v3l0,0c0,0,0-2,0-2.1s-1.2-0.4-1.2-0.4s0-0.7,0-1
			c0-0.2-1.5-0.4-1.8-0.3C30,5.2,30,5.2,30,5.3v11.9L44,17.1z"/>
		<polygon opacity="0.15" fill="#FFFFFF" enable-background="new    " points="22.6,17.1 22.7,49.3 30,49.3 30,17.1 		"/>
		<path fill="#2878AA" d="M30,17.1V5.3c0,0-0.3-0.1-0.3-0.1L29.6,6H29v2l0,0v8h-1V9.2L26.2,9H24v1l0,0l0,0h-1V9h0.2h0h-0.4h-0.5
			l0.2,8L30,17.1z"/>
		<path opacity="0.15" fill="#FFFFFF" enable-background="new    " d="M30,17.1V5.3c0,0-0.3-0.1-0.3-0.1L29.6,6H29v2l0,0v8h-1V9.2
			L26.2,9H24v1l0,0l0,0h-1V9h0.2h0h-0.4h-0.5l0.2,8L30,17.1z"/>
	</g>
</g>
</svg>
