<?xml version="1.0" standalone="no"?>
<!DOCTYPE svg PUBLIC "-//W3C//DTD SVG 20010904//EN"
 "http://www.w3.org/TR/2001/REC-SVG-20010904/DTD/svg10.dtd">
<svg version="1.0" xmlns="http://www.w3.org/2000/svg"
 width="512.000000pt" height="512.000000pt" viewBox="0 0 512.000000 512.000000"
 preserveAspectRatio="xMidYMid meet">
<metadata>
Created by potrace 1.11, written by Peter Selinger 2001-2013
</metadata>
<g transform="translate(0.000000,512.000000) scale(0.100000,-0.100000)"
fill="#000000" stroke="none">
<path d="M9 5103 c0 -10 -1 -1161 -1 -2558 l0 -2540 2556 -3 2556 -2 0 2560 0
2560 -2555 0 c-2426 0 -2555 -1 -2556 -17z m3130 -756 c12 -4 42 -9 65 -11
132 -17 377 -95 511 -164 134 -69 385 -253 385 -283 0 -11 -259 -359 -299
-402 -39 -42 -76 -58 -137 -58 -57 0 -83 11 -239 108 -162 100 -316 141 -533
141 -262 1 -447 -67 -615 -227 -112 -107 -201 -252 -252 -412 -14 -45 -27 -89
-29 -98 -1 -9 -6 -32 -10 -51 -41 -198 -40 -502 1 -680 8 -36 16 -72 18 -80
22 -96 108 -277 178 -370 66 -89 222 -230 254 -230 6 0 16 -7 23 -15 15 -19
151 -71 238 -91 118 -28 384 -23 527 10 40 9 136 45 168 63 28 16 133 91 204
147 40 31 101 44 147 33 32 -8 60 -30 126 -97 152 -154 270 -281 270 -291 0
-22 -161 -186 -247 -252 -184 -141 -463 -256 -683 -282 -30 -4 -57 -8 -60 -10
-14 -8 -191 -18 -315 -17 -176 1 -224 6 -405 39 -61 10 -152 37 -240 70 -604
225 -991 757 -1067 1466 -10 91 -10 380 0 472 37 349 161 672 356 930 112 147
287 303 456 405 76 46 265 135 311 146 16 4 34 10 39 14 17 13 232 61 333 74
96 13 472 15 521 3z"/>
</g>
</svg>
